<svg xmlns="http://www.w3.org/2000/svg" width="24" height="24" viewBox="0 0 24 24">
  <path d="m0 0h24v24h-24z" fill="none"/>
  <path d="m14.25 5.75c-.6875 0-1.24375.5625-1.24375 1.25l-.00625 10c0 .6875.55625 1.25 1.24375 1.25h7.50625c.6875 0 1.25-.5625 1.25-1.25v-7.5l-3.75-3.75zm-5.56977981 1.43022019.91575059.91575059-.9375.9375-.91575059-.91575059zm-.88388348-.88388348-.9375.9375-.23383671-.23383671h-4.375v10h7.5v-6.875l-.20764574-.20764574.93750004-.9375.5201457.52014574v.625h-1.25v1.25h1.25v1.25h-1.25v1.25h1.25v1.25h-1.25v1.25h1.25v.625c0 .6875-.5625 1.25-1.25 1.25h-.625v-1.25h-1.25v1.25h-1.25v-1.25h-1.25v1.25h-1.25v-1.25h-1.25v1.25h-.63125c-.6875 0-1.24375-.5625-1.24375-1.25l.00039063-.625h1.24960937v-1.25h-1.24882812l.00078124-1.25h1.24804688v-1.25h-1.24726563l.00078125-1.25h1.24648438v-1.25h-1.24570313l.00078125-1.25h1.24492188v-1.25h-1.24414063l.00039063-.625c0-.6875.55625-1.25 1.24375-1.25h.625v1.25h1.25v-1.25h1.25v1.25h1.25v-1.25h.625zm10.82866329 3.82866329v-3.4375l3.4375 3.4375z"/>
</svg>