<svg xmlns="http://www.w3.org/2000/svg" width="24" height="24" viewBox="0 0 24 24">
  <path d="m0 0h24v24h-24z" fill="none"/>
  <path d="m9.66172796 8.5226409 4.24264064-4.24264069 7.0710679 7.07106779-4.2426407 4.2426407c-.3905243.3905243-1.0236893.3905243-1.4142136 0l-5.65685424-5.65685424c-.3905243-.39052429-.3905243-1.02368927 0-1.41421356zm-.70710679 2.1213203 5.65685423 5.6568543-5.01218758 2.5060938c-.38498866.1924943-.84996012.1170398-1.15432038-.1873204l-1.80911966-1.8091197c-.30436026-.3043602-.37981474-.7693317-.18732041-1.1543204zm-2.82842712 7.0710679 1.41421356 1.4142135c-1.31993275 1.0370899-2.14489066 1.3906433-2.47487373 1.0606602-.32998308-.3299831.02357031-1.154941 1.06066017-2.4748737z"/>
</svg>
