<svg width="24" height="24" viewBox="0 0 24 24">
 <g>
    <path id="svg_1" d="m17.49234,4.60611a1.78435,1.76947 0 0 1 1.78435,1.76947l0,7.37868c-0.57099,-0.20349 -1.17767,-0.30081 -1.78435,-0.30081c-2.96203,0 -5.35305,2.37994 -5.35305,5.30841c0,0.60162 0.09813,1.20324 0.30334,1.76947l-7.44075,0a1.78435,1.76947 0 0 1 -1.78435,-1.76947l0,-12.38627a1.78435,1.76947 0 0 1 1.78435,-1.76947l3.7293,0c0.2855,-0.74318 0.85649,-1.3271 1.62376,-1.59252c1.36503,-0.49545 2.89957,0.21234 3.40811,1.59252l3.7293,0m-6.24523,0a0.89218,0.88473 0 0 0 -0.89218,0.88473a0.89218,0.88473 0 0 0 0.89218,0.88473a0.89218,0.88473 0 0 0 0.89218,-0.88473a0.89218,0.88473 0 0 0 -0.89218,-0.88473m-0.89218,12.38627l0,-1.76947l-3.5687,0l0,1.76947l3.5687,0m1.78435,-3.53893l0,-1.76947l-5.35305,0l0,1.76947l5.35305,0m3.5687,-3.53893l0,-1.76947l-8.92176,0l0,1.76947l8.92176,0" fill="#000000"/>
    <path id="svg_5" d="m13.42477,16.73543l0.81528,-1.07835l2.23344,2.95271l3.72308,-4.92116l0.81557,1.07759l-4.53864,6.00029" stroke-linecap="null" stroke-linejoin="null" stroke-dasharray="null" stroke-width="null" fill="#000000"/>
 </g>
</svg>