<svg xmlns="http://www.w3.org/2000/svg" width="24" height="24" viewBox="0 0 24 24">
  <path d="m0 0h24v24h-24z" fill="none"/>
  <path d="m13.9776924 14.3214286h-4.62417584l-.87912088 2.6785714h-2.8043956l4.76483512-13h2.4439561l4.7912088 13h-2.8043956zm-3.9120879-2.1696429h3.2l-1.6087912-4.86607141zm-5.0656045 7.0964872 1.12111398-.9965458c.64744475.7283754 1.1743348 1.0482729 1.53944301 1.0482729.13613334 0 .23785292-.0714786.52575258-.3969304.0283085-.0320322.0283085-.0320322.05777173-.0653362.51294587-.5789528.87737768-.8377334 1.51647569-.8377334.66218591 0 1.01074831.2517395 1.60110261.8912899.3096457.3354496.4110833.4087101.4988974.4087101.087814 0 .1892516-.0732605.4988974-.4087101.5903542-.6395504.9389166-.8912899 1.6011026-.8912899.6621859 0 1.0107483.2517395 1.6011026.8912899.3096457.3354496.4110833.4087101.4988974.4087101.0585427 0 .4615748-.3494243 1.2090963-1.0482729l1.0623779.9965458c-.6113281.6604372-1.6092883 1.5517271-2.2714742 1.5517271-.662186 0-1.0107484-.2517395-1.6011026-.8912899-.3096458-.3354496-.4110834-.4087101-.4988974-.4087101-.0878141 0-.1892517.0732605-.4988974.4087101-.5903543.6395504-.9389167.8912899-1.6011026.8912899-.662186 0-1.0107484-.2517395-1.6011026-.8912899-.30964576-.3354496-.41108337-.4087101-.49889741-.4087101-.06976189 0-.1491155.0563485-.39374653.3324591-.02787011.0315035-.02787011.0315035-.05700605.0644713-.55406463.6263339-.94788076.9030696-1.64924742.9030696-.87606826 0-1.75627761-.5344128-2.66055699-1.5517271z"/>
</svg>
