<svg width="24" height="24" xmlns="http://www.w3.org/2000/svg" xmlns:svg="http://www.w3.org/2000/svg">
 <g>
  <g id="svg_2">
   <path id="svg_1" d="m17.49234,4.60611a1.78435,1.76947 0 0 1 1.78435,1.76947l0,7.37868c-0.57099,-0.20349 -1.17767,-0.30081 -1.78435,-0.30081c-2.96203,0 -5.35305,2.37994 -5.35305,5.30841c0,0.60162 0.09813,1.20324 0.30334,1.76947l-7.44075,0a1.78435,1.76947 0 0 1 -1.78435,-1.76947l0,-12.38627a1.78435,1.76947 0 0 1 1.78435,-1.76947l3.7293,0c0.2855,-0.74318 0.85649,-1.3271 1.62376,-1.59252c1.36503,-0.49545 2.89957,0.21234 3.40811,1.59252l3.7293,0m-6.24523,0a0.89218,0.88473 0 0 0 -0.89218,0.88473a0.89218,0.88473 0 0 0 0.89218,0.88473a0.89218,0.88473 0 0 0 0.89218,-0.88473a0.89218,0.88473 0 0 0 -0.89218,-0.88473m-0.89218,12.38627l0,-1.76947l-3.5687,0l0,1.76947l3.5687,0m1.78435,-3.53893l0,-1.76947l-5.35305,0l0,1.76947l5.35305,0m3.5687,-3.53893l0,-1.76947l-8.92176,0l0,1.76947l8.92176,0" fill="#000000"/>
  </g>
  <path id="svg_8" d="m22.69176,14.61098l-1.39115,-0.47468c-0.35108,-0.11962 -0.81356,-0.06204 -1.03473,0.12854l-0.5484,0.47378l2.66144,0.9074l0.54881,-0.47356c0.22035,-0.19081 0.11511,-0.44209 -0.23597,-0.56149zm-7.71012,4.22098l2.66144,0.9074l4.33789,-3.74876l-2.66267,-0.90762l-4.33666,3.74898zm-0.40657,1.15288l-0.05879,0.85227l1.3891,-0.3988l1.29084,-0.37001l-2.56771,-0.87593l-0.05344,0.79247z" stroke-linecap="null" stroke-linejoin="null" stroke-dasharray="null" stroke-width="null" fill="#000000"/>
 </g>
</svg>