<svg xmlns="http://www.w3.org/2000/svg" width="24" height="24" viewBox="0 0 24 24">
  <path d="m0 0h24v24h-24z" fill="none"/>
  <path d="m9.70864175 17.0129114h12.29135825v2h-12.14119637c-.00132452.0293711-.00277091.0589835-.00433457.0888699-.11198252 2.140328-1.54526173 3.4612105-3.2460842 3.1445917-1.4379189-.2676777-2.36548818-1.5917777-2.25554648-3.2334616h-2.35283838v-2h2.85101727c.48375742-1.3216041 1.16546925-2.3853848 2.02795171-3.2480075-.18264567-.7591819-.33094514-1.4552523-.44245747-2.1059993-.9997212.2428217-2.08194563.3540068-3.23651146.3540068v-2c1.10093119 0 2.10387085-.11329307 3.00514278-.36403478-.067061-1.39749009.10114233-2.64169381.54012175-3.99140074.87824528-2.70029457 2.67433987-4.143459 4.41683292-3.50917134 1.7190901.62576874 2.1426897 2.84674853 1.0095184 5.01231865-.9488917 1.8133989-2.24059781 3.04654081-3.81728229 3.81582451.06790982.4503952.1575239.9279247.26809133 1.4410646.1343057-.0803068.27128125-.1579953.41089297-.2331767.0955675-.0514634.17416199-.0940935.35123288-.1903527.03012452-.0163737.03012452-.0163737.06032177-.0327821 2.53273324-1.3760604 3.63912134-1.7128543 4.87690454-.7320646.4256558.3372795.6993633.7334951.8408663 1.1649785.1573732-.1151393.3108908-.221996.4636277-.3224267 1.5449353-1.015857 2.9140936-1.2813901 4.0466138-.3145683 1.3543316 1.15618 1.1007616 2.8053072-.3680178 4.5663418l-1.535906-1.2810123c.8571484-1.0277023.9280413-1.4887639.6053709-1.7642245-.2529064-.2159039-.7655734-.1164778-1.6492414.4645694-.3820124.2511885-.7916868.5675309-1.2936989.9899347-.1417474.1192693-1.1521636.9929139-1.4170698 1.2079504-.9360832.7598614-2.1683444-.4799627-1.4027696-1.4113791.6859267-.8345146.7958988-1.4729018.4681355-1.7326135-.2727291-.216104-.9839554.0003993-2.6800163.9218869-.0299657.0162827-.0299657.0162827-.0600012.032608-.1779933.0967622-.2593885.1409114-.35809563.1940655-.30441957.163931-.59162724.3413674-.86158259.5349668.28483671 1.1242685.47243846 1.9072203.58864967 2.5326976zm-2.69257941 0h.65153892c-.05070864-.2442087-.11255084-.5178056-.18713872-.8311195-.16893029.2580643-.32374025.5344537-.4644002.8311195zm.84029009 2h-1.49615156c-.10563245.7406814.19047954 1.1883605.61420846 1.2672403.43307507.0806197.82635111-.279308.8819431-1.2672403zm2.54320537-12.77954768c.6348876-1.21331479.4730078-2.0620683.0784308-2.20569892-.4476461-.16294835-1.25839789.48849183-1.83079041 2.24839701-.26955538.82878773-.41470838 1.62140209-.44392294 2.47338461.88768275-.59409074 1.6219516-1.41849581 2.19628255-2.5160827z"/>
</svg>