<svg xmlns="http://www.w3.org/2000/svg" width="24" height="24" viewBox="0 0 24 24">
  <path d="m0 0h24v24h-24z" fill="none"/>
  <path d="m5 2h10l6 6 .0001221 12.0010986v.0001221c-.0000674 1.1045695-.8955526 1.9999454-2.0001221 1.9998779l-13.99502837-.0016511c-1.10430609-.0000674-1.99957281-.8951416-1.99987782-1.9994476l-.00509381-15.9999999c0-1.1.9-2 2-2zm0 2v16h14v-11l-5-5zm1.5 8.5v-6h6l-2.3 2.3 1.8 1.7900002-1.4099998 1.4099998-1.7900002-1.8zm10.9999998-1.0000002v6h-6l2.3-2.3-1.7999998-1.79 1.4099998-1.4099998 1.79 1.7999998z"/>
</svg>