<svg xmlns="http://www.w3.org/2000/svg" width="24" height="24" viewBox="0 0 24 24">
  <path d="m0 0h24v24h-24z" fill="none"/>
  <path d="m6.76 5.30958904-1.8-1.79817351-1.41 1.41643835 1.79 1.79817352zm-2.76 5.68584476h-3v2h3zm9-9.9954338h-2v3h2zm7.45 3.92785388-1.41-1.41643835-1.79 1.79817351 1.41 1.41643836zm-3.21 13.76255712 1.79 1.8082191 1.41-1.4164383-1.8-1.7981735zm2.76-7.6949772v2h3v-2zm-8-4.9954338c-3.31 0-6 2.69-6 6s2.69 6 6 6 6-2.69 6-6-2.69-6-6-6zm-1 17h2v-3h-2zm-7.45-3.9278539 1.41 1.4164384 1.79-1.8082192-1.41-1.4164384z"/>
</svg>