<svg xmlns="http://www.w3.org/2000/svg" width="24" height="24" viewBox="0 0 24 24">
  <path d="m0 0h24v24h-24z" fill="none"/>
  <path d="m10.314997 14.1097181-3.10191769-.0150391c-.14580656-.0010433-.28962115-.0339596-.42136544-.0964422-.49900706-.2366652-.71167717-.8330454-.475012-1.3320524l4.78752513-10.09446718c.0995136-.20982395.2689515-.37847202.4792381-.47700427.5001074-.23433112 1.0954874-.01887692 1.3298186.48123043l4.7618949 10.16279272c.0632461.1349793.0955164.2823905.0944499.4314488-.0039515.5522706-.4548585.9967711-1.0071292.9928196l-3.1442014-.0153416v7.5319189c0 .5515432-.4454773.9970205-.9970206.9970205h-1.3092597c-.5515433 0-.9970206-.4454773-.9970206-.9970205z" transform="matrix(.93969262 -.34202014 .34202014 .93969262 -3.496571 4.846563)"/>
</svg>