<svg xmlns="http://www.w3.org/2000/svg" width="24" height="24" viewBox="0 0 24 24">
  <path d="m0 0h24v24h-24z" fill="none"/>
  <path d="m2.25 5.75h5l3.75 3.75v7.5c0 .6875-.5625 1.25-1.25 1.25h-7.50625c-.6875 0-1.24375-.5625-1.24375-1.25l.00625-10c0-.6875.55625-1.25 1.24375-1.25zm4.375 4.375h3.4375l-3.4375-3.4375zm7.625-4.375h5l3.75 3.75v7.5c0 .6875-.5625 1.25-1.25 1.25h-7.50625c-.6875 0-1.24375-.5625-1.24375-1.25l.00625-10c0-.6875.55625-1.25 1.24375-1.25zm4.375 4.375h3.4375l-3.4375-3.4375z"/>
</svg>