<svg width="157" height="25" viewBox="0 0 157 25" fill="none" xmlns="http://www.w3.org/2000/svg">
<path d="M9.77233 18.12C8.72233 18.12 7.77233 17.89 6.92233 17.43C6.08233 16.96 5.42233 16.32 4.94233 15.51C4.46233 14.69 4.22233 13.77 4.22233 12.75C4.22233 11.73 4.46233 10.815 4.94233 10.005C5.42233 9.185 6.08733 8.545 6.93733 8.085C7.78733 7.615 8.73733 7.38 9.78733 7.38C10.6073 7.38 11.3573 7.52 12.0373 7.8C12.7173 8.07 13.2973 8.475 13.7773 9.015L12.8023 9.96C12.0123 9.13 11.0273 8.715 9.84733 8.715C9.06733 8.715 8.36233 8.89 7.73233 9.24C7.10233 9.59 6.60733 10.075 6.24733 10.695C5.89733 11.305 5.72233 11.99 5.72233 12.75C5.72233 13.51 5.89733 14.2 6.24733 14.82C6.60733 15.43 7.10233 15.91 7.73233 16.26C8.36233 16.61 9.06733 16.785 9.84733 16.785C11.0173 16.785 12.0023 16.365 12.8023 15.525L13.7773 16.47C13.2973 17.01 12.7123 17.42 12.0223 17.7C11.3423 17.98 10.5923 18.12 9.77233 18.12ZM15.7072 6.87H17.1472V18H15.7072V6.87ZM19.8966 10.05H21.3366V18H19.8966V10.05ZM20.6166 8.52C20.3366 8.52 20.1016 8.43 19.9116 8.25C19.7316 8.07 19.6416 7.85 19.6416 7.59C19.6416 7.33 19.7316 7.11 19.9116 6.93C20.1016 6.74 20.3366 6.645 20.6166 6.645C20.8966 6.645 21.1266 6.735 21.3066 6.915C21.4966 7.085 21.5916 7.3 21.5916 7.56C21.5916 7.83 21.4966 8.06 21.3066 8.25C21.1266 8.43 20.8966 8.52 20.6166 8.52ZM27.5511 18.09C26.7411 18.09 26.0161 17.915 25.3761 17.565C24.7461 17.215 24.2511 16.735 23.8911 16.125C23.5311 15.505 23.3511 14.805 23.3511 14.025C23.3511 13.245 23.5311 12.55 23.8911 11.94C24.2511 11.32 24.7461 10.84 25.3761 10.5C26.0161 10.15 26.7411 9.975 27.5511 9.975C28.2711 9.975 28.9111 10.12 29.4711 10.41C30.0411 10.7 30.4811 11.12 30.7911 11.67L29.6961 12.375C29.4461 11.995 29.1361 11.71 28.7661 11.52C28.3961 11.33 27.9861 11.235 27.5361 11.235C27.0161 11.235 26.5461 11.35 26.1261 11.58C25.7161 11.81 25.3911 12.14 25.1511 12.57C24.9211 12.99 24.8061 13.475 24.8061 14.025C24.8061 14.585 24.9211 15.08 25.1511 15.51C25.3911 15.93 25.7161 16.255 26.1261 16.485C26.5461 16.715 27.0161 16.83 27.5361 16.83C27.9861 16.83 28.3961 16.735 28.7661 16.545C29.1361 16.355 29.4461 16.07 29.6961 15.69L30.7911 16.38C30.4811 16.93 30.0411 17.355 29.4711 17.655C28.9111 17.945 28.2711 18.09 27.5511 18.09ZM35.6429 14.295L33.9929 15.825V18H32.5529V6.87H33.9929V14.01L38.3279 10.05H40.0679L36.7229 13.335L40.3979 18H38.6279L35.6429 14.295ZM48.7194 9.975C49.8194 9.975 50.6594 10.245 51.2394 10.785C51.8294 11.325 52.1244 12.13 52.1244 13.2V18H50.7594V16.95C50.5194 17.32 50.1744 17.605 49.7244 17.805C49.2844 17.995 48.7594 18.09 48.1494 18.09C47.2594 18.09 46.5444 17.875 46.0044 17.445C45.4744 17.015 45.2094 16.45 45.2094 15.75C45.2094 15.05 45.4644 14.49 45.9744 14.07C46.4844 13.64 47.2944 13.425 48.4044 13.425H50.6844V13.14C50.6844 12.52 50.5044 12.045 50.1444 11.715C49.7844 11.385 49.2544 11.22 48.5544 11.22C48.0844 11.22 47.6244 11.3 47.1744 11.46C46.7244 11.61 46.3444 11.815 46.0344 12.075L45.4344 10.995C45.8444 10.665 46.3344 10.415 46.9044 10.245C47.4744 10.065 48.0794 9.975 48.7194 9.975ZM48.3894 16.98C48.9394 16.98 49.4144 16.86 49.8144 16.62C50.2144 16.37 50.5044 16.02 50.6844 15.57V14.46H48.4644C47.2444 14.46 46.6344 14.87 46.6344 15.69C46.6344 16.09 46.7894 16.405 47.0994 16.635C47.4094 16.865 47.8394 16.98 48.3894 16.98ZM59.0342 9.975C60.0442 9.975 60.8442 10.27 61.4342 10.86C62.0342 11.44 62.3342 12.295 62.3342 13.425V18H60.8942V13.59C60.8942 12.82 60.7092 12.24 60.3392 11.85C59.9692 11.46 59.4392 11.265 58.7492 11.265C57.9692 11.265 57.3542 11.495 56.9042 11.955C56.4542 12.405 56.2292 13.055 56.2292 13.905V18H54.7892V10.05H56.1692V11.25C56.4592 10.84 56.8492 10.525 57.3392 10.305C57.8392 10.085 58.4042 9.975 59.0342 9.975ZM72.5431 6.87V18H71.1631V16.74C70.8431 17.18 70.4381 17.515 69.9481 17.745C69.4581 17.975 68.9181 18.09 68.3281 18.09C67.5581 18.09 66.8681 17.92 66.2581 17.58C65.6481 17.24 65.1681 16.765 64.8181 16.155C64.4781 15.535 64.3081 14.825 64.3081 14.025C64.3081 13.225 64.4781 12.52 64.8181 11.91C65.1681 11.3 65.6481 10.825 66.2581 10.485C66.8681 10.145 67.5581 9.975 68.3281 9.975C68.8981 9.975 69.4231 10.085 69.9031 10.305C70.3831 10.515 70.7831 10.83 71.1031 11.25V6.87H72.5431ZM68.4481 16.83C68.9481 16.83 69.4031 16.715 69.8131 16.485C70.2231 16.245 70.5431 15.915 70.7731 15.495C71.0031 15.065 71.1181 14.575 71.1181 14.025C71.1181 13.475 71.0031 12.99 70.7731 12.57C70.5431 12.14 70.2231 11.81 69.8131 11.58C69.4031 11.35 68.9481 11.235 68.4481 11.235C67.9381 11.235 67.4781 11.35 67.0681 11.58C66.6681 11.81 66.3481 12.14 66.1081 12.57C65.8781 12.99 65.7631 13.475 65.7631 14.025C65.7631 14.575 65.8781 15.065 66.1081 15.495C66.3481 15.915 66.6681 16.245 67.0681 16.485C67.4781 16.715 67.9381 16.83 68.4481 16.83ZM82.566 18.12C81.776 18.12 81.011 18 80.271 17.76C79.541 17.51 78.966 17.19 78.546 16.8L79.101 15.63C79.501 15.99 80.011 16.285 80.631 16.515C81.261 16.735 81.906 16.845 82.566 16.845C83.436 16.845 84.086 16.7 84.516 16.41C84.946 16.11 85.161 15.715 85.161 15.225C85.161 14.865 85.041 14.575 84.801 14.355C84.571 14.125 84.281 13.95 83.931 13.83C83.591 13.71 83.106 13.575 82.476 13.425C81.686 13.235 81.046 13.045 80.556 12.855C80.076 12.665 79.661 12.375 79.311 11.985C78.971 11.585 78.801 11.05 78.801 10.38C78.801 9.82 78.946 9.315 79.236 8.865C79.536 8.415 79.986 8.055 80.586 7.785C81.186 7.515 81.931 7.38 82.821 7.38C83.441 7.38 84.051 7.46 84.651 7.62C85.251 7.78 85.766 8.01 86.196 8.31L85.701 9.51C85.261 9.23 84.791 9.02 84.291 8.88C83.791 8.73 83.301 8.655 82.821 8.655C81.971 8.655 81.331 8.81 80.901 9.12C80.481 9.43 80.271 9.83 80.271 10.32C80.271 10.68 80.391 10.975 80.631 11.205C80.871 11.425 81.166 11.6 81.516 11.73C81.876 11.85 82.361 11.98 82.971 12.12C83.761 12.31 84.396 12.5 84.876 12.69C85.356 12.88 85.766 13.17 86.106 13.56C86.456 13.95 86.631 14.475 86.631 15.135C86.631 15.685 86.481 16.19 86.181 16.65C85.881 17.1 85.426 17.46 84.816 17.73C84.206 17.99 83.456 18.12 82.566 18.12ZM88.6124 10.05H90.0524V18H88.6124V10.05ZM89.3324 8.52C89.0524 8.52 88.8174 8.43 88.6274 8.25C88.4474 8.07 88.3574 7.85 88.3574 7.59C88.3574 7.33 88.4474 7.11 88.6274 6.93C88.8174 6.74 89.0524 6.645 89.3324 6.645C89.6124 6.645 89.8424 6.735 90.0224 6.915C90.2124 7.085 90.3074 7.3 90.3074 7.56C90.3074 7.83 90.2124 8.06 90.0224 8.25C89.8424 8.43 89.6124 8.52 89.3324 8.52ZM100.407 10.05V16.92C100.407 18.31 100.062 19.335 99.3719 19.995C98.6819 20.665 97.6519 21 96.2819 21C95.5319 21 94.8169 20.895 94.1369 20.685C93.4569 20.485 92.9069 20.195 92.4869 19.815L93.1769 18.705C93.5469 19.025 94.0019 19.275 94.5419 19.455C95.0919 19.645 95.6569 19.74 96.2369 19.74C97.1669 19.74 97.8519 19.52 98.2919 19.08C98.7419 18.64 98.9669 17.97 98.9669 17.07V16.44C98.6269 16.85 98.2069 17.16 97.7069 17.37C97.2169 17.57 96.6819 17.67 96.1019 17.67C95.3419 17.67 94.6519 17.51 94.0319 17.19C93.4219 16.86 92.9419 16.405 92.5919 15.825C92.2419 15.235 92.0669 14.565 92.0669 13.815C92.0669 13.065 92.2419 12.4 92.5919 11.82C92.9419 11.23 93.4219 10.775 94.0319 10.455C94.6519 10.135 95.3419 9.975 96.1019 9.975C96.7019 9.975 97.2569 10.085 97.7669 10.305C98.2869 10.525 98.7119 10.85 99.0419 11.28V10.05H100.407ZM96.2669 16.41C96.7869 16.41 97.2519 16.3 97.6619 16.08C98.0819 15.86 98.4069 15.555 98.6369 15.165C98.8769 14.765 98.9969 14.315 98.9969 13.815C98.9969 13.045 98.7419 12.425 98.2319 11.955C97.7219 11.475 97.0669 11.235 96.2669 11.235C95.4569 11.235 94.7969 11.475 94.2869 11.955C93.7769 12.425 93.5219 13.045 93.5219 13.815C93.5219 14.315 93.6369 14.765 93.8669 15.165C94.1069 15.555 94.4319 15.86 94.8419 16.08C95.2619 16.3 95.7369 16.41 96.2669 16.41ZM107.403 9.975C108.413 9.975 109.213 10.27 109.803 10.86C110.403 11.44 110.703 12.295 110.703 13.425V18H109.263V13.59C109.263 12.82 109.078 12.24 108.708 11.85C108.338 11.46 107.808 11.265 107.118 11.265C106.338 11.265 105.723 11.495 105.273 11.955C104.823 12.405 104.598 13.055 104.598 13.905V18H103.158V10.05H104.538V11.25C104.828 10.84 105.218 10.525 105.708 10.305C106.208 10.085 106.773 9.975 107.403 9.975ZM126.637 7.5V18H125.137V13.32H119.107V18H117.607V7.5H119.107V12.015H125.137V7.5H126.637ZM136.754 14.07C136.754 14.18 136.744 14.325 136.724 14.505H130.274C130.364 15.205 130.669 15.77 131.189 16.2C131.719 16.62 132.374 16.83 133.154 16.83C134.104 16.83 134.869 16.51 135.449 15.87L136.244 16.8C135.884 17.22 135.434 17.54 134.894 17.76C134.364 17.98 133.769 18.09 133.109 18.09C132.269 18.09 131.524 17.92 130.874 17.58C130.224 17.23 129.719 16.745 129.359 16.125C129.009 15.505 128.834 14.805 128.834 14.025C128.834 13.255 129.004 12.56 129.344 11.94C129.694 11.32 130.169 10.84 130.769 10.5C131.379 10.15 132.064 9.975 132.824 9.975C133.584 9.975 134.259 10.15 134.849 10.5C135.449 10.84 135.914 11.32 136.244 11.94C136.584 12.56 136.754 13.27 136.754 14.07ZM132.824 11.19C132.134 11.19 131.554 11.4 131.084 11.82C130.624 12.24 130.354 12.79 130.274 13.47H135.374C135.294 12.8 135.019 12.255 134.549 11.835C134.089 11.405 133.514 11.19 132.824 11.19ZM140.134 11.385C140.384 10.925 140.754 10.575 141.244 10.335C141.734 10.095 142.329 9.975 143.029 9.975V11.37C142.949 11.36 142.839 11.355 142.699 11.355C141.919 11.355 141.304 11.59 140.854 12.06C140.414 12.52 140.194 13.18 140.194 14.04V18H138.754V10.05H140.134V11.385ZM151.916 14.07C151.916 14.18 151.906 14.325 151.886 14.505H145.436C145.526 15.205 145.831 15.77 146.351 16.2C146.881 16.62 147.536 16.83 148.316 16.83C149.266 16.83 150.031 16.51 150.611 15.87L151.406 16.8C151.046 17.22 150.596 17.54 150.056 17.76C149.526 17.98 148.931 18.09 148.271 18.09C147.431 18.09 146.686 17.92 146.036 17.58C145.386 17.23 144.881 16.745 144.521 16.125C144.171 15.505 143.996 14.805 143.996 14.025C143.996 13.255 144.166 12.56 144.506 11.94C144.856 11.32 145.331 10.84 145.931 10.5C146.541 10.15 147.226 9.975 147.986 9.975C148.746 9.975 149.421 10.15 150.011 10.5C150.611 10.84 151.076 11.32 151.406 11.94C151.746 12.56 151.916 13.27 151.916 14.07ZM147.986 11.19C147.296 11.19 146.716 11.4 146.246 11.82C145.786 12.24 145.516 12.79 145.436 13.47H150.536C150.456 12.8 150.181 12.255 149.711 11.835C149.251 11.405 148.676 11.19 147.986 11.19Z" fill="#E98234"/>
</svg>
