<svg width="14" height="14" viewBox="0 0 14 14" fill="none" xmlns="http://www.w3.org/2000/svg">
<path d="M12.5008 3.36876V2.90083C12.5008 2.12643 11.8745 1.50252 11.0998 1.50252H10.174L11.0242 2.97472L12.4981 3.36876H12.5008ZM11.0269 2.97472L9.71509 0.700749C9.32909 0.0303243 8.47341 -0.199535 7.80398 0.189037L2.97494 2.97472L6.25729 0.221874L6.2006 0.189037C5.53118 -0.196799 4.6755 0.0330607 4.2895 0.700749L2.97764 2.97472L3.37174 1.50252H2.90206C2.13006 1.50252 1.50113 2.12916 1.50113 2.90083V3.82575L0.699435 4.2882C0.0300095 4.67404 -0.199431 5.53054 0.189268 6.19823L2.97494 11.0253L0.22166 7.74431L0.189268 7.80177C-0.196731 8.4722 0.0327088 9.3287 0.702134 9.71453L2.97764 11.028L1.50383 10.634V11.1019C1.50383 11.8736 2.13006 12.5002 2.90476 12.5002H3.83062L2.98034 11.028V2.97472H11.0323H11.0269ZM2.97494 11.0253L4.2868 13.2993C4.6728 13.9697 5.52848 14.1995 6.1979 13.811L11.0242 11.0253H2.97494ZM13.8126 6.19823C14.1986 5.5278 13.9692 4.67404 13.2998 4.28547L11.0242 2.97198V11.0225L7.7419 13.7754L7.79859 13.8082C8.46801 14.1941 9.32369 13.9669 9.70969 13.2965L11.0215 11.0225L10.6274 12.4947H11.0971C11.8691 12.4947 12.4981 11.8681 12.4981 11.0964V10.1715L12.0581 10.426L13.2971 9.7118C13.9665 9.32596 14.1959 8.46946 13.8099 7.79904L11.0242 2.97198L13.7775 6.25296L13.8099 6.19549L13.8126 6.19823Z" fill="#0206A8"/>
</svg>
