<svg enable-background="new 0 0 512 512" height="512" viewBox="0 0 512 512" width="512" xmlns="http://www.w3.org/2000/svg"><path d="m147.318 43.031c0-23.728-19.305-43.031-43.034-43.031h-61.25c-23.729 0-43.034 19.303-43.034 43.031v8.156h53.942c8.287 0 15.005 6.716 15.005 15s-6.718 15-15.005 15h-53.942v20.26h73.58c8.287 0 15.005 6.716 15.005 15s-6.718 15-15.005 15h-73.58v20.26h53.942c8.287 0 15.005 6.716 15.005 15s-6.718 15-15.005 15h-53.942v20.26h73.58c8.287 0 15.005 6.716 15.005 15s-6.718 15-15.005 15h-73.58v20.26h53.942c8.287 0 15.005 6.716 15.005 15s-6.718 15-15.005 15h-53.942v20.26h73.58c8.287 0 15.005 6.716 15.005 15s-6.718 15-15.005 15h-73.58v19.273h53.942c8.287 0 15.005 6.716 15.005 15s-6.718 15-15.005 15h-53.942v108.714l147.318-147.322z"/><path d="m468.965 364.376h-300.435l-147.621 147.624 104.797-.069v-54.182c0-8.284 6.718-15 15.005-15s15.005 6.716 15.005 15v54.163l20.25-.013v-73.788c0-8.284 6.718-15 15.005-15s15.005 6.716 15.005 15v73.768l20.25-.013v-54.116c0-8.284 6.718-15 15.005-15s15.005 6.716 15.005 15v54.097l20.249-.013v-73.722c0-8.284 6.718-15 15.005-15s15.005 6.716 15.005 15v73.702l20.25-.013v-54.051c0-8.284 6.718-15 15.005-15s15.005 6.716 15.005 15v54.031l20.25-.013v-73.656c0-8.284 6.718-15 15.005-15s15.005 6.716 15.005 15v73.636l19.262-.013v-53.985c0-8.284 6.718-15 15.005-15s15.005 6.716 15.005 15v53.966l12.711-.008c23.709-.017 43.002-19.321 43.002-43.032v-61.269c0-23.728-19.305-43.031-43.035-43.031z"/></svg>