<svg width="26" height="26" viewBox="0 0 26 26" fill="none" xmlns="http://www.w3.org/2000/svg">
<path d="M14.4137 24.375L13 23.5625L16.25 17.875H21.125C21.556 17.875 21.9693 17.7038 22.274 17.399C22.5788 17.0943 22.75 16.681 22.75 16.25V6.5C22.75 6.06902 22.5788 5.6557 22.274 5.35095C21.9693 5.0462 21.556 4.875 21.125 4.875H4.875C4.44402 4.875 4.0307 5.0462 3.72595 5.35095C3.4212 5.6557 3.25 6.06902 3.25 6.5V16.25C3.25 16.681 3.4212 17.0943 3.72595 17.399C4.0307 17.7038 4.44402 17.875 4.875 17.875H12.1875V19.5H4.875C4.01305 19.5 3.1864 19.1576 2.5769 18.5481C1.96741 17.9386 1.625 17.112 1.625 16.25V6.5C1.625 5.63805 1.96741 4.8114 2.5769 4.2019C3.1864 3.59241 4.01305 3.25 4.875 3.25H21.125C21.987 3.25 22.8136 3.59241 23.4231 4.2019C24.0326 4.8114 24.375 5.63805 24.375 6.5V16.25C24.375 17.112 24.0326 17.9386 23.4231 18.5481C22.8136 19.1576 21.987 19.5 21.125 19.5H17.1925L14.4137 24.375Z" fill="#E98234"/>
<path d="M13.8125 7.3125H12.1875V10.5625H8.9375V12.1875H12.1875V15.4375H13.8125V12.1875H17.0625V10.5625H13.8125V7.3125Z" fill="#E98234"/>
</svg>
