<?xml version="1.0" encoding="UTF-8"?>
<svg width="16px" height="16px" viewBox="0 0 16 16" version="1.1" xmlns="http://www.w3.org/2000/svg" xmlns:xlink="http://www.w3.org/1999/xlink">
    <title>715F3224-4AF6-4D83-A726-4ED332A6C28F@3x</title>
    <g id="Icons" stroke="none" stroke-width="1" fill="none" fill-rule="evenodd">
        <g id="Status-Icons" transform="translate(-52.000000, -4.000000)">
            <g id="Icon---Valid-signature" transform="translate(48.000000, 0.000000)">
                <rect id="Rectangle" fill="#FFFFFF" opacity="0" x="0" y="0" width="24" height="24"></rect>
                <g id="circle-check" transform="translate(4.000000, 4.000000)">
                    <circle id="Oval" fill="#D75757" cx="8" cy="8" r="8"></circle>
                    <g id="icon-/-operation-/-close" fill="#FFFFFF">
                        <path d="M10.8133333,4.18666667 L8,7 L5.18666667,4.18666667 C5.08297506,4.08502857 4.91702494,4.08502857 4.81333333,4.18666667 L4.18666667,4.81333333 C4.08502857,4.91702494 4.08502857,5.08297506 4.18666667,5.18666667 L7,8 L4.18666667,10.8133333 C4.08502857,10.9170249 4.08502857,11.0829751 4.18666667,11.1866667 L4.81333333,11.8133333 C4.91702494,11.9149714 5.08297506,11.9149714 5.18666667,11.8133333 L8,9 L10.8133333,11.8133333 C10.9170249,11.9149714 11.0829751,11.9149714 11.1866667,11.8133333 L11.8133333,11.1866667 C11.9149714,11.0829751 11.9149714,10.9170249 11.8133333,10.8133333 L9,8 L11.8133333,5.18666667 C11.9149714,5.08297506 11.9149714,4.91702494 11.8133333,4.81333333 L11.1866667,4.18666667 C11.0829751,4.08502857 10.9170249,4.08502857 10.8133333,4.18666667 Z" id="Path"></path>
                    </g>
                </g>
            </g>
        </g>
    </g>
</svg>
