<svg xmlns="http://www.w3.org/2000/svg" width="24" height="24" viewBox="0 0 24 24" fill="none">
  <path fill-rule="evenodd" clip-rule="evenodd" d="M6.79386 13C6.65289 13.7907 6.53267 14.5451 6.42109 15.2453C6.41506 15.2831 6.40907 15.3207 6.4031 15.3582C6.22983 16.445 6.07887 17.3777 5.90061 18.1501C5.71832 18.9401 5.53058 19.451 5.33541 19.7488C5.17368 19.9957 5.08127 20 5 20C4.73478 20 4.48043 19.8946 4.29289 19.7071C4.10536 19.5196 4 19.2652 4 19C4 18.4477 3.55228 18 3 18C2.44772 18 2 18.4477 2 19C2 19.7957 2.31607 20.5587 2.87868 21.1213C3.44129 21.6839 4.20435 22 5 22C5.91873 22 6.57632 21.5043 7.00834 20.8449C7.40692 20.2365 7.65668 19.4349 7.84939 18.5999C8.04613 17.7473 8.20767 16.7425 8.37815 15.6731L8.39449 15.5706C8.52402 14.7578 8.66118 13.8972 8.82639 13H11C11.5523 13 12 12.5523 12 12C12 11.4477 11.5523 11 11 11H9.20614C9.34711 10.2093 9.46733 9.45487 9.57892 8.75467C9.58494 8.71689 9.59093 8.67927 9.5969 8.64181C9.77017 7.55496 9.92113 6.62234 10.0994 5.84986C10.2817 5.05995 10.4694 4.54903 10.6646 4.25115C10.8263 4.00429 10.9187 4 11 4C11.2652 4 11.5196 4.10536 11.7071 4.29289C11.8946 4.48043 12 4.73478 12 5C12 5.55228 12.4477 6 13 6C13.5523 6 14 5.55228 14 5C14 4.20435 13.6839 3.44129 13.1213 2.87868C12.5587 2.31607 11.7956 2 11 2C10.0813 2 9.42368 2.49571 8.99166 3.1551C8.59308 3.76347 8.34332 4.56505 8.15061 5.40014C7.95387 6.25266 7.79233 7.25754 7.62185 8.32694C7.61641 8.36102 7.61097 8.39519 7.60551 8.42944C7.47598 9.24219 7.33882 10.1028 7.17361 11H5C4.44772 11 4 11.4477 4 12C4 12.5523 4.44772 13 5 13H6.79386ZM14.2929 11.2929C14.6834 10.9024 15.3166 10.9024 15.7071 11.2929L18 13.5858L20.2929 11.2929C20.6834 10.9024 21.3166 10.9024 21.7071 11.2929C22.0976 11.6834 22.0976 12.3166 21.7071 12.7071L19.4142 15L21.7071 17.2929C22.0976 17.6834 22.0976 18.3166 21.7071 18.7071C21.3166 19.0976 20.6834 19.0976 20.2929 18.7071L18 16.4142L15.7071 18.7071C15.3166 19.0976 14.6834 19.0976 14.2929 18.7071C13.9024 18.3166 13.9024 17.6834 14.2929 17.2929L16.5858 15L14.2929 12.7071C13.9024 12.3166 13.9024 11.6834 14.2929 11.2929Z"/>
</svg>