<svg width="21" height="20" viewBox="0 0 21 20" fill="none" xmlns="http://www.w3.org/2000/svg">
<path fill-rule="evenodd" clip-rule="evenodd" d="M9.15265 11.4646V14.5C9.15265 15.0523 9.59443 15.5 10.1394 15.5H15.073C15.618 15.5 16.0597 15.0523 16.0597 14.5V9.5C16.0597 8.94772 15.618 8.5 15.073 8.5H12.0779C12.1009 8.3367 12.1128 8.16976 12.1128 8C12.1128 6.067 10.5666 4.5 8.65929 4.5C6.75195 4.5 5.20575 6.067 5.20575 8C5.20575 9.933 6.75195 11.5 8.65929 11.5C8.8268 11.5 8.99152 11.4879 9.15265 11.4646ZM10.6327 14H14.5796V10H10.6327V14Z" fill="#868E96"/>
<path fill-rule="evenodd" clip-rule="evenodd" d="M1.75221 3.86222C1.01904 3.57034 0.5 2.8466 0.5 2C0.5 0.895431 1.38354 0 2.47345 0C3.20391 0 3.84167 0.402199 4.18289 1H16.8171C17.1583 0.402199 17.7961 0 18.5265 0C19.6165 0 20.5 0.895431 20.5 2C20.5 2.74028 20.1031 3.38663 19.5133 3.73244V16.2676C20.1031 16.6134 20.5 17.2597 20.5 18C20.5 19.1046 19.6165 20 18.5265 20C17.7961 20 17.1583 19.5978 16.8171 19H4.18289C3.84167 19.5978 3.20391 20 2.47345 20C1.38354 20 0.5 19.1046 0.5 18C0.5 17.1534 1.01904 16.4297 1.75221 16.1378V3.86222ZM4.38473 17.5C4.22972 16.8896 3.79755 16.392 3.2323 16.1532V3.84679C3.79755 3.60796 4.22972 3.11036 4.38473 2.5H16.6153C16.7938 3.2028 17.3397 3.7561 18.0332 3.93699V16.063C17.3397 16.2439 16.7938 16.7972 16.6153 17.5H4.38473Z" fill="#868E96"/>
</svg>
