<svg width="28" height="28" viewBox="0 0 28 28" fill="none" xmlns="http://www.w3.org/2000/svg">
<path d="M21 5H23V24H21V5Z" fill="#868E96"/>
<path fill-rule="evenodd" clip-rule="evenodd" d="M5.5 7C5.22386 7 5 7.22386 5 7.5V12.5C5 12.7761 5.22386 13 5.5 13H18.5C18.7761 13 19 12.7761 19 12.5V7.5C19 7.22386 18.7761 7 18.5 7H5.5ZM6.75 8.75V11.25H17.25V8.75H6.75Z" fill="#868E96"/>
<path fill-rule="evenodd" clip-rule="evenodd" d="M10 15.5C10 15.2239 10.2239 15 10.5 15H18.5C18.7761 15 19 15.2239 19 15.5V20.5C19 20.7761 18.7761 21 18.5 21H10.5C10.2239 21 10 20.7761 10 20.5V15.5ZM11.75 19.25V16.75H17.25V19.25H11.75Z" fill="#868E96"/>
</svg>
