<svg width="24" height="24" viewBox="0 0 24 24" fill="none" xmlns="http://www.w3.org/2000/svg">
<path d="M11.25 6L11.25 2.75C11.25 2.33579 11.5858 2 12 2C12.4142 2 12.75 2.33579 12.75 2.75L12.75 6H15.5L12 11L8.5 6H11.25Z" fill="#868E96"/>
<path d="M12 13L15.5 18H12.75V21.25C12.75 21.6642 12.4142 22 12 22C11.5858 22 11.25 21.6642 11.25 21.25V18H8.5L12 13Z" fill="#868E96"/>
<path d="M3.75 11.25C3.33579 11.25 3 11.5858 3 12C3 12.4142 3.33579 12.75 3.75 12.75L20.25 12.75C20.6642 12.75 21 12.4142 21 12C21 11.5858 20.6642 11.25 20.25 11.25L3.75 11.25Z" fill="#868E96"/>
</svg>
