<svg version="1.1" id="Layer_1" xmlns="http://www.w3.org/2000/svg" xmlns:xlink="http://www.w3.org/1999/xlink" x="0px" y="0px"
viewBox="0 0 24 24" style="enable-background:new 0 0 24 24;" xml:space="preserve">
<style type="text/css">
.st0{fill:none;}
</style>
<path d="M3.5,15h-1C2.2239,15,2,14.7313,2,14.4V9.6C2,9.2687,2.2239,9,2.5,9h1C3.7761,9,4,9.2687,4,9.6v4.8
C4,14.7313,3.7761,15,3.5,15z"/>
<path d="M8,18.5H7c-0.2761,0-0.5-0.2646-0.5-0.5909V6.0909C6.5,5.7646,6.7239,5.5,7,5.5h1c0.2761,0,0.5,0.2646,0.5,0.5909v11.8182
C8.5,18.2354,8.2761,18.5,8,18.5z"/>
<path d="M12.5,21h-1c-0.2761,0-0.5-0.2687-0.5-0.6V3.6C11,3.2687,11.2239,3,11.5,3h1C12.7761,3,13,3.2687,13,3.6v16.8
C13,20.7313,12.7761,21,12.5,21z"/>
<path d="M17.5,11h-2V6c0-0.2761,0.2239-0.5,0.5-0.5h1c0.2761,0,0.5,0.2239,0.5,0.5V11z"/>
<path d="M22,11h-2V9.5C20,9.2239,20.2239,9,20.5,9h1C21.7761,9,22,9.2239,22,9.5V11z"/>
<g>
<path d="M20.4292,19.4717l-4.9009-4.9009c-0.2087-0.2087-0.2087-0.5472,0-0.7559l0.6583-0.6583
  c0.2087-0.2087,0.5472-0.2087,0.7559,0l4.9009,4.9009c0.2087,0.2087,0.2087,0.5472,0,0.7559l-0.6583,0.6583
  C20.9764,19.6804,20.638,19.6804,20.4292,19.4717z"/>
<path d="M16.9425,19.4717l4.9009-4.9009c0.2087-0.2087,0.2087-0.5472,0-0.7559l-0.6583-0.6583
  c-0.2087-0.2087-0.5472-0.2087-0.7559,0l-4.9009,4.9009c-0.2087,0.2087-0.2087,0.5472,0,0.7559l0.6583,0.6583
  C16.3953,19.6804,16.7338,19.6804,16.9425,19.4717z"/>
</g>
</svg>