<svg width="28" height="28" viewBox="0 0 28 28" fill="none" xmlns="http://www.w3.org/2000/svg">
<path fill-rule="evenodd" clip-rule="evenodd" d="M13 4H15V7H20.5C20.7761 7 21 7.22386 21 7.5V12.5C21 12.7761 20.7761 13 20.5 13H15V15H19.5C19.7761 15 20 15.2239 20 15.5V20.5C20 20.7761 19.7761 21 19.5 21H15V24H13V21H8.5C8.22386 21 8 20.7761 8 20.5V15.5C8 15.2239 8.22386 15 8.5 15H13V13H7.5C7.22386 13 7 12.7761 7 12.5V7.5C7 7.22386 7.22386 7 7.5 7H13V4ZM8.75 8.75V11.25H19.25V8.75H8.75ZM9.75 19.25V16.75H18.25V19.25H9.75Z" fill="#868E96"/>
</svg>
