<svg width="28" height="28" viewBox="0 0 28 28" fill="none" xmlns="http://www.w3.org/2000/svg">
<path fill-rule="evenodd" clip-rule="evenodd" d="M8.75 6.75V17.25H11.25V6.75H8.75ZM7.5 5C7.22386 5 7 5.22386 7 5.5V18.5C7 18.7761 7.22386 19 7.5 19H12.5C12.7761 19 13 18.7761 13 18.5V5.5C13 5.22386 12.7761 5 12.5 5H7.5Z" fill="#868E96"/>
<path fill-rule="evenodd" clip-rule="evenodd" d="M16.75 11.75V17.25H19.25V11.75H16.75ZM15.5 10C15.2239 10 15 10.2239 15 10.5V18.5C15 18.7761 15.2239 19 15.5 19H20.5C20.7761 19 21 18.7761 21 18.5V10.5C21 10.2239 20.7761 10 20.5 10H15.5Z" fill="#868E96"/>
<path fill-rule="evenodd" clip-rule="evenodd" d="M23 23H5V21H23V23Z" fill="#868E96"/>
</svg>
