<svg width="28" height="28" viewBox="0 0 28 28" fill="none" xmlns="http://www.w3.org/2000/svg">
<path d="M5 5H7V24H5V5Z" fill="#868E96"/>
<path fill-rule="evenodd" clip-rule="evenodd" d="M9.5 7C9.22386 7 9 7.22386 9 7.5V12.5C9 12.7761 9.22386 13 9.5 13H22.5C22.7761 13 23 12.7761 23 12.5V7.5C23 7.22386 22.7761 7 22.5 7H9.5ZM10.75 8.75V11.25H21.25V8.75H10.75Z" fill="#868E96"/>
<path fill-rule="evenodd" clip-rule="evenodd" d="M9 15.5C9 15.2239 9.22386 15 9.5 15H17.5C17.7761 15 18 15.2239 18 15.5V20.5C18 20.7761 17.7761 21 17.5 21H9.5C9.22386 21 9 20.7761 9 20.5V15.5ZM10.75 19.25V16.75H16.25V19.25H10.75Z" fill="#868E96"/>
</svg>
