<svg width="28" height="28" viewBox="0 0 28 28" fill="none" xmlns="http://www.w3.org/2000/svg">
<path fill-rule="evenodd" clip-rule="evenodd" d="M16.75 10.75V16.25H19.25V10.75H16.75ZM15.5 9C15.2239 9 15 9.22386 15 9.5V17.5C15 17.7761 15.2239 18 15.5 18H20.5C20.7761 18 21 17.7761 21 17.5V9.5C21 9.22386 20.7761 9 20.5 9H15.5Z" fill="#868E96"/>
<path fill-rule="evenodd" clip-rule="evenodd" d="M8.75 10.75V21.25H11.25V10.75H8.75ZM7.5 9C7.22386 9 7 9.22386 7 9.5V22.5C7 22.7761 7.22386 23 7.5 23H12.5C12.7761 23 13 22.7761 13 22.5V9.5C13 9.22386 12.7761 9 12.5 9H7.5Z" fill="#868E96"/>
<path fill-rule="evenodd" clip-rule="evenodd" d="M23 7H5V5H23V7Z" fill="#868E96"/>
</svg>
