<svg width="28" height="28" viewBox="0 0 28 28" fill="none" xmlns="http://www.w3.org/2000/svg">
<path fill-rule="evenodd" clip-rule="evenodd" d="M7 15H4V13H7V15Z" fill="#868E96"/>
<path fill-rule="evenodd" clip-rule="evenodd" d="M24 15H21V13H24V15Z" fill="#868E96"/>
<path fill-rule="evenodd" clip-rule="evenodd" d="M15 15H13V13H15V15Z" fill="#868E96"/>
<path fill-rule="evenodd" clip-rule="evenodd" d="M16.75 10.3333V17.6667H19.25V10.3333H16.75ZM15.5 8C15.2239 8 15 8.29848 15 8.66667V19.3333C15 19.7015 15.2239 20 15.5 20H20.5C20.7761 20 21 19.7015 21 19.3333V8.66667C21 8.29848 20.7761 8 20.5 8H15.5Z" fill="#868E96"/>
<path fill-rule="evenodd" clip-rule="evenodd" d="M8.75 8.75V19.25H11.25V8.75H8.75ZM7.5 7C7.22386 7 7 7.22386 7 7.5V20.5C7 20.7761 7.22386 21 7.5 21H12.5C12.7761 21 13 20.7761 13 20.5V7.5C13 7.22386 12.7761 7 12.5 7H7.5Z" fill="#868E96"/>
</svg>
