<svg width="24" height="24" viewBox="0 0 24 24" fill="none" xmlns="http://www.w3.org/2000/svg">
<path fill-rule="evenodd" clip-rule="evenodd" d="M7 4C7 3.44772 7.44772 3 8 3H16C16.5523 3 17 3.44772 17 4C17 4.55228 16.5523 5 16 5H8C7.44772 5 7 4.55228 7 4ZM4 7C4.55228 7 5 7.44772 5 8V16C5 16.5523 4.55228 17 4 17C3.44772 17 3 16.5523 3 16V8C3 7.44772 3.44772 7 4 7ZM20 7C20.5523 7 21 7.44772 21 8V16C21 16.5523 20.5523 17 20 17C19.4477 17 19 16.5523 19 16V8C19 7.44772 19.4477 7 20 7ZM7 20C7 19.4477 7.44772 19 8 19H16C16.5523 19 17 19.4477 17 20C17 20.5523 16.5523 21 16 21H8C7.44772 21 7 20.5523 7 20Z" fill="black"/>
</svg>
