<svg width="24" height="24" viewBox="0 0 24 24" fill="none" xmlns="http://www.w3.org/2000/svg">
<path fill-rule="evenodd" clip-rule="evenodd" d="M3 4C3 3.44772 3.44772 3 4 3H20C20.5523 3 21 3.44772 21 4C21 4.55228 20.5523 5 20 5H4C3.44772 5 3 4.55228 3 4ZM4 7C4.55228 7 5 7.44772 5 8V8.01C5 8.56228 4.55228 9.01 4 9.01C3.44772 9.01 3 8.56228 3 8.01V8C3 7.44772 3.44772 7 4 7ZM12 7C12.5523 7 13 7.44772 13 8V8.01C13 8.56228 12.5523 9.01 12 9.01C11.4477 9.01 11 8.56228 11 8.01V8C11 7.44772 11.4477 7 12 7ZM20 7C20.5523 7 21 7.44772 21 8V8.01C21 8.56228 20.5523 9.01 20 9.01C19.4477 9.01 19 8.56228 19 8.01V8C19 7.44772 19.4477 7 20 7ZM4 11C4.55228 11 5 11.4477 5 12V12.01C5 12.5623 4.55228 13.01 4 13.01C3.44772 13.01 3 12.5623 3 12.01V12C3 11.4477 3.44772 11 4 11ZM8 11C8.55228 11 9 11.4477 9 12V12.01C9 12.5623 8.55228 13.01 8 13.01C7.44772 13.01 7 12.5623 7 12.01V12C7 11.4477 7.44772 11 8 11ZM12 11C12.5523 11 13 11.4477 13 12V12.01C13 12.5623 12.5523 13.01 12 13.01C11.4477 13.01 11 12.5623 11 12.01V12C11 11.4477 11.4477 11 12 11ZM16 11C16.5523 11 17 11.4477 17 12V12.01C17 12.5623 16.5523 13.01 16 13.01C15.4477 13.01 15 12.5623 15 12.01V12C15 11.4477 15.4477 11 16 11ZM20 11C20.5523 11 21 11.4477 21 12V12.01C21 12.5623 20.5523 13.01 20 13.01C19.4477 13.01 19 12.5623 19 12.01V12C19 11.4477 19.4477 11 20 11ZM4 15C4.55228 15 5 15.4477 5 16V16.01C5 16.5623 4.55228 17.01 4 17.01C3.44772 17.01 3 16.5623 3 16.01V16C3 15.4477 3.44772 15 4 15ZM12 15C12.5523 15 13 15.4477 13 16V16.01C13 16.5623 12.5523 17.01 12 17.01C11.4477 17.01 11 16.5623 11 16.01V16C11 15.4477 11.4477 15 12 15ZM20 15C20.5523 15 21 15.4477 21 16V16.01C21 16.5623 20.5523 17.01 20 17.01C19.4477 17.01 19 16.5623 19 16.01V16C19 15.4477 19.4477 15 20 15ZM4 19C4.55228 19 5 19.4477 5 20V20.01C5 20.5623 4.55228 21.01 4 21.01C3.44772 21.01 3 20.5623 3 20.01V20C3 19.4477 3.44772 19 4 19ZM8 19C8.55228 19 9 19.4477 9 20V20.01C9 20.5623 8.55228 21.01 8 21.01C7.44772 21.01 7 20.5623 7 20.01V20C7 19.4477 7.44772 19 8 19ZM12 19C12.5523 19 13 19.4477 13 20V20.01C13 20.5623 12.5523 21.01 12 21.01C11.4477 21.01 11 20.5623 11 20.01V20C11 19.4477 11.4477 19 12 19ZM16 19C16.5523 19 17 19.4477 17 20V20.01C17 20.5623 16.5523 21.01 16 21.01C15.4477 21.01 15 20.5623 15 20.01V20C15 19.4477 15.4477 19 16 19ZM20 19C20.5523 19 21 19.4477 21 20V20.01C21 20.5623 20.5523 21.01 20 21.01C19.4477 21.01 19 20.5623 19 20.01V20C19 19.4477 19.4477 19 20 19Z" fill="black"/>
</svg>
