<svg width="24" height="24" viewBox="0 0 24 24" fill="none" xmlns="http://www.w3.org/2000/svg">
<path d="M20 5.00002C19.7348 5.00002 19.4804 4.89466 19.2929 4.70712C19.1054 4.51959 19 4.26523 19 4.00002C18.9966 3.86884 19.024 3.7387 19.08 3.62002C19.1306 3.49883 19.2017 3.38722 19.29 3.29002C19.3851 3.19898 19.4972 3.12761 19.62 3.08002C19.8021 3.00344 20.0028 2.98252 20.1968 3.01989C20.3908 3.05726 20.5694 3.15126 20.71 3.29002C20.7983 3.38722 20.8694 3.49883 20.92 3.62002C20.9712 3.74024 20.9984 3.86934 21 4.00002C21 4.26523 20.8946 4.51959 20.7071 4.70712C20.5196 4.89466 20.2652 5.00002 20 5.00002Z" fill="default"/>
<path d="M19 12C19 11.7348 19.1054 11.4804 19.2929 11.2929C19.4804 11.1054 19.7348 11 20 11C20.2652 11 20.5196 11.1054 20.7071 11.2929C20.8946 11.4804 21 11.7348 21 12C21 12.2652 20.8946 12.5196 20.7071 12.7071C20.5196 12.8947 20.2652 13 20 13C19.7348 13 19.4804 12.8947 19.2929 12.7071C19.1054 12.5196 19 12.2652 19 12ZM19 8.00002C19 7.7348 19.1054 7.48045 19.2929 7.29291C19.4804 7.10537 19.7348 7.00002 20 7.00002C20.2652 7.00002 20.5196 7.10537 20.7071 7.29291C20.8946 7.48045 21 7.7348 21 8.00002C21 8.26523 20.8946 8.51959 20.7071 8.70712C20.5196 8.89466 20.2652 9.00002 20 9.00002C19.7348 9.00002 19.4804 8.89466 19.2929 8.70712C19.1054 8.51959 19 8.26523 19 8.00002Z" fill="default"/>
<path d="M20 17C19.8684 17.0008 19.7379 16.9756 19.6161 16.9258C19.4943 16.876 19.3834 16.8027 19.29 16.71C19.2017 16.6128 19.1306 16.5012 19.08 16.38C19.0271 16.2603 18.9998 16.1309 18.9998 16C18.9998 15.8691 19.0271 15.7397 19.08 15.62C19.1276 15.4973 19.199 15.3851 19.29 15.29C19.383 15.1963 19.4936 15.1219 19.6154 15.0711C19.7373 15.0204 19.868 14.9942 20 14.9942C20.132 14.9942 20.2627 15.0204 20.3846 15.0711C20.5064 15.1219 20.617 15.1963 20.71 15.29C20.801 15.3851 20.8724 15.4973 20.92 15.62C20.9729 15.7397 21.0002 15.8691 21.0002 16C21.0002 16.1309 20.9729 16.2603 20.92 16.38C20.8694 16.5012 20.7983 16.6128 20.71 16.71C20.6166 16.8027 20.5057 16.876 20.3839 16.9258C20.2621 16.9756 20.1316 17.0008 20 17Z" fill="default"/>
<path d="M15 16C15 15.7348 15.1054 15.4804 15.2929 15.2929C15.4804 15.1054 15.7348 15 16 15C16.2652 15 16.5196 15.1054 16.7071 15.2929C16.8946 15.4804 17 15.7348 17 16C17 16.2652 16.8946 16.5196 16.7071 16.7071C16.5196 16.8947 16.2652 17 16 17C15.7348 17 15.4804 16.8947 15.2929 16.7071C15.1054 16.5196 15 16.2652 15 16ZM11 16C11 15.7348 11.1054 15.4804 11.2929 15.2929C11.4804 15.1054 11.7348 15 12 15C12.2652 15 12.5196 15.1054 12.7071 15.2929C12.8946 15.4804 13 15.7348 13 16C13 16.2652 12.8946 16.5196 12.7071 16.7071C12.5196 16.8947 12.2652 17 12 17C11.7348 17 11.4804 16.8947 11.2929 16.7071C11.1054 16.5196 11 16.2652 11 16ZM7 16C7 15.7348 7.10536 15.4804 7.29289 15.2929C7.48043 15.1054 7.73478 15 8 15C8.26522 15 8.51957 15.1054 8.70711 15.2929C8.89464 15.4804 9 15.7348 9 16C9 16.2652 8.89464 16.5196 8.70711 16.7071C8.51957 16.8947 8.26522 17 8 17C7.73478 17 7.48043 16.8947 7.29289 16.7071C7.10536 16.5196 7 16.2652 7 16Z" fill="default"/>
<path d="M4 17C3.86932 16.9984 3.74022 16.9713 3.62 16.92C3.49881 16.8694 3.3872 16.7983 3.29 16.71C3.19872 16.6131 3.12436 16.5015 3.07 16.38C2.977 16.1352 2.977 15.8648 3.07 15.62C3.12798 15.5005 3.202 15.3895 3.29 15.29C3.38296 15.1963 3.49356 15.1219 3.61542 15.0711C3.73728 15.0204 3.86799 14.9942 4 14.9942C4.13201 14.9942 4.26272 15.0204 4.38458 15.0711C4.50644 15.1219 4.61704 15.1963 4.71 15.29C4.79833 15.3872 4.86936 15.4988 4.92 15.62C4.97291 15.7397 5.00023 15.8691 5.00023 16C5.00023 16.1309 4.97291 16.2603 4.92 16.38C4.86936 16.5012 4.79833 16.6128 4.71 16.71C4.6128 16.7983 4.50119 16.8694 4.38 16.92C4.25978 16.9713 4.13068 16.9984 4 17Z" fill="default"/>
<path d="M5 17H3V5.86002C3.00529 5.09793 3.31242 4.36901 3.85412 3.83294C4.39581 3.29686 5.1279 2.99735 5.89 3.00002H21V5.00002H5.89C5.77491 4.99736 5.66045 5.01758 5.55323 5.05948C5.44601 5.10139 5.34818 5.16416 5.2654 5.24415C5.18261 5.32414 5.11653 5.41977 5.07097 5.52548C5.02542 5.6312 5.00129 5.74491 5 5.86002V17Z" fill="default"/>
<path d="M20 20H4V22H20V20Z" fill="black"/>
</svg>
