<svg width="16" height="21" viewBox="0 0 16 21" fill="none" xmlns="http://www.w3.org/2000/svg">
<path d="M7 2.92791V19.0643C7 20.1297 7.81329 20.9961 8.81334 20.9961H14.1867C15.1867 20.9961 16 20.1297 16 19.0643V2.92791C16 1.86246 15.1867 0.996094 14.1867 0.996094L8.81334 0.996094C7.81329 0.996094 7 1.86246 7 2.92791ZM14.1867 2.92791V19.0643C14.1867 19.1161 14.1721 19.1515 14.1721 19.167C14.1721 19.1734 14.174 19.177 14.1794 19.1779L8.85505 19.1888C8.84598 19.1825 8.81334 19.1415 8.81334 19.0643V17.3597L11.24 17.3598C11.3652 17.3598 11.4666 17.258 11.4666 17.1325V15.7689C11.4666 15.6434 11.3652 15.5416 11.24 15.5416L8.81334 15.5415V13.7234L12.1466 13.7234C12.2718 13.7234 12.3733 13.6217 12.3733 13.4962V12.1325C12.3733 12.007 12.2718 11.9052 12.1466 11.9052L8.81334 11.9052V10.087L11.24 10.0871C11.3652 10.0871 11.4666 9.98531 11.4666 9.85979V8.49616C11.4666 8.37064 11.3652 8.26888 11.24 8.26888L8.81334 8.26882V6.45064L12.1466 6.4507C12.2718 6.4507 12.3733 6.34895 12.3733 6.22343V4.85979C12.3733 4.73427 12.2718 4.63252 12.1466 4.63252L8.81334 4.63246V2.92791C8.81425 2.85609 8.83873 2.817 8.8206 2.81427L14.1449 2.80337C14.154 2.80973 14.1867 2.85064 14.1867 2.92791Z" fill="#868E96"/>
<path d="M1.49324 18.0416C1.49324 18.1671 1.39176 18.2689 1.26657 18.2689H0.227122C0.0251827 18.2689 -0.0759488 18.5137 0.0668441 18.6569L2.23964 20.8354C2.32816 20.9242 2.47167 20.9242 2.56019 20.8354L4.73299 18.6569C4.87578 18.5137 4.77465 18.2689 4.57271 18.2689H3.53326C3.40807 18.2689 3.30659 18.1671 3.30659 18.0416L3.30659 16.678C3.30659 16.5525 3.2051 16.4507 3.07992 16.4507H1.71991C1.59473 16.4507 1.49324 16.5525 1.49324 16.678L1.49324 18.0416Z" fill="#868E96"/>
<path d="M3.30659 3.9507C3.30659 3.82518 3.40807 3.72343 3.53326 3.72343L4.57271 3.72343C4.77465 3.72343 4.87578 3.47862 4.73298 3.33545L2.56019 1.15686C2.47167 1.06811 2.32816 1.06811 2.23964 1.15686L0.0668439 3.33545C-0.075949 3.47862 0.0251829 3.72343 0.227123 3.72343L1.26657 3.72343C1.39176 3.72343 1.49324 3.82518 1.49324 3.9507L1.49324 5.31434C1.49324 5.43986 1.59472 5.54161 1.71991 5.54161L3.07992 5.54161C3.2051 5.54161 3.30659 5.43986 3.30659 5.31434L3.30659 3.9507Z" fill="#868E96"/>
<path d="M1.49324 12.1325C1.49324 12.007 1.59472 11.9052 1.71991 11.9052H3.07992C3.2051 11.9052 3.30659 12.007 3.30659 12.1325V13.9507C3.30659 14.0762 3.2051 14.178 3.07992 14.178H1.71991C1.59472 14.178 1.49324 14.0762 1.49324 13.9507V12.1325Z" fill="#868E96"/>
<path d="M1.49324 7.58707C1.49324 7.46155 1.59472 7.35979 1.71991 7.35979H3.07992C3.2051 7.35979 3.30659 7.46155 3.30659 7.58707V9.40525C3.30659 9.53077 3.2051 9.63252 3.07992 9.63252H1.71991C1.59472 9.63252 1.49324 9.53077 1.49324 9.40525V7.58707Z" fill="#868E96"/>
</svg>
