<svg width="24" height="24" viewBox="0 0 24 24" fill="none" xmlns="http://www.w3.org/2000/svg">
<path d="M12 2C6.486 2 2 6.486 2 12C2 17.514 6.486 22 12 22C17.514 22 22 17.514 22 12C22 6.486 17.514 2 12 2ZM12 20C7.589 20 4 16.411 4 12C4 7.589 7.589 4 12 4C16.411 4 20 7.589 20 12C20 16.411 16.411 20 12 20Z" fill="black"/>
<path d="M12 11C10 11 10 10.374 10 10C10 9.516 10.701 9 12 9C13.185 9 13.386 9.638 13.4 10.018L14.4 10H15.4C15.4 8.974 14.734 7.531 13 7.121V6.012H11V7.085C9.029 7.416 8 8.712 8 10C8 11.12 8.52 13 12 13C14 13 14 13.676 14 14C14 14.415 13.38 15 12 15C10.159 15 10.011 14.143 10 14H8C8 14.918 8.661 16.553 11 16.92V18H13V16.915C14.971 16.584 16 15.288 16 14C16 12.88 15.48 11 12 11Z" fill="black"/>
</svg>
