<svg width="24" height="24" viewBox="0 0 24 24" fill="none" xmlns="http://www.w3.org/2000/svg">
<path fill-rule="evenodd" clip-rule="evenodd" d="M2 12C2 6.486 6.486 2 12 2C17.514 2 22 6.486 22 12H20C20 7.589 16.411 4 12 4C7.589 4 4 7.589 4 12C4 16.411 7.589 20 12 20V22C6.486 22 2 17.514 2 12ZM10 10C10 10.374 10 11 12 11C15.48 11 16 12.88 16 14C16 15.288 14.971 16.584 13 16.915V18H11V16.92C8.661 16.553 8 14.918 8 14H10C10.011 14.143 10.159 15 12 15C13.38 15 14 14.415 14 14C14 13.676 14 13 12 13C8.52 13 8 11.12 8 10C8 8.712 9.029 7.416 11 7.085V6.012H13V7.121C14.734 7.531 15.4 8.974 15.4 10H14.4L13.4 10.018C13.386 9.638 13.185 9 12 9C10.701 9 10 9.516 10 10Z" fill="black"/>
<path d="M18 15V21L15 18L18 15Z" fill="black"/>
<path fill-rule="evenodd" clip-rule="evenodd" d="M23 19H18V17H23V19Z" fill="black"/>
</svg>
