<svg width="24" height="24" viewBox="0 0 24 24" fill="none" xmlns="http://www.w3.org/2000/svg">
<path d="M17 13V10.5H12.5C11.9477 10.5 11.5 10.0523 11.5 9.5V5L6 5L6 19H13.5V21H6C4.89543 21 4 20.1046 4 19V5C4 3.89543 4.89543 3 6 3H11.6716C12.202 3 12.7107 3.21071 13.0858 3.58579L18.4142 8.91421C18.7893 9.28929 19 9.79799 19 10.3284V13H17Z"/>
<path d="M21.9972 16.5474L20.7597 15.31L18.9036 17.1662L17.0474 15.31L15.81 16.5474L17.6662 18.4036L15.81 20.2597L17.0474 21.4972L18.9036 19.641L20.7598 21.4972L21.9972 20.2598L20.141 18.4036L21.9972 16.5474Z"/>
</svg>
