<svg width="24" height="24" viewBox="0 0 24 24" fill="none" xmlns="http://www.w3.org/2000/svg">
<path fill-rule="evenodd" clip-rule="evenodd" d="M11 7.5V5.5C11 4.67157 10.3284 4 9.5 4C8.67157 4 8 4.67157 8 5.5V7.5C8 8.32843 8.67157 9 9.5 9C10.3284 9 11 8.32843 11 7.5ZM9.5 2C7.567 2 6 3.567 6 5.5V7.5C6 9.433 7.567 11 9.5 11C11.433 11 13 9.433 13 7.5V5.5C13 3.567 11.433 2 9.5 2Z" fill="black"/>
<path fill-rule="evenodd" clip-rule="evenodd" d="M20 7.5V5.5C20 4.67157 19.3284 4 18.5 4C17.6716 4 17 4.67157 17 5.5V7.5C17 8.32843 17.6716 9 18.5 9C19.3284 9 20 8.32843 20 7.5ZM18.5 2C16.567 2 15 3.567 15 5.5V7.5C15 9.433 16.567 11 18.5 11C20.433 11 22 9.433 22 7.5V5.5C22 3.567 20.433 2 18.5 2Z" fill="black"/>
<path fill-rule="evenodd" clip-rule="evenodd" d="M20 18.5V16.5C20 15.6716 19.3284 15 18.5 15C17.6716 15 17 15.6716 17 16.5V18.5C17 19.3284 17.6716 20 18.5 20C19.3284 20 20 19.3284 20 18.5ZM18.5 13C16.567 13 15 14.567 15 16.5V18.5C15 20.433 16.567 22 18.5 22C20.433 22 22 20.433 22 18.5V16.5C22 14.567 20.433 13 18.5 13Z" fill="black"/>
<path d="M4 10C4 10.5523 3.55228 11 3 11C2.44772 11 2 10.5523 2 10C2 9.44772 2.44772 9 3 9C3.55228 9 4 9.44772 4 10Z" fill="black"/>
<path d="M14 21C14 21.5523 13.5523 22 13 22C12.4477 22 12 21.5523 12 21C12 20.4477 12.4477 20 13 20C13.5523 20 14 20.4477 14 21Z" fill="black"/>
<path fill-rule="evenodd" clip-rule="evenodd" d="M9 19H2V17H9V19Z" fill="black"/>
<path fill-rule="evenodd" clip-rule="evenodd" d="M8.13809 17.9477L5.74074 15.1508L7.25926 13.8492L10.8619 18.0523L7.20711 21.7071L5.79289 20.2929L8.13809 17.9477Z" fill="black"/>
</svg>
