<svg width="24" height="24" viewBox="0 0 24 24" fill="none" xmlns="http://www.w3.org/2000/svg">
<g id="ic-folder-open">
<path id="shape" d="M2.165 19.551C2.351 19.831 2.664 20 3 20H18C18.4 20 18.762 19.762 18.919 19.394L21.919 12.394C22.052 12.085 22.02 11.731 21.835 11.45C21.649 11.169 21.336 11 21 11H20V7C20 5.897 19.103 5 18 5H11.9L9.616 3.213C9.44 3.075 9.224 3 9 3H4C2.897 3 2 3.897 2 5V19H2.007C2.007 19.192 2.056 19.385 2.165 19.551ZM17.341 18H4.517L6.66 13H19.484L17.341 18ZM18 7V11H6C5.6 11 5.238 11.238 5.081 11.606L4 14.129V7H11.556H12H18Z" fill="#818A92"/>
</g>
</svg>
