<svg width="24" height="24" viewBox="0 0 24 24" fill="none" xmlns="http://www.w3.org/2000/svg">
<path d="M9.11943 13.9425L9.85258 12.6414H11.0973L9.85661 14.7764L11.1497 17H9.90092L9.12346 15.6304L8.35002 17H7.09721L8.3903 14.7764L7.15361 12.6414H8.40239L9.11943 13.9425Z" fill="#0E8857"/>
<path d="M12.5559 17H11.3877V10.8125H12.5559V17Z" fill="#0E8857"/>
<path d="M15.5493 15.7955C15.5493 15.6532 15.4781 15.5417 15.3358 15.4612C15.1961 15.3779 14.9705 15.3041 14.659 15.2396C13.6224 15.0221 13.1041 14.5817 13.1041 13.9183C13.1041 13.5316 13.2639 13.2094 13.5835 12.9515C13.9057 12.691 14.326 12.5608 14.8443 12.5608C15.3975 12.5608 15.8393 12.691 16.1696 12.9515C16.5026 13.212 16.6691 13.5504 16.6691 13.9667H15.505C15.505 13.8002 15.4513 13.6632 15.3438 13.5558C15.2364 13.4457 15.0686 13.3906 14.8403 13.3906C14.6442 13.3906 14.4925 13.4349 14.3851 13.5236C14.2777 13.6122 14.224 13.725 14.224 13.8619C14.224 13.9908 14.2844 14.0956 14.4052 14.1761C14.5288 14.254 14.7356 14.3225 15.0256 14.3816C15.3156 14.438 15.56 14.5024 15.7587 14.575C16.3737 14.8005 16.6812 15.1913 16.6812 15.7472C16.6812 16.1447 16.5107 16.4669 16.1696 16.714C15.8286 16.9584 15.3881 17.0806 14.8483 17.0806C14.4831 17.0806 14.1582 17.0161 13.8735 16.8872C13.5915 16.7556 13.37 16.577 13.2088 16.3514C13.0477 16.1232 12.9671 15.8774 12.9671 15.6143H14.0709C14.0816 15.821 14.1582 15.9795 14.3005 16.0896C14.4428 16.1997 14.6335 16.2548 14.8725 16.2548C15.0954 16.2548 15.2633 16.2131 15.3761 16.1299C15.4915 16.0439 15.5493 15.9325 15.5493 15.7955Z" fill="#0E8857"/>
<path d="M15.67 1H4C2.8954 1 2 1.8954 2 3V21C2 22.1046 2.8954 23 4 23H20C21.1046 23 22 22.1046 22 21V7.33C22 6.7996 21.7893 6.2851 21.4142 5.91L17.09 1.5858C16.7149 1.2107 16.2004 1 15.67 1ZM3.5 21.5V2.5H15V7.5C15 7.7761 15.2239 8 15.5 8H20.5V21.5H3.5Z" fill="#0E8857"/>
<path d="M9.11943 13.9425L9.85258 12.6414H11.0973L9.85661 14.7764L11.1497 17H9.90092L9.12346 15.6304L8.35002 17H7.09721L8.3903 14.7764L7.15361 12.6414H8.40239L9.11943 13.9425Z" fill="#0E8857"/>
<path d="M12.5559 17H11.3877V10.8125H12.5559V17Z" fill="#0E8857"/>
<path d="M15.5493 15.7955C15.5493 15.6532 15.4781 15.5417 15.3358 15.4612C15.1961 15.3779 14.9705 15.3041 14.659 15.2396C13.6224 15.0221 13.1041 14.5817 13.1041 13.9183C13.1041 13.5316 13.2639 13.2094 13.5835 12.9515C13.9057 12.691 14.326 12.5608 14.8443 12.5608C15.3975 12.5608 15.8393 12.691 16.1696 12.9515C16.5026 13.212 16.6691 13.5504 16.6691 13.9667H15.505C15.505 13.8002 15.4513 13.6632 15.3438 13.5558C15.2364 13.4457 15.0686 13.3906 14.8403 13.3906C14.6442 13.3906 14.4925 13.4349 14.3851 13.5236C14.2777 13.6122 14.224 13.725 14.224 13.8619C14.224 13.9908 14.2844 14.0956 14.4052 14.1761C14.5288 14.254 14.7356 14.3225 15.0256 14.3816C15.3156 14.438 15.56 14.5024 15.7587 14.575C16.3737 14.8005 16.6812 15.1913 16.6812 15.7472C16.6812 16.1447 16.5107 16.4669 16.1696 16.714C15.8286 16.9584 15.3881 17.0806 14.8483 17.0806C14.4831 17.0806 14.1582 17.0161 13.8735 16.8872C13.5915 16.7556 13.37 16.577 13.2088 16.3514C13.0477 16.1232 12.9671 15.8774 12.9671 15.6143H14.0709C14.0816 15.821 14.1582 15.9795 14.3005 16.0896C14.4428 16.1997 14.6335 16.2548 14.8725 16.2548C15.0954 16.2548 15.2633 16.2131 15.3761 16.1299C15.4915 16.0439 15.5493 15.9325 15.5493 15.7955Z" fill="#0E8857"/>
</svg>
