<svg width="24" height="24" viewBox="0 0 24 24" fill="none" xmlns="http://www.w3.org/2000/svg">
<path d="M15.67 1H4C2.8954 1 2 1.8954 2 3V21C2 22.1046 2.8954 23 4 23H20C21.1046 23 22 22.1046 22 21V7.33C22 6.7996 21.7893 6.2851 21.4142 5.91L17.09 1.5858C16.7149 1.2107 16.2004 1 15.67 1ZM3.5 21.5V2.5H15V7.5C15 7.7761 15.2239 8 15.5 8H20.5V21.5H3.5Z" fill="#2A5AB3"/>
<path d="M5.78801 14.7885C5.78801 14.109 5.93974 13.5679 6.24321 13.165C6.54936 12.7622 6.96696 12.5608 7.49602 12.5608C7.92033 12.5608 8.2708 12.7192 8.54741 13.0361V10.8125H9.71562V17H8.66423L8.60783 16.5367C8.31779 16.8993 7.9445 17.0806 7.48796 17.0806C6.97502 17.0806 6.56279 16.8792 6.25126 16.4763C5.94243 16.0708 5.78801 15.5082 5.78801 14.7885ZM6.95219 14.873C6.95219 15.2812 7.02336 15.5941 7.16569 15.8116C7.30803 16.0292 7.51481 16.1379 7.78605 16.1379C8.14592 16.1379 8.3997 15.9862 8.54741 15.6827V13.9626C8.40239 13.6592 8.15129 13.5074 7.79411 13.5074C7.23283 13.5074 6.95219 13.9626 6.95219 14.873Z" fill="#2A5AB3"/>
<path d="M10.1067 14.7804C10.1067 14.348 10.1899 13.9626 10.3564 13.6243C10.5229 13.2859 10.762 13.024 11.0735 12.8387C11.3877 12.6534 11.7516 12.5608 12.1652 12.5608C12.7533 12.5608 13.2327 12.7407 13.6033 13.1006C13.9766 13.4604 14.1847 13.9492 14.2277 14.5669L14.2357 14.865C14.2357 15.5337 14.0491 16.0708 13.6758 16.4763C13.3025 16.8792 12.8016 17.0806 12.1732 17.0806C11.5448 17.0806 11.0426 16.8792 10.6666 16.4763C10.2933 16.0735 10.1067 15.5256 10.1067 14.8328V14.7804ZM11.2709 14.865C11.2709 15.2786 11.3488 15.5955 11.5045 15.8157C11.6603 16.0332 11.8832 16.142 12.1732 16.142C12.4552 16.142 12.6754 16.0345 12.8339 15.8197C12.9923 15.6022 13.0715 15.2557 13.0715 14.7804C13.0715 14.3749 12.9923 14.0607 12.8339 13.8378C12.6754 13.6149 12.4525 13.5034 12.1652 13.5034C11.8805 13.5034 11.6603 13.6149 11.5045 13.8378C11.3488 14.058 11.2709 14.4004 11.2709 14.865Z" fill="#2A5AB3"/>
<path d="M16.4355 16.142C16.6503 16.142 16.8249 16.0829 16.9592 15.9647C17.0935 15.8466 17.1633 15.6895 17.1687 15.4934H18.2603C18.2576 15.7888 18.1771 16.0601 18.0186 16.3071C17.8602 16.5515 17.6427 16.7422 17.366 16.8792C17.0921 17.0134 16.7887 17.0806 16.4556 17.0806C15.8326 17.0806 15.3411 16.8832 14.9813 16.4884C14.6214 16.0909 14.4415 15.5431 14.4415 14.8448V14.7683C14.4415 14.0969 14.6201 13.5612 14.9773 13.161C15.3344 12.7609 15.8245 12.5608 16.4476 12.5608C16.9928 12.5608 17.4292 12.7166 17.7568 13.0281C18.0871 13.3369 18.255 13.7491 18.2603 14.2648H17.1687C17.1633 14.0392 17.0935 13.8566 16.9592 13.7169C16.8249 13.5746 16.6477 13.5034 16.4274 13.5034C16.1562 13.5034 15.9508 13.6028 15.8111 13.8015C15.6742 13.9976 15.6057 14.3171 15.6057 14.7603V14.8811C15.6057 15.3296 15.6742 15.6519 15.8111 15.8479C15.9481 16.0439 16.1562 16.142 16.4355 16.142Z" fill="#2A5AB3"/>
</svg>
