<svg width="24" height="24" viewBox="0 0 24 24" fill="none" xmlns="http://www.w3.org/2000/svg">
<g id="ic-fill-and-sign">
<g id="shape">
<path d="M7.42003 11.1599H13.71V12.9599H7.42003V11.1599Z" fill="black"/>
<path d="M7.42003 7.56995H13.71V9.36995H7.42003V7.56995Z" fill="black"/>
<path d="M7.41003 14.7599H9.21003V16.5599H7.41003V14.7599Z" fill="black"/>
<path fill-rule="evenodd" clip-rule="evenodd" d="M21.39 11.8399L20.23 10.6799C19.6506 10.1276 18.7395 10.1276 18.16 10.6799L11 17.7499V21.0499H14.23L21.39 13.9999C21.6515 13.7318 21.8016 13.3744 21.81 12.9999C21.8354 12.572 21.6835 12.1525 21.39 11.8399ZM13.79 19.2399H12.79V18.2399L17 14.0899L18 15.0899L13.79 19.2399ZM19.12 13.9999L18.12 12.9999L19.17 11.9399L20.17 12.9399L19.12 13.9999Z" fill="black"/>
<path fill-rule="evenodd" clip-rule="evenodd" d="M5.60003 4.86995H16.43V8.46995H18.23V4.86995C18.2246 3.87811 17.4219 3.07541 16.43 3.06995H5.60003C4.60982 3.07545 3.81001 3.87973 3.81003 4.86995V19.2499C3.80736 19.7264 3.99478 20.1843 4.33076 20.5221C4.66673 20.86 5.12355 21.05 5.60003 21.0499H9.21003V19.2499H5.60003V4.86995Z" fill="black"/>
</g>
</g>
</svg>
