<svg width="24" height="24" viewBox="0 0 24 24" fill="none" xmlns="http://www.w3.org/2000/svg">
<path d="M15.67 1H4C2.8954 1 2 1.8954 2 3V21C2 22.1046 2.8954 23 4 23H20C21.1046 23 22 22.1046 22 21V7.33C22 6.7996 21.7893 6.2851 21.4142 5.91L17.09 1.5858C16.7149 1.2107 16.2004 1 15.67 1ZM3.5 21.5V2.5H15V7.5C15 7.7761 15.2239 8 15.5 8H20.5V21.5H3.5Z" fill="#BF3535"/>
<path d="M10.5737 14.861C10.5737 15.5323 10.4206 16.0708 10.1144 16.4763C9.81096 16.8792 9.40007 17.0806 8.88176 17.0806C8.44133 17.0806 8.08549 16.9275 7.81425 16.6213V18.6758H6.65007V12.6414H7.72966L7.76994 13.0684C8.05192 12.73 8.41984 12.5608 8.8737 12.5608C9.41081 12.5608 9.82841 12.7595 10.1265 13.157C10.4246 13.5544 10.5737 14.1023 10.5737 14.8005V14.861ZM9.40947 14.7764C9.40947 14.3708 9.33696 14.058 9.19194 13.8378C9.0496 13.6176 8.84147 13.5074 8.56755 13.5074C8.20231 13.5074 7.95122 13.6471 7.81425 13.9264V15.7109C7.95659 15.9983 8.21037 16.142 8.57561 16.142C9.13151 16.142 9.40947 15.6868 9.40947 14.7764Z" fill="#BF3535"/>
<path d="M10.7875 14.7885C10.7875 14.109 10.9392 13.5679 11.2427 13.165C11.5488 12.7622 11.9664 12.5608 12.4955 12.5608C12.9198 12.5608 13.2703 12.7192 13.5469 13.0361V10.8125H14.7151V17H13.6637L13.6073 16.5367C13.3173 16.8993 12.944 17.0806 12.4874 17.0806C11.9745 17.0806 11.5623 16.8792 11.2507 16.4763C10.9419 16.0708 10.7875 15.5082 10.7875 14.7885ZM11.9517 14.873C11.9517 15.2812 12.0228 15.5941 12.1652 15.8116C12.3075 16.0292 12.5143 16.1379 12.7855 16.1379C13.1454 16.1379 13.3992 15.9862 13.5469 15.6827V13.9626C13.4019 13.6592 13.1508 13.5074 12.7936 13.5074C12.2323 13.5074 11.9517 13.9626 11.9517 14.873Z" fill="#BF3535"/>
<path d="M15.6057 17V13.4954H14.9571V12.6414H15.6057V12.2708C15.6057 11.782 15.7453 11.4033 16.0246 11.1348C16.3066 10.8635 16.7 10.7279 17.2049 10.7279C17.366 10.7279 17.5634 10.7548 17.7971 10.8085L17.785 11.7108C17.6883 11.6866 17.5701 11.6746 17.4305 11.6746C16.9928 11.6746 16.7739 11.88 16.7739 12.2909V12.6414H17.64V13.4954H16.7739V17H15.6057Z" fill="#BF3535"/>
</svg>
