<svg width="25" height="24" viewBox="0 0 25 24" fill="none" xmlns="http://www.w3.org/2000/svg">
<path d="M21.5 10H2.5V8H21.5V10Z" />
<path d="M11.2071 5.70711L7.20711 9.70711L5.79289 8.29289L9.79289 4.29289L11.2071 5.70711Z"/>
<path d="M19.2071 5.70711L15.2071 9.70711L13.7929 8.29289L17.7929 4.29289L19.2071 5.70711Z"/>
<path d="M17.0208 17.107C16.8256 16.9117 16.8256 16.5951 17.0208 16.3999L17.8996 15.5211C18.0948 15.3259 18.4114 15.3259 18.6067 15.5211L23.6357 20.5502C23.8309 20.7454 23.8309 21.062 23.6357 21.2573L22.7569 22.136C22.5617 22.3313 22.2451 22.3313 22.0498 22.136L17.0208 17.107Z"/>
<path d="M21.896 15.6755C22.0913 15.4802 22.4079 15.4802 22.6031 15.6755L23.4819 16.5542C23.6771 16.7495 23.6771 17.0661 23.4819 17.2613L18.5578 22.1854C18.3626 22.3807 18.046 22.3807 17.8507 22.1854L16.972 21.3067C16.7767 21.1114 16.7767 20.7948 16.972 20.5996L21.896 15.6755Z"/>
<path d="M4.5 6H20.5V13H22.5V6C22.5 4.89543 21.6046 4 20.5 4H4.5C3.39543 4 2.5 4.89543 2.5 6V18C2.5 19.1046 3.39543 20 4.5 20H15.5V18H4.5V6Z"/>
<path d="M8.5 12.5C8.5 12.2239 8.72386 12 9 12H10C10.2761 12 10.5 12.2239 10.5 12.5V15.5C10.5 15.7761 10.2761 16 10 16H9C8.72386 16 8.5 15.7761 8.5 15.5V12.5Z"/>
<path d="M14.5 12.5C14.5 12.2239 14.7239 12 15 12H16C16.2761 12 16.5 12.2239 16.5 12.5V15.5C16.5 15.7761 16.2761 16 16 16H15C14.7239 16 14.5 15.7761 14.5 15.5V12.5Z"/>
<path d="M11.5 11.5C11.5 11.2239 11.7239 11 12 11H13C13.2761 11 13.5 11.2239 13.5 11.5V16.5C13.5 16.7761 13.2761 17 13 17H12C11.7239 17 11.5 16.7761 11.5 16.5V11.5Z"/>
</svg>
