<svg xmlns="http://www.w3.org/2000/svg" width="24" height="24" viewBox="0 0 24 24" fill="none">
  <path d="M20 13H4L12 21L20 13Z" fill="white"/>
  <path d="M18.7141 19.5717L20 17L21.2859 19.5717C21.4267 19.8534 21.5 20.1639 21.5 20.4788V20.5C21.5 21.3284 20.8284 22 20 22C19.1716 22 18.5 21.3284 18.5 20.5V20.4788C18.5 20.1639 18.5733 19.8534 18.7141 19.5717Z" fill="white"/>
  <path class="bucket-outline" d="M19.489 12.0742L19.6277 12.2285C20.2741 13.0232 20.2176 14.1963 19.4656 14.9248L13.1433 21.0498C12.4208 21.7497 11.3008 21.7987 10.5232 21.1924L10.3728 21.0625L3.82401 14.8281C2.99945 14.043 2.99615 12.7283 3.8162 11.9385L10.2889 5.70312L8.29276 3.70703L9.70682 2.29297L19.489 12.0742ZM5.20389 13.3789L11.7517 19.6133L18.074 13.4883L11.7029 7.11719L5.20389 13.3789Z" fill="#818A92"/>
</svg>