<svg width="24" height="24" viewBox="0 0 24 24" fill="none" xmlns="http://www.w3.org/2000/svg">
<path fill-rule="evenodd" clip-rule="evenodd" d="M20 22H4V20H20V22Z" fill="black"/>
<path d="M17.6806 16.2018L19.0017 14L20.3228 16.2018C20.7135 16.8531 20.5714 17.6919 19.988 18.1781C19.4166 18.6542 18.5867 18.6542 18.0154 18.1781C17.4319 17.6919 17.2898 16.8531 17.6806 16.2018Z" fill="black"/>
<path d="M18 11H7L12.5 17L18 11Z" fill="default"/>
<path fill-rule="evenodd" clip-rule="evenodd" d="M16.4345 11.1924L12.1919 6.94975L7.94922 11.1924L12.1919 15.435L16.4345 11.1924ZM13.6061 5.53553C12.825 4.75449 11.5587 4.75449 10.7776 5.53553L6.53501 9.77817C5.75396 10.5592 5.75396 11.8256 6.53501 12.6066L10.7776 16.8492C11.5587 17.6303 12.825 17.6303 13.6061 16.8492L17.8487 12.6066C18.6298 11.8256 18.6298 10.5592 17.8487 9.77817L13.6061 5.53553Z" fill="default"/>
<path fill-rule="evenodd" clip-rule="evenodd" d="M15.0203 9.77817L8.65633 3.41421L10.0705 2L16.4345 8.36396L15.0203 9.77817Z" fill="default"/>
</svg>
