<svg width="24" height="24" viewBox="0 0 24 24" fill="none" xmlns="http://www.w3.org/2000/svg">
<path d="M15.67 1H4C2.8954 1 2 1.8954 2 3V21C2 22.1046 2.8954 23 4 23H20C21.1046 23 22 22.1046 22 21V7.33C22 6.7996 21.7893 6.2851 21.4142 5.91L17.09 1.5858C16.7149 1.2107 16.2004 1 15.67 1ZM3.5 21.5V2.5H15V7.5C15 7.7761 15.2239 8 15.5 8H20.5V21.5H3.5Z" fill="#FFB143"/>
<path d="M6.98039 17H5.81218V12.6414H6.98039V17ZM5.7437 11.5134C5.7437 11.3389 5.80144 11.1952 5.91691 11.0824C6.03508 10.9696 6.19487 10.9132 6.39628 10.9132C6.59501 10.9132 6.75346 10.9696 6.87163 11.0824C6.98979 11.1952 7.04887 11.3389 7.04887 11.5134C7.04887 11.6907 6.98845 11.8357 6.8676 11.9485C6.74943 12.0613 6.59233 12.1177 6.39628 12.1177C6.20024 12.1177 6.04179 12.0613 5.92094 11.9485C5.80278 11.8357 5.7437 11.6907 5.7437 11.5134Z" fill="#FFB143"/>
<path d="M8.70483 12.6414L8.74109 13.1288C9.04993 12.7501 9.46753 12.5608 9.9939 12.5608C10.5552 12.5608 10.9406 12.7823 11.15 13.2255C11.4562 12.7823 11.8926 12.5608 12.4592 12.5608C12.9319 12.5608 13.2837 12.6991 13.5146 12.9757C13.7456 13.2496 13.8611 13.6632 13.8611 14.2164V17H12.6929V14.2205C12.6929 13.9734 12.6445 13.7935 12.5479 13.6807C12.4512 13.5652 12.2806 13.5074 12.0363 13.5074C11.6871 13.5074 11.4454 13.674 11.3112 14.007L11.3152 17H10.151V14.2245C10.151 13.972 10.1013 13.7894 10.002 13.6766C9.90259 13.5638 9.7334 13.5074 9.49438 13.5074C9.16406 13.5074 8.92505 13.6444 8.77734 13.9183V17H7.61316V12.6414H8.70483Z" fill="#FFB143"/>
<path d="M14.2602 14.7885C14.2602 14.1198 14.4187 13.5813 14.7356 13.1731C15.0551 12.7649 15.4848 12.5608 16.0246 12.5608C16.5026 12.5608 16.8746 12.7246 17.1405 13.0522L17.1888 12.6414H18.2442V16.855C18.2442 17.2363 18.1569 17.568 17.9824 17.85C17.8105 18.132 17.5675 18.3468 17.2533 18.4945C16.939 18.6422 16.5711 18.7161 16.1495 18.7161C15.8299 18.7161 15.5184 18.6516 15.2149 18.5227C14.9115 18.3965 14.6818 18.2327 14.5261 18.0312L15.0417 17.3223C15.3317 17.6472 15.6835 17.8097 16.0971 17.8097C16.406 17.8097 16.6463 17.7264 16.8182 17.5599C16.9901 17.3961 17.076 17.1625 17.076 16.859V16.6254C16.8075 16.9288 16.4543 17.0806 16.0166 17.0806C15.4929 17.0806 15.0686 16.8765 14.7436 16.4683C14.4213 16.0574 14.2602 15.5135 14.2602 14.8368V14.7885ZM15.4244 14.873C15.4244 15.2678 15.5036 15.578 15.6621 15.8036C15.8205 16.0265 16.038 16.1379 16.3147 16.1379C16.6691 16.1379 16.9229 16.005 17.076 15.7391V13.9062C16.9202 13.6404 16.6691 13.5074 16.3227 13.5074C16.0434 13.5074 15.8232 13.6216 15.6621 13.8499C15.5036 14.0781 15.4244 14.4192 15.4244 14.873Z" fill="#FFB143"/>
</svg>
