<svg width="24" height="24" viewBox="0 0 24 24" fill="none" xmlns="http://www.w3.org/2000/svg">
<path d="M15.67 1H4C2.8954 1 2 1.8954 2 3V21C2 22.1046 2.8954 23 4 23H20C21.1046 23 22 22.1046 22 21V7.33C22 6.7996 21.7893 6.2851 21.4142 5.91L17.09 1.5858C16.7149 1.2107 16.2004 1 15.67 1ZM3.5 21.5V2.5H15V7.5C15 7.7761 15.2239 8 15.5 8H20.5V21.5H3.5Z" fill="#0A93E4"/>
<path d="M7.90288 16.142C8.11772 16.142 8.29228 16.0829 8.42656 15.9647C8.56083 15.8466 8.63066 15.6895 8.63603 15.4934H9.72771C9.72502 15.7888 9.64445 16.0601 9.48601 16.3071C9.32756 16.5515 9.11003 16.7422 8.83342 16.8792C8.55949 17.0134 8.25603 17.0806 7.92302 17.0806C7.29997 17.0806 6.80852 16.8832 6.44865 16.4884C6.08879 16.0909 5.90886 15.5431 5.90886 14.8448V14.7683C5.90886 14.0969 6.08745 13.5612 6.44462 13.161C6.8018 12.7609 7.29191 12.5608 7.91496 12.5608C8.46013 12.5608 8.89653 12.7166 9.22416 13.0281C9.55449 13.3369 9.72233 13.7491 9.72771 14.2648H8.63603C8.63066 14.0392 8.56083 13.8566 8.42656 13.7169C8.29228 13.5746 8.11503 13.5034 7.89482 13.5034C7.62358 13.5034 7.41813 13.6028 7.27849 13.8015C7.14152 13.9976 7.07304 14.3171 7.07304 14.7603V14.8811C7.07304 15.3296 7.14152 15.6519 7.27849 15.8479C7.41545 16.0439 7.62358 16.142 7.90288 16.142Z" fill="#0A93E4"/>
<path d="M12.5881 17C12.5344 16.8953 12.4955 16.765 12.4713 16.6093C12.1893 16.9235 11.8228 17.0806 11.3716 17.0806C10.9446 17.0806 10.5901 16.957 10.3081 16.71C10.0288 16.4629 9.88916 16.1514 9.88916 15.7754C9.88916 15.3135 10.0597 14.959 10.4008 14.7119C10.7445 14.4648 11.24 14.34 11.8872 14.3373H12.423V14.0875C12.423 13.8861 12.3706 13.725 12.2659 13.6041C12.1638 13.4833 12.0013 13.4229 11.7784 13.4229C11.5824 13.4229 11.428 13.4698 11.3152 13.5638C11.2051 13.6578 11.15 13.7867 11.15 13.9506H9.98584C9.98584 13.6981 10.0637 13.4645 10.2195 13.2496C10.3752 13.0348 10.5955 12.8669 10.8801 12.7461C11.1648 12.6226 11.4844 12.5608 11.8389 12.5608C12.376 12.5608 12.8016 12.6964 13.1158 12.9677C13.4327 13.2362 13.5912 13.6149 13.5912 14.1036V15.9929C13.5939 16.4065 13.6516 16.7194 13.7644 16.9315V17H12.5881ZM11.6254 16.1903C11.7972 16.1903 11.9557 16.1527 12.1007 16.0775C12.2457 15.9996 12.3531 15.8962 12.423 15.7673V15.0181H11.9879C11.4052 15.0181 11.095 15.2195 11.0574 15.6223L11.0533 15.6908C11.0533 15.8358 11.1044 15.9553 11.2064 16.0493C11.3085 16.1433 11.4481 16.1903 11.6254 16.1903Z" fill="#0A93E4"/>
<path d="M13.9742 14.7885C13.9742 14.109 14.1259 13.5679 14.4294 13.165C14.7356 12.7622 15.1532 12.5608 15.6822 12.5608C16.1065 12.5608 16.457 12.7192 16.7336 13.0361V10.8125H17.9018V17H16.8504L16.794 16.5367C16.504 16.8993 16.1307 17.0806 15.6742 17.0806C15.1612 17.0806 14.749 16.8792 14.4375 16.4763C14.1286 16.0708 13.9742 15.5082 13.9742 14.7885ZM15.1384 14.873C15.1384 15.2812 15.2096 15.5941 15.3519 15.8116C15.4942 16.0292 15.701 16.1379 15.9722 16.1379C16.3321 16.1379 16.5859 15.9862 16.7336 15.6827V13.9626C16.5886 13.6592 16.3375 13.5074 15.9803 13.5074C15.419 13.5074 15.1384 13.9626 15.1384 14.873Z" fill="#0A93E4"/>
</svg>
