<svg width="24" height="24" viewBox="0 0 24 24" fill="none" xmlns="http://www.w3.org/2000/svg">
<path d="M15.67 1H4C2.8954 1 2 1.8954 2 3V21C2 22.1046 2.8954 23 4 23H20C21.1046 23 22 22.1046 22 21V7.33C22 6.7996 21.7893 6.2851 21.4142 5.91L17.09 1.5858C16.7149 1.2107 16.2004 1 15.67 1ZM3.5 21.5V2.5H15V7.5C15 7.7761 15.2239 8 15.5 8H20.5V21.5H3.5Z" fill="#FF723F"/>
<path d="M10.6582 14.861C10.6582 15.5323 10.5052 16.0708 10.199 16.4763C9.89555 16.8792 9.48466 17.0806 8.96635 17.0806C8.52592 17.0806 8.17009 16.9275 7.89885 16.6213V18.6758H6.73466V12.6414H7.81425L7.85454 13.0684C8.13652 12.73 8.50444 12.5608 8.9583 12.5608C9.49541 12.5608 9.91301 12.7595 10.2111 13.157C10.5092 13.5544 10.6582 14.1023 10.6582 14.8005V14.861ZM9.49406 14.7764C9.49406 14.3708 9.42155 14.058 9.27653 13.8378C9.1342 13.6176 8.92607 13.5074 8.65214 13.5074C8.28691 13.5074 8.03581 13.6471 7.89885 13.9264V15.7109C8.04118 15.9983 8.29497 16.142 8.6602 16.142C9.21611 16.142 9.49406 15.6868 9.49406 14.7764Z" fill="#FF723F"/>
<path d="M14.9769 14.861C14.9769 15.5323 14.8239 16.0708 14.5177 16.4763C14.2142 16.8792 13.8033 17.0806 13.285 17.0806C12.8446 17.0806 12.4888 16.9275 12.2175 16.6213V18.6758H11.0533V12.6414H12.1329L12.1732 13.0684C12.4552 12.73 12.8231 12.5608 13.277 12.5608C13.8141 12.5608 14.2317 12.7595 14.5298 13.157C14.8279 13.5544 14.9769 14.1023 14.9769 14.8005V14.861ZM13.8127 14.7764C13.8127 14.3708 13.7402 14.058 13.5952 13.8378C13.4529 13.6176 13.2448 13.5074 12.9708 13.5074C12.6056 13.5074 12.3545 13.6471 12.2175 13.9264V15.7109C12.3599 15.9983 12.6136 16.142 12.9789 16.142C13.5348 16.142 13.8127 15.6868 13.8127 14.7764Z" fill="#FF723F"/>
<path d="M16.7658 11.5698V12.6414H17.5111V13.4954H16.7658V15.6707C16.7658 15.8318 16.7967 15.9473 16.8585 16.0171C16.9202 16.0869 17.0384 16.1218 17.213 16.1218C17.3419 16.1218 17.456 16.1124 17.5554 16.0936V16.9758C17.3271 17.0457 17.0921 17.0806 16.8504 17.0806C16.034 17.0806 15.6178 16.6683 15.6016 15.8439V13.4954H14.9652V12.6414H15.6016V11.5698H16.7658Z" fill="#FF723F"/>
</svg>
