<svg width="20" height="17" viewBox="0 0 20 17" fill="none" xmlns="http://www.w3.org/2000/svg">
<path fill-rule="evenodd" clip-rule="evenodd" d="M14 0.375406V3.00328C13.9783 3.18442 13.8281 3.32591 13.6403 3.34206H12.8641C12.6497 3.34206 12.476 3.17399 12.476 2.96665V1.96861H8.2732V12.4984H9.73087C9.94524 12.4984 10.119 12.6665 10.119 12.8738V13.6246C10.119 13.832 9.94524 14 9.73087 14H4.2975C4.08315 14 3.90939 13.832 3.90939 13.6246V12.8738C3.90939 12.6665 4.08315 12.4984 4.2975 12.4984H5.75521V1.96861H1.58079V3.00328C1.56125 3.19619 1.39308 3.34299 1.1927 3.34206H0.388097C0.177851 3.3328 0.00957255 3.17002 0 2.96665V0.375406C0 0.16808 0.173762 0 0.388097 0H13.6403C13.8435 0.0144137 14.0005 0.178349 14 0.375406Z" fill="#1A466B"/>
<path fill-rule="evenodd" clip-rule="evenodd" d="M20 7.24949V8.99594C19.9861 9.11632 19.8895 9.21036 19.7688 9.22109H19.2698C19.132 9.22109 19.0203 9.10939 19.0203 8.9716V8.30831H16.3185V15.3063H17.2556C17.3934 15.3063 17.5051 15.418 17.5051 15.5558V16.0548C17.5051 16.1926 17.3934 16.3042 17.2556 16.3042H13.7627C13.6249 16.3042 13.5132 16.1926 13.5132 16.0548V15.5558C13.5132 15.418 13.6249 15.3063 13.7627 15.3063H14.6998V8.30831H12.0162V8.99594C12.0037 9.12415 11.8956 9.22171 11.7667 9.22109H11.2495C11.1143 9.21494 11.0062 9.10676 11 8.9716V7.24949C11 7.1117 11.1117 7 11.2495 7H19.7688C19.8994 7.00958 20.0003 7.11853 20 7.24949Z" fill="#1A466B"/>
</svg>
