<svg width="24" height="24" viewBox="0 0 24 24" fill="none" xmlns="http://www.w3.org/2000/svg">
<path d="M17.5575 8.00667V5.37583C17.558 5.17855 17.4059 5.01443 17.2092 5H4.37583C4.16827 5 4 5.16827 4 5.37583V7.97C4.00927 8.1736 4.17223 8.33656 4.37583 8.34583H5.155C5.34905 8.34676 5.5119 8.1998 5.53083 8.00667V6.97083H9.57333V17.5125H8.16167C7.9541 17.5125 7.78583 17.6808 7.78583 17.8883V18.64C7.78583 18.8476 7.9541 19.0158 8.16167 19.0158H13.4233C13.6309 19.0158 13.7992 18.8476 13.7992 18.64V17.8883C13.7992 17.6808 13.6309 17.5125 13.4233 17.5125H12.0117V6.97083H16.0817V7.97C16.0817 8.17757 16.2499 8.34583 16.4575 8.34583H17.2092C17.391 8.32966 17.5365 8.18801 17.5575 8.00667Z" fill="black"/>
<path d="M21 16L17 19V13L21 16Z" fill="black"/>
</svg>
