<svg width="24" height="24" viewBox="0 0 24 24" fill="none" xmlns="http://www.w3.org/2000/svg">
<path fill-rule="evenodd" clip-rule="evenodd" d="M10 4.6748H6V19.6748H10V4.6748ZM6 2.6748C4.89543 2.6748 4 3.57024 4 4.6748V19.6748C4 20.7794 4.89543 21.6748 6 21.6748H10C11.1046 21.6748 12 20.7794 12 19.6748V4.6748C12 3.57024 11.1046 2.6748 10 2.6748H6Z" fill="black"/>
<path fill-rule="evenodd" clip-rule="evenodd" d="M14 9.6748C14 9.12252 14.4477 8.6748 15 8.6748H19C19.5523 8.6748 20 9.12252 20 9.6748C20 10.2271 19.5523 10.6748 19 10.6748H15C14.4477 10.6748 14 10.2271 14 9.6748Z" fill="black"/>
<path fill-rule="evenodd" clip-rule="evenodd" d="M14 16.6748C14 16.1225 14.4477 15.6748 15 15.6748H19C19.5523 15.6748 20 16.1225 20 16.6748C20 17.2271 19.5523 17.6748 19 17.6748H15C14.4477 17.6748 14 17.2271 14 16.6748Z" fill="black"/>
<path fill-rule="evenodd" clip-rule="evenodd" d="M17 6.6748C17.5523 6.6748 18 7.12252 18 7.6748V11.6748C18 12.2271 17.5523 12.6748 17 12.6748C16.4477 12.6748 16 12.2271 16 11.6748V7.6748C16 7.12252 16.4477 6.6748 17 6.6748Z" fill="black"/>
</svg>
