<svg width="24" height="24" viewBox="0 0 24 24" fill="none" xmlns="http://www.w3.org/2000/svg">
<path fill-rule="evenodd" clip-rule="evenodd" d="M11 18.5V16.5C11 15.6716 10.3284 15 9.49997 15C8.67154 15 7.99997 15.6716 7.99997 16.5V18.5C7.99997 19.3284 8.67154 20 9.49997 20C10.3284 20 11 19.3284 11 18.5ZM9.49997 13C7.56697 13 5.99997 14.567 5.99997 16.5V18.5C5.99997 20.433 7.56697 22 9.49997 22C11.433 22 13 20.433 13 18.5V16.5C13 14.567 11.433 13 9.49997 13Z" fill="black"/>
<path fill-rule="evenodd" clip-rule="evenodd" d="M20 18.5V16.5C20 15.6716 19.3284 15 18.5 15C17.6715 15 17 15.6716 17 16.5V18.5C17 19.3284 17.6715 20 18.5 20C19.3284 20 20 19.3284 20 18.5ZM18.5 13C16.567 13 15 14.567 15 16.5V18.5C15 20.433 16.567 22 18.5 22C20.433 22 22 20.433 22 18.5V16.5C22 14.567 20.433 13 18.5 13Z" fill="black"/>
<path fill-rule="evenodd" clip-rule="evenodd" d="M20 7.5V5.5C20 4.67157 19.3284 4 18.5 4C17.6715 4 17 4.67157 17 5.5V7.5C17 8.32843 17.6715 9 18.5 9C19.3284 9 20 8.32843 20 7.5ZM18.5 2C16.567 2 15 3.567 15 5.5V7.5C15 9.433 16.567 11 18.5 11C20.433 11 22 9.433 22 7.5V5.5C22 3.567 20.433 2 18.5 2Z" fill="black"/>
<path d="M3.99997 21C3.99997 21.5523 3.55226 22 2.99997 22C2.44769 22 1.99997 21.5523 1.99997 21C1.99997 20.4477 2.44769 20 2.99997 20C3.55226 20 3.99997 20.4477 3.99997 21Z" fill="black"/>
<path d="M14 10C14 10.5523 13.5523 11 13 11C12.4477 11 12 10.5523 12 10C12 9.44772 12.4477 9 13 9C13.5523 9 14 9.44772 14 10Z" fill="black"/>
<path fill-rule="evenodd" clip-rule="evenodd" d="M3.49997 8H10.5V6H3.49997V8Z" fill="black"/>
<path fill-rule="evenodd" clip-rule="evenodd" d="M4.36188 6.9477L6.75923 4.15079L5.24071 2.84921L1.63806 7.0523L5.29286 10.7071L6.70708 9.29289L4.36188 6.9477Z" fill="black"/>
</svg>
