<svg width="17" height="16" viewBox="0 0 17 16" fill="none" xmlns="http://www.w3.org/2000/svg">
<path d="M15.1668 5.33274C15.1668 5.09074 15.0355 4.86807 14.8228 4.75007L8.80817 1.41674C8.6075 1.30607 8.3635 1.30607 8.16283 1.41674L2.1775 4.72341C1.9655 4.84074 1.83417 5.06341 1.8335 5.30541C1.83283 5.54674 1.9635 5.77074 2.1755 5.88874L8.19017 9.24874C8.2915 9.30541 8.40283 9.33341 8.51483 9.33341C8.62683 9.33341 8.73817 9.30541 8.83883 9.24941L14.8242 5.91607C15.0362 5.79807 15.1668 5.57474 15.1668 5.33274ZM8.5155 7.90274L3.8735 5.31007L8.48483 2.76207L13.1275 5.33474L8.5155 7.90274Z" fill="#818A92"/>
<path d="M14.1768 7.41741L8.50017 10.5707L2.8235 7.41741L2.17617 8.58274L8.17617 11.9161C8.27683 11.9721 8.38883 12.0001 8.50017 12.0001C8.6115 12.0001 8.7235 11.9721 8.8235 11.9161L14.8235 8.58274L14.1768 7.41741Z" fill="#818A92"/>
<path d="M14.1768 10.0841L8.50017 13.2374L2.8235 10.0841L2.17617 11.2494L8.17617 14.5827C8.27683 14.6387 8.38883 14.6667 8.50017 14.6667C8.6115 14.6667 8.7235 14.6387 8.8235 14.5827L14.8235 11.2494L14.1768 10.0841Z" fill="#818A92"/>
</svg>
