<svg width="24" height="24" viewBox="0 0 24 24" fill="none" xmlns="http://www.w3.org/2000/svg">
<path fill-rule="evenodd" clip-rule="evenodd" d="M10 13H2V11H10V13Z" fill="black"/>
<path d="M8 15V9L11 12L8 15Z" fill="black"/>
<path fill-rule="evenodd" clip-rule="evenodd" d="M14 13H22V11H14V13Z" fill="black"/>
<path d="M16 15V9L13 12L16 15Z" fill="black"/>
<path fill-rule="evenodd" clip-rule="evenodd" d="M18 3C19.6569 3 21 4.34315 21 6V8H19V6C19 5.44772 18.5523 5 18 5H14V3H18ZM19 16V18C19 18.5523 18.5523 19 18 19H14V21H18C19.6569 21 21 19.6569 21 18V16H19Z" fill="black"/>
<path fill-rule="evenodd" clip-rule="evenodd" d="M6 3C4.34315 3 3 4.34315 3 6V8H5V6C5 5.44772 5.44772 5 6 5H10V3H6ZM5 16H3V18C3 19.6569 4.34315 21 6 21H10V19H6C5.44772 19 5 18.5523 5 18V16Z" fill="black"/>
</svg>
