<svg data-name="Layer 1" xmlns="http://www.w3.org/2000/svg" viewBox="0 0 24 24"><defs><style>.cls-1{fill:#868e96;}</style></defs><path class="cls-1" d="M16.49,13.54h1.83V9.25s0,0,0-.06a.59.59,0,0,0,0-.23.32.32,0,0,0,0-.09.8.8,0,0,0-.18-.27l-5.5-5.5a.93.93,0,0,0-.26-.18l-.09,0a1,1,0,0,0-.24,0l-.05,0H5.49A1.84,1.84,0,0,0,3.66,4.67V19.33a1.84,1.84,0,0,0,1.83,1.84H11V19.33H5.49V4.67H11V9.25a.92.92,0,0,0,.92.92h4.58Z"/><path class="cls-1" d="M20.21,17.53,17.05,15a.37.37,0,0,0-.6.29v1.6H12.78v1.84h3.67v1.61a.37.37,0,0,0,.6.29l3.16-2.53A.37.37,0,0,0,20.21,17.53Z"/></svg>