<svg width="24" height="24" viewBox="0 0 24 24" fill="none" xmlns="http://www.w3.org/2000/svg">
<path d="M16.5575 8.00667V5.37583C16.558 5.17855 16.4059 5.01443 16.2092 5H3.37583C3.16827 5 3 5.16827 3 5.37583V7.97C3.00927 8.1736 3.17223 8.33656 3.37583 8.34583H4.155C4.34905 8.34676 4.5119 8.1998 4.53083 8.00667V6.97083H8.57333V17.5125H7.16167C6.9541 17.5125 6.78583 17.6808 6.78583 17.8883V18.64C6.78583 18.8476 6.9541 19.0158 7.16167 19.0158H12.4233C12.6309 19.0158 12.7992 18.8476 12.7992 18.64V17.8883C12.7992 17.6808 12.6309 17.5125 12.4233 17.5125H11.0117V6.97083H15.0817V7.97C15.0817 8.17757 15.2499 8.34583 15.4575 8.34583H16.2092C16.391 8.32966 16.5365 8.18801 16.5575 8.00667Z" fill="black"/>
<path d="M21 14V11H19V14H17V12L13 15L17 18V16H19C20.1046 16 21 15.1046 21 14Z" fill="black"/>
</svg>
