<svg width="24" height="24" viewBox="0 0 24 24" fill="none" xmlns="http://www.w3.org/2000/svg">
<path fill-rule="evenodd" clip-rule="evenodd" d="M3 5V19C3 20.1046 3.89543 21 5 21H19C20.1046 21 21 20.1046 21 19V5C21 3.89543 20.1046 3 19 3H5C3.89543 3 3 3.89543 3 5ZM5 6V19H19V6H5Z" fill="black"/>
<path fill-rule="evenodd" clip-rule="evenodd" d="M19 11L5 11L5 9L19 9V11Z" fill="black"/>
<path fill-rule="evenodd" clip-rule="evenodd" d="M19 16L5 16L5 14L19 14V16Z" fill="black"/>
<path fill-rule="evenodd" clip-rule="evenodd" d="M8 19V6H10V19H8Z" fill="black"/>
<path fill-rule="evenodd" clip-rule="evenodd" d="M14 19V6H16V19H14Z" fill="black"/>
</svg>
