<svg xmlns="http://www.w3.org/2000/svg" width="24" height="24" viewBox="0 0 24 24">
  <path d="m0 0h24v24h-24z" fill="none"/>
  <path d="m17.5030483 9.00304833v1.99999997h1v-1.99999997h2v2.99999997h1v-2.99999997h1c.5522848 0 1 .44771525 1 .99999997v4c0 .5522848-.4477152 1-1 1h-20.99999997c-.55228475 0-1-.4477152-1-1v-4c0-.55228472.44771525-.99999997 1-.99999997h1v2.99999997h1v-2.99999997h2v1.99999997h1v-1.99999997h2v1.99999997h1v-1.99999997h1.99999997v2.99999997h1v-2.99999997h2v1.99999997h1v-1.99999997z" transform="matrix(.70710678 -.70710678 .70710678 .70710678 -4.971825 12.003048)"/>
</svg>