<svg id="icon" xmlns="http://www.w3.org/2000/svg" viewBox="0 0 24 24"><defs><style>.cls-1{fill:#000000;}</style></defs><title>icon - tool - measurement - area - line</title><path class="cls-1" d="M19.14,2H4.86A2.86,2.86,0,0,0,2,4.86V19.14A2.86,2.86,0,0,0,4.86,22H19.14A2.86,2.86,0,0,0,22,19.14V4.86A2.86,2.86,0,0,0,19.14,2ZM4,4h6.22L4,10.22ZM4,18.71V13H4l9-9,0,0h5.71ZM5.54,20,20,5.54v5.69L11.23,20Zm8.52,0L20,14.06V20Z"/><path class="cls-1" d="M10.22,4H13L4,13V10.22ZM20,5.54V4H18.71L4,18.71V20H5.54ZM14.06,20,20,14.06V11.23L11.23,20Z"/></svg>