<svg width="24" height="24" viewBox="0 0 24 24" fill="none" xmlns="http://www.w3.org/2000/svg">
<path d="M11.1716 2H4C2.8954 2 2 2.8954 2 4V18C2 19.1046 2.8954 20 4 20H8V18H4V4H11V7.5C11 7.7761 11.2239 8 11.5 8H15V10.8432L17 8.8432V7.8284C17 7.298 16.7893 6.7892 16.4142 6.4142L12.5858 2.5858C12.2107 2.2107 11.702 2 11.1716 2Z" fill="black"/>
<path d="M21.5606 12.0339L20.1464 10.6197C19.8535 10.3268 19.4696 10.1804 19.0857 10.1804C18.7018 10.1804 18.3179 10.3268 18.025 10.6197L10.1803 18.4644V22H13.7158L21.5605 14.1553C22.1465 13.5695 22.1465 12.6198 21.5606 12.0339ZM13.0946 20.5H11.6804V19.0857L16.9919 13.7733L18.4066 15.188L13.0946 20.5ZM19.4673 14.1273L18.0526 12.7125L19.0844 11.6805L19.0859 11.6804L20.5 13.0946L19.4673 14.1273Z" fill="black"/>
</svg>
