<svg width="51" height="50" viewBox="0 0 51 50" fill="none" xmlns="http://www.w3.org/2000/svg">
    <path d="M50.5 14.9977C50.5 14.0902 50.0075 13.2552 49.21 12.8127L26.655 0.312715C25.9025 -0.102285 24.9875 -0.102285 24.235 0.312715L1.79001 12.7127C0.99501 13.1527 0.50251 13.9877 0.50001 14.8952C0.49751 15.8002 0.98751 16.6402 1.78251 17.0827L24.3375 29.6827C24.7175 29.8952 25.135 30.0002 25.555 30.0002C25.975 30.0002 26.3925 29.8952 26.77 29.6852L49.215 17.1852C50.01 16.7427 50.5 15.9052 50.5 14.9977ZM25.5575 24.6352L8.15001 14.9127L25.4425 5.35772L42.8525 15.0052L25.5575 24.6352Z"
          fill="#ADB5BD"/>
    <path d="M46.7875 22.8152L25.5 34.6402L4.21251 22.8152L1.78501 27.1852L24.285 39.6852C24.6625 39.8952 25.0825 40.0002 25.5 40.0002C25.9175 40.0002 26.3375 39.8952 26.7125 39.6852L49.2125 27.1852L46.7875 22.8152Z"
          fill="#ADB5BD"/>
    <path d="M46.7875 32.8152L25.5 44.6402L4.21251 32.8152L1.78501 37.1852L24.285 49.6852C24.6625 49.8952 25.0825 50.0002 25.5 50.0002C25.9175 50.0002 26.3375 49.8952 26.7125 49.6852L49.2125 37.1852L46.7875 32.8152Z"
          fill="#ADB5BD"/>
</svg>
