<svg width="24" height="24" viewBox="0 0 24 24" fill="none" xmlns="http://www.w3.org/2000/svg">
<path d="M16 12V6C16 3.783 14.215 1.979 12.021 1.979C11.952 1.979 11.881 1.988 11.812 2.004C9.693 2.104 8 3.857 8 6V12C8 14.206 9.794 16 12 16C14.206 16 16 14.206 16 12ZM10 12V6C10 4.897 10.897 4 12 4C12.055 4 12.109 3.995 12.163 3.985C13.188 4.06 14 4.935 14 6V12C14 13.103 13.103 14 12 14C10.897 14 10 13.103 10 12Z" fill="#484848"/>
<path d="M6 12H4C4 16.072 7.061 19.436 11 19.931V22H13V19.931C16.939 19.436 20 16.073 20 12H18C18 15.309 15.309 18 12 18C8.691 18 6 15.309 6 12Z" fill="#484848"/>
</svg>
