<svg width="24" height="24" viewBox="0 0 24 24" fill="default" xmlns="http://www.w3.org/2000/svg">
<path d="M6.52548 2C6.95038 2 7.33156 2.24374 7.51376 2.61621L7.57919 2.78418L9.9581 10.7129L9.98251 10.8125C10.0781 11.3101 9.78298 11.8093 9.2872 11.958C8.79131 12.1066 8.27013 11.8521 8.07626 11.3838L8.04208 11.2871L6.00009 4.48047L3.9581 11.2871C3.79943 11.816 3.24189 12.1165 2.71298 11.958C2.18408 11.7993 1.88357 11.2418 2.04208 10.7129L4.42099 2.78418L4.48642 2.61621C4.66862 2.24374 5.0498 2 5.4747 2H6.52548Z"/>
<path d="M8.00009 8V10H4.00009V8H8.00009Z"/>
<path d="M20.0001 15C20.0001 14.4477 19.5524 14 19.0001 14H17.0001V16H19.0001C19.5524 16 20.0001 15.5523 20.0001 15ZM22.0001 15C22.0001 16.6569 20.6569 18 19.0001 18H15.0001V13.3848C15.0001 12.6201 15.6202 12 16.3849 12H19.0001C20.6569 12 22.0001 13.3431 22.0001 15Z"/>
<path d="M20.0001 19C20.0001 18.4477 19.5524 18 19.0001 18H17.0001V20H19.0001C19.5524 20 20.0001 19.5523 20.0001 19ZM22.0001 19C22.0001 20.6569 20.6569 22 19.0001 22H16.3849C15.6202 22 15.0001 21.3799 15.0001 20.6152V16H19.0001C20.6569 16 22.0001 17.3431 22.0001 19Z"/>
<path d="M5.00009 16V13H7.00009V16H13.0001V18H7.00009C5.89552 18 5.00009 17.1046 5.00009 16Z"/>
<path d="M10.0001 21V13L14.0001 17L10.0001 21Z"/>
</svg>
