<?xml version="1.0" encoding="UTF-8"?>
<svg xmlns="http://www.w3.org/2000/svg" xmlns:xlink="http://www.w3.org/1999/xlink" width="24px" height="24px" viewBox="0 0 24 24" version="1.1">
<g id="surface1">
<path style=" stroke:none;fill-rule:nonzero;fill:rgb(0%,0%,0%);fill-opacity:1;" d="M 11.34375 4.0625 C 11.035156 4.128906 10.570312 4.390625 8.0625 5.925781 L 5.359375 7.585938 L 3.863281 7.609375 C 2.226562 7.632812 2.058594 7.65625 1.539062 7.929688 C 0.882812 8.277344 0.355469 8.890625 0.136719 9.570312 C 0.0234375 9.914062 0.0234375 9.921875 0.0234375 12.023438 L 0.0234375 14.132812 L 0.144531 14.46875 C 0.398438 15.15625 0.867188 15.703125 1.5 16.046875 C 2.058594 16.351562 2.199219 16.367188 3.863281 16.390625 L 5.359375 16.414062 L 8.0625 18.074219 C 9.546875 18.984375 10.878906 19.777344 11.019531 19.832031 C 11.226562 19.921875 11.367188 19.941406 11.765625 19.941406 C 12.230469 19.945312 12.277344 19.9375 12.570312 19.789062 C 12.917969 19.621094 13.199219 19.339844 13.359375 19.003906 C 13.597656 18.511719 13.59375 18.75 13.59375 12 C 13.59375 5.039062 13.609375 5.398438 13.296875 4.878906 C 13.109375 4.570312 12.851562 4.335938 12.515625 4.179688 C 12.3125 4.082031 12.171875 4.058594 11.859375 4.050781 C 11.640625 4.046875 11.410156 4.050781 11.34375 4.0625 Z M 11.71875 12.003906 C 11.71875 17.164062 11.710938 18.050781 11.652344 18.03125 C 11.617188 18.019531 10.292969 17.210938 8.714844 16.246094 L 5.835938 14.484375 L 4.226562 14.484375 C 2.726562 14.484375 2.609375 14.480469 2.441406 14.394531 C 2.207031 14.273438 1.988281 14.015625 1.925781 13.796875 C 1.859375 13.554688 1.859375 10.445312 1.925781 10.203125 C 1.988281 9.984375 2.207031 9.726562 2.441406 9.605469 C 2.609375 9.519531 2.726562 9.515625 4.226562 9.515625 L 5.835938 9.515625 L 8.742188 7.734375 C 10.339844 6.753906 11.664062 5.953125 11.6875 5.953125 C 11.703125 5.953125 11.71875 8.675781 11.71875 12.003906 Z M 11.71875 12.003906 "/>
<path style=" stroke:none;fill-rule:nonzero;fill:rgb(0%,0%,0%);fill-opacity:1;" d="M 20.085938 4.402344 C 19.984375 4.449219 19.785156 4.601562 19.65625 4.75 C 19.421875 4.996094 19.40625 5.019531 19.40625 5.265625 C 19.40625 5.558594 19.429688 5.597656 20.007812 6.242188 C 21.027344 7.382812 21.726562 8.804688 22.035156 10.359375 C 22.128906 10.8125 22.144531 11.054688 22.148438 11.859375 C 22.148438 12.890625 22.117188 13.175781 21.886719 14.054688 C 21.515625 15.460938 20.8125 16.710938 19.773438 17.789062 C 19.222656 18.359375 19.191406 18.652344 19.609375 19.109375 C 19.878906 19.40625 20.058594 19.5 20.359375 19.5 C 20.625 19.5 20.84375 19.351562 21.285156 18.867188 C 23.132812 16.835938 24.089844 14.234375 23.984375 11.53125 C 23.925781 9.992188 23.605469 8.699219 22.941406 7.335938 C 22.351562 6.117188 21.085938 4.492188 20.625 4.359375 C 20.398438 4.292969 20.300781 4.304688 20.085938 4.402344 Z M 20.085938 4.402344 "/>
<path style=" stroke:none;fill-rule:nonzero;fill:rgb(0%,0%,0%);fill-opacity:1;" d="M 17.585938 6.847656 C 17.328125 6.976562 16.976562 7.367188 16.941406 7.570312 C 16.890625 7.84375 16.960938 7.996094 17.324219 8.398438 C 17.9375 9.078125 18.300781 9.707031 18.535156 10.503906 C 18.886719 11.722656 18.769531 12.988281 18.195312 14.132812 C 17.96875 14.597656 17.722656 14.945312 17.320312 15.371094 C 16.925781 15.796875 16.828125 16.007812 16.917969 16.28125 C 16.992188 16.507812 17.304688 16.847656 17.546875 16.964844 C 17.960938 17.164062 18.300781 17.054688 18.730469 16.566406 C 19.8125 15.347656 20.394531 14.011719 20.53125 12.445312 C 20.695312 10.554688 20.023438 8.605469 18.75 7.25 C 18.261719 6.730469 18.003906 6.640625 17.585938 6.847656 Z M 17.585938 6.847656 "/>
<path style=" stroke:none;fill-rule:nonzero;fill:rgb(0%,0%,0%);fill-opacity:1;" d="M 15.445312 8.992188 C 15.34375 9.042969 15.136719 9.210938 14.992188 9.367188 C 14.757812 9.609375 14.71875 9.675781 14.71875 9.828125 C 14.71875 10.039062 14.785156 10.148438 15.121094 10.5 C 15.445312 10.835938 15.652344 11.273438 15.6875 11.703125 C 15.742188 12.328125 15.539062 12.851562 15.066406 13.34375 C 14.601562 13.828125 14.59375 14.042969 15.007812 14.476562 C 15.285156 14.757812 15.417969 14.835938 15.664062 14.882812 C 16.007812 14.949219 16.320312 14.757812 16.707031 14.253906 C 17.792969 12.84375 17.796875 10.953125 16.71875 9.542969 C 16.367188 9.078125 16.179688 8.9375 15.882812 8.921875 C 15.707031 8.90625 15.578125 8.929688 15.445312 8.992188 Z M 15.445312 8.992188 "/>
</g>
</svg>
