<svg width="24" height="24" viewBox="0 0 24 24" fill="none" xmlns="http://www.w3.org/2000/svg">
    <path fill-rule="evenodd" clip-rule="evenodd" d="M4 18.11H6.83V16.22H4.94V14.34H3.05V17.17C3.04999 17.421 3.15039 17.6616 3.32885 17.8382C3.5073 18.0148 3.74897 18.1126 4 18.11ZM18.17 3.93997C18.1382 3.41124 17.6997 2.99901 17.17 2.99997H14.39V4.88997H16.28V6.77997H18.17V3.93997ZM4.94 4.88997H6.83V2.99997H4C3.74048 2.98337 3.48567 3.07502 3.29618 3.25314C3.1067 3.43125 2.99947 3.67991 3 3.93997V6.77997H4.94V4.88997ZM3.05 8.66997H4.94V12.45H3.05V8.66997ZM8.72 2.99997H12.5V4.88997H8.72V2.99997Z" fill="black"/>
    <path fill-rule="evenodd" clip-rule="evenodd" d="M8.67518 8.36206C8.67494 8.04026 9.05891 7.87893 9.28347 8.10648L14.5 13.3924L19.714 8.10925C19.9385 7.8817 20.3225 8.04303 20.3222 8.36483L20.3214 9.44967C20.3212 9.83233 20.171 10.1992 19.904 10.4698L15.7599 14.6689L17.3189 16.2487C18.2643 15.7302 19.4705 15.8757 20.2694 16.6853C21.2435 17.6724 21.2435 19.2727 20.2694 20.2597C19.2954 21.2467 17.716 21.2467 16.742 20.2597C16.0384 19.5468 15.843 18.5139 16.1558 17.6232L14.5 15.9455L12.8442 17.6233C13.157 18.5139 12.9616 19.5468 12.258 20.2597C11.284 21.2468 9.70465 21.2468 8.73056 20.2597C7.75648 19.2727 7.75648 17.6724 8.73056 16.6853C9.52954 15.8757 10.7357 15.7302 11.6811 16.2487L13.2402 14.6689L9.09345 10.4671C8.82642 10.1965 8.67627 9.82956 8.67599 9.4469L8.67518 8.36206ZM17.7498 19.2385C18.1673 19.6615 18.8441 19.6615 19.2616 19.2385C19.679 18.8154 19.679 18.1296 19.2616 17.7066C18.8441 17.2836 18.1673 17.2836 17.7498 17.7066C17.3323 18.1296 17.3323 18.8154 17.7498 19.2385ZM11.2502 19.2385C10.8327 19.6615 10.1559 19.6615 9.73841 19.2385C9.32095 18.8155 9.32095 18.1296 9.73841 17.7066C10.1559 17.2836 10.8327 17.2836 11.2502 17.7066C11.6677 18.1296 11.6677 18.8155 11.2502 19.2385ZM14.5043 15.222C14.7995 15.222 15.0388 14.9796 15.0388 14.6804C15.0388 14.3813 14.7995 14.1388 14.5043 14.1388C14.2091 14.1388 13.9698 14.3813 13.9698 14.6804C13.9698 14.9796 14.2091 15.222 14.5043 15.222Z" fill="black"/>
</svg>
