<?xml version="1.0" encoding="utf-8"?>
<!-- Generator: Adobe Illustrator 24.1.3, SVG Export Plug-In . SVG Version: 6.00 Build 0)  -->
<svg version="1.1" id="icon" xmlns="http://www.w3.org/2000/svg" xmlns:xlink="http://www.w3.org/1999/xlink" x="0px" y="0px"
	 viewBox="0 0 24 24" style="enable-background:new 0 0 24 24;" xml:space="preserve">
<style type="text/css">
	.st0{fill:#868E96;}
	.st1{fill:#FFFFFF;}
</style>
<path class="st0" d="M18.4,11.2C18,8,15.2,5.6,12,5.6c-2.5,0-4.8,1.5-5.7,3.8c-2,0.6-3.4,2.4-3.5,4.4c0,2.5,2.1,4.6,4.6,4.6h10.1
	c2,0,3.7-1.7,3.6-3.7C21.1,13.1,20,11.6,18.4,11.2z M17.2,16.3H7.7c-1.4,0-2.6-1.2-2.6-2.6c0.1-1.3,1-2.4,2.3-2.6L7.9,11l0.2-0.5
	c0.5-1.7,2.1-2.9,3.9-2.9c2.4,0,4.3,1.9,4.3,4.3v0.9h0.9c0.9,0,1.7,0.8,1.7,1.7C18.9,15.5,18.1,16.3,17.2,16.3z"/>
<path fill="fill" class="st1" d="M17.2,16.3H7.7c-1.4,0-2.6-1.2-2.6-2.6c0.1-1.3,1-2.4,2.3-2.6L7.9,11l0.2-0.5c0.5-1.7,2.1-2.9,3.9-2.9
	c2.4,0,4.3,1.9,4.3,4.3v0.9h0.9c0.9,0,1.7,0.8,1.7,1.7C18.9,15.5,18.1,16.3,17.2,16.3z"/>
</svg>
