<svg width="24" height="24" viewBox="0 0 24 24" fill="none" xmlns="http://www.w3.org/2000/svg">
<g id="ic-view">
<g id="shape">
<path fill-rule="evenodd" clip-rule="evenodd" d="M21.9 11.69C20.3261 7.60727 16.3752 4.93743 12 5.00001C10.415 4.99088 8.84757 5.33236 7.41 6.00001C6.78258 6.26227 6.18844 6.59795 5.64 7.00001C4.05034 8.20724 2.82524 9.83032 2.1 11.69L2 12L2.1 12.31C3.67394 16.3927 7.62483 19.0626 12 19C13.585 19.0091 15.1524 18.6677 16.59 18C17.2155 17.7339 17.8092 17.3985 18.36 17C19.9387 15.807 21.1626 14.2063 21.9 12.37L22 12L21.9 11.69ZM19.9 12L19.82 12.23C19.2128 13.5784 18.2348 14.7263 17 15.54C16.5632 15.8364 16.0975 16.0877 15.61 16.29C14.4656 16.7637 13.2385 17.005 12 17C11.7126 16.9992 11.4255 16.9825 11.14 16.95C10.91 16.95 10.69 16.95 10.47 16.87C7.71648 16.516 5.34333 14.7598 4.2 12.23L4.12 12L4.2 11.78C4.79973 10.4303 5.77081 9.27886 7 8.46001C7.43439 8.15972 7.90053 7.90821 8.39 7.71001C9.00014 7.45661 9.63779 7.27538 10.29 7.17001H10.59L11.08 7.11001C11.38 7.11001 11.69 7.11001 12.01 7.11001C12.343 7.08934 12.677 7.08934 13.01 7.11001C13.1913 7.1222 13.3716 7.14557 13.55 7.18001H13.9C14.16 7.23334 14.41 7.29334 14.65 7.36001C16.9294 7.98463 18.8107 9.59456 19.78 11.75L19.86 11.96L19.9 12Z" fill="black"/>
<path fill-rule="evenodd" clip-rule="evenodd" d="M15.72 10.66C15.5374 10.8681 15.2767 10.9912 15 11C14.5299 10.9747 14.1412 10.6249 14.0665 10.16C13.9919 9.69524 14.2515 9.2413 14.69 9.07001C14.1569 8.56815 13.4962 8.22225 12.78 8.07001C12.5231 8.02015 12.2617 7.9967 12 8.00001C11.7783 8.00244 11.5573 8.02588 11.34 8.07001L11 8.16001C10.9349 8.174 10.8713 8.19409 10.81 8.22001C10.5205 8.31236 10.2422 8.43645 9.98 8.59001C8.4831 9.40948 7.67094 11.0884 7.95764 12.7707C8.24435 14.4529 9.56676 15.7681 11.2506 16.0455C12.9344 16.3228 14.6088 15.5014 15.42 14C15.5738 13.7415 15.6979 13.4664 15.79 13.18C15.8146 13.1148 15.8346 13.048 15.85 12.98C15.8791 12.8747 15.9025 12.7679 15.92 12.66C15.9675 12.443 15.9943 12.222 16 12C15.9975 11.7684 15.9741 11.5374 15.93 11.31C15.8768 11.0883 15.8066 10.871 15.72 10.66Z" fill="black"/>
</g>
</g>
</svg>