<?xml version="1.0" encoding="UTF-8"?>
<svg width="20px" height="20px" viewBox="0 0 20 20" version="1.1" xmlns="http://www.w3.org/2000/svg" xmlns:xlink="http://www.w3.org/1999/xlink">
    <!-- Generator: Sketch 63.1 (92452) - https://sketch.com -->
    <title>icon / completed/ line</title>
    <desc>Created with Sketch.</desc>
    <g id="Page-1" stroke="none" stroke-width="1" fill="none" fill-rule="evenodd">
        <g id="New_andrd_SDStrge002-Copy-5" transform="translate(-213.000000, -178.000000)" fill-rule="nonzero">
            <g id="icon-/-completed/-line" transform="translate(211.000000, 176.000000)">
                <path d="M16,2 L8,2 C4.691,2 2,4.691 2,8 L2,21 C2,21.553 2.448,22 3,22 L16,22 C19.309,22 22,19.309 22,16 L22,8 C22,4.691 19.309,2 16,2 Z M20,16 C20,18.206 18.206,20 16,20 L4,20 L4,8 C4,5.794 5.794,4 8,4 L16,4 C18.206,4 20,5.794 20,8 L20,16 Z" id="Shape" fill="#868E96"></path>
                <polygon id="Check" fill="#239700" points="11 13.586 8.707 11.293 7.293 12.707 11 16.414 17.207 10.207 15.793 8.793"></polygon>
            </g>
        </g>
    </g>
</svg>