<svg data-name="Layer 1" xmlns="http://www.w3.org/2000/svg" viewBox="0 0 24 24"><defs><style>.cls-1{fill:#868e96;}</style></defs><path class="cls-1" d="M11.08,18.42h1.84v2.75H11.08ZM16.59,12A4.59,4.59,0,1,1,12,7.41,4.6,4.6,0,0,1,16.59,12Zm-1.83,0A2.76,2.76,0,1,0,12,14.76,2.77,2.77,0,0,0,14.76,12Zm3.66-.92v1.84h2.75V11.08Zm-12.84,0H2.83v1.84H5.58Zm7.34-8.25H11.08V5.58h1.84Zm-8,15,1.3,1.3,1.94-1.95-1.3-1.29ZM19.13,6.17l-1.3-1.3L15.89,6.81l1.3,1.3Zm-11,.65L6.17,4.87l-1.3,1.3,2,1.94Zm7.78,10.36,1.94,1.95,1.3-1.3-1.95-1.94Z"/></svg>