<svg id="icons" xmlns="http://www.w3.org/2000/svg" viewBox="0 0 24 24"><defs><style>.cls-1{fill:#8c8c8c;}</style></defs><title>icon - line - tool - text</title><g id="icons-2" data-name="icons"><path class="cls-1" d="M19.38,4.76V7.63A.42.42,0,0,1,19,8h-.82a.41.41,0,0,1-.41-.41V6.5H13.33V18h1.54a.41.41,0,0,1,.41.41v.82a.41.41,0,0,1-.41.41H9.13a.41.41,0,0,1-.41-.41v-.82A.41.41,0,0,1,9.13,18h1.54V6.5H6.26V7.63A.41.41,0,0,1,5.85,8H5a.43.43,0,0,1-.41-.41V4.76A.41.41,0,0,1,5,4.35H19A.41.41,0,0,1,19.38,4.76Z"/></g></svg>