<svg xmlns="http://www.w3.org/2000/svg" viewBox="0 0 24 24"><defs><style>.cls-1{fill:#abb0c4;}</style></defs><title>icon - tool - redaction - full page</title><path class="cls-1" d="M18.36,2H5.64A1.82,1.82,0,0,0,3.82,3.82V20.18A1.82,1.82,0,0,0,5.64,22H18.36a1.82,1.82,0,0,0,1.82-1.82V3.82A1.82,1.82,0,0,0,18.36,2ZM5.64,20.18V3.82H18.36V20.18Z"/><path class="cls-1" d="M12.91,5.66H7.45V18.34h9.1V5.66H12.91Zm1.94,4.53L13.05,12l1.8,1.81a.39.39,0,0,1,0,.56l-.48.48a.39.39,0,0,1-.56,0L12,13.05l-1.81,1.8a.39.39,0,0,1-.56,0l-.48-.48a.39.39,0,0,1,0-.56L11,12l-1.8-1.81a.39.39,0,0,1,0-.56l.48-.48a.39.39,0,0,1,.56,0L12,11l1.81-1.8a.39.39,0,0,1,.56,0l.48.48A.39.39,0,0,1,14.85,10.19Z"/></svg>