<?xml version="1.0" encoding="utf-8"?>
<!-- Generator: Adobe Illustrator 25.2.1, SVG Export Plug-In . SVG Version: 6.00 Build 0)  -->
<svg version="1.1" id="icon" xmlns="http://www.w3.org/2000/svg" xmlns:xlink="http://www.w3.org/1999/xlink" x="0px" y="0px" viewBox="0 0 24 24" style="enable-background:new 0 0 24 24;" xml:space="preserve">
	<style type="text/css">
	.st0{fill:#868E96;}
	.st1{fill:none;}
</style>
	<path class="st0" d="M20.5,10.7c-0.5-4.2-4.2-7.3-8.4-7.3c-3.3,0-6.3,1.9-7.5,4.9C2,9.2,0.1,11.5,0,14.1c0,3.2,2.8,6,6,6h13.2
	c2.6,0,4.9-2.2,4.7-4.8C24,13.2,22.6,11.3,20.5,10.7z M18.9,17.4H6.4C4.6,17.4,3,15.8,3,14c0.1-1.7,1.3-3.1,3-3.4l0.7-0.1l0.3-0.6
	c0.7-2.2,2.8-3.8,5.1-3.8c3.1,0,5.6,2.5,5.6,5.6v1.2h1.2c1.2,0,2.2,1,2.2,2.2C21.1,16.3,20.1,17.4,18.9,17.4z" />
	<path fill="none" d="M18.9,17.4H6.4C4.6,17.4,3,15.9,3,14c0.1-1.7,1.3-3.1,3-3.4l0.7-0.1l0.3-0.7c0.7-2.2,2.8-3.8,5.1-3.8
	c3.1,0,5.6,2.5,5.6,5.6v1.2h1.2c1.2,0,2.2,1,2.2,2.2C21.1,16.4,20.1,17.4,18.9,17.4z" />
	<polygon class="st0" points="11.4,4.9 12.6,5.9 4.5,17.1 3.3,16.1 " />
	<polygon class="st0" points="15.5,7.1 16.7,8 9.5,18.3 8.3,17.4 " />
	<polygon class="st0" points="18.3,10.8 19.3,11.6 14.5,18.3 13.5,17.5 " />
</svg>
