<svg xmlns="http://www.w3.org/2000/svg" viewBox="0 0 24 24"><defs><style>.cls-1{fill:#abb0c4;}</style></defs><title>icon - tool - measurement - distance - line</title><path class="cls-1" d="M21.46,6.59l-4.05-4a2,2,0,0,0-2.79.08l-12,12a2,2,0,0,0-.08,2.79l4.05,4.05a2,2,0,0,0,2.79-.08l12-12A2,2,0,0,0,21.46,6.59ZM20,8,8,20a.43.43,0,0,1-.09.06s0,0,0,0l-4-4A.17.17,0,0,1,4,16L5.24,14.7l2,2,1.35-1.35-2-2L7.94,12l2.71,2.7L12,13.35l-2.7-2.7L10.65,9.3l2,2L14,10l-2-2,1.35-1.35L16.06,9.3l1.35-1.36L14.7,5.24,16,4c.06-.05.1-.06.09-.08l4,4A.17.17,0,0,1,20,8Z"/></svg>