<svg width="24" height="24" viewBox="0 0 24 24" xmlns="http://www.w3.org/2000/svg">
<rect width="24" height="24" rx="4" fill="none"/>
<path fill-rule="evenodd" clip-rule="evenodd" d="M18.5575 5.37583V8.00667C18.5365 8.18801 18.391 8.32966 18.2092 8.34583H17.4575C17.2499 8.34583 17.0817 8.17757 17.0817 7.97V6.97083H13.0117V17.5125H14.4233C14.6309 17.5125 14.7992 17.6808 14.7992 17.8883V18.64C14.7992 18.8476 14.6309 19.0158 14.4233 19.0158H9.16167C8.9541 19.0158 8.78583 18.8476 8.78583 18.64V17.8883C8.78583 17.6808 8.9541 17.5125 9.16167 17.5125H10.5733V6.97083H6.53083V8.00667C6.5119 8.1998 6.34905 8.34676 6.155 8.34583H5.37583C5.17223 8.33656 5.00927 8.1736 5 7.97V5.37583C5 5.16827 5.16827 5 5.37583 5H18.2092C18.4059 5.01443 18.558 5.17855 18.5575 5.37583Z" fill="black"/>
<path fill-rule="evenodd" clip-rule="evenodd" d="M20 2H4C2.89543 2 2 2.89543 2 4V20C2 21.1046 2.89543 22 4 22H20C21.1046 22 22 21.1046 22 20V4C22 2.89543 21.1046 2 20 2ZM4 0C1.79086 0 0 1.79086 0 4V20C0 22.2091 1.79086 24 4 24H20C22.2091 24 24 22.2091 24 20V4C24 1.79086 22.2091 0 20 0H4Z" fill="stroke" />
</svg>
