<svg xmlns="http://www.w3.org/2000/svg" viewBox="0 0 24 24"><defs><style>.cls-1{fill:#abb0c4;}</style></defs><title>icon - tool - measurement - perimeter</title><path class="cls-1" d="M16.07,4.3H7.92v-2h8.15ZM4,15.43H2v1.85a1.81,1.81,0,0,0,1.81,1.8h1.8v-2H4ZM4,4.28H5.6v-2H3.8A1.81,1.81,0,0,0,2,4.08V5.89H4ZM4,8.21H2v4.91H4ZM17.71,21.6a.4.4,0,0,0,.68-.28V14.8a.4.4,0,0,0-.68-.28l-3.26,3.26a.4.4,0,0,0,0,.56ZM20,5.89h2V4.09a1.82,1.82,0,0,0-1.81-1.81h-1.8v2H20Zm0,2.32v4.91h2V8.21ZM20,17H18.4v2h1.8A1.81,1.81,0,0,0,22,17.28v-1.8H20ZM9.27,17H7.92v2H9.27V21h2V14.69h-2Z"/></svg>