<svg width="24" height="24" viewBox="0 0 24 24" fill="none" xmlns="http://www.w3.org/2000/svg">
<path fill-rule="evenodd" clip-rule="evenodd" d="M4.5 4.5C4.5 3.67157 5.17157 3 6 3H12.7929C13.1907 3 13.5722 3.15804 13.8536 3.43934L19.0607 8.64645C19.342 8.92775 19.5 9.30928 19.5 9.70711V19.5C19.5 20.3284 18.8284 21 18 21H6C5.17157 21 4.5 20.3284 4.5 19.5V4.5ZM6.5 5V19H17.5V9.91421L12.5858 5H6.5Z" fill="black"/>
<path fill-rule="evenodd" clip-rule="evenodd" d="M16 12H8V10.5H16V12Z" fill="black"/>
<path fill-rule="evenodd" clip-rule="evenodd" d="M16 16H8V14.5H16V16Z" fill="black"/>
<path fill-rule="evenodd" clip-rule="evenodd" d="M9 13V9H10.5V13H9Z" fill="black"/>
<path fill-rule="evenodd" clip-rule="evenodd" d="M13 17V13H14.5V17H13Z" fill="black"/>
</svg>
