<svg width="55" height="46" viewBox="0 0 55 46" fill="none" xmlns="http://www.w3.org/2000/svg">
<path d="M1.27337 44.636C1.76937 45.3827 2.60404 45.8333 3.50004 45.8333H43.5C44.5667 45.8333 45.532 45.1987 45.9507 44.2173L53.9507 25.5507C54.3054 24.7267 54.22 23.7827 53.7267 23.0333C53.2307 22.284 52.396 21.8333 51.5 21.8333H48.8334V11.1667C48.8334 8.22533 46.4414 5.83333 43.5 5.83333H27.2334L21.1427 1.068C20.6734 0.7 20.0974 0.5 19.5 0.5H6.16671C3.22537 0.5 0.833374 2.892 0.833374 5.83333V43.1667H0.852041C0.852041 43.6787 0.982707 44.1933 1.27337 44.636ZM41.7427 40.5H7.54537L13.26 27.1667H47.4574L41.7427 40.5ZM43.5 11.1667V21.8333H11.5C10.4334 21.8333 9.46804 22.468 9.04937 23.4493L6.16671 30.1773V11.1667H26.316H27.5H43.5Z" fill="#868E96"/>
</svg>
