<svg width="24" height="24" viewBox="0 0 24 24" fill="none" xmlns="http://www.w3.org/2000/svg">
<path fill-rule="evenodd" clip-rule="evenodd" d="M14.2918 12.2917C14.2918 13.575 13.2835 14.5833 12.0002 14.5833C10.7168 14.5833 9.7085 13.575 9.7085 12.2917C9.7085 11.0083 10.7168 10 12.0002 10C13.2835 10 14.2918 11.0083 14.2918 12.2917ZM5.12516 10C3.84183 10 2.8335 11.0083 2.8335 12.2917C2.8335 13.575 3.84183 14.5833 5.12516 14.5833C6.4085 14.5833 7.41683 13.575 7.41683 12.2917C7.41683 11.0083 6.4085 10 5.12516 10ZM18.8752 10C17.5918 10 16.5835 11.0083 16.5835 12.2917C16.5835 13.575 17.5918 14.5833 18.8752 14.5833C20.1585 14.5833 21.1668 13.575 21.1668 12.2917C21.1668 11.0083 20.1585 10 18.8752 10Z" fill="#1A4971"/>
<circle cx="21" cy="3" r="3" fill="#3183C8"/>
</svg>
