<svg width="19" height="16" viewBox="0 0 19 16" fill="none" xmlns="http://www.w3.org/2000/svg">
  <path fill-rule="evenodd" clip-rule="evenodd" d="M6.76749 15.1756H9.45332C9.75708 15.1756 10.0033 14.9293 10.0033 14.6256V13.4339C10.0033 13.288 9.94537 13.1481 9.84223 13.045C9.73908 12.9419 9.59919 12.8839 9.45332 12.8839H6.70332C5.04223 12.9052 3.59478 11.7564 3.23832 10.1339C3.02293 9.11823 3.27688 8.05958 3.92959 7.25214C4.5823 6.44469 5.56422 5.97451 6.60249 5.97224H13.4775V8.63974C13.4747 8.782 13.5545 8.91302 13.6821 8.97587C13.8098 9.03871 13.9623 9.02203 14.0733 8.93308L18.8492 5.11058C18.9349 5.03917 18.9844 4.93338 18.9844 4.82183C18.9844 4.71027 18.9349 4.60448 18.8492 4.53308L14.0367 0.747245C13.9256 0.65829 13.7731 0.641611 13.6455 0.704455C13.5178 0.7673 13.438 0.898321 13.4408 1.04058V3.70808H6.56582C4.91384 3.70968 3.34269 4.42316 2.25435 5.66596C1.16602 6.90877 0.666092 8.56033 0.882486 10.1981C1.3299 13.0918 3.83961 15.2145 6.76749 15.1756Z" fill="#868E96"/>
</svg>