<svg xmlns="http://www.w3.org/2000/svg" viewBox="0 0 24 24">
<defs>
<style>.cls-1{fill:#abb0c4;}</style>
</defs>
<title>icon - tool - pen - highlight</title>
<path fill="default" class="cls-1" d="M19.9658 6.91017H19.92L16.2992 3.25267C16.1376 3.0909 15.9183 3 15.6896 3C15.4609 3 15.2416 3.0909 15.08 3.25267L7.82917 10.4118C7.68847 10.5239 7.59386 10.6837 7.56334 10.861L6.56417 15.2518L4.8225 17.4427H7.6275L8.73667 16.3335L12.2567 15.5452C12.4386 15.5144 12.6023 15.4162 12.715 15.2702L19.92 8.12934C20.2428 7.7936 20.2625 7.2692 19.9658 6.91017V6.91017ZM11.9083 13.5377L9.54334 11.1727L15.7583 5.0585L18.1233 7.4235L11.9083 13.5377Z"/>
<path  class="cls-1" d="M18.4167 17.2685C18.744 18.2557 18.9773 19.2716 19.1133 20.3027C18.2719 19.3853 17.15 18.7728 15.9233 18.561C14.8314 18.4146 13.7204 18.5244 12.6783 18.8818C11.4047 19.3332 10.1589 19.8597 8.9475 20.4585C7.81125 21.1097 6.50296 21.3975 5.19833 21.2835C4.80235 21.1839 4.45663 20.9426 4.22666 20.6052C4.14173 20.4738 4.07395 20.3321 4.025 20.1835C4.01028 20.0885 3.98252 19.9959 3.9425 19.9085C3.80542 19.4227 3.84105 18.9043 4.04333 18.4418C4.15136 18.1403 4.32695 17.8675 4.55667 17.6443L4.905 19.4135C4.79615 19.4335 4.71381 19.5233 4.70333 19.6335C4.70333 19.8993 5.79417 19.7527 6.67417 19.4227C7.31069 19.1708 7.92412 18.8641 8.5075 18.506C9.77851 17.691 11.1416 17.0294 12.5683 16.5352C13.7125 16.1519 14.9299 16.0389 16.125 16.2052C16.6842 16.3049 17.2193 16.5102 17.7017 16.8102C17.8758 16.8927 18.4167 17.2685 18.4167 17.2685Z"/>
</svg>
