<svg width="24" height="24" viewBox="0 0 24 24" fill="none" xmlns="http://www.w3.org/2000/svg">
<path d="M7.5 5C7.22386 5 7 5.22386 7 5.5V10H5V5.5C5 4.11929 6.11929 3 7.5 3H12.5858C13.1162 3 13.6249 3.21071 14 3.58579L18.9142 8.5C19.2893 8.87507 19.5 9.38378 19.5 9.91421V18.5C19.5 19.8807 18.3807 21 17 21H7.5C6.11929 21 5 19.8807 5 18.5V18H7V18.5C7 18.7761 7.22386 19 7.5 19H17C17.2761 19 17.5 18.7761 17.5 18.5V10H13.5C12.9477 10 12.5 9.55228 12.5 9V5H7.5Z" fill="black"/>
<path d="M2 14L5.5 11V13H10V15H5.5V17L2 14Z" fill="black"/>
</svg>
