<svg viewBox="0 0 24 24" xmlns="http://www.w3.org/2000/svg">
    <defs>
        <style>.cls-1{fill:#abb0c4;}</style>
    </defs>
    <title>icon - tool - select - pages</title>
    <path d="M20 2H8C6.897 2 6 2.897 6 4V16C6 17.103 6.897 18 8 18H20C21.103 18 22 17.103 22 16V4C22 2.897 21.103 2 20 2ZM8 16V4H20L20.002 16H8Z" fill="#868E96"/>
    <path d="M4 8.00037H2V20.0004C2 21.1034 2.897 22.0004 4 22.0004H16V20.0004H4V8.00037ZM12.933 11.5194L11.207 9.79338L9.793 11.2074L13.067 14.4814L18.769 7.64137L17.231 6.35938L12.933 11.5194Z" fill="#868E96"/>
</svg>