<svg width="25" height="24" viewBox="0 0 25 24" fill="none" xmlns="http://www.w3.org/2000/svg">
<g id="icon-content-edit">
<g id="shape">
<path fill-rule="evenodd" clip-rule="evenodd" d="M13.5422 13.6309H7.21719L5.84219 17.0226H3.36719L8.86719 4.09759C9.14219 3.63926 9.50885 3.36426 9.96719 3.36426H11.0672C11.5255 3.36426 11.8922 3.73092 12.1672 4.09759L15.8384 13.0224L14.0517 14.8091L13.5422 13.6309ZM12.6255 11.4309L10.4255 6.20592L8.22552 11.4309H12.6255Z" fill="black"/>
<path fill-rule="evenodd" clip-rule="evenodd" d="M12.6023 18.1245L12.0719 20.4226L14.37 19.8923L20.0269 14.2355L18.2591 12.4677L12.6023 18.1245Z" fill="black"/>
<path fill-rule="evenodd" clip-rule="evenodd" d="M21.6183 10.8768C21.1301 10.3886 20.3387 10.3886 19.8505 10.8768L18.9666 11.7607L20.7344 13.5285L21.6183 12.6446C22.1064 12.1564 22.1064 11.3649 21.6183 10.8768Z" fill="black"/>
</g>
</g>
</svg>
