<svg width="24" height="24" viewBox="0 0 24 24" fill="none" xmlns="http://www.w3.org/2000/svg">
<g id="wv-icon-text">
<path id="shape" fill-rule="evenodd" clip-rule="evenodd" d="M20.6573 9.65005C19.802 6.44278 17.2433 3.97139 14.0083 3.22788C10.7732 2.48437 7.39227 3.59064 5.22246 6.10263C3.1741 8.43892 2.48265 11.6698 3.39537 14.6398C4.3081 17.6098 6.69464 19.8948 9.70153 20.6775C10.4656 20.8912 11.2552 20.9997 12.0486 21H12.174C13.1016 20.9864 13.9567 20.4954 14.4359 19.701C14.9151 18.9065 14.9506 17.9211 14.53 17.0943L14.3508 16.727C14.0824 16.1775 14.1128 15.529 14.4314 15.007C14.9143 14.2219 15.9141 13.9312 16.7426 14.3352L17.1099 14.5143C17.4745 14.6848 17.872 14.7735 18.2745 14.7741C19.7587 14.7741 20.9619 13.5709 20.9619 12.0867C20.9683 11.2646 20.8659 10.4453 20.6573 9.65005ZM17.8893 12.8929L17.513 12.7227C15.8633 11.9511 13.8972 12.5221 12.9175 14.0575C12.2574 15.0929 12.1894 16.3989 12.7383 17.4974L12.9085 17.8736C13.0549 18.1587 13.0379 18.5003 12.8637 18.7694C12.7036 19.0326 12.4193 19.195 12.1113 19.1994H12.0127C8.05477 19.1994 4.84622 15.9909 4.84622 12.0329C4.84622 8.07496 8.05477 4.86641 12.0127 4.86641C12.3515 4.86382 12.69 4.88778 13.025 4.93807C15.8519 5.35301 18.1672 7.3978 18.9284 10.1517C19.0998 10.7975 19.1842 11.4633 19.1792 12.1315C19.1649 12.4329 18.9997 12.707 18.7398 12.8604C18.4799 13.0138 18.1601 13.026 17.8893 12.8929ZM9.32529 14.2366C9.32529 14.9787 8.72368 15.5803 7.98157 15.5803C7.23945 15.5803 6.63785 14.9787 6.63785 14.2366C6.63785 13.4945 7.23945 12.8929 7.98157 12.8929C8.33794 12.8929 8.67972 13.0345 8.93172 13.2865C9.18372 13.5385 9.32529 13.8802 9.32529 14.2366ZM9.32529 10.6534C9.32529 11.3955 8.72368 11.9971 7.98157 11.9971C7.23945 11.9971 6.63785 11.3955 6.63785 10.6534C6.63785 9.91125 7.23945 9.30964 7.98157 9.30964C8.33794 9.30964 8.67972 9.45121 8.93172 9.70321C9.18372 9.9552 9.32529 10.297 9.32529 10.6534ZM12.0127 7.96592C12.0127 8.70804 11.4111 9.30964 10.669 9.30964C9.92689 9.30964 9.32528 8.70804 9.32528 7.96592C9.32528 7.22381 9.92689 6.6222 10.669 6.6222C11.0254 6.6222 11.3672 6.76377 11.6192 7.01577C11.8712 7.26777 12.0127 7.60955 12.0127 7.96592ZM15.596 7.96592C15.596 8.70804 14.9944 9.30964 14.2523 9.30964C13.5101 9.30964 12.9085 8.70804 12.9085 7.96592C12.9085 7.22381 13.5101 6.6222 14.2523 6.6222C14.6086 6.6222 14.9504 6.76377 15.2024 7.01577C15.4544 7.26777 15.596 7.60955 15.596 7.96592Z"/>
</g>
</svg>
