<svg xmlns="http://www.w3.org/2000/svg" viewBox="0 0 24 24"><defs><style>.cls-1{fill:#abb0c4;}</style></defs><title>icon - header - page manipulation - page rotation - clockwise - line</title><path class="cls-1" d="M22,7.83,18.67,12,15.33,7.83h2.43a5,5,0,0,0-4.93-4.16V2a6.64,6.64,0,0,1,6.61,5.83ZM14,12.2s0,0,0,.05V20.5A1.5,1.5,0,0,1,12.5,22h-9A1.5,1.5,0,0,1,2,20.5V8.5A1.5,1.5,0,0,1,3.5,7H8.8a.65.65,0,0,1,.19,0l.07,0a.86.86,0,0,1,.22.15l4.5,4.5a.66.66,0,0,1,.15.22s0,.05,0,.07A.65.65,0,0,1,14,12.2ZM12,20V13H8.75A.76.76,0,0,1,8,12.25V9H4V20Z"/></svg>