<svg width="30" height="6" viewBox="0 0 30 6" fill="none" xmlns="http://www.w3.org/2000/svg">
<path fill-rule="evenodd" clip-rule="evenodd" d="M3.96998 3.30107L4.03109 3L3.96998 2.69893C3.83108 2.01468 3.22452 1.5 2.5 1.5C1.67157 1.5 1 2.17157 1 3C1 3.82843 1.67157 4.5 2.5 4.5C3.22452 4.5 3.83108 3.98532 3.96998 3.30107ZM4.94999 3.5C4.71836 4.64112 3.70948 5.5 2.5 5.5C1.11929 5.5 0 4.38071 0 3C0 1.61929 1.11929 0.5 2.5 0.5C3.70948 0.5 4.71836 1.35888 4.94999 2.5H30V3.5H4.94999Z" fill="#485056"/>
</svg>
