<svg width="16" height="16" viewBox="0 0 16 16" xmlns="http://www.w3.org/2000/svg">
    <path d="M8.66671 11.3333V7.33325H7.33337V11.3333H8.66671Z"/>
    <path d="M8.66671 5.99992V4.66659H7.33337V5.99992H8.66671Z"/>
    <path fill-rule="evenodd" clip-rule="evenodd" d="M1.33337 7.99992C1.33337 4.32392 4.32404 1.33325 8.00004 1.33325C11.676 1.33325 14.6667 4.32392 14.6667 7.99992C14.6667 11.6759 11.676 14.6666 8.00004 14.6666C4.32404 14.6666 1.33337 11.6759 1.33337 7.99992ZM2.66671 7.99992C2.66671 10.9406 5.05937 13.3333 8.00004 13.3333C10.9407 13.3333 13.3334 10.9406 13.3334 7.99992C13.3334 5.05925 10.9407 2.66659 8.00004 2.66659C5.05937 2.66659 2.66671 5.05925 2.66671 7.99992Z"/>
</svg>
