<svg width="24" height="24" viewBox="0 0 24 24" fill="none" xmlns="http://www.w3.org/2000/svg">
<path fill-rule="evenodd" clip-rule="evenodd" d="M16.2204 6.27987L12.0004 10.4999L7.78036 6.27987C7.62482 6.12741 7.3759 6.12741 7.22036 6.27987L6.28036 7.21987C6.1279 7.37541 6.1279 7.62433 6.28036 7.77987L10.5004 11.9999L6.28036 16.2199C6.1279 16.3754 6.1279 16.6243 6.28036 16.7799L7.22036 17.7199C7.3759 17.8723 7.62482 17.8723 7.78036 17.7199L12.0004 13.4999L16.2204 17.7199C16.3759 17.8723 16.6248 17.8723 16.7804 17.7199L17.7204 16.7799C17.8728 16.6243 17.8728 16.3754 17.7204 16.2199L13.5004 11.9999L17.7204 7.77987C17.8728 7.62433 17.8728 7.37541 17.7204 7.21987L16.7804 6.27987C16.6248 6.12741 16.3759 6.12741 16.2204 6.27987Z" fill="#868E96"/>
</svg>
