<svg id="icon" xmlns="http://www.w3.org/2000/svg" viewBox="0 0 24 24"><defs><style>.cls-1{fill:#abb0c4;}</style></defs><title>icon - menu - add style - fill</title><path class="cls-1" d="M22,18.28V20H20.13v1.87h-1.7V20H16.56V18.28h1.87V16.41h1.7v1.87ZM15,15a2,2,0,0,0-.39,2.28l.2.41a3,3,0,0,1-.15,2.88A3,3,0,0,1,12.14,22H12a10,10,0,0,1-9.9-8.6,10,10,0,0,1,19.55-4A10.4,10.4,0,0,1,22,12.14a3,3,0,0,1-4.31,2.67l-.41-.2h0A2,2,0,0,0,15,15ZM6.5,12A1.5,1.5,0,1,0,5,10.51,1.5,1.5,0,0,0,6.5,12ZM9,15.51A1.5,1.5,0,1,0,7.5,17,1.5,1.5,0,0,0,9,15.51Zm3-9A1.5,1.5,0,1,0,10.5,8,1.5,1.5,0,0,0,12,6.5ZM15.5,9A1.5,1.5,0,1,0,14,7.5,1.5,1.5,0,0,0,15.5,9Z"/></svg>