<svg id="icon" xmlns="http://www.w3.org/2000/svg" viewBox="0 0 24 24"><defs><style>.cls-1{fill:#abb0c4;}</style></defs><title>icon - menu - text underline</title><path class="cls-1" d="M5.32,18H18.68a.32.32,0,0,1,.32.32v1.36a.32.32,0,0,1-.32.32H5.32A.32.32,0,0,1,5,19.68V18.32A.32.32,0,0,1,5.32,18ZM6,4.32V9.79A6.15,6.15,0,0,0,11.21,16,6,6,0,0,0,18,10V4.32A.32.32,0,0,0,17.68,4H16.32a.32.32,0,0,0-.32.32v5.5A4.12,4.12,0,0,1,12.4,14,4,4,0,0,1,8,10V4.32A.32.32,0,0,0,7.68,4H6.32A.32.32,0,0,0,6,4.32Z"/></svg>