<svg xmlns="http://www.w3.org/2000/svg" viewBox="0 0 24 24"><defs><style>.cls-1{fill:#abb0c4;}</style></defs><title>icon - tool - free highlight - fill</title><path class="cls-1" d="M20.87,7a1,1,0,0,1-.29.71L12.8,15.34h0a1.2,1.2,0,0,1-.53.29l-3.81.87L7.18,17.78H4.11l2-2.46,1.09-4.79a1,1,0,0,1,.3-.54l7.82-7.7a.89.89,0,0,1,1.32,0l4,4A.73.73,0,0,1,20.87,7Zm-9,6.48L9.33,11.11a.4.4,0,0,0-.65.2l-.77,3.33a.39.39,0,0,0,.49.46l3.29-1A.39.39,0,0,0,11.84,13.44Z"/><path class="cls-1" d="M19,17.59a18.9,18.9,0,0,1,.76,3.31A6.18,6.18,0,0,0,16.29,19a7.6,7.6,0,0,0-3.54.35,37.3,37.3,0,0,0-4.07,1.72,7,7,0,0,1-4.09.9,1.72,1.72,0,0,1-1.06-.74,1.62,1.62,0,0,1-.22-.46,1.71,1.71,0,0,1-.09-.3,2.4,2.4,0,0,1,.1-1.6A2.51,2.51,0,0,1,3.88,18s.39,1.93.39,1.93a.26.26,0,0,0-.22.24c0,.29,1.18.13,2.15-.23a13.24,13.24,0,0,0,2-1,20.92,20.92,0,0,1,4.44-2.15,8.49,8.49,0,0,1,3.88-.36,4.88,4.88,0,0,1,1.72.66C18.42,17.18,19,17.59,19,17.59Z"/></svg>