<svg xmlns="http://www.w3.org/2000/svg" viewBox="0 0 24 24"><defs><style>.cls-1{fill:#868e96;}</style></defs><path class="cls-1" d="M17.83,2.83H6.17A1.67,1.67,0,0,0,4.5,4.5v15a1.67,1.67,0,0,0,1.67,1.67H17.83A1.67,1.67,0,0,0,19.5,19.5V4.5A1.67,1.67,0,0,0,17.83,2.83ZM6.17,19.5V4.5H17.83v15Z"/><path class="cls-1" d="M12.83,6.19h-5V17.81h8.34V6.19H12.83Zm1.78,4.15L13,12l1.65,1.66a.36.36,0,0,1,0,.52l-.43.44a.37.37,0,0,1-.52,0L12,13l-1.66,1.66a.37.37,0,0,1-.52,0l-.44-.44a.37.37,0,0,1,0-.52L11,12,9.38,10.34a.37.37,0,0,1,0-.52l.44-.43a.36.36,0,0,1,.52,0L12,11l1.66-1.65a.36.36,0,0,1,.52,0l.43.43A.36.36,0,0,1,14.61,10.34Z"/></svg>