<svg width="24" height="24" viewBox="0 0 24 24" fill="none" xmlns="http://www.w3.org/2000/svg">
<path d="M14.1716 2H6C4.8954 2 4 2.8954 4 4V20C4 21.1046 4.8954 22 6 22H18C19.1046 22 20 21.1046 20 20V7.8284C20 7.298 19.7893 6.7893 19.4142 6.4142L15.5858 2.5858C15.2107 2.2107 14.702 2 14.1716 2ZM6 20V4H14V7.5C14 7.7761 14.2239 8 14.5 8H18V20H6Z" fill="black"/>
<path fill-rule="evenodd" clip-rule="evenodd" d="M12.75 10H11.25V12.25H9V13.75H11.25V16H12.75V13.75H15V12.25H12.75V10Z" fill="black"/>
</svg>
