<?xml version="1.0" encoding="utf-8"?>
<!-- Generator: Adobe Illustrator 24.1.3, SVG Export Plug-In . SVG Version: 6.00 Build 0)  -->
<svg version="1.1" id="Layer_1" xmlns="http://www.w3.org/2000/svg" xmlns:xlink="http://www.w3.org/1999/xlink" x="0px" y="0px"
	 viewBox="0 0 24 24" style="enable-background:new 0 0 24 24;" xml:space="preserve">
<style type="text/css">
	.st0{fill:#868E96;}
	.st1{fill:#FFFFFF;}
</style>
<path class="st0" d="M12,2C6.5,2,2,6.5,2,12c0,5.5,4.5,10,10,10c5.5,0,10-4.5,10-10C22,6.5,17.5,2,12,2z M4.2,13.8
	C4.1,13.2,4,12.6,4,12c0-4.4,3.6-8,8-8c0.6,0,1.2,0.1,1.8,0.2L4.2,13.8z M5,15.8L15.8,5c1.3,0.7,2.4,1.8,3.1,3.1L8.1,19l0,0
	C6.8,18.2,5.7,17.1,5,15.8z M12,20c-0.6,0-1.1-0.1-1.6-0.2l0,0l9.4-9.5c0.1,0.5,0.2,1.1,0.2,1.7C20,16.4,16.4,20,12,20z"/>
<path fill="fill" class="st1" d="M13.8,4.2l-9.6,9.6C4.1,13.2,4,12.6,4,12c0-4.4,3.6-8,8-8C12.6,4,13.2,4.1,13.8,4.2z M15.8,5L5,15.8
	c0.7,1.3,1.8,2.4,3.1,3.1l0,0L19,8.1C18.2,6.8,17.1,5.7,15.8,5z M19.8,10.3l-9.4,9.5l0,0c0.5,0.1,1.1,0.2,1.6,0.2c4.4,0,8-3.6,8-8
	C20,11.4,19.9,10.9,19.8,10.3z"/>
</svg>
