<?xml version="1.0" encoding="utf-8"?>
<!-- Generator: Adobe Illustrator 24.1.3, SVG Export Plug-In . SVG Version: 6.00 Build 0)  -->
<svg version="1.1" id="Layer_1" xmlns="http://www.w3.org/2000/svg" xmlns:xlink="http://www.w3.org/1999/xlink" x="0px" y="0px"
	 viewBox="0 0 24 24" style="enable-background:new 0 0 24 24;" xml:space="preserve">
<style type="text/css">
	.st0{fill:#868E96;}
	.st1{fill:#FFFFFF;}
</style>
<path class="st0" d="M21.9,8.9l-9.2-6.7c-0.4-0.3-1-0.3-1.5,0L2.1,8.9c-0.4,0.3-0.6,0.9-0.5,1.4l3.5,10.8C5.3,21.6,5.8,22,6.3,22
	h11.3c0.5,0,1-0.4,1.2-0.9l3.5-10.8C22.6,9.8,22.4,9.2,21.9,8.9z M12,4.3l1.9,1.4l-8.9,8.9l0,0l-1.4-4.2L12,4.3z M6.9,20.1l-1.1-3.4
	l0,0l9.8-9.8l3.6,2.6h0L8.6,20.1H6.9z M17.1,20.1h-5.4l8.1-8.2h0L17.1,20.1z"/>
<path fill="fill" class="st1" d="M13.9,5.7l-8.9,8.9l-1.4-4.2l8.3-6L13.9,5.7z M19.2,9.5l-3.6-2.6l-9.8,9.8l1.1,3.4h1.7L19.2,9.5L19.2,9.5z
	 M19.8,11.9l-8.1,8.2h5.4L19.8,11.9L19.8,11.9z"/>
</svg>
