<svg xmlns="http://www.w3.org/2000/svg" viewBox="0 0 24 24"><defs><style>.cls-1{fill:#abb0c4;}</style></defs><title>icon - header - settings - line</title><path class="cls-1" d="M12,8a4,4,0,1,0,4,4A4,4,0,0,0,12,8Zm0,6a2,2,0,1,1,2-2A2,2,0,0,1,12,14Zm8.42-.6-.5-.29a7.74,7.74,0,0,0,0-2.22l.5-.29a2,2,0,0,0,.73-2.74l-1-1.72a2.06,2.06,0,0,0-2.73-.74l-.53.31A8.07,8.07,0,0,0,15,4.6V4a2,2,0,0,0-2-2H11A2,2,0,0,0,9,4v.6A8.07,8.07,0,0,0,7.1,5.71L6.57,5.4a2.07,2.07,0,0,0-2.73.73l-1,1.73a2,2,0,0,0,.73,2.74l.5.29a7.74,7.74,0,0,0,0,2.22l-.5.29a2,2,0,0,0-.73,2.74l1,1.73a2.05,2.05,0,0,0,2.72.73l.53-.31A8.07,8.07,0,0,0,9,19.4V20a2,2,0,0,0,2,2h2a2,2,0,0,0,2-2v-.6a8.07,8.07,0,0,0,1.9-1.11l.53.31a2.07,2.07,0,0,0,2.73-.73l1-1.73A2,2,0,0,0,20.42,13.4Zm-2.59-2.78A5.86,5.86,0,0,1,18,12a5.92,5.92,0,0,1-.17,1.38,1,1,0,0,0,.47,1.11l1.12.64-1,1.73-1.15-.66a1,1,0,0,0-1.19.15,6.05,6.05,0,0,1-2.38,1.39,1,1,0,0,0-.71,1V20H11V18.7a1,1,0,0,0-.71-1,6.05,6.05,0,0,1-2.38-1.39,1,1,0,0,0-.69-.28,1,1,0,0,0-.5.13l-1.14.67-1-1.73,1.12-.65a1,1,0,0,0,.47-1.11A5.92,5.92,0,0,1,6,12a5.86,5.86,0,0,1,.17-1.38A1,1,0,0,0,5.7,9.51L4.58,8.86l1-1.73,1.15.67a1,1,0,0,0,1.19-.15,6.05,6.05,0,0,1,2.38-1.39,1,1,0,0,0,.71-1V4h2V5.3a1,1,0,0,0,.71,1,6.05,6.05,0,0,1,2.38,1.39,1,1,0,0,0,1.19.15l1.14-.66,1,1.73-1.12.64A1,1,0,0,0,17.83,10.62Z"/></svg>