<svg width="16" height="24" viewBox="-2 0 20 20" fill="#868E96" xmlns="http://www.w3.org/2000/svg">
<path d="M7 20L8 18V15H13C13.553 15 14 14.553 14 14V12.414C14 11.888 13.786 11.372 13.414 11L12 9.586V6C12.553 6 13 5.553 13 5V2C13 0.897 12.103 0 11 0H3C1.897 0 1 0.897 1 2V5C1 5.553 1.448 6 2 6V9.586L0.586 11C0.213 11.372 0 11.888 0 12.414V14C0 14.553 0.448 15 1 15H6V18L7 20ZM3 2H11V4H3V2ZM2 12.414L3.707 10.707C3.895 10.52 4 10.266 4 10V6H10V10C10 10.266 10.105 10.52 10.293 10.707L12 12.414V13H2V12.414Z"/>
</svg>
