<svg width="25" height="24" viewBox="0 0 25 24" fill="none" xmlns="http://www.w3.org/2000/svg">
<path fill-rule="evenodd" clip-rule="evenodd" d="M13.675 13.2667H7.35L5.975 16.6583H3.5L9 3.73333C9.275 3.275 9.64167 3 10.1 3H11.2C11.6583 3 12.025 3.36667 12.3 3.73333L15.5893 11.7296C15.3978 12.0029 15.1962 12.2989 14.9941 12.6085C14.6787 13.0915 14.3531 13.6208 14.0604 14.158L13.675 13.2667ZM12.7583 11.0667L10.5583 5.84167L8.35833 11.0667H12.7583Z"/>
<path d="M21.5 17.3636C21.5 19.3719 19.933 21 18 21C16.067 21 14.5 19.3719 14.5 17.3636C14.5 15.3553 18 11 18 11C18 11 21.5 15.3553 21.5 17.3636Z"/>
</svg>
