<svg width="24" height="24" viewBox="0 0 24 24" xmlns="http://www.w3.org/2000/svg">
    <path fill-rule="evenodd" clip-rule="evenodd" d="M21 4H3C1.89543 4 1 4.89543 1 6V18C1 19.1046 1.89543 20 3 20H21C22.1046 20 23 19.1046 23 18V6C23 4.89543 22.1046 4 21 4ZM11 18H3V6H11V18ZM21 18H13V6H21V18Z"/>
    <path fill-rule="evenodd" clip-rule="evenodd" d="M5.74 13.59H8.26L8.91 15H10.11L7.75 9.26999C7.64698 9.10354 7.46575 9.0016 7.27 8.99999H6.79C6.57724 8.99864 6.3843 9.12464 6.3 9.31999L3.89 15H5.09L5.74 13.59ZM7 10.6L7.71 12.39H6.28L7 10.6Z"/>
    <path fill-rule="evenodd" clip-rule="evenodd" d="M19.5 13.2C19.5012 12.7008 19.2904 12.2247 18.92 11.89C19.1656 11.5797 19.2995 11.1957 19.3 10.8C19.2945 9.80816 18.4918 9.00547 17.5 9H14.5V15H17.7C18.6918 14.9945 19.4945 14.1918 19.5 13.2ZM15.7 10.2H17.5C17.8314 10.2 18.1 10.4686 18.1 10.8C18.1 11.1314 17.8314 11.4 17.5 11.4H15.7V10.2ZM15.7 12.6H17.7C18.0314 12.6 18.3 12.8686 18.3 13.2C18.3 13.5314 18.0314 13.8 17.7 13.8H15.7V12.6Z"/>
</svg>
