<?xml version="1.0" encoding="UTF-8"?>
<svg width="24" height="24" viewBox="0 0 24 24" fill="none" xmlns="http://www.w3.org/2000/svg">
<title>icon / tool / form / signature field</title>
<g id="ic-signature-field">
<g id="shape">
<path d="M12.6982 3.00488C13.3163 2.9575 13.8198 3.23532 14.1543 3.63672C14.4579 4.00115 14.6224 4.45889 14.7158 4.88281C14.8124 5.32138 14.8504 5.80861 14.8438 6.30371C14.8304 7.29175 14.6378 8.41072 14.2744 9.42188C13.5529 11.429 11.9569 13.5166 10.3818 15.0801C10.1216 15.3384 9.85803 15.585 9.5957 15.8184C10.105 16.0533 10.7255 16.0543 11.1865 15.8711L11.3242 15.8096C11.6452 15.6516 11.9581 15.3918 12.2754 15.0342C12.6403 14.6228 12.9627 14.1406 13.2979 13.6338C13.6061 13.1677 13.9657 12.6123 14.3516 12.2217C14.7141 11.8547 15.3405 11.3968 16.1475 11.5801L16.3115 11.625L16.4814 11.6924C16.8621 11.8673 17.1289 12.1759 17.2607 12.5508C17.3889 12.9153 17.3697 13.2841 17.335 13.5498C17.2675 14.0657 17.0531 14.7076 16.9316 15.1289C16.8622 15.37 16.8104 15.5737 16.7812 15.7461C16.7787 15.7614 16.7775 15.7761 16.7754 15.79C17.1573 15.7401 17.5592 15.4597 17.9922 14.8535C18.4624 14.1951 18.7999 13.3948 19.0879 12.7539L20.9121 13.5742C20.6577 14.1404 20.232 15.1586 19.6191 16.0166C19.0163 16.8605 18.0542 17.8006 16.6514 17.8008C16.2407 17.8008 15.7976 17.7171 15.4248 17.4385C15.0325 17.1451 14.8551 16.7396 14.791 16.375C14.7308 16.0323 14.7625 15.6908 14.8096 15.4121C14.8485 15.1818 14.9078 14.9496 14.9678 14.7324L14.9658 14.7363C14.6413 15.2271 14.2451 15.8275 13.7715 16.3613C13.3551 16.8306 12.842 17.2926 12.2051 17.6055L11.9248 17.7305C10.8604 18.1534 9.14499 18.1594 7.92285 17.1133C7.57917 17.3363 7.23872 17.529 6.91211 17.6699C6.57071 17.8172 6.1756 17.9404 5.77734 17.9404C4.72729 17.9403 3.99143 17.3863 3.56055 16.7188C3.15458 16.0896 3 15.346 3 14.7578C3.00023 14.2057 3.44786 13.7578 4 13.7578C4.55214 13.7578 4.99977 14.2057 5 14.7578C5 15.0426 5.08385 15.391 5.24121 15.6348C5.37359 15.8397 5.52623 15.9403 5.77734 15.9404C5.77734 15.9404 5.8052 15.9396 5.86621 15.9238C5.92933 15.9075 6.01397 15.8788 6.12012 15.833C6.31399 15.7493 6.54936 15.62 6.82129 15.4443C6.2406 13.7009 6.66764 11.1755 8.44629 7.75L8.83496 7.02149C9.72989 5.39813 10.5279 4.31009 11.249 3.69043C11.6602 3.33709 12.1485 3.04717 12.6982 3.00488ZM12.5527 5.20801C12.0975 5.59928 11.4427 6.43839 10.5957 7.97168L10.2207 8.67188C8.87608 11.2615 8.53103 12.9558 8.58789 14.0293C8.7153 13.91 8.84435 13.7875 8.97266 13.6602C10.443 12.2007 11.8122 10.3603 12.3926 8.7461C12.68 7.94665 12.8333 7.04654 12.8438 6.27637C12.8489 5.8925 12.8181 5.56535 12.7627 5.31348C12.7426 5.22238 12.7203 5.14986 12.7002 5.09277C12.659 5.12176 12.6096 5.15913 12.5527 5.20801Z" fill="default"/>
<path d="M22 12C22 12.5523 21.5523 13 21 13C20.4477 13 20 12.5523 20 12C20 11.4477 20.4477 11 21 11C21.5523 11 22 11.4477 22 12Z" fill="default"/>
</g>
<path id="fill" d="M7 19V21H4V19H7ZM14 19V21H10V19H14ZM20 19V21H17V19H20Z">
</g>
</svg>
