<svg width="45" height="3" viewBox="0 0 45 3" fill="none" xmlns="http://www.w3.org/2000/svg">
<path d="M0.5 0C0.223858 0 -0.00436733 0.225538 0.0411288 0.497907C0.278305 1.91779 1.51277 3 3 3C4.04349 3 4.96254 2.46725 5.5 1.6589C6.03746 2.46725 6.95651 3 8 3C9.04349 3 9.96254 2.46724 10.5 1.65889C11.0375 2.46724 11.9565 3 13 3C14.0435 3 14.9625 2.46724 15.5 1.65889C16.0375 2.46724 16.9565 3 18 3C19.0435 3 19.9625 2.46724 20.5 1.65889C21.0375 2.46724 21.9565 3 23 3C24.0435 3 24.9625 2.46724 25.5 1.65889C26.0375 2.46724 26.9565 3 28 3C29.0435 3 29.9625 2.46724 30.5 1.65889C31.0375 2.46724 31.9565 3 33 3C34.0435 3 34.9625 2.46724 35.5 1.65889C36.0375 2.46724 36.9565 3 38 3C39.4872 3 40.7217 1.91779 40.9589 0.497906C41.0044 0.225537 40.7761 0 40.5 0C40.2239 0 40.0064 0.227334 39.9383 0.49494C39.718 1.36012 38.9337 2 38 2C37.0663 2 36.282 1.36012 36.0617 0.494941C35.9936 0.227334 35.7761 0 35.5 0C35.2239 0 35.0064 0.227334 34.9383 0.49494C34.718 1.36012 33.9337 2 33 2C32.0663 2 31.282 1.36012 31.0617 0.494941C30.9936 0.227334 30.7761 0 30.5 0C30.2239 0 30.0064 0.227334 29.9383 0.494941C29.718 1.36012 28.9337 2 28 2C27.0663 2 26.282 1.36012 26.0617 0.49494C25.9936 0.227334 25.7761 0 25.5 0C25.2239 0 25.0064 0.227334 24.9383 0.49494C24.718 1.36012 23.9337 2 23 2C22.0663 2 21.282 1.36012 21.0617 0.494941C20.9936 0.227334 20.7761 0 20.5 0C20.2239 0 20.0064 0.227334 19.9383 0.494941C19.718 1.36012 18.9337 2 18 2C17.0663 2 16.282 1.36012 16.0617 0.49494C15.9936 0.227334 15.7761 0 15.5 0C15.2239 0 15.0064 0.227334 14.9383 0.49494C14.718 1.36012 13.9337 2 13 2C12.0663 2 11.282 1.36012 11.0617 0.494941C10.9936 0.227334 10.7761 0 10.5 0C10.2239 0 10.0064 0.227334 9.93829 0.494941C9.71803 1.36012 8.93374 2 8 2C7.06626 2 6.28197 1.36012 6.06171 0.49494C5.99359 0.227334 5.77614 0 5.5 0C5.22386 0 5.00641 0.227334 4.93829 0.494941C4.71803 1.36012 3.93374 2 3 2C2.06626 2 1.28197 1.36012 1.06171 0.49494C0.993587 0.227334 0.776142 0 0.5 0Z" fill="black"/>
</svg>
