<svg id="icon" xmlns="http://www.w3.org/2000/svg" viewBox="0 0 24 24"><defs><style>.cls-1{fill:#abb0c4;}</style></defs><title>icon - header - page manipulation - line</title><path class="cls-1" d="M10.75,10.43v.7a4,4,0,0,0-.84.5l-.61-.36a.45.45,0,0,0-.61.16L7.82,13a.44.44,0,0,0,.17.6H8l.6.35a4.18,4.18,0,0,0,0,1L8,15.3a.44.44,0,0,0-.17.58l.89,1.53a.45.45,0,0,0,.61.16l.61-.36a4,4,0,0,0,.84.5v.71a.46.46,0,0,0,.45.44H13a.44.44,0,0,0,.44-.44v-.71a3.39,3.39,0,0,0,.84-.5l.62.36a.45.45,0,0,0,.61-.16l.89-1.53a.45.45,0,0,0-.17-.61l-.6-.35a4.18,4.18,0,0,0,0-1l.6-.35a.44.44,0,0,0,.17-.6h0l-.89-1.54a.45.45,0,0,0-.61-.16l-.62.36a3.39,3.39,0,0,0-.84-.5v-.7A.44.44,0,0,0,13,10H11.2A.45.45,0,0,0,10.75,10.43Zm1.35,2.22a1.78,1.78,0,1,1-1.77,1.79h0a1.78,1.78,0,0,1,1.75-1.78Zm7.84-4V8.6a.84.84,0,0,0-.2-.29l-6-6a1.15,1.15,0,0,0-.29-.2h-.1A.79.79,0,0,0,13.06,2H6A2,2,0,0,0,4,4V20a2,2,0,0,0,2,2H18a2,2,0,0,0,2-2V8.94A1,1,0,0,0,19.94,8.69ZM18,20H6V4h6l6,6Z"/></svg>