<svg width="19" height="20" viewBox="0 0 19 20" fill="none" xmlns="http://www.w3.org/2000/svg">
<path fill-rule="evenodd" clip-rule="evenodd" d="M17.5006 1.82662C17.9462 1.82628 18.1696 2.36506 17.8545 2.68017L10.5347 10L17.8507 17.3162C18.1658 17.6313 17.9424 18.1701 17.4967 18.1698L15.9945 18.1686C15.4646 18.1682 14.9565 17.9576 14.5818 17.5829L8.76692 11.7678L6.57926 13.9555C7.29731 15.282 7.09577 16.9745 5.97464 18.0957C4.60781 19.4625 2.39172 19.4625 1.02489 18.0957C-0.341949 16.7288 -0.341949 14.5127 1.02489 13.1459C2.01215 12.1586 3.44248 11.8845 4.67582 12.3234L6.99918 10L4.67579 7.67657C3.44245 8.1155 2.01213 7.84134 1.02487 6.85408C-0.341969 5.48724 -0.341969 3.27117 1.02487 1.90433C2.3917 0.537495 4.60778 0.537495 5.97461 1.90433C7.09574 3.02545 7.29728 4.71794 6.57923 6.04448L8.76694 8.23225L14.5856 2.41353C14.9603 2.03883 15.4684 1.82815 15.9983 1.82775L17.5006 1.82662ZM2.43911 14.5601C1.85332 15.1459 1.85332 16.0957 2.43911 16.6814C3.02489 17.2672 3.97464 17.2672 4.56043 16.6814C5.14622 16.0957 5.14622 15.1459 4.56043 14.5601C3.97464 13.9743 3.02489 13.9743 2.43911 14.5601ZM2.43908 5.43986C1.85329 4.85408 1.85329 3.90433 2.43908 3.31854C3.02486 2.73276 3.97461 2.73276 4.5604 3.31854C5.14618 3.90433 5.14618 4.85408 4.5604 5.43986C3.97461 6.02565 3.02486 6.02565 2.43908 5.43986ZM8.00098 10.006C8.00098 10.4202 8.33676 10.756 8.75098 10.756C9.16519 10.756 9.50098 10.4202 9.50098 10.006C9.50098 9.59179 9.16519 9.256 8.75098 9.256C8.33676 9.256 8.00098 9.59179 8.00098 10.006Z" fill="#868E96"/>
</svg>
