<svg xmlns="http://www.w3.org/2000/svg" width="16" height="16" viewBox="0 0 16 16" fill="none">
  <path fill-rule="evenodd" clip-rule="evenodd" d="M12.8616 13.8047L2.19491 3.13799L3.13772 2.19518L13.8044 12.8619L12.8616 13.8047Z" fill="#868E96"/>
  <path d="M11.5351 9.17844L13.1851 7.52849C14.4868 6.22674 14.4868 4.11619 13.1851 2.81445C11.8834 1.5127 9.7728 1.5127 8.47106 2.81445L6.82111 4.46439L7.76392 5.4072L9.41386 3.75725C10.1949 2.97621 11.4612 2.97621 12.2423 3.75725C13.0233 4.5383 13.0233 5.80463 12.2423 6.58568L10.5923 8.23563L11.5351 9.17844Z" fill="#868E96"/>
  <path d="M9.64953 7.29282L10.8281 6.11428C11.0884 5.85393 11.0884 5.43182 10.8281 5.17147C10.5677 4.91112 10.1456 4.91112 9.88527 5.17147L8.70673 6.35001L9.64953 7.29282Z" fill="#868E96"/>
  <path d="M4.46409 6.82141L5.4069 7.76422L3.75701 9.41411C2.97596 10.1952 2.97596 11.4615 3.75701 12.2425C4.53806 13.0236 5.80439 13.0236 6.58544 12.2425L8.23532 10.5927L9.17813 11.5355L7.52825 13.1853C6.2265 14.4871 4.11595 14.4871 2.8142 13.1853C1.51245 11.8836 1.51245 9.77305 2.8142 8.4713L4.46409 6.82141Z" fill="#868E96"/>
  <path d="M7.29251 9.64984L6.11403 10.8283C5.85368 11.0887 5.43157 11.0887 5.17122 10.8283C4.91087 10.568 4.91087 10.1459 5.17122 9.88551L6.3497 8.70703L7.29251 9.64984Z" fill="#868E96"/>
</svg>