<svg
  xmlns="http://www.w3.org/2000/svg" viewBox="0 0 24 24">
  <defs>
    <style>.cls-1{fill:#abb0c4;}</style>
  </defs>
  <title>icon - menu - add style - line</title>
  <path class="cls-1" d="M9,14.5A1.5,1.5,0,1,1,7.5,13,1.5,1.5,0,0,1,9,14.5ZM10.5,6A1.5,1.5,0,1,0,12,7.5,1.5,1.5,0,0,0,10.5,6Zm-3,3A1.5,1.5,0,1,0,9,10.5,1.5,1.5,0,0,0,7.5,9Zm7.2,6.36a2,2,0,0,0-.09,1.92l.2.41A3,3,0,0,1,12.14,22H12a9.74,9.74,0,0,1-2.62-.36A10,10,0,0,1,4.46,5.43,10,10,0,0,1,22,12.14a3,3,0,0,1-3,3,3.09,3.09,0,0,1-1.3-.3l-.41-.2A2,2,0,0,0,14.7,15.36Zm3.44-2.55.42.19A1,1,0,0,0,20,12.11a8,8,0,0,0-6.87-8A7.24,7.24,0,0,0,12,4,8,8,0,0,0,6,6.74a7.92,7.92,0,0,0-1.89,6.39A8.05,8.05,0,0,0,9.9,19.72,8.42,8.42,0,0,0,12,20h.11a1,1,0,0,0,.84-.48,1,1,0,0,0,.05-1l-.2-.42A3.92,3.92,0,0,1,13,14.3,4.05,4.05,0,0,1,18.14,12.81ZM14.5,6A1.5,1.5,0,1,0,16,7.5,1.5,1.5,0,0,0,14.5,6Z"/>
</svg>
