<svg xmlns="http://www.w3.org/2000/svg" viewBox="0 0 24 24"><defs><style>.cls-1{fill:#868e96;}</style></defs><path class="cls-1" d="M17.83,2.83H6.17A1.67,1.67,0,0,0,4.5,4.5v15a1.67,1.67,0,0,0,1.67,1.67H17.83A1.67,1.67,0,0,0,19.5,19.5V4.5A1.67,1.67,0,0,0,17.83,2.83ZM6.17,19.5V4.5H17.83v15Z"/><path class="cls-1" d="M13.67,10.22H7.84v7.59h8.32V10.22Zm.38,4.88a.26.26,0,0,1,0,.38l-.58.58a.28.28,0,0,1-.38,0L12,15l-1.09,1.09a.28.28,0,0,1-.38,0L10,15.48a.28.28,0,0,1,0-.38L11,14,10,12.92a.28.28,0,0,1,0-.38l.58-.58a.26.26,0,0,1,.38,0L12,13.05,13.09,12a.26.26,0,0,1,.38,0l.58.58a.26.26,0,0,1,0,.38L13,14Z"/></svg>