<svg width="60" height="74" viewBox="0 0 60 74" fill="none" xmlns="http://www.w3.org/2000/svg">
<rect x="0.5" y="0.5" width="59" height="73" stroke="#ADB5BD" style="fill: none;"/>
<line x1="18" y1="11.3428" x2="52" y2="11.3428" stroke="#868E96" stroke-width="2"/>
<line x1="18" y1="60.7139" x2="52" y2="60.7139" stroke="#868E96" stroke-width="2"/>
<line x1="28" y1="23.6855" x2="52" y2="23.6855" stroke="#868E96" stroke-width="2"/>
<line x1="28" y1="36.0283" x2="52" y2="36.0283" stroke="#868E96" stroke-width="2"/>
<line x1="35" y1="48.3711" x2="52" y2="48.3711" stroke="#868E96" stroke-width="2"/>
<path d="M11.581 13.5306V14.1426H8.125V13.5306H9.5065V9.13408C9.5065 9.00208 9.511 8.86858 9.52 8.73358L8.3725 9.71908C8.3335 9.75208 8.2945 9.77308 8.2555 9.78208C8.2165 9.78808 8.1805 9.78808 8.1475 9.78208C8.1145 9.77608 8.083 9.76408 8.053 9.74608C8.026 9.72808 8.005 9.70858 7.99 9.68758L7.738 9.34108L9.6595 7.68058H10.312V13.5306H11.581ZM12.7202 13.6476C12.7202 13.5696 12.7337 13.4961 12.7607 13.4271C12.7907 13.3581 12.8297 13.2981 12.8777 13.2471C12.9287 13.1961 12.9887 13.1556 13.0577 13.1256C13.1267 13.0956 13.2002 13.0806 13.2782 13.0806C13.3562 13.0806 13.4297 13.0956 13.4987 13.1256C13.5677 13.1556 13.6277 13.1961 13.6787 13.2471C13.7297 13.2981 13.7702 13.3581 13.8002 13.4271C13.8302 13.4961 13.8452 13.5696 13.8452 13.6476C13.8452 13.7286 13.8302 13.8036 13.8002 13.8726C13.7702 13.9386 13.7297 13.9971 13.6787 14.0481C13.6277 14.0991 13.5677 14.1381 13.4987 14.1651C13.4297 14.1951 13.3562 14.2101 13.2782 14.2101C13.2002 14.2101 13.1267 14.1951 13.0577 14.1651C12.9887 14.1381 12.9287 14.0991 12.8777 14.0481C12.8297 13.9971 12.7907 13.9386 12.7607 13.8726C12.7337 13.8036 12.7202 13.7286 12.7202 13.6476Z" fill="#485056"/>
<path d="M20.105 23.405C19.736 23.417 19.421 23.447 19.16 23.495C18.902 23.54 18.6905 23.6 18.5255 23.675C18.3635 23.75 18.245 23.8385 18.17 23.9405C18.098 24.0425 18.062 24.1565 18.062 24.2825C18.062 24.4025 18.0815 24.506 18.1205 24.593C18.1595 24.68 18.212 24.752 18.278 24.809C18.347 24.863 18.4265 24.9035 18.5165 24.9305C18.6095 24.9545 18.7085 24.9665 18.8135 24.9665C18.9545 24.9665 19.0835 24.953 19.2005 24.926C19.3175 24.896 19.427 24.854 19.529 24.8C19.634 24.746 19.733 24.6815 19.826 24.6065C19.922 24.5315 20.015 24.446 20.105 24.35V23.405ZM17.5175 21.542C17.7695 21.299 18.041 21.1175 18.332 20.9975C18.623 20.8775 18.9455 20.8175 19.2995 20.8175C19.5545 20.8175 19.781 20.8595 19.979 20.9435C20.177 21.0275 20.3435 21.1445 20.4785 21.2945C20.6135 21.4445 20.7155 21.626 20.7845 21.839C20.8535 22.052 20.888 22.286 20.888 22.541V25.457H20.5325C20.4545 25.457 20.3945 25.445 20.3525 25.421C20.3105 25.394 20.2775 25.343 20.2535 25.268L20.1635 24.836C20.0435 24.947 19.9265 25.046 19.8125 25.133C19.6985 25.217 19.5785 25.289 19.4525 25.349C19.3265 25.406 19.1915 25.4495 19.0475 25.4795C18.9065 25.5125 18.749 25.529 18.575 25.529C18.398 25.529 18.2315 25.505 18.0755 25.457C17.9195 25.406 17.783 25.331 17.666 25.232C17.552 25.133 17.4605 25.0085 17.3915 24.8585C17.3255 24.7055 17.2925 24.5255 17.2925 24.3185C17.2925 24.1385 17.342 23.966 17.441 23.801C17.54 23.633 17.7005 23.4845 17.9225 23.3555C18.1445 23.2265 18.434 23.1215 18.791 23.0405C19.148 22.9565 19.586 22.9085 20.105 22.8965V22.541C20.105 22.187 20.0285 21.92 19.8755 21.74C19.7225 21.557 19.499 21.4655 19.205 21.4655C19.007 21.4655 18.8405 21.491 18.7055 21.542C18.5735 21.59 18.458 21.6455 18.359 21.7085C18.263 21.7685 18.179 21.824 18.107 21.875C18.038 21.923 17.969 21.947 17.9 21.947C17.846 21.947 17.7995 21.9335 17.7605 21.9065C17.7215 21.8765 17.6885 21.8405 17.6615 21.7985L17.5175 21.542ZM21.9731 24.962C21.9731 24.884 21.9866 24.8105 22.0136 24.7415C22.0436 24.6725 22.0826 24.6125 22.1306 24.5615C22.1816 24.5105 22.2416 24.47 22.3106 24.44C22.3796 24.41 22.4531 24.395 22.5311 24.395C22.6091 24.395 22.6826 24.41 22.7516 24.44C22.8206 24.47 22.8806 24.5105 22.9316 24.5615C22.9826 24.6125 23.0231 24.6725 23.0531 24.7415C23.0831 24.8105 23.0981 24.884 23.0981 24.962C23.0981 25.043 23.0831 25.118 23.0531 25.187C23.0231 25.253 22.9826 25.3115 22.9316 25.3625C22.8806 25.4135 22.8206 25.4525 22.7516 25.4795C22.6826 25.5095 22.6091 25.5245 22.5311 25.5245C22.4531 25.5245 22.3796 25.5095 22.3106 25.4795C22.2416 25.4525 22.1816 25.4135 22.1306 25.3625C22.0826 25.3115 22.0436 25.253 22.0136 25.187C21.9866 25.118 21.9731 25.043 21.9731 24.962Z" fill="#485056"/>
<path d="M18.44 37.7301C18.587 37.9281 18.7475 38.0676 18.9215 38.1486C19.0985 38.2296 19.292 38.2701 19.502 38.2701C19.931 38.2701 20.2595 38.1186 20.4875 37.8156C20.7155 37.5126 20.8295 37.0611 20.8295 36.4611C20.8295 35.9031 20.7275 35.4936 20.5235 35.2326C20.3225 34.9686 20.0345 34.8366 19.6595 34.8366C19.3985 34.8366 19.1705 34.8966 18.9755 35.0166C18.7835 35.1366 18.605 35.3061 18.44 35.5251V37.7301ZM18.44 34.9266C18.632 34.7046 18.848 34.5276 19.088 34.3956C19.331 34.2636 19.61 34.1976 19.925 34.1976C20.192 34.1976 20.432 34.2486 20.645 34.3506C20.861 34.4526 21.044 34.6011 21.194 34.7961C21.344 34.9881 21.458 35.2221 21.536 35.4981C21.617 35.7741 21.6575 36.0846 21.6575 36.4296C21.6575 36.7986 21.6125 37.1346 21.5225 37.4376C21.4325 37.7406 21.302 38.0001 21.131 38.2161C20.963 38.4291 20.7575 38.5956 20.5145 38.7156C20.2715 38.8326 19.9985 38.8911 19.6955 38.8911C19.3955 38.8911 19.142 38.8356 18.935 38.7246C18.731 38.6106 18.5525 38.4501 18.3995 38.2431L18.359 38.6571C18.335 38.7711 18.266 38.8281 18.152 38.8281H17.6345V32.1996H18.44V34.9266ZM22.5356 38.3331C22.5356 38.2551 22.5491 38.1816 22.5761 38.1126C22.6061 38.0436 22.6451 37.9836 22.6931 37.9326C22.7441 37.8816 22.8041 37.8411 22.8731 37.8111C22.9421 37.7811 23.0156 37.7661 23.0936 37.7661C23.1716 37.7661 23.2451 37.7811 23.3141 37.8111C23.3831 37.8411 23.4431 37.8816 23.4941 37.9326C23.5451 37.9836 23.5856 38.0436 23.6156 38.1126C23.6456 38.1816 23.6606 38.2551 23.6606 38.3331C23.6606 38.4141 23.6456 38.4891 23.6156 38.5581C23.5856 38.6241 23.5451 38.6826 23.4941 38.7336C23.4431 38.7846 23.3831 38.8236 23.3141 38.8506C23.2451 38.8806 23.1716 38.8956 23.0936 38.8956C23.0156 38.8956 22.9421 38.8806 22.8731 38.8506C22.8041 38.8236 22.7441 38.7846 22.6931 38.7336C22.6451 38.6826 22.6061 38.6241 22.5761 38.5581C22.5491 38.4891 22.5356 38.4141 22.5356 38.3331Z" fill="#485056"/>
<path d="M29.4805 46.6134V51.1719H28.6795V46.6134H29.4805ZM29.6515 45.1824C29.6515 45.2604 29.635 45.3339 29.602 45.4029C29.572 45.4689 29.53 45.5289 29.476 45.5829C29.425 45.6339 29.3635 45.6744 29.2915 45.7044C29.2225 45.7344 29.149 45.7494 29.071 45.7494C28.993 45.7494 28.9195 45.7344 28.8505 45.7044C28.7845 45.6744 28.726 45.6339 28.675 45.5829C28.624 45.5289 28.5835 45.4689 28.5535 45.4029C28.5235 45.3339 28.5085 45.2604 28.5085 45.1824C28.5085 45.1044 28.5235 45.0309 28.5535 44.9619C28.5835 44.8899 28.624 44.8284 28.675 44.7774C28.726 44.7234 28.7845 44.6814 28.8505 44.6514C28.9195 44.6214 28.993 44.6064 29.071 44.6064C29.149 44.6064 29.2225 44.6214 29.2915 44.6514C29.3635 44.6814 29.425 44.7234 29.476 44.7774C29.53 44.8284 29.572 44.8899 29.602 44.9619C29.635 45.0309 29.6515 45.1044 29.6515 45.1824ZM30.6616 50.6769C30.6616 50.5989 30.6751 50.5254 30.7021 50.4564C30.7321 50.3874 30.7711 50.3274 30.8191 50.2764C30.8701 50.2254 30.9301 50.1849 30.9991 50.1549C31.0681 50.1249 31.1416 50.1099 31.2196 50.1099C31.2976 50.1099 31.3711 50.1249 31.4401 50.1549C31.5091 50.1849 31.5691 50.2254 31.6201 50.2764C31.6711 50.3274 31.7116 50.3874 31.7416 50.4564C31.7716 50.5254 31.7866 50.5989 31.7866 50.6769C31.7866 50.7579 31.7716 50.8329 31.7416 50.9019C31.7116 50.9679 31.6711 51.0264 31.6201 51.0774C31.5691 51.1284 31.5091 51.1674 31.4401 51.1944C31.3711 51.2244 31.2976 51.2394 31.2196 51.2394C31.1416 51.2394 31.0681 51.2244 30.9991 51.1944C30.9301 51.1674 30.8701 51.1284 30.8191 51.0774C30.7711 51.0264 30.7321 50.9679 30.7021 50.9019C30.6751 50.8329 30.6616 50.7579 30.6616 50.6769Z" fill="#485056"/>
<path d="M11.4415 62.7541C11.5285 62.7541 11.5975 62.7796 11.6485 62.8306C11.6995 62.8816 11.725 62.9476 11.725 63.0286V63.5146H7.423V63.2401C7.423 63.1831 7.435 63.1246 7.459 63.0646C7.483 63.0046 7.5205 62.9491 7.5715 62.8981L9.637 60.8236C9.808 60.6496 9.964 60.4831 10.105 60.3241C10.246 60.1621 10.366 60.0001 10.465 59.8381C10.564 59.6761 10.6405 59.5126 10.6945 59.3476C10.7485 59.1796 10.7755 59.0011 10.7755 58.8121C10.7755 58.6231 10.7455 58.4581 10.6855 58.3171C10.6255 58.1731 10.543 58.0546 10.438 57.9616C10.336 57.8686 10.2145 57.7996 10.0735 57.7546C9.9325 57.7066 9.781 57.6826 9.619 57.6826C9.454 57.6826 9.3025 57.7066 9.1645 57.7546C9.0265 57.8026 8.9035 57.8701 8.7955 57.9571C8.6905 58.0411 8.602 58.1416 8.53 58.2586C8.458 58.3756 8.407 58.5046 8.377 58.6456C8.341 58.7506 8.2915 58.8211 8.2285 58.8571C8.1685 58.8901 8.083 58.8991 7.972 58.8841L7.5535 58.8121C7.5955 58.5181 7.6765 58.2586 7.7965 58.0336C7.9195 57.8056 8.0725 57.6151 8.2555 57.4621C8.4415 57.3091 8.653 57.1936 8.89 57.1156C9.127 57.0346 9.3835 56.9941 9.6595 56.9941C9.9325 56.9941 10.1875 57.0346 10.4245 57.1156C10.6615 57.1966 10.867 57.3151 11.041 57.4711C11.215 57.6241 11.3515 57.8116 11.4505 58.0336C11.5495 58.2556 11.599 58.5076 11.599 58.7896C11.599 59.0296 11.563 59.2531 11.491 59.4601C11.419 59.6641 11.3215 59.8591 11.1985 60.0451C11.0755 60.2311 10.933 60.4126 10.771 60.5896C10.612 60.7666 10.4425 60.9451 10.2625 61.1251L8.5615 62.8621C8.6815 62.8291 8.803 62.8036 8.926 62.7856C9.049 62.7646 9.1675 62.7541 9.2815 62.7541H11.4415ZM12.7202 63.0196C12.7202 62.9416 12.7337 62.8681 12.7607 62.7991C12.7907 62.7301 12.8297 62.6701 12.8777 62.6191C12.9287 62.5681 12.9887 62.5276 13.0577 62.4976C13.1267 62.4676 13.2002 62.4526 13.2782 62.4526C13.3562 62.4526 13.4297 62.4676 13.4987 62.4976C13.5677 62.5276 13.6277 62.5681 13.6787 62.6191C13.7297 62.6701 13.7702 62.7301 13.8002 62.7991C13.8302 62.8681 13.8452 62.9416 13.8452 63.0196C13.8452 63.1006 13.8302 63.1756 13.8002 63.2446C13.7702 63.3106 13.7297 63.3691 13.6787 63.4201C13.6277 63.4711 13.5677 63.5101 13.4987 63.5371C13.4297 63.5671 13.3562 63.5821 13.2782 63.5821C13.2002 63.5821 13.1267 63.5671 13.0577 63.5371C12.9887 63.5101 12.9287 63.4711 12.8777 63.4201C12.8297 63.3691 12.7907 63.3106 12.7607 63.2446C12.7337 63.1756 12.7202 63.1006 12.7202 63.0196Z" fill="#485056"/>
</svg>
