<svg xmlns="http://www.w3.org/2000/svg" viewBox="0 0 24 24"><defs><style>.cls-1{fill:#abb0c4;}</style></defs><title>icon - header - settings - fill</title><path class="cls-1" d="M21.29,13.9l-1.37-.79a7.74,7.74,0,0,0,0-2.22l1.37-.79a1,1,0,0,0,.37-1.37l-2-3.46a1,1,0,0,0-1.37-.37l-1.4.81A8,8,0,0,0,15,4.6V3a1,1,0,0,0-1-1H10A1,1,0,0,0,9,3V4.6A8.28,8.28,0,0,0,7.1,5.71L5.71,4.9a1,1,0,0,0-1.37.37l-2,3.46a1,1,0,0,0,.37,1.37l1.37.79a7.74,7.74,0,0,0,0,2.22l-1.37.79a1,1,0,0,0-.37,1.37l2,3.46a1,1,0,0,0,1.37.37l1.4-.81A8,8,0,0,0,9,19.4V21a1,1,0,0,0,1,1h4a1,1,0,0,0,1-1V19.4a8.28,8.28,0,0,0,1.9-1.11l1.39.81a1,1,0,0,0,1.37-.37l2-3.46A1,1,0,0,0,21.29,13.9ZM12,16a4,4,0,1,1,4-4A4,4,0,0,1,12,16Z"/></svg>