<svg id="icon" xmlns="http://www.w3.org/2000/svg" viewBox="0 0 24 24"><defs><style>.cls-1{fill:#abb0c4;}</style></defs><title>icon - tool - stamp - fill</title><path class="cls-1" d="M4,20.5H20V22H4Zm15.27-5H4.74a.76.76,0,0,0-.75.75V19H20V16.26A.76.76,0,0,0,19.26,15.51Z"/><path class="cls-1" d="M9.14,11.82a7,7,0,0,1,.44,1.44H9v1.5h6v-1.5h-.58a6.08,6.08,0,0,1,.45-1.44,12.73,12.73,0,0,1,.81-1,5,5,0,0,0,1.57-3.54,5.26,5.26,0,0,0-10.51,0,5.06,5.06,0,0,0,1.58,3.56A12.78,12.78,0,0,1,9.14,11.82Z"/></svg>