<svg width="60" height="74" viewBox="0 0 60 74" fill="none" xmlns="http://www.w3.org/2000/svg">
    <path d="M11.5541 11.204L11.0001 10.634L10.446 11.204L11.0001 11.7739L11.5541 11.204Z" fill="#485056"/>
    <path fill-rule="evenodd" clip-rule="evenodd" d="M11 9.82812L12.3377 11.2041L11 12.58L9.66229 11.2041L11 9.82812Z" fill="#485056"/>
    <path d="M11.5541 14.6235L11.0001 14.0536L10.446 14.6235L11.0001 15.1935L11.5541 14.6235Z" fill="#485056"/>
    <path fill-rule="evenodd" clip-rule="evenodd" d="M11 13.2477L11.6689 13.9357L12.3377 14.6236L11 15.9996L9.66229 14.6236L11 13.2477Z" fill="#485056"/>
    <path d="M9.89186 12.9138L9.33776 12.3438L8.78366 12.9138L9.33776 13.4837L9.89186 12.9138Z" fill="#485056"/>
    <path fill-rule="evenodd" clip-rule="evenodd" d="M9.33771 11.5379L10.6754 12.9138L9.33771 14.2898L8 12.9138L9.33771 11.5379Z" fill="#485056"/>
    <path d="M13.2164 12.9138L12.6623 12.3438L12.1082 12.9138L12.6623 13.4837L13.2164 12.9138Z" fill="#485056"/>
    <path fill-rule="evenodd" clip-rule="evenodd" d="M12.6623 11.5379L14 12.9138L12.6623 14.2898L11.3246 12.9138L12.6623 11.5379Z" fill="#485056"/>
    <line x1="18" y1="12.9141" x2="52" y2="12.9141" stroke="#868E96" stroke-width="2"/>
    <circle cx="21" cy="25" r="3" fill="#485056"/>
    <line x1="28" y1="25" x2="52" y2="25" stroke="#868E96" stroke-width="2"/>
    <circle cx="21" cy="37" r="3" fill="#485056"/>
    <line x1="28" y1="37" x2="52" y2="37" stroke="#868E96" stroke-width="2"/>
    <circle cx="31" cy="49" r="2.75" stroke="#485056" stroke-width="0.5"/>
    <line x1="38" y1="49" x2="52" y2="49" stroke="#868E96" stroke-width="2"/>
    <path d="M11.5541 59.3758L11.0001 58.8059L10.446 59.3758L11.0001 59.9458L11.5541 59.3758Z" fill="#485056"/>
    <path fill-rule="evenodd" clip-rule="evenodd" d="M11 58L12.3377 59.3759L11 60.7519L9.66229 59.3759L11 58Z" fill="#485056"/>
    <path d="M11.5541 62.7954L11.0001 62.2255L10.446 62.7954L11.0001 63.3653L11.5541 62.7954Z" fill="#485056"/>
    <path fill-rule="evenodd" clip-rule="evenodd" d="M11 61.4196L11.6689 62.1075L12.3377 62.7955L11 64.1714L9.66229 62.7955L11 61.4196Z" fill="#485056"/>
    <path d="M9.89186 61.0856L9.33776 60.5157L8.78366 61.0856L9.33776 61.6556L9.89186 61.0856Z" fill="#485056"/>
    <path fill-rule="evenodd" clip-rule="evenodd" d="M9.33771 59.7098L10.6754 61.0857L9.33771 62.4616L8 61.0857L9.33771 59.7098Z" fill="#485056"/>
    <path d="M13.2164 61.0856L12.6623 60.5157L12.1082 61.0856L12.6623 61.6556L13.2164 61.0856Z" fill="#485056"/>
    <path fill-rule="evenodd" clip-rule="evenodd" d="M12.6623 59.7098L14 61.0857L12.6623 62.4616L11.3246 61.0857L12.6623 59.7098Z" fill="#485056"/>
    <line x1="18" y1="61.0859" x2="52" y2="61.0859" stroke="#868E96" stroke-width="2"/>
    <rect x="0.5" y="0.5" width="59" height="73" stroke="#ADB5BD" style="fill: none;"/>
</svg>
