<?xml version="1.0" encoding="UTF-8"?>
<svg width="19px" height="22px" viewBox="0 0 19 22" version="1.1" xmlns="http://www.w3.org/2000/svg" xmlns:xlink="http://www.w3.org/1999/xlink">
    <title>icon-header-pan2</title>
    <g id="Desktop---v2" stroke="none" stroke-width="1" fill="none" fill-rule="evenodd">
        <g id="D---viewing-mode" transform="translate(-371.000000, -79.000000)" fill="#ABB0C4">
            <g id="header-/-d-/-line" transform="translate(-22.000000, 0.000000)">
                <g id="icon-header-pan2" transform="translate(393.000000, 79.000000)">
                    <path d="M3.28977334,11.1625843 C2.85057787,11.1625843 2.27292417,11.4778287 2.08980199,11.7872081 C1.81735192,12.2476116 2.10617877,12.6566961 2.30418893,12.8590391 L3.36272445,13.9455326 C4.42721516,15.0378911 5.49170587,16.1287833 6.55768538,17.2167431 C8.6077605,19.3017549 11.0404568,19.7123057 13.5952345,18.4014755 C15.6869959,17.326712 16.8244377,15.6082635 16.9748064,13.2945162 C17.0313807,12.4220957 17.0239367,11.5218163 17.0150039,10.650862 L17.0090487,9.69486503 C17.0090487,9.69486503 17.0105375,7.15238228 17.0045823,5.87820839 C17.0030935,5.63334414 16.9301424,5.44859626 16.7887066,5.32836351 C16.6502484,5.20959701 16.438839,5.14654813 16.1782993,5.14654813 L16.1678777,5.14654813 C15.7018839,5.14801438 15.2210021,5.48085382 15.2210021,6.03216496 L15.2195133,9.8517541 C15.2195133,10.0027782 15.2210021,10.1772623 15.1242302,10.3341513 C14.8785785,10.7256409 14.5823077,10.9191863 14.2369065,10.9191863 C13.7351815,10.9191863 13.4270003,10.4807767 13.318318,10.2930963 C13.2334565,10.1552685 13.2349453,9.9983794 13.2364341,9.89427544 L13.2364341,8.38256857 C13.2379229,6.90605177 13.2379229,5.42660246 13.2334565,3.94861941 C13.2379229,3.59378617 12.8821001,3.20229662 12.3014688,3.18176907 C12.0305076,3.19203284 11.828031,3.29613681 11.7178599,3.40317328 C11.533249,3.58205615 11.4543427,3.81519038 11.4573202,3.9676807 C11.4900738,5.67293297 11.488585,7.43097035 11.4856074,9.14795265 L11.4856074,9.82389529 C11.4856074,9.9705206 11.4751858,10.1230109 11.4007459,10.2696362 C11.3277948,10.413329 11.0493895,10.88253 10.529799,10.88253 C10.02063,10.88253 9.69458318,10.4499853 9.62014327,10.297495 C9.53379298,10.1171459 9.53379298,9.93093177 9.53379298,9.78284021 L9.53379298,7.44563288 C9.53379298,5.88700591 9.53379298,4.33131145 9.52932658,2.77415073 C9.53974817,2.57913908 9.46679706,2.39585745 9.32833883,2.2506984 C9.14223905,2.057153 8.86681139,1.95011653 8.55416377,1.95011653 C7.90504775,1.95011653 7.55666897,2.45157506 7.55518018,2.81373956 C7.55369138,4.22574123 7.55518018,5.5439027 7.55666897,6.87819296 L7.55964657,9.84442284 L7.55518018,11.4059823 C7.78743269,11.5863314 8.45888068,12.0965875 8.92636331,12.452887 C9.33727162,12.7666651 9.70500477,13.0437869 9.82708622,13.1434922 C10.0265852,13.30478 10.0638051,13.681607 10.0399844,13.8942137 C10.0042532,14.2138569 9.83750781,14.4616536 9.57250173,14.5950827 C9.27623089,14.7431742 8.80874826,14.7373092 8.58840612,14.5833526 C8.21471778,14.3150283 7.38843478,13.7358584 6.76760593,13.3003812 C6.34329844,13.0027319 6.01427404,12.7725301 5.98152048,12.7461376 C5.48723948,12.4059669 4.3125777,11.5936627 4.12647793,11.4631662 C3.89422541,11.3400009 3.69174885,11.2505595 3.49820509,11.1919094 C3.43418677,11.1713818 3.36421325,11.1625843 3.28977334,11.1625843 M10.7144099,21.1111111 C8.69708839,21.1111111 6.76760593,20.2342918 5.13439431,18.5730271 C4.24707058,17.6668827 3.36123565,16.7578059 2.47540073,15.8501952 L0.876431464,14.2079919 C-0.0749105836,13.2343998 -0.269943147,11.8971771 0.380661665,10.8033523 C1.0119121,9.74178512 2.64512372,8.89722338 4.07734759,9.32683552 C4.40786079,9.42654072 4.73837399,9.57023352 5.11950633,9.77844145 L5.57954497,10.0878208 L5.57656737,2.81080706 C5.57805617,1.45892176 6.71698679,0 8.55416377,0 C9.41766672,0 10.205241,0.322575666 10.7680067,0.912009384 C10.9258193,1.07476347 11.0627887,1.25951135 11.1729598,1.454523 C11.5362266,1.30056644 11.9322469,1.21845627 12.3669759,1.2331188 C13.7232711,1.2829714 14.8622017,2.19937954 15.1450734,3.37238197 C15.4666538,3.25801423 15.8090774,3.19936411 16.158945,3.19789786 C16.9896943,3.19789786 17.6924071,3.46475591 18.2090201,3.9676807 C18.7122339,4.46034171 18.9802175,5.11722307 18.9831951,5.86941087 C18.9906391,7.14651726 18.9876615,9.69633128 18.9876615,9.69633128 L18.9936167,10.639132 C19.0025495,11.5408776 19.0114823,12.4734145 18.9504416,13.4176815 C18.7583866,16.4161689 17.2219469,18.7372475 14.5108454,20.1301878 C13.2409005,20.7826704 11.9635116,21.1111111 10.7144099,21.1111111" id="Pan"></path>
                </g>
            </g>
        </g>
    </g>
</svg>