<?xml version="1.0" encoding="UTF-8"?>
<svg width="24px" height="24px" viewBox="0 0 24 24" version="1.1" xmlns="http://www.w3.org/2000/svg" xmlns:xlink="http://www.w3.org/1999/xlink">
    <title>icon / tool / form / text field</title>
    <g id="Form-Builder" stroke="none" stroke-width="1" fill="none" fill-rule="evenodd">
        <g id="Default-" transform="translate(-450.000000, -46.000000)" fill="#868E96">
            <g id="Group-5" transform="translate(450.000000, 38.000000)">
                <g id="Group-4" transform="translate(0.000000, 7.000000)">
                    <g id="icon-/-tool-/-form-/-text-field" transform="translate(0.000000, 1.000000)">
                        <path d="M4.8,3.12 L6.6,3.12 L6.6,4.92 L4.8,4.92 L4.8,6.72 L3,6.72 L3,4.92 C3.00546481,3.92815987 3.80815987,3.12546481 4.8,3.12 L4.8,3.12 Z M15.6,3.12 L8.4,3.12 L8.4,4.92 L15.6,4.92 L15.6,3.12 Z M4.8,9 L3,9 L3,15.24 L4.8,15.24 L4.8,9 Z M8.4,21 L15.6,21 L15.6,19.2 L8.4,19.2 L8.4,21 Z M4.8,17.4 L3,17.4 L3,19.2 C3.00546481,20.1918401 3.80815987,20.9945352 4.8,21 L6.6,21 L6.6,19.2 L4.8,19.2 L4.8,17.4 Z M19.2,19.2 L17.4,19.2 L17.4,21 L19.2,21 C20.1918401,20.9945352 20.9945352,20.1918401 21,19.2 L21,17.4 L19.2,17.4 L19.2,19.2 Z M19.2,3.11 L17.4,3.11 L17.4,4.91 L19.2,4.91 L19.2,6.71 L21,6.71 L21,4.92 C20.9945352,3.92815987 20.1918401,3.12546481 19.2,3.12 L19.2,3.11 Z M19.2,15.2 L21,15.2 L21,9 L19.2,9 L19.2,15.2 Z M15.8,8 L8.2,8 C8.10312734,8.00633297 8.02185672,8.07541299 8,8.17 L8,9.69 C7.99726713,9.75006018 8.01923348,9.80862219 8.0607914,9.8520691 C8.10234931,9.89551601 8.15987771,9.92006214 8.22,9.92 L8.67,9.92 C8.79702549,9.92 8.9,9.81702549 8.9,9.69 L8.9,9.08 L11.27,9.08 L11.27,15.38 L10.44,15.38 C10.319066,15.3900236 10.2246415,15.4887401 10.22,15.61 L10.22,16.06 L10.22,16.06 C10.2225927,16.1183688 10.248297,16.173309 10.291444,16.2127042 C10.3345911,16.2520993 10.3916366,16.2727133 10.45,16.27 L13.6,16.27 C13.6583476,16.27 13.7143055,16.2468215 13.7555635,16.2055635 C13.7968215,16.1643055 13.82,16.1083476 13.82,16.05 L13.82,15.61 C13.8045398,15.4964187 13.7044578,15.4137422 13.59,15.42 L12.75,15.42 L12.75,9.12 L15.14,9.12 L15.14,9.73 C15.1399379,9.79012229 15.164484,9.84765069 15.2079309,9.8892086 C15.2513778,9.93076652 15.3099398,9.95273287 15.37,9.95 L15.82,9.95 C15.925681,9.93047497 16.0017885,9.83745465 16.0000309,9.73 L16.0000309,8.17 C15.9781433,8.07541299 15.8968727,8.00633297 15.8,8 L15.8,8 Z" id="Shape"></path>
                    </g>
                </g>
            </g>
        </g>
    </g>
</svg>