<svg xmlns="http://www.w3.org/2000/svg" viewBox="0 0 24 24"><defs><style>.cls-1{fill:#abb0c4;}</style></defs><title>icon - header - page manipulation - fill</title><path class="cls-1" d="M13.82,14.43v0a1.78,1.78,0,1,1-1.74-1.82A1.78,1.78,0,0,1,13.82,14.47ZM20,9V20a2,2,0,0,1-2,2H6a2,2,0,0,1-2-2V4A2,2,0,0,1,6,2h7.06a.75.75,0,0,1,.29.16h.1a1.15,1.15,0,0,1,.29.2l6,6a.84.84,0,0,1,.2.29v.09A1.09,1.09,0,0,1,20,9ZM15.6,14l.6-.35h0a.44.44,0,0,0,.17-.6l-.87-1.54a.45.45,0,0,0-.61-.16l-.62.36a3.39,3.39,0,0,0-.84-.5v-.7h0A.44.44,0,0,0,13,10H11.22a.45.45,0,0,0-.45.45v.7a4,4,0,0,0-.84.5l-.61-.36a.45.45,0,0,0-.61.16L7.82,13a.44.44,0,0,0,.17.57l.6.35a4.18,4.18,0,0,0,0,1l-.6.35H8a.44.44,0,0,0-.16.6l.87,1.58a.45.45,0,0,0,.61.16l.61-.36a4,4,0,0,0,.84.5v.71a.46.46,0,0,0,.45.44H13a.44.44,0,0,0,.44-.44v-.71a3.39,3.39,0,0,0,.84-.5l.62.36a.45.45,0,0,0,.61-.16l.89-1.53v0a.45.45,0,0,0-.17-.58L15.6,15A4.18,4.18,0,0,0,15.6,14Z"/></svg>