<?xml version="1.0" encoding="UTF-8"?>
<svg width="20px" height="20px" viewBox="0 0 20 20" version="1.1" xmlns="http://www.w3.org/2000/svg" xmlns:xlink="http://www.w3.org/1999/xlink">
    <!-- Generator: Sketch 63.1 (92452) - https://sketch.com -->
    <title>icon / cancelled / line</title>
    <desc>Created with Sketch.</desc>
    <g stroke="none" stroke-width="1" fill="none" fill-rule="evenodd">
        <g transform="translate(-170.000000, -178.000000)">
            <g transform="translate(168.000000, 176.000000)">
                <path d="M16,2 L8,2 C4.691,2 2,4.691 2,8 L2,21 C2,21.553 2.447,22 3,22 L16,22 C19.309,22 22,19.309 22,16 L22,8 C22,4.691 19.309,2 16,2 Z M20,16 C20,18.206 18.206,20 16,20 L4,20 L4,8 C4,5.794 5.794,4 8,4 L16,4 C18.206,4 20,5.794 20,8 L20,16 Z" fill="#868E96"></path>
                <polygon fill="#BA0000" points="15.292 7.295 12 10.587 8.708 7.295 7.294 8.709 10.586 12.001 7.294 15.293 8.708 16.707 12 13.415 15.292 16.707 16.706 15.293 13.414 12.001 16.706 8.709"></polygon>
            </g>
        </g>
    </g>
</svg>