<svg width="160" height="120" viewBox="0 0 160 120" fill="none" xmlns="http://www.w3.org/2000/svg">
<path d="M0 0H160V120H0V0Z" fill="black"/>
<g clip-path="url(#clip0_954_17386)">
<path d="M24 24H160V120H24V24Z" fill="#343A40"/>
<path d="M24 28C24 25.7909 25.7909 24 28 24H160V40H24V28Z" fill="#16181C"/>
<path fill-rule="evenodd" clip-rule="evenodd" d="M24 39V40H160V39H24Z" fill="#485056"/>
<path d="M29 30.5C29 29.9477 29.4477 29.5 30 29.5H34C34.5523 29.5 35 29.9477 35 30.5V34.5C35 35.0523 34.5523 35.5 34 35.5H30C29.4477 35.5 29 35.0523 29 34.5V30.5Z" fill="#485056"/>
<path d="M39 30.5C39 29.9477 39.4477 29.5 40 29.5H44C44.5523 29.5 45 29.9477 45 30.5V34.5C45 35.0523 44.5523 35.5 44 35.5H40C39.4477 35.5 39 35.0523 39 34.5V30.5Z" fill="#485056"/>
<path d="M49 30.5C49 29.9477 49.4477 29.5 50 29.5H64C64.5523 29.5 65 29.9477 65 30.5V34.5C65 35.0523 64.5523 35.5 64 35.5H50C49.4477 35.5 49 35.0523 49 34.5V30.5Z" fill="#485056"/>
<path d="M24 40H72V120H24V40Z" fill="#16181C"/>
<path fill-rule="evenodd" clip-rule="evenodd" d="M71 120H72V40H71V120Z" fill="#485056"/>
</g>
<path d="M23 28C23 25.2386 25.2386 23 28 23H160V25H28C26.3431 25 25 26.3431 25 28H23ZM160 120H24H160ZM23 120V28C23 25.2386 25.2386 23 28 23V25C26.3431 25 25 26.3431 25 28V120H23ZM160 24V120V24Z" fill="#485056" mask="url(#path-2-inside-1_954_17386)"/>
<defs>
<clipPath id="clip0_954_17386">
<path d="M24 28C24 25.7909 25.7909 24 28 24H160V120H24V28Z" fill="white"/>
</clipPath>
</defs>
</svg>
