<?xml version="1.0" encoding="utf-8"?>
<!-- Generator: Adobe Illustrator 24.0.0, SVG Export Plug-In . SVG Version: 6.00 Build 0)  -->
<svg version="1.1" id="icons" xmlns="http://www.w3.org/2000/svg" xmlns:xlink="http://www.w3.org/1999/xlink" x="0px" y="0px"
	 viewBox="0 0 24 24" style="enable-background:new 0 0 24 24;" xml:space="preserve">
<style type="text/css">
	.st0{fill:#8C8C8C;}
</style>
<title>icon - line - tool - undo</title>
<path class="st0" d="M8.1,9.9h7.4c1.8,0,3.4,1.2,3.8,3c0.4,2-0.9,4-2.9,4.5c-0.2,0.1-0.5,0.1-0.8,0.1h-3.1c-0.3,0-0.6,0.3-0.6,0.6
	c0,0,0,0,0,0v1.3c0,0.3,0.3,0.6,0.6,0.6h0h2.9c3.2,0.1,6-2.3,6.5-5.5c0.5-3.4-2-6.6-5.4-7c-0.3,0-0.5-0.1-0.8-0.1H8.1V4.5
	c0-0.2-0.2-0.4-0.4-0.4c-0.1,0-0.2,0-0.3,0.1L2.2,8.3C2.1,8.5,2,8.7,2.2,8.9c0,0,0,0,0.1,0.1l5.2,4.2c0.2,0.1,0.4,0.1,0.6-0.1
	c0.1-0.1,0.1-0.2,0.1-0.3V9.9z"/>
</svg>
