<svg id="icons" xmlns="http://www.w3.org/2000/svg" viewBox="0 0 24 24"><defs><style>.cls-1{fill:#8a8a8a;}</style></defs><title>icon - line - tool - measurement - perimeter</title><path class="cls-1" d="M16.07,4H7.92V2h8.15ZM4,15.15H2V17a1.81,1.81,0,0,0,1.81,1.8h1.8v-2H4ZM4,4H5.6V2H3.8A1.81,1.81,0,0,0,2,3.8V5.61H4ZM4,7.93H2v4.91H4Zm13.7,13.39a.4.4,0,0,0,.68-.29V14.52a.4.4,0,0,0-.68-.29L14.45,17.5a.4.4,0,0,0,0,.56ZM20,5.61h2V3.81A1.81,1.81,0,0,0,20.19,2h-1.8V4H20Zm0,2.32v4.91h2V7.93Zm0,8.82H18.4v2h1.8A1.81,1.81,0,0,0,22,17V15.2H20Zm-10.73,0H7.92v2H9.27v1.93h2V14.41h-2Z"/></svg>