<svg xmlns="http://www.w3.org/2000/svg" viewBox="0 0 24 24"><defs><style>.cls-1{fill:#abb0c4;}</style></defs><title>icon - header - page manipulation - page transition - page by page - line</title><path class="cls-1" d="M17,17V7.83s0,0,0,0a1.7,1.7,0,0,0,0-.22l0-.07a.82.82,0,0,0-.16-.25l-5-5a.82.82,0,0,0-.25-.16l-.08,0-.21,0H5.34A1.67,1.67,0,0,0,3.67,3.67V17a1.67,1.67,0,0,0,1.67,1.67h10A1.67,1.67,0,0,0,17,17ZM5.67,4h4.66V7.83a.84.84,0,0,0,.84.83H15v8H5.67ZM20.33,9.51V20.33A1.67,1.67,0,0,1,18.66,22H11.17V20h7.16V9.51Z"/></svg>