<svg width="60" height="74" viewBox="0 0 60 74" fill="none" xmlns="http://www.w3.org/2000/svg">
<line x1="18" y1="11.3428" x2="52" y2="11.3428" stroke="#868E96" stroke-width="2"/>
<line x1="18" y1="60.7139" x2="52" y2="60.7139" stroke="#868E96" stroke-width="2"/>
<line x1="28" y1="23.6855" x2="52" y2="23.6855" stroke="#868E96" stroke-width="2"/>
<line x1="28" y1="36.0283" x2="52" y2="36.0283" stroke="#868E96" stroke-width="2"/>
<line x1="38" y1="48.3711" x2="52" y2="48.3711" stroke="#868E96" stroke-width="2"/>
<rect x="0.5" y="0.5" width="59" height="73" stroke="#ADB5BD" style="fill: none;"/>
<path d="M11.248 11.7486L10.2355 9.12508C10.2055 9.04708 10.174 8.95708 10.141 8.85508C10.108 8.75008 10.0765 8.63908 10.0465 8.52208C9.9835 8.76508 9.919 8.96758 9.853 9.12958L8.8405 11.7486H11.248ZM13.066 14.1426H12.391C12.313 14.1426 12.25 14.1231 12.202 14.0841C12.154 14.0451 12.118 13.9956 12.094 13.9356L11.491 12.3786H8.5975L7.9945 13.9356C7.9765 13.9896 7.942 14.0376 7.891 14.0796C7.84 14.1216 7.777 14.1426 7.702 14.1426H7.027L9.6055 7.69408H10.4875L13.066 14.1426ZM13.5903 13.6476C13.5903 13.5696 13.6038 13.4961 13.6308 13.4271C13.6608 13.3581 13.6998 13.2981 13.7478 13.2471C13.7988 13.1961 13.8588 13.1556 13.9278 13.1256C13.9968 13.0956 14.0703 13.0806 14.1483 13.0806C14.2263 13.0806 14.2998 13.0956 14.3688 13.1256C14.4378 13.1556 14.4978 13.1961 14.5488 13.2471C14.5998 13.2981 14.6403 13.3581 14.6703 13.4271C14.7003 13.4961 14.7153 13.5696 14.7153 13.6476C14.7153 13.7286 14.7003 13.8036 14.6703 13.8726C14.6403 13.9386 14.5998 13.9971 14.5488 14.0481C14.4978 14.0991 14.4378 14.1381 14.3688 14.1651C14.2998 14.1951 14.2263 14.2101 14.1483 14.2101C14.0703 14.2101 13.9968 14.1951 13.9278 14.1651C13.8588 14.1381 13.7988 14.0991 13.7478 14.0481C13.6998 13.9971 13.6608 13.9386 13.6308 13.8726C13.6038 13.8036 13.5903 13.7286 13.5903 13.6476Z" fill="#485056"/>
<path d="M20.105 23.405C19.736 23.417 19.421 23.447 19.16 23.495C18.902 23.54 18.6905 23.6 18.5255 23.675C18.3635 23.75 18.245 23.8385 18.17 23.9405C18.098 24.0425 18.062 24.1565 18.062 24.2825C18.062 24.4025 18.0815 24.506 18.1205 24.593C18.1595 24.68 18.212 24.752 18.278 24.809C18.347 24.863 18.4265 24.9035 18.5165 24.9305C18.6095 24.9545 18.7085 24.9665 18.8135 24.9665C18.9545 24.9665 19.0835 24.953 19.2005 24.926C19.3175 24.896 19.427 24.854 19.529 24.8C19.634 24.746 19.733 24.6815 19.826 24.6065C19.922 24.5315 20.015 24.446 20.105 24.35V23.405ZM17.5175 21.542C17.7695 21.299 18.041 21.1175 18.332 20.9975C18.623 20.8775 18.9455 20.8175 19.2995 20.8175C19.5545 20.8175 19.781 20.8595 19.979 20.9435C20.177 21.0275 20.3435 21.1445 20.4785 21.2945C20.6135 21.4445 20.7155 21.626 20.7845 21.839C20.8535 22.052 20.888 22.286 20.888 22.541V25.457H20.5325C20.4545 25.457 20.3945 25.445 20.3525 25.421C20.3105 25.394 20.2775 25.343 20.2535 25.268L20.1635 24.836C20.0435 24.947 19.9265 25.046 19.8125 25.133C19.6985 25.217 19.5785 25.289 19.4525 25.349C19.3265 25.406 19.1915 25.4495 19.0475 25.4795C18.9065 25.5125 18.749 25.529 18.575 25.529C18.398 25.529 18.2315 25.505 18.0755 25.457C17.9195 25.406 17.783 25.331 17.666 25.232C17.552 25.133 17.4605 25.0085 17.3915 24.8585C17.3255 24.7055 17.2925 24.5255 17.2925 24.3185C17.2925 24.1385 17.342 23.966 17.441 23.801C17.54 23.633 17.7005 23.4845 17.9225 23.3555C18.1445 23.2265 18.434 23.1215 18.791 23.0405C19.148 22.9565 19.586 22.9085 20.105 22.8965V22.541C20.105 22.187 20.0285 21.92 19.8755 21.74C19.7225 21.557 19.499 21.4655 19.205 21.4655C19.007 21.4655 18.8405 21.491 18.7055 21.542C18.5735 21.59 18.458 21.6455 18.359 21.7085C18.263 21.7685 18.179 21.824 18.107 21.875C18.038 21.923 17.969 21.947 17.9 21.947C17.846 21.947 17.7995 21.9335 17.7605 21.9065C17.7215 21.8765 17.6885 21.8405 17.6615 21.7985L17.5175 21.542ZM21.9731 24.962C21.9731 24.884 21.9866 24.8105 22.0136 24.7415C22.0436 24.6725 22.0826 24.6125 22.1306 24.5615C22.1816 24.5105 22.2416 24.47 22.3106 24.44C22.3796 24.41 22.4531 24.395 22.5311 24.395C22.6091 24.395 22.6826 24.41 22.7516 24.44C22.8206 24.47 22.8806 24.5105 22.9316 24.5615C22.9826 24.6125 23.0231 24.6725 23.0531 24.7415C23.0831 24.8105 23.0981 24.884 23.0981 24.962C23.0981 25.043 23.0831 25.118 23.0531 25.187C23.0231 25.253 22.9826 25.3115 22.9316 25.3625C22.8806 25.4135 22.8206 25.4525 22.7516 25.4795C22.6826 25.5095 22.6091 25.5245 22.5311 25.5245C22.4531 25.5245 22.3796 25.5095 22.3106 25.4795C22.2416 25.4525 22.1816 25.4135 22.1306 25.3625C22.0826 25.3115 22.0436 25.253 22.0136 25.187C21.9866 25.118 21.9731 25.043 21.9731 24.962Z" fill="#485056"/>
<path d="M18.44 37.7301C18.587 37.9281 18.7475 38.0676 18.9215 38.1486C19.0985 38.2296 19.292 38.2701 19.502 38.2701C19.931 38.2701 20.2595 38.1186 20.4875 37.8156C20.7155 37.5126 20.8295 37.0611 20.8295 36.4611C20.8295 35.9031 20.7275 35.4936 20.5235 35.2326C20.3225 34.9686 20.0345 34.8366 19.6595 34.8366C19.3985 34.8366 19.1705 34.8966 18.9755 35.0166C18.7835 35.1366 18.605 35.3061 18.44 35.5251V37.7301ZM18.44 34.9266C18.632 34.7046 18.848 34.5276 19.088 34.3956C19.331 34.2636 19.61 34.1976 19.925 34.1976C20.192 34.1976 20.432 34.2486 20.645 34.3506C20.861 34.4526 21.044 34.6011 21.194 34.7961C21.344 34.9881 21.458 35.2221 21.536 35.4981C21.617 35.7741 21.6575 36.0846 21.6575 36.4296C21.6575 36.7986 21.6125 37.1346 21.5225 37.4376C21.4325 37.7406 21.302 38.0001 21.131 38.2161C20.963 38.4291 20.7575 38.5956 20.5145 38.7156C20.2715 38.8326 19.9985 38.8911 19.6955 38.8911C19.3955 38.8911 19.142 38.8356 18.935 38.7246C18.731 38.6106 18.5525 38.4501 18.3995 38.2431L18.359 38.6571C18.335 38.7711 18.266 38.8281 18.152 38.8281H17.6345V32.1996H18.44V34.9266ZM22.5356 38.3331C22.5356 38.2551 22.5491 38.1816 22.5761 38.1126C22.6061 38.0436 22.6451 37.9836 22.6931 37.9326C22.7441 37.8816 22.8041 37.8411 22.8731 37.8111C22.9421 37.7811 23.0156 37.7661 23.0936 37.7661C23.1716 37.7661 23.2451 37.7811 23.3141 37.8111C23.3831 37.8411 23.4431 37.8816 23.4941 37.9326C23.5451 37.9836 23.5856 38.0436 23.6156 38.1126C23.6456 38.1816 23.6606 38.2551 23.6606 38.3331C23.6606 38.4141 23.6456 38.4891 23.6156 38.5581C23.5856 38.6241 23.5451 38.6826 23.4941 38.7336C23.4431 38.7846 23.3831 38.8236 23.3141 38.8506C23.2451 38.8806 23.1716 38.8956 23.0936 38.8956C23.0156 38.8956 22.9421 38.8806 22.8731 38.8506C22.8041 38.8236 22.7441 38.7846 22.6931 38.7336C22.6451 38.6826 22.6061 38.6241 22.5761 38.5581C22.5491 38.4891 22.5356 38.4141 22.5356 38.3331Z" fill="#485056"/>
<path d="M29.4805 46.6134V51.1719H28.6795V46.6134H29.4805ZM29.6515 45.1824C29.6515 45.2604 29.635 45.3339 29.602 45.4029C29.572 45.4689 29.53 45.5289 29.476 45.5829C29.425 45.6339 29.3635 45.6744 29.2915 45.7044C29.2225 45.7344 29.149 45.7494 29.071 45.7494C28.993 45.7494 28.9195 45.7344 28.8505 45.7044C28.7845 45.6744 28.726 45.6339 28.675 45.5829C28.624 45.5289 28.5835 45.4689 28.5535 45.4029C28.5235 45.3339 28.5085 45.2604 28.5085 45.1824C28.5085 45.1044 28.5235 45.0309 28.5535 44.9619C28.5835 44.8899 28.624 44.8284 28.675 44.7774C28.726 44.7234 28.7845 44.6814 28.8505 44.6514C28.9195 44.6214 28.993 44.6064 29.071 44.6064C29.149 44.6064 29.2225 44.6214 29.2915 44.6514C29.3635 44.6814 29.425 44.7234 29.476 44.7774C29.53 44.8284 29.572 44.8899 29.602 44.9619C29.635 45.0309 29.6515 45.1044 29.6515 45.1824ZM30.6616 50.6769C30.6616 50.5989 30.6751 50.5254 30.7021 50.4564C30.7321 50.3874 30.7711 50.3274 30.8191 50.2764C30.8701 50.2254 30.9301 50.1849 30.9991 50.1549C31.0681 50.1249 31.1416 50.1099 31.2196 50.1099C31.2976 50.1099 31.3711 50.1249 31.4401 50.1549C31.5091 50.1849 31.5691 50.2254 31.6201 50.2764C31.6711 50.3274 31.7116 50.3874 31.7416 50.4564C31.7716 50.5254 31.7866 50.5989 31.7866 50.6769C31.7866 50.7579 31.7716 50.8329 31.7416 50.9019C31.7116 50.9679 31.6711 51.0264 31.6201 51.0774C31.5691 51.1284 31.5091 51.1674 31.4401 51.1944C31.3711 51.2244 31.2976 51.2394 31.2196 51.2394C31.1416 51.2394 31.0681 51.2244 30.9991 51.1944C30.9301 51.1674 30.8701 51.1284 30.8191 51.0774C30.7711 51.0264 30.7321 50.9679 30.7021 50.9019C30.6751 50.8329 30.6616 50.7579 30.6616 50.6769Z" fill="#485056"/>
<path d="M10.087 62.8216C10.336 62.8216 10.5505 62.7931 10.7305 62.7361C10.9105 62.6791 11.0575 62.5996 11.1715 62.4976C11.2885 62.3926 11.374 62.2696 11.428 62.1286C11.482 61.9846 11.509 61.8271 11.509 61.6561C11.509 61.3231 11.3905 61.0606 11.1535 60.8686C10.9165 60.6736 10.561 60.5761 10.087 60.5761H8.692V62.8216H10.087ZM8.692 57.7546V59.9551H9.844C10.09 59.9551 10.303 59.9281 10.483 59.8741C10.666 59.8201 10.816 59.7451 10.933 59.6491C11.053 59.5531 11.1415 59.4376 11.1985 59.3026C11.2555 59.1646 11.284 59.0146 11.284 58.8526C11.284 58.4716 11.17 58.1941 10.942 58.0201C10.714 57.8431 10.36 57.7546 9.88 57.7546H8.692ZM9.88 57.0661C10.276 57.0661 10.6165 57.1051 10.9015 57.1831C11.1895 57.2611 11.425 57.3721 11.608 57.5161C11.794 57.6601 11.9305 57.8371 12.0175 58.0471C12.1045 58.2541 12.148 58.4881 12.148 58.7491C12.148 58.9081 12.1225 59.0611 12.0715 59.2081C12.0235 59.3521 11.95 59.4871 11.851 59.6131C11.752 59.7391 11.626 59.8531 11.473 59.9551C11.323 60.0541 11.146 60.1351 10.942 60.1981C11.416 60.2881 11.7715 60.4576 12.0085 60.7066C12.2485 60.9526 12.3685 61.2766 12.3685 61.6786C12.3685 61.9516 12.3175 62.2006 12.2155 62.4256C12.1165 62.6506 11.9695 62.8441 11.7745 63.0061C11.5825 63.1681 11.3455 63.2941 11.0635 63.3841C10.7815 63.4711 10.4605 63.5146 10.1005 63.5146H7.8235V57.0661H9.88ZM13.3179 63.0196C13.3179 62.9416 13.3314 62.8681 13.3584 62.7991C13.3884 62.7301 13.4274 62.6701 13.4754 62.6191C13.5264 62.5681 13.5864 62.5276 13.6554 62.4976C13.7244 62.4676 13.7979 62.4526 13.8759 62.4526C13.9539 62.4526 14.0274 62.4676 14.0964 62.4976C14.1654 62.5276 14.2254 62.5681 14.2764 62.6191C14.3274 62.6701 14.3679 62.7301 14.3979 62.7991C14.4279 62.8681 14.4429 62.9416 14.4429 63.0196C14.4429 63.1006 14.4279 63.1756 14.3979 63.2446C14.3679 63.3106 14.3274 63.3691 14.2764 63.4201C14.2254 63.4711 14.1654 63.5101 14.0964 63.5371C14.0274 63.5671 13.9539 63.5821 13.8759 63.5821C13.7979 63.5821 13.7244 63.5671 13.6554 63.5371C13.5864 63.5101 13.5264 63.4711 13.4754 63.4201C13.4274 63.3691 13.3884 63.3106 13.3584 63.2446C13.3314 63.1756 13.3179 63.1006 13.3179 63.0196Z" fill="#485056"/>
</svg>
