<svg id="icon" xmlns="http://www.w3.org/2000/svg" viewBox="0 0 24 24"><defs><style>.cls-1{fill:#abb0c4;}</style></defs><title>icon - tool - signature</title><path class="cls-1" d="M20,12.66a1,1,0,0,0-1.27.7c-.21.77-1,3-2.39,3.45.08-.42.22-1,.32-1.33.41-1.58.71-2.71-.23-3.25a2,2,0,0,0-2.79.42,4.84,4.84,0,0,0-.55.93,7.14,7.14,0,0,1-2.18,2.81,3.12,3.12,0,0,1-1.12.33,2.47,2.47,0,0,1-1-.5,1.46,1.46,0,0,1-.21-.28c5.29-5.08,5.58-9.51,5.52-10.84a3.59,3.59,0,0,0-1.21-2.91A1,1,0,0,0,12.05,2c-2.86.59-4.63,4-5.57,10.83l-.05.25a7.89,7.89,0,0,0-.17,2.19L5.43,16A4.18,4.18,0,0,1,4.12,17a1.25,1.25,0,0,1,.19-.69A1,1,0,0,0,4,14.86a1.06,1.06,0,0,0-1.44.27,2.7,2.7,0,0,0,.18,3.48A1.8,1.8,0,0,0,3.94,19a4.45,4.45,0,0,0,2.88-1.54l.2-.17a2.09,2.09,0,0,0,.24.28A4.23,4.23,0,0,0,9.6,18.72,4.81,4.81,0,0,0,12.13,18a8.11,8.11,0,0,0,2.47-2.94c-.42,1.57-.64,2.58-.14,3.27a1.29,1.29,0,0,0,.94.54c2.37.27,4.35-1.6,5.29-5A1,1,0,0,0,20,12.66ZM11.87,4.23A4.1,4.1,0,0,1,12,5.42c0,1-.31,3.91-3.47,7.57C9,9.48,10,5.33,11.87,4.23Zm10.07,6.28a1.46,1.46,0,0,1-2.9,0,1.45,1.45,0,0,1,2.9,0Z"/><rect class="cls-1" x="3.45" y="19.99" width="16.66" height="2.01"/></svg>