<svg width="24" height="24" viewBox="0 0 24 24" fill="none" xmlns="http://www.w3.org/2000/svg">
<path fill-rule="evenodd" clip-rule="evenodd" d="M20.7998 2.4668V4.02513C18.5998 4.02513 16.6748 5.67513 16.3082 7.87513H18.5082L15.3915 11.6335L12.3665 7.78346H14.7498C15.1165 4.75846 17.6832 2.4668 20.7998 2.4668ZM13.8333 12.1834V19.7918C13.8333 20.5251 13.1916 21.1668 12.4583 21.1668H4.20825C3.47492 21.1668 2.83325 20.5251 2.83325 19.7918V8.79178C2.83325 8.05845 3.47492 7.41678 4.20825 7.41678H9.06659C9.15825 7.41678 9.15825 7.41678 9.24992 7.41678H9.34159C9.43325 7.41678 9.52492 7.50845 9.52492 7.60011L13.6499 11.7251C13.7416 11.8168 13.7416 11.8168 13.7416 11.9084V12.0001C13.8333 12.0001 13.8333 12.0918 13.8333 12.1834ZM11.9999 19.3334V12.9168H9.06659C8.60825 12.9168 8.33325 12.6418 8.33325 12.1834V9.25012H4.66659V19.3334H11.9999Z" fill="#868E96"/>
<line x1="15" y1="18" x2="21" y2="18" stroke="#868E96" stroke-width="2"/>
<line x1="18" y1="21" x2="18" y2="15" stroke="#868E96" stroke-width="2"/>
</svg>