<svg width="24" height="24" viewBox="0 0 24 24" fill="none" xmlns="http://www.w3.org/2000/svg">
<path d="M14.1716 2H6C4.8954 2 4 2.8954 4 4V10H6V4H14V7.5C14 7.7761 14.2239 8 14.5 8H18V10H20V7.8284C20 7.298 19.7893 6.7893 19.4142 6.4142L15.5858 2.5858C15.2107 2.2107 14.702 2 14.1716 2Z" fill="black"/>
<path d="M4 20V16H6V20H18V16H20V20C20 21.1046 19.1046 22 18 22H6C4.8954 22 4 21.1046 4 20Z" fill="black"/>
<path d="M2 14H3.38889V12H2V14Z" fill="black"/>
<path d="M5.61111 14H8.38889V12H5.61111V14Z" fill="black"/>
<path d="M10.6111 14H13.3889V12H10.6111V14Z" fill="black"/>
<path d="M15.6111 14H18.3889V12H15.6111V14Z" fill="black"/>
<path d="M20.6111 14H22V12H20.6111V14Z" fill="black"/>
</svg>
