<?xml version="1.0" encoding="UTF-8"?>
<svg width="24px" height="24px" viewBox="0 0 24 24" version="1.1" xmlns="http://www.w3.org/2000/svg" xmlns:xlink="http://www.w3.org/1999/xlink">
    <title>icon / tool / form / list box / line</title>
    <g id="Form-Builder" stroke="none" stroke-width="1" fill="none" fill-rule="evenodd">
        <g id="Default-" transform="translate(-540.000000, -46.000000)" fill="#868E96">
            <g id="Group-5" transform="translate(450.000000, 38.000000)">
                <g id="Group-4" transform="translate(0.000000, 7.000000)">
                    <g id="icon-/-tool-/-form-/-list-box-/-line" transform="translate(90.000000, 1.000000)">
                        <path d="M19.2,3.9 L4.8,3.9 C3.80815987,3.90546481 3.00546481,4.70815987 3,5.7 L3,18.3 C3.00546481,19.2918401 3.80815987,20.0945352 4.8,20.1 L19.2,20.1 C20.1918401,20.0945352 20.9945352,19.2918401 21,18.3 L21,5.7 C20.9945352,4.70815987 20.1918401,3.90546481 19.2,3.9 Z M4.8,18.3 L4.8,5.7 L19.2,5.7 L19.2,18.3 L4.8,18.3 Z M10.2,11.1 L17.4,11.1 L17.4,12.9 L10.2,12.9 L10.2,11.1 Z M10.2,7.5 L17.4,7.5 L17.4,9.3 L10.2,9.3 L10.2,7.5 Z M6.6,7.5 L8.4,7.5 L8.4,9.3 L6.6,9.3 L6.6,7.5 Z M10.2,14.7 L17.4,14.7 L17.4,16.5 L10.2,16.5 L10.2,14.7 Z M6.6,11.11 L8.4,11.11 L8.4,12.91 L6.6,12.91 L6.6,11.11 Z M6.6,14.7 L8.4,14.7 L8.4,16.5 L6.6,16.5 L6.6,14.7 Z" id="Shape"></path>
                    </g>
                </g>
            </g>
        </g>
    </g>
</svg>