<svg width="16" height="16" viewBox="0 0 14 14" fill="#485056" xmlns="http://www.w3.org/2000/svg">
<path fill-rule="evenodd" clip-rule="evenodd" d="M2.00223 14.0001C2.05623 14.0001 2.11023 13.9934 2.16356 13.9801L4.83023 13.3134C4.94756 13.2841 5.05489 13.2234 5.14023 13.1381L13.3356 4.94274C13.5876 4.69074 13.7262 4.35607 13.7262 4.00007C13.7262 3.64407 13.5876 3.3094 13.3356 3.0574L12.2782 2.00007C11.7742 1.49607 10.8969 1.49607 10.3929 2.00007L2.19756 10.1954C2.11223 10.2807 2.05156 10.3881 2.02223 10.5047L1.35556 13.1714C1.29823 13.3987 1.36556 13.6387 1.53089 13.8047C1.65689 13.9314 1.82756 14.0001 2.00223 14.0001ZM11.3356 2.94274L12.3929 4.00007L11.3356 5.0574L10.2782 4.00007L11.3356 2.94274ZM3.27089 11.0074L9.33556 4.94274L10.3929 6.00007L4.32756 12.0647L2.91823 12.4167L3.27089 11.0074Z"/>
</svg>
