<svg id="icon" xmlns="http://www.w3.org/2000/svg" viewBox="0 0 24 24"><defs><style>.cls-1{fill:#abb0c4;}</style></defs><title>icon - tool - free highlight - line</title><path class="cls-1" d="M20.58,7.62l-7.79,7.72a.56.56,0,0,1-.5.3l-3.84.86L7.17,17.78H4.11l2-2.46,1.08-4.79A.82.82,0,0,1,7.46,10l7.8-7.74s0,0,0,0a.94.94,0,0,1,1.33,0l3.95,4a.12.12,0,0,1,.05,0A.93.93,0,0,1,20.58,7.62Zm-2-.77L16,4.27l-6.7,6.6,2.57,2.58Z"/><path class="cls-1" d="M19,17.59a18,18,0,0,1,.76,3.31A6.15,6.15,0,0,0,16.28,19a7.61,7.61,0,0,0-3.54.35,38.15,38.15,0,0,0-4.07,1.72,7,7,0,0,1-4.09.9,1.78,1.78,0,0,1-1.06-.74,2,2,0,0,1-.22-.46c0-.1-.06-.2-.09-.3a2.34,2.34,0,0,1,.11-1.6A2.25,2.25,0,0,1,3.88,18s.38,1.93.38,1.93a.27.27,0,0,0-.22.24c0,.29,1.19.13,2.15-.23a12.9,12.9,0,0,0,2-1,20.62,20.62,0,0,1,4.43-2.15,8.52,8.52,0,0,1,3.88-.36,4.88,4.88,0,0,1,1.72.66C18.41,17.18,19,17.59,19,17.59Z"/></svg>