<svg id="icons" xmlns="http://www.w3.org/2000/svg" viewBox="0 0 24 24"><defs><style>.cls-1{fill:#8c8c8c;}</style></defs><title>icon - line - tool - underline - squiggly line</title><path class="cls-1" d="M8.79,13h6.67L17,16.56h2.56L13.92,2.84a1.34,1.34,0,0,0-1.15-.64H11.62A1.24,1.24,0,0,0,10.46,3L4.69,16.56H7.26Zm3.34-8,2.31,5.51H9.82ZM21,20.15V22.2a3,3,0,0,1-2.56-1.41c-.38-.51-.64-.64-1-.64s-.51.13-1,.64a3.34,3.34,0,0,1-2.57,1.41,3,3,0,0,1-2.56-1.41c-.38-.51-.64-.64-1-.64s-.52.13-1,.64A3.34,3.34,0,0,1,6.62,22.2a3,3,0,0,1-2.57-1.41c-.38-.51-.64-.64-1-.64v-2a3,3,0,0,1,2.56,1.41c.38.51.64.64,1,.64s.51-.13,1-.64a3.32,3.32,0,0,1,2.57-1.41,3,3,0,0,1,2.56,1.41c.38.51.64.64,1,.64s.52-.13,1-.64a3.31,3.31,0,0,1,2.56-1.41A3,3,0,0,1,20,19.51C20.33,20,20.59,20.15,21,20.15Z"/></svg>