<svg width="19" height="19" viewBox="0 0 21 21" fill="none" xmlns="http://www.w3.org/2000/svg">
<path d="M6 0C4.89543 0 4 0.89543 4 2V8.75H6V2H12V7H16.5V16.5H6V15.25H4V16.5C4 17.6046 4.89543 18.5 6 18.5H16.5C17.6046 18.5 18.5 17.6046 18.5 16.5V6.41421C18.5 5.88378 18.2893 5.37507 17.9142 5L13.5 0.58579C13.1249 0.21071 12.6162 0 12.0858 0H6Z" fill="#868E96"/>
<path d="M2.5 9.5V8H0.5V9.5C0.5 11.433 2.067 13 4 13L8 13.0004V14.5004C8 14.7064 8.2352 14.824 8.4 14.7004L11.4667 12.4004C11.7333 12.2004 11.7333 11.8004 11.4667 11.6004L8.4 9.30045C8.2352 9.17685 8 9.29445 8 9.50045V11.0004H4C3.17157 11.0004 2.5 10.3284 2.5 9.5Z" fill="#868E96"/>
</svg>
