<svg width="26" height="26" viewBox="0 0 26 26" fill="none" xmlns="http://www.w3.org/2000/svg">
<path d="M20.25 4H9.75C8.78487 4 8 4.78487 8 5.75V16.25C8 17.2151 8.78487 18 9.75 18H20.25C21.2151 18 22 17.2151 22 16.25V5.75C22 4.78487 21.2151 4 20.25 4ZM9.75 16.25V5.75H20.25L20.2518 16.25H9.75Z" />
<path d="M5.78902 9.46883H4V20.2098C4 21.1971 4.80237 22 5.78902 22H16.5231V20.2098H5.78902V9.46883ZM13.7797 12.6186L12.2357 11.0737L10.9709 12.3394L13.8995 15.2699L19 9.1475L17.6242 8L13.7797 12.6186Z" />
</svg>
