<?xml version="1.0" encoding="utf-8"?>
<!-- Generator: Adobe Illustrator 24.0.0, SVG Export Plug-In . SVG Version: 6.00 Build 0)  -->
<svg version="1.1" id="icons" xmlns="http://www.w3.org/2000/svg" xmlns:xlink="http://www.w3.org/1999/xlink" x="0px" y="0px"
	 viewBox="0 0 24 24" style="enable-background:new 0 0 24 24;" xml:space="preserve">
<style type="text/css">
	.st0{fill:#8C8C8C;}
</style>
<title>icon - line - tool - shape - arrow</title>
<path class="st0" d="M14.7,7.6l-9.6,9.6c-0.2,0.2-0.2,0.6,0,0.8L6,18.9c0.2,0.2,0.6,0.2,0.8,0c0,0,0,0,0,0l9.5-9.6l1.6,1.6
	c0.2,0.2,0.6,0.2,0.8,0c0.1-0.1,0.1-0.2,0.2-0.4v-5c0-0.3-0.3-0.6-0.6-0.6l0,0h-5c-0.3,0-0.6,0.3-0.6,0.6c0,0.1,0.1,0.3,0.2,0.4
	L14.7,7.6z"/>
</svg>
