<svg width="24" height="24" viewBox="0 0 24 24" fill="none" xmlns="http://www.w3.org/2000/svg">
    <path fill-rule="evenodd" clip-rule="evenodd" d="M12.825 6.68301L15.85 2.83301L18.875 6.68301H16.675C17.0417 8.88301 18.9667 10.533 21.1667 10.533V11.9997C18.05 11.9997 15.4833 9.70801 15.1167 6.68301H12.825ZM13.8333 12.1831V19.7915C13.8333 20.5248 13.1916 21.1665 12.4583 21.1665H4.20825C3.47492 21.1665 2.83325 20.5248 2.83325 19.7915V8.79145C2.83325 8.05812 3.47492 7.41645 4.20825 7.41645H9.06659C9.15825 7.41645 9.15825 7.41645 9.24992 7.41645H9.34159C9.43325 7.41645 9.52492 7.50812 9.52492 7.59978L13.6499 11.7248C13.7416 11.8165 13.7416 11.8165 13.7416 11.9081V11.9998C13.8333 11.9998 13.8333 12.0915 13.8333 12.1831ZM11.9999 19.3331V12.9165H9.06659C8.60825 12.9165 8.33325 12.6414 8.33325 12.1831V9.24978H4.66659V19.3331H11.9999Z" fill="#868E96"/>
    <line x1="15" y1="18" x2="21" y2="18" stroke="#868E96" stroke-width="2"/>
    <line x1="18" y1="21" x2="18" y2="15" stroke="#868E96" stroke-width="2"/>
</svg>
