<?xml version="1.0" encoding="UTF-8"?>
<svg width="24" height="24" viewBox="0 0 24 24" fill="none" xmlns="http://www.w3.org/2000/svg">
<title>icon / tool / form / text field</title>
<g id="ic-text-field">
<g id="fill">
<path d="M5 19H7.58301V21H5C3.89543 21 3 20.1046 3 19V16.417H5V19Z" fill="stroke"/>
<path d="M14.583 19V21H9.41699V19H14.583Z" fill="stroke"/>
<path d="M21 19C21 20.1046 20.1046 21 19 21H16.417V19H19V16.417H21V19Z" fill="stroke"/>
<path d="M5 14.583H3V9.41699H5V14.583Z" fill="stroke"/>
<path d="M21 14.583H19V9.41699H21V14.583Z" fill="stroke"/>
<path d="M7.58301 5H5V7.58301H3V5C3 3.89543 3.89543 3 5 3H7.58301V5Z" fill="stroke"/>
<path d="M19 3C20.1046 3 21 3.89543 21 5V7.58301H19V5H16.417V3H19Z" fill="stroke"/>
<path d="M14.583 5H9.41699V3H14.583V5Z" fill="stroke"/>
</g>
<g id="shape">
<path d="M15.75 8C15.8881 8 16 8.11193 16 8.25V8.75C16 8.88807 15.8881 9 15.75 9H8.25C8.11193 9 8 8.88807 8 8.75V8.25C8 8.11193 8.11193 8 8.25 8H15.75Z"/>
<path d="M9 9.75C9 9.88807 8.88807 10 8.75 10H8.25C8.11193 10 8 9.88807 8 9.75L8 8.25C8 8.11193 8.11193 8 8.25 8L8.75 8C8.88807 8 9 8.11193 9 8.25L9 9.75Z"/>
<path d="M16 9.75C16 9.88807 15.8881 10 15.75 10H15.25C15.1119 10 15 9.88807 15 9.75V8.25C15 8.11193 15.1119 8 15.25 8L15.75 8C15.8881 8 16 8.11193 16 8.25V9.75Z"/>
<path d="M13 16H11L11 8L13 8L13 16Z"/>
<path d="M13.75 15C13.8881 15 14 15.1119 14 15.25V15.75C14 15.8881 13.8881 16 13.75 16H10.25C10.1119 16 10 15.8881 10 15.75V15.25C10 15.1119 10.1119 15 10.25 15H13.75Z"/>
</g>
</g>
</svg>
