<?xml version="1.0" encoding="UTF-8"?>
<svg width="20px" height="19px" viewBox="0 0 20 19" version="1.1" xmlns="http://www.w3.org/2000/svg" xmlns:xlink="http://www.w3.org/1999/xlink">
    <!-- Generator: Sketch 63.1 (92452) - https://sketch.com -->
    <title>icon / approved line</title>
    <desc>Created with Sketch.</desc>
    <g stroke="none" stroke-width="1" fill="none" fill-rule="evenodd">
        <g transform="translate(-132.000000, -179.000000)" fill="#239700">
            <g transform="translate(130.000000, 176.000000)">
                <path d="M20,9 L14.388,9 L15.511,5.633 C15.713,5.025 15.611,4.351 15.236,3.831 C14.861,3.311 14.253,3 13.612,3 L12,3 C11.703,3 11.422,3.132 11.231,3.36 L6.531,9 L4,9 C2.897,9 2,9.897 2,11 L2,20 C2,21.103 2.897,22 4,22 L7,22 L17.307,22 C18.136,22 18.888,21.479 19.18,20.702 L21.937,13.351 C21.979,13.239 22,13.12 22,13 L22,11 C22,9.897 21.103,9 20,9 Z M4,11 L6,11 L6,20 L4,20 L4,11 Z M20,12.819 L17.307,20 L8,20 L8,10.362 L12.468,5 L13.614,5 L12.052,9.683 C11.949,9.988 12.001,10.323 12.189,10.584 C12.377,10.846 12.679,11 13,11 L20,11 L20,12.819 Z"></path>
            </g>
        </g>
    </g>
</svg>