<svg width="24" height="24" viewBox="0 0 24 24" fill="none" xmlns="http://www.w3.org/2000/svg">
    <path fill-rule="evenodd" clip-rule="evenodd" d="M6 2H12L17 7V16C17 17.1046 16.1046 18 15 18H6C4.89543 18 4 17.1046 4 16V4C4 2.89543 4.89543 2 6 2ZM6 3.75H11.2751L15.25 7.72487V16C15.25 16.1381 15.1381 16.25 15 16.25H6C5.86193 16.25 5.75 16.1381 5.75 16V4C5.75 3.86193 5.86193 3.75 6 3.75Z" fill="#868E96"/>
    <path d="M18.75 8.5H20.5V20.5C20.5 21.0523 20.0523 21.5 19.5 21.5H11.5V19.75H18.75V8.5Z" fill="#868E96"/>
    <path d="M11 3L16 8H11V3Z" fill="#868E96"/>
    <path d="M10.2982 12.8588L11.5355 14.0962L12.5962 13.0355L11.3588 11.7982L12.5962 10.5608L11.5355 9.50011L10.2982 10.7375L9.06066 9.5L8 10.5607L9.23749 11.7982L8 13.0356L9.06066 14.0963L10.2982 12.8588Z" fill="#868E96"/>
</svg>
