<svg width="24" height="24" viewBox="0 0 24 24" fill="none" xmlns="http://www.w3.org/2000/svg">
<path fill-rule="evenodd" clip-rule="evenodd" d="M20 6H4V18H20V6ZM4 4C2.89543 4 2 4.89543 2 6V18C2 19.1046 2.89543 20 4 20H20C21.1046 20 22 19.1046 22 18V6C22 4.89543 21.1046 4 20 4H4Z" fill="black"/>
<path d="M12.216 12.096C12.216 12.52 12.144 12.9133 12 13.276C11.8587 13.6387 11.6573 13.952 11.396 14.216C11.1373 14.48 10.8253 14.688 10.46 14.84C10.0947 14.9893 9.68933 15.064 9.244 15.064C8.79867 15.064 8.39333 14.9893 8.028 14.84C7.66267 14.688 7.34933 14.48 7.088 14.216C6.82667 13.952 6.624 13.6387 6.48 13.276C6.33867 12.9133 6.268 12.52 6.268 12.096C6.268 11.672 6.33867 11.28 6.48 10.92C6.624 10.5573 6.82667 10.244 7.088 9.98C7.34933 9.716 7.66267 9.50933 8.028 9.36C8.39333 9.208 8.79867 9.132 9.244 9.132C9.68933 9.132 10.0947 9.208 10.46 9.36C10.8253 9.50933 11.1373 9.71733 11.396 9.984C11.6573 10.248 11.8587 10.5613 12 10.924C12.144 11.284 12.216 11.6747 12.216 12.096ZM10.988 12.096C10.988 11.792 10.948 11.52 10.868 11.28C10.788 11.0373 10.672 10.832 10.52 10.664C10.3707 10.4933 10.188 10.364 9.972 10.276C9.75867 10.1853 9.516 10.14 9.244 10.14C8.972 10.14 8.728 10.1853 8.512 10.276C8.296 10.364 8.112 10.4933 7.96 10.664C7.81067 10.832 7.696 11.0373 7.616 11.28C7.536 11.52 7.496 11.792 7.496 12.096C7.496 12.4027 7.536 12.6773 7.616 12.92C7.696 13.16 7.81067 13.364 7.96 13.532C8.112 13.7 8.296 13.8293 8.512 13.92C8.728 14.008 8.972 14.052 9.244 14.052C9.516 14.052 9.75867 14.008 9.972 13.92C10.188 13.8293 10.3707 13.7 10.52 13.532C10.672 13.364 10.788 13.16 10.868 12.92C10.948 12.6773 10.988 12.4027 10.988 12.096Z" fill="black"/>
<path d="M14.2924 11.592H14.5284C14.7257 11.592 14.8684 11.5307 14.9564 11.408L16.4244 9.444C16.4937 9.35067 16.5697 9.28667 16.6524 9.252C16.735 9.21467 16.8364 9.196 16.9564 9.196H17.9964L16.1484 11.576C16.0284 11.7307 15.9044 11.8413 15.7764 11.908C15.8697 11.9453 15.9537 11.9947 16.0284 12.056C16.103 12.1147 16.175 12.1933 16.2444 12.292L18.1404 15H17.0724C17.003 15 16.943 14.9947 16.8924 14.984C16.8444 14.9733 16.8017 14.9587 16.7644 14.94C16.727 14.9213 16.695 14.8987 16.6684 14.872C16.6417 14.8427 16.6164 14.8093 16.5924 14.772L15.1004 12.684C15.0497 12.612 14.9897 12.5613 14.9204 12.532C14.851 12.5 14.7537 12.484 14.6284 12.484H14.2924V15H13.0924V9.196H14.2924V11.592Z" fill="black"/>
</svg>
