<svg width="64" height="65" viewBox="0 0 64 65" fill="none" xmlns="http://www.w3.org/2000/svg">
    <path d="M5.77337 52.636C6.26937 53.3827 7.10404 53.8333 8.00004 53.8333H48C49.0667 53.8333 50.032 53.1987 50.4507 52.2173L58.4507 33.5507C58.8054 32.7267 58.72 31.7827 58.2267 31.0333C57.7307 30.284 56.896 29.8333 56 29.8333H53.3334V19.1667C53.3334 16.2253 50.9414 13.8333 48 13.8333H31.7334L25.6427 9.068C25.1734 8.7 24.5974 8.5 24 8.5H10.6667C7.72537 8.5 5.33337 10.892 5.33337 13.8333V51.1667H5.35204C5.35204 51.6787 5.48271 52.1933 5.77337 52.636ZM46.2427 48.5H12.0454L17.76 35.1667H51.9574L46.2427 48.5ZM48 19.1667V29.8333H16C14.9334 29.8333 13.968 30.468 13.5494 31.4493L10.6667 38.1773V19.1667H30.816H32H48Z" fill="#868E96"/>
</svg>