<svg xmlns="http://www.w3.org/2000/svg" width="24" height="24" viewBox="0 0 24 24">
    <defs>
        <style>.cls-1{fill:#abb0c4;}</style>
    </defs>
    <path class="cls-1" fill-rule="evenodd" clip-rule="evenodd" d="M19.19 3H4.8C3.80589 3 3 3.80589 3 4.8V19.2C3 20.1941 3.80589 21 4.8 21H19.19C20.1818 20.9945 20.9845 20.1918 20.99 19.2V4.8C20.9845 3.80816 20.1818 3.00546 19.19 3ZM4.8 19.2V4.8H19.19V19.2H4.8Z" />
    <path class="cls-1" fill-rule="evenodd" clip-rule="evenodd" d="M12.0001 8.33997C9.97873 8.33997 8.34009 9.9786 8.34009 12C8.34009 14.0213 9.97873 15.66 12.0001 15.66C14.0215 15.66 15.6601 14.0213 15.6601 12C15.6332 9.98986 14.0102 8.36688 12.0001 8.33997Z" />
</svg>