<svg width="24" height="24" viewBox="0 0 24 24" fill="none" xmlns="http://www.w3.org/2000/svg">
<path d="M19.2 11.1V5.7C19.2 4.7073 18.3927 3.9 17.4 3.9H14.7C14.7 3.4032 14.2977 3 13.8 3H8.4C7.9023 3 7.5 3.4032 7.5 3.9H4.8C3.8073 3.9 3 4.7073 3 5.7V17.4C3 18.3927 3.8073 19.2 4.8 19.2H11.1C11.1 20.1927 11.9073 21 12.9 21H19.2C20.1927 21 21 20.1927 21 19.2V12.9C21 11.9073 20.1927 11.1 19.2 11.1ZM11.1 12.9V17.4H4.8V5.7H7.5V7.5H14.7V5.7H17.4V11.1H12.9C11.9073 11.1 11.1 11.9073 11.1 12.9ZM12.9 19.2V12.9H19.2L19.2009 19.2H12.9Z" fill="#868E96"/>
</svg>
