<svg width="24" height="24" viewBox="0 0 24 24" fill="none" xmlns="http://www.w3.org/2000/svg">
<path fill-rule="evenodd" clip-rule="evenodd" d="M5.04217 3.71265C5.16907 3.28967 5.55839 3 6 3H8C8.55228 3 9 3.44772 9 4C9 4.55228 8.55228 5 8 5H6.74403L4.50396 12.4669C4.59375 12.4225 4.68511 12.381 4.77792 12.3425C5.32389 12.1164 5.90905 12 6.5 12C7.09095 12 7.67611 12.1164 8.22208 12.3425C8.76804 12.5687 9.26412 12.9002 9.68198 13.318C10.0998 13.7359 10.4313 14.232 10.6575 14.7779C10.6878 14.8513 10.7162 14.9253 10.7426 15H13.2574C13.479 14.3731 13.8389 13.7971 14.318 13.318C15.1619 12.4741 16.3065 12 17.5 12C18.199 12 18.8812 12.1626 19.496 12.4669L17.256 5H16C15.4477 5 15 4.55228 15 4C15 3.44772 15.4477 3 16 3H18C18.4416 3 18.8309 3.28967 18.9578 3.71265L21.9578 13.7127C21.9858 13.8059 22 13.9027 22 14V16.5C22 17.6935 21.5259 18.8381 20.682 19.682C19.8381 20.5259 18.6935 21 17.5 21C16.3065 21 15.1619 20.5259 14.318 19.682C13.5928 18.9568 13.1407 18.0095 13.0278 17H10.9721C10.9253 17.4193 10.8195 17.8308 10.6575 18.2221C10.4313 18.768 10.0998 19.2641 9.68198 19.682C9.26412 20.0998 8.76804 20.4313 8.22208 20.6575C7.67611 20.8836 7.09095 21 6.5 21C5.90905 21 5.32389 20.8836 4.77792 20.6575C4.23196 20.4313 3.73588 20.0998 3.31802 19.682C2.90016 19.2641 2.56869 18.768 2.34254 18.2221C2.1164 17.6761 2 17.0909 2 16.5V14C2 13.9027 2.01421 13.8059 2.04217 13.7127L5.04217 3.71265ZM20 16.5C20 15.837 19.7366 15.2011 19.2678 14.7322C18.7989 14.2634 18.163 14 17.5 14C16.837 14 16.2011 14.2634 15.7322 14.7322C15.2634 15.2011 15 15.837 15 16.5C15 17.163 15.2634 17.7989 15.7322 18.2678C16.2011 18.7366 16.837 19 17.5 19C18.163 19 18.7989 18.7366 19.2678 18.2678C19.7366 17.7989 20 17.163 20 16.5ZM6.5 14C6.17169 14 5.8466 14.0647 5.54329 14.1903C5.23998 14.3159 4.96438 14.5001 4.73223 14.7322C4.50009 14.9644 4.31594 15.24 4.1903 15.5433C4.06466 15.8466 4 16.1717 4 16.5C4 16.8283 4.06466 17.1534 4.1903 17.4567C4.31594 17.76 4.50009 18.0356 4.73223 18.2678C4.96438 18.4999 5.23998 18.6841 5.54329 18.8097C5.84661 18.9353 6.1717 19 6.5 19C6.8283 19 7.15339 18.9353 7.45671 18.8097C7.76002 18.6841 8.03562 18.4999 8.26777 18.2678C8.49991 18.0356 8.68406 17.76 8.8097 17.4567C8.93534 17.1534 9 16.8283 9 16.5C9 16.1717 8.93534 15.8466 8.8097 15.5433C8.68406 15.24 8.49991 14.9644 8.26777 14.7322C8.03562 14.5001 7.76002 14.3159 7.45671 14.1903C7.1534 14.0647 6.82831 14 6.5 14Z"/>
</svg>
