<svg width="60" height="74" viewBox="0 0 60 74" fill="none" xmlns="http://www.w3.org/2000/svg">
<line x1="18" y1="11.3428" x2="52" y2="11.3428" stroke="#868E96" stroke-width="2"/>
<line x1="18" y1="60.7139" x2="52" y2="60.7139" stroke="#868E96" stroke-width="2"/>
<line x1="28" y1="23.6855" x2="52" y2="23.6855" stroke="#868E96" stroke-width="2"/>
<line x1="28" y1="36.0283" x2="52" y2="36.0283" stroke="#868E96" stroke-width="2"/>
<line x1="38" y1="48.3711" x2="52" y2="48.3711" stroke="#868E96" stroke-width="2"/>
<rect x="0.5" y="0.5" width="59" height="73" stroke="#ADB5BD" style="fill: none;"/>
<path d="M8.6965 14.1426H7.8235V7.69408H8.6965V14.1426ZM10.022 13.6476C10.022 13.5696 10.0355 13.4961 10.0625 13.4271C10.0925 13.3581 10.1315 13.2981 10.1795 13.2471C10.2305 13.1961 10.2905 13.1556 10.3595 13.1256C10.4285 13.0956 10.502 13.0806 10.58 13.0806C10.658 13.0806 10.7315 13.0956 10.8005 13.1256C10.8695 13.1556 10.9295 13.1961 10.9805 13.2471C11.0315 13.2981 11.072 13.3581 11.102 13.4271C11.132 13.4961 11.147 13.5696 11.147 13.6476C11.147 13.7286 11.132 13.8036 11.102 13.8726C11.072 13.9386 11.0315 13.9971 10.9805 14.0481C10.9295 14.0991 10.8695 14.1381 10.8005 14.1651C10.7315 14.1951 10.658 14.2101 10.58 14.2101C10.502 14.2101 10.4285 14.1951 10.3595 14.1651C10.2905 14.1381 10.2305 14.0991 10.1795 14.0481C10.1315 13.9971 10.0925 13.9386 10.0625 13.8726C10.0355 13.8036 10.022 13.7286 10.022 13.6476Z" fill="#485056"/>
<path d="M21.248 23.063L20.2355 20.4395C20.2055 20.3615 20.174 20.2715 20.141 20.1695C20.108 20.0645 20.0765 19.9535 20.0465 19.8365C19.9835 20.0795 19.919 20.282 19.853 20.444L18.8405 23.063H21.248ZM23.066 25.457H22.391C22.313 25.457 22.25 25.4375 22.202 25.3985C22.154 25.3595 22.118 25.31 22.094 25.25L21.491 23.693H18.5975L17.9945 25.25C17.9765 25.304 17.942 25.352 17.891 25.394C17.84 25.436 17.777 25.457 17.702 25.457H17.027L19.6055 19.0085H20.4875L23.066 25.457ZM23.5903 24.962C23.5903 24.884 23.6038 24.8105 23.6308 24.7415C23.6608 24.6725 23.6998 24.6125 23.7478 24.5615C23.7988 24.5105 23.8588 24.47 23.9278 24.44C23.9968 24.41 24.0703 24.395 24.1483 24.395C24.2263 24.395 24.2998 24.41 24.3688 24.44C24.4378 24.47 24.4978 24.5105 24.5488 24.5615C24.5998 24.6125 24.6403 24.6725 24.6703 24.7415C24.7003 24.8105 24.7153 24.884 24.7153 24.962C24.7153 25.043 24.7003 25.118 24.6703 25.187C24.6403 25.253 24.5998 25.3115 24.5488 25.3625C24.4978 25.4135 24.4378 25.4525 24.3688 25.4795C24.2998 25.5095 24.2263 25.5245 24.1483 25.5245C24.0703 25.5245 23.9968 25.5095 23.9278 25.4795C23.8588 25.4525 23.7988 25.4135 23.7478 25.3625C23.6998 25.3115 23.6608 25.253 23.6308 25.187C23.6038 25.118 23.5903 25.043 23.5903 24.962Z" fill="#485056"/>
<path d="M20.087 38.1351C20.336 38.1351 20.5505 38.1066 20.7305 38.0496C20.9105 37.9926 21.0575 37.9131 21.1715 37.8111C21.2885 37.7061 21.374 37.5831 21.428 37.4421C21.482 37.2981 21.509 37.1406 21.509 36.9696C21.509 36.6366 21.3905 36.3741 21.1535 36.1821C20.9165 35.9871 20.561 35.8896 20.087 35.8896H18.692V38.1351H20.087ZM18.692 33.0681V35.2686H19.844C20.09 35.2686 20.303 35.2416 20.483 35.1876C20.666 35.1336 20.816 35.0586 20.933 34.9626C21.053 34.8666 21.1415 34.7511 21.1985 34.6161C21.2555 34.4781 21.284 34.3281 21.284 34.1661C21.284 33.7851 21.17 33.5076 20.942 33.3336C20.714 33.1566 20.36 33.0681 19.88 33.0681H18.692ZM19.88 32.3796C20.276 32.3796 20.6165 32.4186 20.9015 32.4966C21.1895 32.5746 21.425 32.6856 21.608 32.8296C21.794 32.9736 21.9305 33.1506 22.0175 33.3606C22.1045 33.5676 22.148 33.8016 22.148 34.0626C22.148 34.2216 22.1225 34.3746 22.0715 34.5216C22.0235 34.6656 21.95 34.8006 21.851 34.9266C21.752 35.0526 21.626 35.1666 21.473 35.2686C21.323 35.3676 21.146 35.4486 20.942 35.5116C21.416 35.6016 21.7715 35.7711 22.0085 36.0201C22.2485 36.2661 22.3685 36.5901 22.3685 36.9921C22.3685 37.2651 22.3175 37.5141 22.2155 37.7391C22.1165 37.9641 21.9695 38.1576 21.7745 38.3196C21.5825 38.4816 21.3455 38.6076 21.0635 38.6976C20.7815 38.7846 20.4605 38.8281 20.1005 38.8281H17.8235V32.3796H19.88ZM23.3179 38.3331C23.3179 38.2551 23.3314 38.1816 23.3584 38.1126C23.3884 38.0436 23.4274 37.9836 23.4754 37.9326C23.5264 37.8816 23.5864 37.8411 23.6554 37.8111C23.7244 37.7811 23.7979 37.7661 23.8759 37.7661C23.9539 37.7661 24.0274 37.7811 24.0964 37.8111C24.1654 37.8411 24.2254 37.8816 24.2764 37.9326C24.3274 37.9836 24.3679 38.0436 24.3979 38.1126C24.4279 38.1816 24.4429 38.2551 24.4429 38.3331C24.4429 38.4141 24.4279 38.4891 24.3979 38.5581C24.3679 38.6241 24.3274 38.6826 24.2764 38.7336C24.2254 38.7846 24.1654 38.8236 24.0964 38.8506C24.0274 38.8806 23.9539 38.8956 23.8759 38.8956C23.7979 38.8956 23.7244 38.8806 23.6554 38.8506C23.5864 38.8236 23.5264 38.7846 23.4754 38.7336C23.4274 38.6826 23.3884 38.6241 23.3584 38.5581C23.3314 38.4891 23.3179 38.4141 23.3179 38.3331Z" fill="#485056"/>
<path d="M32.581 50.5599V51.1719H29.125V50.5599H30.5065V46.1634C30.5065 46.0314 30.511 45.8979 30.52 45.7629L29.3725 46.7484C29.3335 46.7814 29.2945 46.8024 29.2555 46.8114C29.2165 46.8174 29.1805 46.8174 29.1475 46.8114C29.1145 46.8054 29.083 46.7934 29.053 46.7754C29.026 46.7574 29.005 46.7379 28.99 46.7169L28.738 46.3704L30.6595 44.7099H31.312V50.5599H32.581ZM33.7202 50.6769C33.7202 50.5989 33.7337 50.5254 33.7607 50.4564C33.7907 50.3874 33.8297 50.3274 33.8777 50.2764C33.9287 50.2254 33.9887 50.1849 34.0577 50.1549C34.1267 50.1249 34.2002 50.1099 34.2782 50.1099C34.3562 50.1099 34.4297 50.1249 34.4987 50.1549C34.5677 50.1849 34.6277 50.2254 34.6787 50.2764C34.7297 50.3274 34.7702 50.3874 34.8002 50.4564C34.8302 50.5254 34.8452 50.5989 34.8452 50.6769C34.8452 50.7579 34.8302 50.8329 34.8002 50.9019C34.7702 50.9679 34.7297 51.0264 34.6787 51.0774C34.6277 51.1284 34.5677 51.1674 34.4987 51.1944C34.4297 51.2244 34.3562 51.2394 34.2782 51.2394C34.2002 51.2394 34.1267 51.2244 34.0577 51.1944C33.9887 51.1674 33.9287 51.1284 33.8777 51.0774C33.8297 51.0264 33.7907 50.9679 33.7607 50.9019C33.7337 50.8329 33.7202 50.7579 33.7202 50.6769Z" fill="#485056"/>
<path d="M8.6965 63.5146H7.8235V57.0661H8.6965V63.5146ZM11.219 63.5146H10.346V57.0661H11.219V63.5146ZM12.5444 63.0196C12.5444 62.9416 12.5579 62.8681 12.5849 62.7991C12.6149 62.7301 12.6539 62.6701 12.7019 62.6191C12.7529 62.5681 12.8129 62.5276 12.8819 62.4976C12.9509 62.4676 13.0244 62.4526 13.1024 62.4526C13.1804 62.4526 13.2539 62.4676 13.3229 62.4976C13.3919 62.5276 13.4519 62.5681 13.5029 62.6191C13.5539 62.6701 13.5944 62.7301 13.6244 62.7991C13.6544 62.8681 13.6694 62.9416 13.6694 63.0196C13.6694 63.1006 13.6544 63.1756 13.6244 63.2446C13.5944 63.3106 13.5539 63.3691 13.5029 63.4201C13.4519 63.4711 13.3919 63.5101 13.3229 63.5371C13.2539 63.5671 13.1804 63.5821 13.1024 63.5821C13.0244 63.5821 12.9509 63.5671 12.8819 63.5371C12.8129 63.5101 12.7529 63.4711 12.7019 63.4201C12.6539 63.3691 12.6149 63.3106 12.5849 63.2446C12.5579 63.1756 12.5444 63.1006 12.5444 63.0196Z" fill="#485056"/>
</svg>
