<svg width="19" height="16" viewBox="0 0 19 16" xmlns="http://www.w3.org/2000/svg" style="
height: 15.67px;
width: 19px;
">
    <path d="M1.9566 0.196289V3.80403H1.18854V1.18612L0.588146 1.79733L0.150024 1.33757L1.2859 0.196289H1.9566Z" />
    <path d="M19 1.50012H5V3.50012H19V1.50012Z" />
    <path d="M19 7.00012H5V9.00012H19V7.00012Z" />
    <path d="M5 12.5001H19V14.5001H5V12.5001Z" />
    <path d="M2.79641 9.83102V9.15491H1.32518C2.26093 8.47339 2.76936 7.9379 2.76936 7.32129C2.76936 6.6019 2.15816 6.16919 1.39009 6.16919C0.887062 6.16919 0.351579 6.35309 0 6.75876L0.438122 7.2672C0.681523 7.01298 0.99524 6.85071 1.40632 6.85071C1.70381 6.85071 1.99048 7.00757 1.99048 7.32129C1.99048 7.76482 1.55777 8.13803 0.0811337 9.23063V9.83102H2.79641Z" />
    <path d="M2.84509 14.8033C2.84509 15.4253 2.28797 15.8635 1.42254 15.8635C0.757248 15.8635 0.265037 15.6092 0 15.2847L0.40026 14.7709C0.64907 15.0305 1.04392 15.1819 1.3955 15.1819C1.83362 15.1819 2.07702 14.9926 2.07702 14.7222C2.07702 14.4355 1.85526 14.3057 1.35223 14.3057C1.20078 14.3057 0.957378 14.3111 0.903288 14.3165V13.6242C0.968195 13.6296 1.21701 13.6296 1.35223 13.6296C1.75249 13.6296 2.01752 13.5106 2.01752 13.2455C2.01752 12.9589 1.72544 12.8182 1.34682 12.8182C1.00065 12.8182 0.686932 12.9481 0.432713 13.1915L0.0486802 12.7101C0.340762 12.3801 0.79511 12.1367 1.42795 12.1367C2.27174 12.1367 2.791 12.5153 2.791 13.1157C2.791 13.5701 2.40156 13.8676 2.0013 13.9379C2.3691 13.9757 2.84509 14.2624 2.84509 14.8033Z" />
</svg>