<svg width="24" height="24" viewBox="0 0 24 24" xmlns="http://www.w3.org/2000/svg">
<path fill-rule="evenodd" clip-rule="evenodd" d="M8.5 8C8.22386 8 8 8.22386 8 8.5V15.5C8 15.7761 8.22386 16 8.5 16H15.5C15.7761 16 16 15.7761 16 15.5V8.5C16 8.22386 15.7761 8 15.5 8H8.5ZM13.2374 14.2981L12.0001 13.0607L10.7626 14.2982L9.7019 13.2375L10.9394 12.0001L9.7019 10.7626L10.7626 9.7019L12.0001 10.9394L13.2374 9.70201L14.2981 10.7627L13.0607 12.0001L14.2981 13.2374L13.2374 14.2981Z" fill="none"/>
<path d="M21.4778 18.2034C21.6137 18.0674 21.5427 17.8348 21.354 17.798L17.2862 17.0046C17.119 16.972 16.972 17.119 17.0046 17.2862L17.798 21.354C17.8348 21.5427 18.0674 21.6138 18.2034 21.4778L19.0255 20.6557C19.1192 20.562 19.2712 20.562 19.365 20.6557L20.6389 21.9297C20.7327 22.0234 20.8847 22.0234 20.9784 21.9297L21.9297 20.9784C22.0234 20.8847 22.0234 20.7327 21.9297 20.6389L20.6557 19.365C20.562 19.2712 20.562 19.1192 20.6557 19.0254L21.4778 18.2034Z" fill="black"/>
<path d="M7 3H9V5H7V3Z" fill="black"/>
<path d="M3 7H5V9H3V7Z" fill="black"/>
<path d="M3 5C3 3.89543 3.89543 3 5 3V5H3Z" fill="black"/>
<path d="M3 11H5V13H3V11Z" fill="black"/>
<path d="M3 15H5V17H3V15Z" fill="black"/>
<path d="M3 19H5V21C3.89543 21 3 20.1046 3 19Z" fill="black"/>
<path d="M7 19H9V21H7V19Z" fill="black"/>
<path d="M11 19H13V21H11V19Z" fill="black"/>
<path d="M11 3H13V5H11V3Z" fill="black"/>
<path d="M15 3H17V5H15V3Z" fill="black"/>
<path d="M19 3C20.1046 3 21 3.89543 21 5H19V3Z" fill="black"/>
<path d="M19 7H21V9H19V7Z" fill="black"/>
<path d="M19 11H21V13H19V11Z" fill="black"/>
</svg>
