<?xml version="1.0" encoding="utf-8"?>
<!-- Generator: Adobe Illustrator 24.1.3, SVG Export Plug-In . SVG Version: 6.00 Build 0)  -->
<svg version="1.1" id="icon" xmlns="http://www.w3.org/2000/svg" xmlns:xlink="http://www.w3.org/1999/xlink" x="0px" y="0px"
	 viewBox="0 0 24 24" style="enable-background:new 0 0 24 24;" xml:space="preserve">
<style type="text/css">
	.st0{fill:#868E96;}
	.st1{fill:#FFFFFF;}
</style>
<path class="st0" d="M20.7,9.3l-8.1-5.8c-0.4-0.3-0.9-0.3-1.3,0L3.3,9.3c-0.4,0.3-0.6,0.8-0.4,1.2L6,20c0.1,0.4,0.5,0.7,1,0.8h10
	c0.5,0,0.9-0.3,1-0.8l3.1-9.5C21.2,10.1,21.1,9.6,20.7,9.3z M16.1,18.5H7.9l-2.6-7.8L12,5.8l6.7,4.9L16.1,18.5z"/>
<polygon fill="fill" class="st1" points="16.1,18.5 7.9,18.5 5.3,10.7 12,5.8 18.7,10.7 "/>
</svg>
