<svg id="icons" xmlns="http://www.w3.org/2000/svg" viewBox="0 0 24 24"><defs><style>.cls-1{fill:#8c8c8c;}</style></defs><title>icon - line - tool - stamp</title><path class="cls-1" d="M4,20.5H20V22H4Zm15.27-5H4.74a.76.76,0,0,0-.75.75V19H20V16.26A.76.76,0,0,0,19.26,15.51ZM8.32,10.81A5.06,5.06,0,0,1,6.74,7.25a5.26,5.26,0,0,1,10.51,0,5,5,0,0,1-1.57,3.54,12.73,12.73,0,0,0-.81,1,6.08,6.08,0,0,0-.45,1.44H15v1.5H9v-1.5h.58a7,7,0,0,0-.44-1.44A12.78,12.78,0,0,0,8.32,10.81Zm.24-3.56A3.25,3.25,0,0,0,9.7,9.62c.26.32.6.7.91,1.15A6.52,6.52,0,0,1,11.37,13h1.26a6.91,6.91,0,0,1,.75-2.18c.31-.43.63-.81.9-1.13a3.35,3.35,0,0,0,1.16-2.39,3.44,3.44,0,1,0-6.88,0Z"/></svg>