<svg width="24" height="24" viewBox="0 0 24 24" fill="none" xmlns="http://www.w3.org/2000/svg">
<path fill-rule="evenodd" clip-rule="evenodd" d="M17.0417 6.95828H16.2014V5.27772C16.2014 4.35342 15.4451 3.59717 14.5208 3.59717H9.47917C8.55486 3.59717 7.79861 4.35342 7.79861 5.27772V6.95828H6.95833H4.4375V8.63883H6.11806V18.7222C6.11806 19.6465 6.87431 20.4027 7.79861 20.4027H16.2014C17.1257 20.4027 17.8819 19.6465 17.8819 18.7222V8.63883H19.5625V6.95828H17.0417ZM9.47917 5.27772H14.5208V6.95828H9.47917V5.27772ZM7.79861 18.7222V8.63883H8.63889H15.3611H16.2014V18.7222H7.79861ZM12.8403 10.3194H14.5208V17.0416H12.8403V10.3194ZM9.47917 10.3194H11.1597V17.0416H9.47917V10.3194Z" fill="#868E96"/>
<mask id="mask0" mask-type="alpha" maskUnits="userSpaceOnUse" x="4" y="3" width="16" height="18">
<path fill-rule="evenodd" clip-rule="evenodd" d="M17.0417 6.95828H16.2014V5.27772C16.2014 4.35342 15.4451 3.59717 14.5208 3.59717H9.47917C8.55486 3.59717 7.79861 4.35342 7.79861 5.27772V6.95828H6.95833H4.4375V8.63883H6.11806V18.7222C6.11806 19.6465 6.87431 20.4027 7.79861 20.4027H16.2014C17.1257 20.4027 17.8819 19.6465 17.8819 18.7222V8.63883H19.5625V6.95828H17.0417ZM9.47917 5.27772H14.5208V6.95828H9.47917V5.27772ZM7.79861 18.7222V8.63883H8.63889H15.3611H16.2014V18.7222H7.79861ZM12.8403 10.3194H14.5208V17.0416H12.8403V10.3194ZM9.47917 10.3194H11.1597V17.0416H9.47917V10.3194Z" fill="white"/>
</mask>
<g mask="url(#mask0)">
</g>
</svg>
