<svg xmlns="http://www.w3.org/2000/svg" viewBox="0 0 24 24"><defs><style>.cls-1{fill:#868e96;}</style></defs><path class="cls-1" d="M16.09,16.8,15,15.71l1.09-1.09a.28.28,0,0,0,0-.38l-.58-.58a.26.26,0,0,0-.38,0L14,14.75,13,13.66a.26.26,0,0,0-.38,0l-.58.58a.28.28,0,0,0,0,.38l1.09,1.09L12,16.8a.28.28,0,0,0,0,.38l.58.57a.26.26,0,0,0,.38,0L14,16.66l1.09,1.09a.26.26,0,0,0,.38,0l.58-.57A.28.28,0,0,0,16.09,16.8Z"/><path class="cls-1" d="M17.83,2.83H6.17A1.67,1.67,0,0,0,4.5,4.5v15a1.67,1.67,0,0,0,1.67,1.67H17.83A1.67,1.67,0,0,0,19.5,19.5V4.5A1.67,1.67,0,0,0,17.83,2.83ZM6.17,19.5V4.5H17.83v15Z"/><rect class="cls-1" x="7.84" y="10.66" width="8.33" height="1.8"/><rect class="cls-1" x="7.84" y="6.61" width="8.33" height="1.8"/><rect class="cls-1" x="7.83" y="14.83" width="2.96" height="1.8"/></svg>