<svg xmlns="http://www.w3.org/2000/svg" viewBox="0 0 24 24"><defs><style>.cls-1{fill:#8c8c8c;}</style></defs><title>icon - line - free highlight</title><path class="cls-1" d="M19,17.58a18,18,0,0,1,.76,3.32A6.15,6.15,0,0,0,16.28,19a7.48,7.48,0,0,0-3.54.35,40.25,40.25,0,0,0-4.07,1.71A6.88,6.88,0,0,1,4.58,22a1.78,1.78,0,0,1-1.06-.74,2,2,0,0,1-.22-.47,2.46,2.46,0,0,1-.09-.29,2.61,2.61,0,0,1-.09-.57,2.67,2.67,0,0,1,.2-1A2.41,2.41,0,0,1,3.88,18s.38,1.94.38,1.94a.26.26,0,0,0-.22.24c0,.28,1.19.13,2.15-.23a13.82,13.82,0,0,0,2-1,20.62,20.62,0,0,1,4.43-2.15,8.38,8.38,0,0,1,3.88-.36,4.86,4.86,0,0,1,1.72.65Zm1.62-10-7.79,7.72a.58.58,0,0,1-.5.3l-3.84.86L7.17,17.78H4.11l2-2.47,1.08-4.79A.89.89,0,0,1,7.46,10l7.8-7.73a.08.08,0,0,1,0,0,.94.94,0,0,1,1.33,0l3.95,3.94.05,0A1,1,0,0,1,20.58,7.62Zm-2-.78L16,4.27l-6.7,6.6,2.57,2.58Z"/></svg>