<?xml version="1.0" encoding="UTF-8"?>
<svg width="20px" height="20px" viewBox="0 0 20 20" version="1.1" xmlns="http://www.w3.org/2000/svg" xmlns:xlink="http://www.w3.org/1999/xlink">
    <title>icon-header-pan20</title>
    <g stroke="none" stroke-width="1" fill="none" fill-rule="evenodd">
        <g transform="translate(-369.000000, -78.000000)">
            <g transform="translate(-22.000000, 0.000000)">
                <g transform="translate(391.000000, 78.000000)">
                    <rect fill="none" x="0" y="0" width="20" height="20"></rect>
                    <path d="M4.84116789,10.6404137 C4.46186271,10.6404137 3.96297997,10.9126703 3.804829,11.1798615 C3.56953121,11.5774827 3.81897258,11.930783 3.98998135,12.1055337 L4.90417112,13.043869 C5.82350401,13.9872696 6.74283689,14.9294038 7.66345556,15.8690054 C9.43397498,17.6696974 11.5349399,18.024264 13.7413389,16.8921834 C15.5478601,15.9639786 16.5301962,14.4798639 16.66006,12.4816276 C16.7089197,11.7281735 16.7024908,10.9506595 16.6947761,10.1984717 L16.689633,9.37283798 C16.689633,9.37283798 16.6909188,7.17705742 16.6857756,6.07663452 C16.6844899,5.86516085 16.6214866,5.70560586 16.4993375,5.60176848 C16.3797599,5.49919742 16.1971792,5.44474611 15.9721676,5.44474611 L15.9631671,5.44474611 C15.5607179,5.44601242 15.1454109,5.73346466 15.1454109,6.20959701 L15.1441251,9.50833309 C15.1441251,9.63876296 15.1454109,9.78945378 15.0618352,9.92494889 C14.8496814,10.2630535 14.5938112,10.4302064 14.2955101,10.4302064 C13.8622022,10.4302064 13.5960457,10.0515798 13.5021837,9.88949223 C13.4288942,9.77045914 13.43018,9.63496403 13.4314658,9.54505606 L13.4314658,8.23949103 C13.4327516,6.96431743 13.4327516,5.68661122 13.4288942,4.41017131 C13.4327516,4.10372442 13.1254501,3.7656198 12.6239958,3.74789147 C12.3899838,3.75675564 12.2151177,3.84666361 12.1199699,3.9391042 C11.9605332,4.09359395 11.8923868,4.29493715 11.8949584,4.42663333 C11.9232456,5.8993512 11.9219598,7.41765621 11.9193882,8.90050456 L11.9193882,9.48427321 C11.9193882,9.61090415 11.9103878,9.74260033 11.8460987,9.86923128 C11.7830955,9.9933296 11.5426546,10.3985486 11.0939173,10.3985486 C10.6541804,10.3985486 10.3725946,10.0249873 10.3083056,9.89329116 C10.2337303,9.7375351 10.2337303,9.5767138 10.2337303,9.44881654 L10.2337303,7.43031931 C10.2337303,6.08423238 10.2337303,4.74067807 10.229873,3.39585745 C10.2388734,3.22743829 10.1758702,3.06914962 10.0562926,2.94378498 C9.89557009,2.77663214 9.65770074,2.68419155 9.38768689,2.68419155 C8.82708669,2.68419155 8.52621411,3.11726937 8.52492833,3.4300478 C8.52364255,4.64950379 8.52492833,5.78791597 8.52621411,6.94025756 L8.52878567,9.50200154 L8.52492833,10.8506211 C8.72551005,11.0063771 9.30539695,11.4470528 9.70913195,11.754766 C10.0640073,12.0257562 10.381595,12.2650887 10.487029,12.3511978 C10.6593236,12.4904918 10.6914681,12.8159333 10.6708956,12.9995482 C10.6400369,13.2756037 10.4960295,13.4896099 10.2671606,13.6048441 C10.0112903,13.7327414 9.60755531,13.7276761 9.41725983,13.5947136 C9.09452899,13.362979 8.38092094,12.8627868 7.84475058,12.4866929 C7.4783032,12.2296321 7.19414576,12.0308215 7.1658586,12.0080279 C6.73897955,11.7142441 5.72449892,11.0127087 5.56377639,10.9000072 C5.36319467,10.7936372 5.18832856,10.7163923 5.02117712,10.6657399 C4.96588857,10.6480116 4.9054569,10.6404137 4.84116789,10.6404137 M11.253354,19.2323232 C9.51112179,19.2323232 7.84475058,18.4750702 6.43424963,17.0403416 C5.66792459,16.2577624 4.90288534,15.4726505 4.13784608,14.688805 L2.75691808,13.2705384 C1.9353045,12.429709 1.76686728,11.2748347 2.32875326,10.3301679 C2.87392409,9.41335988 4.28442503,8.68396565 5.52134564,9.05499431 C5.80678886,9.14110335 6.09223208,9.26520168 6.42139183,9.44501762 L6.81869793,9.71220891 L6.81612637,3.42751519 C6.81741215,2.25997789 7.80103405,1 9.38768689,1 C10.1334394,1 10.8136172,1.27858808 11.2996421,1.78764447 C11.4359348,1.92820482 11.5542266,2.0877598 11.6493744,2.25617896 C11.9631048,2.12321647 12.3051223,2.05230314 12.6805701,2.06496623 C13.851916,2.10802075 14.8355379,2.89946415 15.0798361,3.9125117 C15.3575646,3.81373956 15.6532941,3.76308719 15.9554525,3.76182088 C16.6729178,3.76182088 17.2798061,3.99228919 17.7259719,4.42663333 C18.1605656,4.8521133 18.3920061,5.41941993 18.3945776,6.06903666 C18.4010065,7.17199218 18.398435,9.37410429 18.398435,9.37410429 L18.4035781,10.1883413 C18.4112928,10.9671216 18.4190074,11.7724944 18.3662905,12.5879976 C18.2004248,15.1776004 16.8734996,17.1821683 14.5320937,18.3851622 C13.4353231,18.9486699 12.3321237,19.2323232 11.253354,19.2323232"></path>
                </g>
            </g>
        </g>
    </g>
</svg>