<svg width="19" height="16" viewBox="0 0 19 16" fill="none" xmlns="http://www.w3.org/2000/svg">
  <path fill-rule="evenodd" clip-rule="evenodd" d="M6.33994 5.99974H13.1141C14.7752 5.97845 16.2226 7.12721 16.5791 8.74975C16.7913 9.76407 16.5359 10.82 15.8836 11.6252C15.2312 12.4304 14.2512 12.8994 13.2149 12.9022H10.3274C10.18 12.9022 10.0387 12.9614 9.93525 13.0666C9.83184 13.1717 9.77498 13.314 9.77744 13.4614V14.6531C9.77744 14.9568 10.0237 15.2031 10.3274 15.2031H13.0133C15.9674 15.2633 18.5068 13.1203 18.9441 10.1981C19.1605 8.56033 18.6606 6.90877 17.5722 5.66596C16.4839 4.42316 14.9128 3.70968 13.2608 3.70808H6.33994V1.04058C6.34272 0.898321 6.26294 0.7673 6.13529 0.704455C6.00764 0.641611 5.85515 0.65829 5.7441 0.747245L0.968271 4.56975C0.882564 4.64115 0.833008 4.74694 0.833008 4.85849C0.833008 4.97005 0.882564 5.07584 0.968271 5.14724L5.7441 8.96974C5.86027 9.06472 6.02258 9.07933 6.15383 9.00663C6.28509 8.93393 6.35881 8.7886 6.33994 8.63974V5.99974Z" fill="#868E96"/>
</svg>
