<svg width="24" height="24" viewBox="0 0 24 24" fill="none" xmlns="http://www.w3.org/2000/svg">
    <path fill-rule="evenodd" clip-rule="evenodd" d="M22 16.25L19 20L16 16.25H18.25V11H19.75V16.25H22Z" fill="#868E96"/>
    <path fill-rule="evenodd" clip-rule="evenodd" d="M12 11H9C8.44772 11 8 10.5523 8 10V7H4V18H12V11ZM2 6.5C2 5.67157 2.67157 5 3.5 5H8.37868C8.7765 5 9.15804 5.15804 9.43934 5.43934L13.5607 9.56066C13.842 9.84197 14 10.2235 14 10.6213V18.5C14 19.3284 13.3284 20 12.5 20H3.5C2.67157 20 2 19.3284 2 18.5V6.5Z" fill="#868E96"/>
</svg>
