<svg xmlns="http://www.w3.org/2000/svg" viewBox="0 0 24 24"><defs><style>.cls-1{fill:#abb0c4;}</style></defs><title>icon - tool - pen - fill</title><path class="cls-1" d="M21.45,5.77a2.09,2.09,0,0,1-.62,1.51l-9.16,9.16c-.09.08-.26.26-.44.26,0,0-4.18.9-4.42.89a1,1,0,0,1-.72-.13.67.67,0,0,1-.16-.73l.8-4.53c0-.18.08-.27.26-.45L13,5.8l3.2-3.2a2.2,2.2,0,0,1,3,0l1.66,1.66A2.34,2.34,0,0,1,21.45,5.77ZM10.28,15.18l-2-1.95a.12.12,0,0,0-.2.06l-.48,2.23A.32.32,0,0,0,8,15.9l2.26-.52A.12.12,0,0,0,10.28,15.18Z"/><path class="cls-1" d="M18.91,19.66a1.13,1.13,0,0,1-1.35,1.82,5.82,5.82,0,0,0-2.09-1c-3.22-.85-4.57-.29-6.82.63l-.55.23A7.42,7.42,0,0,1,5.42,22a3,3,0,0,1-2-.69,2.38,2.38,0,0,1-.87-1.66,1.81,1.81,0,0,1,.59-1.36,9.16,9.16,0,0,1,.93-.78,1.13,1.13,0,0,1,1.58.23,1.14,1.14,0,0,1-.23,1.59,2.93,2.93,0,0,0-.42.33c.27.13.84.17,2.25-.4L7.8,19a10.81,10.81,0,0,1,8.25-.72A7.89,7.89,0,0,1,18.91,19.66Z"/></svg>