<svg width="24" height="24" viewBox="0 0 24 24" fill="none" xmlns="http://www.w3.org/2000/svg">
<g id="ic-outlines">
<path id="shape" fill-rule="evenodd" clip-rule="evenodd" d="M5.23504 11.93C5.23504 12.5932 4.69741 13.1308 4.03421 13.1308C3.37101 13.1308 2.83337 12.5932 2.83337 11.93C2.83337 11.2668 3.37101 10.7292 4.03421 10.7292C4.69741 10.7292 5.23504 11.2668 5.23504 11.93ZM4.03421 5C3.37101 5 2.83337 5.53763 2.83337 6.20083C2.83337 6.86404 3.37101 7.40167 4.03421 7.40167C4.69741 7.40167 5.23504 6.86404 5.23504 6.20083C5.23504 5.53763 4.69741 5 4.03421 5ZM4.03421 16.4583C3.37101 16.4583 2.83337 16.996 2.83337 17.6592C2.83337 18.3224 3.37101 18.86 4.03421 18.86C4.69741 18.86 5.23504 18.3224 5.23504 17.6592C5.23504 16.996 4.69741 16.4583 4.03421 16.4583ZM7.47171 13.0758H21.2217V10.7842H7.47171V13.0758ZM7.47171 5.055V7.34667H21.2217V5.055H7.47171ZM7.47171 18.805H21.2217V16.5133H7.47171V18.805Z" fill="black"/>
</g>
</svg>