<?xml version="1.0" encoding="UTF-8"?>
<svg width="24px" height="24px" viewBox="0 0 24 24" version="1.1" xmlns="http://www.w3.org/2000/svg" xmlns:xlink="http://www.w3.org/1999/xlink">
    <title>icon / tool / form / signature field</title>
    <g id="Form-Builder" stroke="none" stroke-width="1" fill="none" fill-rule="evenodd">
        <g id="Default-" transform="translate(-495.000000, -46.000000)" fill="#868E96">
            <g id="Group-5" transform="translate(450.000000, 38.000000)">
                <g id="Group-4" transform="translate(0.000000, 7.000000)">
                    <g id="icon-/-tool-/-form-/-signature-field" transform="translate(45.000000, 1.000000)">
                        <rect id="line-field" x="4.16" y="19.33" width="3.95" height="1.84"></rect>
                        <rect id="line-field" x="15.47" y="19.33" width="3.97" height="1.84"></rect>
                        <rect id="line-field" x="10.37" y="19.33" width="2.85" height="1.84"></rect>
                        <path d="M19.3,12.6 C18.8011172,12.4852642 18.2961435,12.7658051 18.13,13.25 C17.94,13.95 17.26,16.02 15.94,16.41 C16.01,16.02 16.14,15.53 16.23,15.19 C16.61,13.75 16.89,12.71 16.02,12.19 C15.6305081,11.9024916 15.1425194,11.7820074 14.6639713,11.8551971 C14.1854232,11.9283868 13.7557535,12.1892188 13.47,12.58 C13.2677271,12.8426752 13.096585,13.1279121 12.96,13.43 C12.5316039,14.4369418 11.8577559,15.3205077 11,16 C10.6861675,16.1561782 10.3479766,16.2576354 10,16.3 C9.63781935,16.2361941 9.29545661,16.0889781 9,15.87 C8.9247858,15.7926735 8.86082555,15.705149 8.81,15.61 C13.7,11 14,6.89 13.91,5.68 C13.972568,4.66130281 13.5588159,3.67125316 12.79,3 C12.5592553,2.84166356 12.2727216,2.78725842 12,2.85 C9.38,3.4 7.76,6.55 6.9,12.78 C6.9,12.84 6.9,12.92 6.9,13.01 C6.74597659,13.6647619 6.69203125,14.3390787 6.74,15.01 C6.5,15.23 6.24,15.45 5.98,15.66 C5.63702664,16.0240749 5.23032934,16.3223196 4.78,16.54 C4.7855838,16.3090848 4.86242608,16.0855436 5,15.9 C5.14271894,15.6990247 5.19676153,15.4483085 5.14951078,15.2063846 C5.10226003,14.9644608 4.95785172,14.7525045 4.75,14.62 C4.31340093,14.3574805 3.74923757,14.4651452 3.44,14.87 C2.70616674,15.8294173 2.7738487,17.1788265 3.6,18.06 C3.89826724,18.3062994 4.27318448,18.4407037 4.66,18.4400027 C5.67361336,18.3025207 6.59829516,17.7884119 7.25,17 L7.43,16.85 L7.65,17.11 C8.24513418,17.6589582 8.99672851,18.008537 9.8,18.11 C10.620381,18.105293 11.4234173,17.8733816 12.12,17.44 C13.0831903,16.7387801 13.8592846,15.8115878 14.38,14.74 C14,16.19 13.8,17.11 14.25,17.74 C14.4499118,18.0242398 14.7640794,18.2068954 15.11,18.24 C17.29,18.48 19.11,16.77 19.96,13.68 C20.0619294,13.2018163 19.7720279,12.727432 19.3,12.6 Z M11.88,4.87 C11.9748135,5.23881339 12.0152403,5.61949948 12,6 C12,6.89 11.71,9.58 8.81,12.94 C9.29,9.69 10.18,5.89 11.88,4.87 Z M21.11,10.63 C21.1553574,11.1765896 20.8605349,11.6949686 20.3675712,11.9353938 C19.8746076,12.175819 19.2846111,12.0889784 18.8818287,11.7167099 C18.4790464,11.3444414 18.3460901,10.7630983 18.5470152,10.2527586 C18.7479402,9.74241896 19.2415363,9.40775489 19.79,9.41 C20.4895514,9.38737528 21.0775571,9.93083513 21.11,10.63 L21.11,10.63 Z" id="signature"></path>
                    </g>
                </g>
            </g>
        </g>
    </g>
</svg>