<svg width="24" height="24" viewBox="0 0 24 24" fill="none" xmlns="http://www.w3.org/2000/svg">
<path fill-rule="evenodd" clip-rule="evenodd" d="M19.3334 2.83325V9.24992C19.3334 10.2583 18.5084 11.0833 17.5 11.0833H6.50002C5.49169 11.0833 4.66669 10.2583 4.66669 9.24992V2.83325H6.50002V9.24992H17.5V2.83325H19.3334ZM19.3334 19.2416C19.3334 19.3333 19.3334 19.3333 19.3334 19.2416V21.1666H17.5V20.2499H12.9167C12.3667 20.2499 12 19.8833 12 19.3333V14.7499H6.50002V21.1666H4.66669V14.7499C4.66669 13.7416 5.49169 12.9166 6.50002 12.9166H12.9167C12.9167 12.9166 12.9167 12.9166 13.0084 12.9166C13.1 12.9166 13.1917 12.9166 13.2834 13.0083H13.375C13.4667 13.0083 13.5584 13.0999 13.65 13.1916L19.15 18.6916C19.2417 18.7833 19.2417 18.8749 19.3334 18.9666V19.0583C19.3334 19.1499 19.3334 19.2416 19.3334 19.2416Z" fill="black"/>
</svg>
