<?xml version="1.0" encoding="UTF-8"?>
<svg width="15px" height="18px" viewBox="0 0 15 18" version="1.1" xmlns="http://www.w3.org/2000/svg" xmlns:xlink="http://www.w3.org/1999/xlink">
    <title>icon-header-pan2c</title>
    <g id="Desktop---v2" stroke="none" stroke-width="1" fill="none" fill-rule="evenodd">
        <g id="D---viewing-mode" transform="translate(-380.000000, -80.000000)" fill="#ABB0C4">
            <g id="header-/-d-/-line" transform="translate(-22.000000, 0.000000)">
                <g id="icon-header-pan2c" transform="translate(402.000000, 80.000000)">
                    <path d="M2.59718948,9.400071 C2.25045622,9.400071 1.79441382,9.66553997 1.64984368,9.92606998 C1.43475152,10.3137781 1.66277272,10.6582704 1.81909653,10.8286645 L2.65478246,11.7436064 C3.49516987,12.6634872 4.33555727,13.5821333 5.17712004,14.49831 C6.7956004,16.2541094 8.71615007,16.5998364 10.7330798,15.4959794 C12.3844705,14.5909154 13.2824509,13.1438008 13.4011629,11.1953821 C13.4458269,10.4607121 13.43995,9.70258215 13.4328978,8.96914695 L13.4281964,8.16409687 C13.4281964,8.16409687 13.4293717,6.02305876 13.4246703,4.95007023 C13.4234949,4.74386875 13.3659019,4.58829158 13.254242,4.48704295 C13.1449329,4.38702906 12.9780308,4.33393527 12.7723416,4.33393527 L12.764114,4.33393527 C12.3962241,4.33517001 12.0165806,4.61545585 12.0165806,5.07971786 L12.0154052,8.29621398 C12.0154052,8.42339214 12.0165806,8.57032613 11.9401817,8.70244324 C11.7462462,9.03211866 11.5123482,9.19510426 11.239663,9.19510426 C10.8435643,9.19510426 10.6002634,8.82591718 10.5144616,8.66787054 C10.4474657,8.55180503 10.448641,8.41968792 10.4498164,8.33202142 L10.4498164,7.05900511 C10.4509918,5.81562254 10.4509918,4.56977049 10.4474657,3.32515318 C10.4509918,3.02634625 10.170079,2.69667083 9.71168592,2.67938448 C9.49776912,2.68802766 9.33791921,2.77569416 9.25094205,2.86583013 C9.10519655,3.01646834 9.04290209,3.2127919 9.04525283,3.3412048 C9.0711109,4.77720671 9.06993554,6.25765924 9.0675848,7.70353907 L9.0675848,8.27275393 C9.0675848,8.39622787 9.05935723,8.52464077 9.00058888,8.64811471 C8.9429959,8.76911917 8.72320227,9.16423577 8.31299919,9.16423577 C7.91102368,9.16423577 7.6536183,8.79998765 7.59484995,8.67157476 C7.52667867,8.51970181 7.52667867,8.36288991 7.52667867,8.23818123 L7.52667867,6.27000664 C7.52667867,4.95747866 7.52667867,3.64742017 7.52315257,2.33612693 C7.53138014,2.17190659 7.47378715,2.01756417 7.36447802,1.89532497 C7.21755715,1.73233937 7.00011425,1.64220339 6.75328718,1.64220339 C6.24082717,1.64220339 5.96579129,2.06448426 5.96461593,2.36946489 C5.96344056,3.55851893 5.96461593,4.66854964 5.96579129,5.79216249 L5.96814203,8.29004028 L5.96461593,9.60503774 C6.14797318,9.75691068 6.6780637,10.1866 7.04712893,10.4866417 C7.37153022,10.7508759 7.66184587,10.9842416 7.75822597,11.0682039 C7.91572514,11.2040253 7.94510932,11.5213533 7.92630345,11.7003905 C7.89809464,11.9695637 7.76645354,12.1782346 7.55723821,12.2905959 C7.32334018,12.4153046 6.95427494,12.4103656 6.78032062,12.280718 C6.48530351,12.0547607 5.83297482,11.5670386 5.34284679,11.200321 C5.00786719,10.9496689 4.74811109,10.7558149 4.72225301,10.7335895 C4.33203117,10.44713 3.40466661,9.76308438 3.25774573,9.65319257 C3.07438848,9.54947446 2.91453857,9.47415536 2.76174086,9.42476579 C2.71120008,9.40747943 2.65595783,9.400071 2.59718948,9.400071 M8.4587447,17.7777778 C6.86612241,17.7777778 5.34284679,17.0394036 4.05346919,15.6404439 C3.35295046,14.8773749 2.6536071,14.1118365 1.95426373,13.3475328 L0.691919577,11.9646247 C-0.0591399344,11.1447578 -0.213113011,10.0186754 0.300522367,9.09755985 C0.798877974,8.20360853 2.08825557,7.49239864 3.21895862,7.85417728 C3.4798901,7.93813956 3.74082157,8.05914402 4.04171552,8.23447701 L4.40490392,8.49500702 L4.40255319,2.36699542 C4.40372856,1.2285657 5.30288431,0 6.75328718,0 C7.43500004,0 8.05676918,0.271642666 8.50105791,0.768007902 C8.62564681,0.905063975 8.73378057,1.06064114 8.82075773,1.22486148 C9.10754728,1.09521384 9.4201949,1.02606844 9.76340206,1.03841583 C10.8341614,1.08039697 11.7333172,1.85210909 11.9566369,2.8399006 C12.2105162,2.74359093 12.4808506,2.69420136 12.7570618,2.69296662 C13.4129166,2.69296662 13.9676898,2.91768919 14.3755422,3.3412048 C14.7728162,3.75607723 14.9843823,4.30924048 14.986733,4.94266179 C14.9926098,6.0181198 14.9902591,8.1653316 14.9902591,8.1653316 L14.9949606,8.95926903 C15.0020128,9.71863376 15.009065,10.503928 14.9608749,11.2991002 C14.8092526,13.8241422 13.5962738,15.7787347 11.4559305,16.9517371 C10.4533425,17.5011962 9.44487761,17.7777778 8.4587447,17.7777778" id="Pan"></path>
                </g>
            </g>
        </g>
    </g>
</svg>