<?xml version="1.0" encoding="UTF-8"?>
<svg width="15px" height="15px" viewBox="0 0 15 15" version="1.1" xmlns="http://www.w3.org/2000/svg" xmlns:xlink="http://www.w3.org/1999/xlink">
    <title>icon-lock</title>
    <g id="Page-1" stroke="none" stroke-width="1" fill="none" fill-rule="evenodd">
        <g id="icon-lock">
            <rect id="15-x-15" fill="#D8D8D8" opacity="0" x="0" y="0" width="15" height="15"></rect>
            <path d="M13.5,7.5 C13.5,6.67275 12.82725,6 12,6 L11.25,6 L11.25,3.75 C11.25,1.68225 9.56775,0 7.5,0 C5.43225,0 3.75,1.68225 3.75,3.75 L3.75,6 L3,6 C2.17275,6 1.5,6.67275 1.5,7.5 L1.5,13.5 C1.5,14.32725 2.17275,15 3,15 L12,15 C12.82725,15 13.5,14.32725 13.5,13.5 L13.5,7.5 Z M5.25,3.75 C5.25,2.5095 6.2595,1.5 7.5,1.5 C8.7405,1.5 9.75,2.5095 9.75,3.75 L9.75,6 L5.25,6 L5.25,3.75 Z" id="Shape" fill="#868E96" fill-rule="nonzero"></path>
        </g>
    </g>
</svg>