<svg id="icons" xmlns="http://www.w3.org/2000/svg" viewBox="0 0 24 24"><defs><style>.cls-1{fill:#8c8c8c;}</style></defs><title>icon - line - tool - signature</title><path class="cls-1" d="M19.88,12.65a1,1,0,0,0-1.27.7c-.22.77-1,3-2.4,3.45.08-.42.23-1,.33-1.33.41-1.57.71-2.71-.24-3.25a2,2,0,0,0-2.78.42,4.8,4.8,0,0,0-.56.93,7,7,0,0,1-2.17,2.81,3,3,0,0,1-1.13.33,2.41,2.41,0,0,1-1-.49,1.12,1.12,0,0,1-.21-.29C13.77,10.85,14.05,6.42,14,5.09a3.59,3.59,0,0,0-1.22-2.91A1,1,0,0,0,12,2c-2.85.59-4.62,4-5.57,10.83a1.41,1.41,0,0,1,0,.25,7.18,7.18,0,0,0-.17,2.19L5.34,16a4.31,4.31,0,0,1-1.3,1,1.17,1.17,0,0,1,.19-.69A1,1,0,0,0,4,14.85a1.06,1.06,0,0,0-1.44.27,2.7,2.7,0,0,0,.17,3.48A1.83,1.83,0,0,0,3.86,19a4.43,4.43,0,0,0,2.87-1.54l.21-.16a2.91,2.91,0,0,0,.24.27,4.28,4.28,0,0,0,2.33,1.14A4.85,4.85,0,0,0,12,18,8,8,0,0,0,14.51,15c-.41,1.57-.63,2.58-.14,3.27a1.31,1.31,0,0,0,.94.54c2.37.27,4.35-1.6,5.29-5A1,1,0,0,0,19.88,12.65Zm-8.1-8.43a4,4,0,0,1,.16,1.19c0,1-.32,3.91-3.48,7.57C9,9.47,9.93,5.32,11.78,4.22ZM3.37,20H20v2H3.37ZM21.86,10.5a1.46,1.46,0,0,1-2.9,0,1.45,1.45,0,0,1,2.9,0Z"/></svg>