<?xml version="1.0" encoding="UTF-8"?>
<svg width="16px" height="18px" viewBox="0 0 16 18" version="1.1" xmlns="http://www.w3.org/2000/svg" xmlns:xlink="http://www.w3.org/1999/xlink">
    <title>icon-header-pan2</title>
    <g id="Desktop---v2" stroke="none" stroke-width="1" fill="none" fill-rule="evenodd">
        <g id="D---viewing-mode" transform="translate(-344.000000, -80.000000)" fill="#ABB0C4">
            <g id="header-/-d-/-line" transform="translate(-22.000000, 0.000000)">
                <g id="icon-header-pan2" transform="translate(366.000000, 80.000000)">
                    <path d="M2.77033545,9.400071 C2.40048663,9.400071 1.91404141,9.66553997 1.75983326,9.92606998 C1.53040162,10.3137781 1.77362423,10.6582704 1.94036963,10.8286645 L2.83176796,11.7436064 C3.72818119,12.6634872 4.62459442,13.5821333 5.52226138,14.49831 C7.24864042,16.2541094 9.29722674,16.5998364 11.4486185,15.4959794 C13.2101018,14.5909154 14.1679476,13.1438008 14.2945738,11.1953821 C14.3422153,10.4607121 14.3359467,9.70258215 14.3284244,8.96914695 L14.3234095,8.16409687 C14.3234095,8.16409687 14.3246632,6.02305876 14.3196483,4.95007023 C14.3183946,4.74386875 14.256962,4.58829158 14.1378582,4.48704295 C14.0212618,4.38702906 13.8432329,4.33393527 13.623831,4.33393527 L13.6150549,4.33393527 C13.2226391,4.33517001 12.817686,4.61545585 12.817686,5.07971786 L12.8164322,8.29621398 C12.8164322,8.42339214 12.817686,8.57032613 12.7361939,8.70244324 C12.5293293,9.03211866 12.279838,9.19510426 11.9889739,9.19510426 C11.5664686,9.19510426 11.3069476,8.82591718 11.2154257,8.66787054 C11.1439634,8.55180503 11.1452171,8.41968792 11.1464708,8.33202142 L11.1464708,7.05900511 C11.1477245,5.81562254 11.1477245,4.56977049 11.1439634,3.32515318 C11.1477245,3.02634625 10.8480843,2.69667083 10.3591316,2.67938448 C10.1309537,2.68802766 9.96044716,2.77569416 9.86767152,2.86583013 C9.71220965,3.01646834 9.64576223,3.2127919 9.64826968,3.3412048 C9.67585163,4.77720671 9.6745979,6.25765924 9.67209045,7.70353907 L9.67209045,8.27275393 C9.67209045,8.39622787 9.66331438,8.52464077 9.60062814,8.64811471 C9.53919563,8.76911917 9.30474909,9.16423577 8.86719913,9.16423577 C8.43842525,9.16423577 8.16385952,8.79998765 8.10117328,8.67157476 C8.02845725,8.51970181 8.02845725,8.36288991 8.02845725,8.23818123 L8.02845725,6.27000664 C8.02845725,4.95747866 8.02845725,3.64742017 8.02469607,2.33612693 C8.03347214,2.17190659 7.97203963,2.01756417 7.85544322,1.89532497 C7.69872762,1.73233937 7.46678854,1.64220339 7.20350633,1.64220339 C6.65688232,1.64220339 6.36351071,2.06448426 6.36225699,2.36946489 C6.36100326,3.55851893 6.36225699,4.66854964 6.36351071,5.79216249 L6.36601816,8.29004028 L6.36225699,9.60503774 C6.55783806,9.75691068 7.12326794,10.1866 7.51693753,10.4866417 C7.86296557,10.7508759 8.1726356,10.9842416 8.27544103,11.0682039 C8.44344015,11.2040253 8.47478327,11.5213533 8.45472368,11.7003905 C8.42463428,11.9695637 8.2842171,12.1782346 8.06105409,12.2905959 C7.81156286,12.4153046 7.41789327,12.4103656 7.232342,12.280718 C6.91765707,12.0547607 6.22183981,11.5670386 5.69903657,11.200321 C5.341725,10.9496689 5.06465182,10.7558149 5.03706988,10.7335895 C4.62083325,10.44713 3.63164438,9.76308438 3.47492878,9.65319257 C3.27934771,9.54947446 3.10884114,9.47415536 2.94585692,9.42476579 C2.89194675,9.40747943 2.83302169,9.400071 2.77033545,9.400071 M9.02266101,17.7777778 C7.32386391,17.7777778 5.69903657,17.0394036 4.32370047,15.6404439 C3.57648049,14.8773749 2.83051424,14.1118365 2.08454798,13.3475328 L0.738047549,11.9646247 C-0.0630825967,11.1447578 -0.227320545,10.0186754 0.320557191,9.09755985 C0.852136505,8.20360853 2.22747261,7.49239864 3.43355586,7.85417728 C3.71188277,7.93813956 3.99020967,8.05914402 4.31116322,8.23447701 L4.69856418,8.49500702 L4.69605673,2.36699542 C4.69731046,1.2285657 5.65640993,0 7.20350633,0 C7.93066671,0 8.59388713,0.271642666 9.0677951,0.768007902 C9.20068993,0.905063975 9.31603261,1.06064114 9.40880825,1.22486148 C9.7147171,1.09521384 10.0482079,1.02606844 10.4142955,1.03841583 C11.5564388,1.08039697 12.5155383,1.85210909 12.753746,2.8399006 C13.0245506,2.74359093 13.3129073,2.69420136 13.6075326,2.69296662 C14.307111,2.69296662 14.8988691,2.91768919 15.3339116,3.3412048 C15.7576706,3.75607723 15.9833411,4.30924048 15.9858485,4.94266179 C15.9921172,6.0181198 15.9896097,8.1653316 15.9896097,8.1653316 L15.9946246,8.95926903 C16.002147,9.71863376 16.0096693,10.503928 15.9582666,11.2991002 C15.7965361,13.8241422 14.5026921,15.7787347 12.2196592,16.9517371 C11.150232,17.5011962 10.0745361,17.7777778 9.02266101,17.7777778" id="Pan"></path>
                </g>
            </g>
        </g>
    </g>
</svg>