<svg xmlns="http://www.w3.org/2000/svg"
 width="529pt" height="472pt" viewBox="0 0 529 472"
 preserveAspectRatio="xMidYMid meet">
<metadata>
Created by potrace 1.16, written by Peter Selinger 2001-2019
</metadata>
<title>icon - 3D</title>
<g transform="translate(0,472) scale(0.1,-0.1)"
fill="#abb0c4" stroke="none">
<path d="M2414 4710 c-12 -5 -39 -11 -60 -15 -43 -7 -81 -14 -104 -18 -8 -2
-33 -8 -55 -14 -22 -7 -54 -14 -71 -16 -17 -3 -40 -9 -50 -15 -11 -5 -32 -12
-49 -15 -16 -3 -37 -8 -45 -11 -8 -3 -26 -8 -40 -10 -43 -8 -81 -19 -255 -71
-49 -15 -153 -45 -230 -66 -77 -22 -148 -41 -157 -44 -10 -3 -28 -8 -40 -11
-30 -7 -40 -10 -58 -17 -19 -6 -105 -32 -145 -43 -16 -4 -32 -8 -35 -9 -3 -1
-25 -7 -50 -14 -25 -6 -63 -18 -85 -25 -56 -19 -185 -58 -199 -60 -6 -1 -15
-4 -21 -7 -5 -4 -41 -16 -80 -29 -81 -25 -187 -79 -229 -116 -28 -25 -29 -33
-4 -38 64 -12 128 -31 128 -38 0 -5 4 -7 9 -3 5 3 29 -2 53 -10 24 -9 51 -18
60 -20 21 -6 16 -4 198 -55 80 -23 152 -43 160 -45 8 -3 76 -21 150 -42 74
-20 137 -39 140 -42 5 -6 19 -10 60 -17 14 -3 32 -7 40 -11 16 -6 24 -9 55
-17 92 -24 309 -86 323 -92 23 -10 55 -18 111 -30 14 -3 28 -7 33 -10 4 -3 16
-7 25 -9 10 -2 83 -22 163 -45 80 -23 197 -55 260 -72 63 -17 117 -34 120 -37
3 -3 12 -8 20 -9 67 -16 61 -14 130 -35 51 -16 58 -16 110 0 69 21 82 24 138
37 9 2 39 12 66 21 26 9 57 19 67 21 11 2 29 7 42 10 12 3 27 6 32 7 6 2 15 5
20 9 9 5 303 88 365 103 8 2 15 4 15 5 0 1 7 3 15 5 76 19 80 20 102 29 14 6
231 68 323 92 31 8 39 11 55 17 8 4 26 8 40 11 41 7 55 11 60 17 3 3 75 24
160 47 169 47 190 52 205 55 6 2 16 6 23 11 7 4 16 5 19 2 3 -3 11 -2 17 4 7
5 86 30 176 55 91 25 190 53 220 61 30 9 63 18 74 20 30 6 30 11 0 38 -49 43
-153 92 -284 134 -201 65 -258 82 -275 82 -8 0 -15 4 -15 8 0 5 -6 9 -12 10
-7 0 -22 3 -33 6 -11 3 -40 10 -65 16 -42 10 -64 17 -115 36 -26 9 -30 10
-135 38 -215 57 -296 81 -302 90 -4 6 -8 8 -8 4 0 -6 -65 11 -225 58 -66 19
-84 24 -120 31 -16 2 -48 11 -70 19 -22 8 -51 17 -65 20 -14 3 -43 10 -65 16
-61 17 -53 15 -127 34 -13 3 -41 7 -63 10 -22 2 -62 7 -90 10 -78 10 -428 12
-451 4z"/>
<path d="M63 3692 c-24 -57 -48 -152 -53 -207 -5 -49 -5 -2405 0 -2435 8 -56
55 -185 87 -239 44 -74 149 -186 210 -224 39 -25 104 -52 145 -62 9 -2 52 -15
95 -29 158 -50 213 -66 228 -66 8 0 15 -5 15 -12 0 -6 2 -9 6 -6 3 3 26 -1 52
-9 60 -18 81 -24 115 -30 15 -3 27 -10 27 -15 0 -5 4 -6 10 -3 5 3 16 3 23 -2
6 -4 14 -8 17 -8 36 -6 120 -30 120 -34 0 -4 8 -7 18 -8 9 0 58 -13 107 -27
96 -28 114 -33 144 -40 11 -3 30 -10 43 -17 13 -7 24 -12 26 -11 1 1 3 2 5 1
1 0 9 -2 17 -4 8 -2 25 -6 38 -9 12 -3 32 -9 45 -12 31 -7 40 -10 57 -17 8 -4
26 -8 40 -11 14 -2 59 -14 100 -26 41 -12 86 -23 100 -26 14 -2 36 -9 50 -14
24 -9 95 -27 135 -34 11 -2 34 -6 51 -10 17 -3 48 -8 70 -12 21 -3 48 -7 59
-9 11 -3 36 -7 55 -11 19 -4 55 -7 80 -8 42 -1 44 1 51 31 3 18 7 704 8 1526
2 1224 0 1494 -11 1495 -7 0 -22 3 -33 6 -11 3 -81 22 -155 43 -74 20 -137 39
-140 42 -5 6 -19 10 -60 17 -14 3 -41 10 -60 16 -19 7 -39 13 -45 14 -64 16
-337 94 -344 99 -6 3 -20 8 -31 11 -11 2 -28 6 -37 9 -10 3 -83 23 -163 45
-79 22 -151 43 -160 46 -8 4 -18 7 -22 6 -4 -1 -20 3 -35 10 -30 12 -36 14
-70 22 -50 13 -64 16 -80 21 -164 45 -256 71 -343 96 -58 17 -136 39 -175 50
-38 11 -77 23 -85 26 -21 8 -49 16 -100 27 -11 3 -25 8 -31 11 -5 4 -25 9 -42
12 -18 3 -37 9 -43 14 -6 5 -14 6 -17 2 -4 -3 -13 0 -22 7 -8 7 -15 10 -15 7
0 -3 -14 -2 -31 3 -29 9 -31 7 -46 -28z m932 -852 c0 -2 9 -4 20 -5 91 -14
133 -24 174 -42 20 -9 42 -17 49 -19 7 -1 38 -17 70 -34 175 -99 315 -267 370
-444 24 -79 20 -200 -8 -264 -27 -63 -89 -120 -165 -153 -30 -13 -55 -26 -55
-29 0 -3 14 -14 31 -24 54 -32 156 -135 199 -201 23 -36 55 -102 71 -147 26
-76 28 -92 25 -193 -7 -194 -67 -296 -220 -371 -68 -33 -70 -33 -210 -33 -130
1 -148 3 -226 30 -47 16 -121 51 -164 77 -102 60 -237 193 -298 292 -50 81
-104 222 -110 286 -3 38 -2 39 27 37 17 0 44 -4 60 -7 17 -3 46 -8 65 -11 44
-7 75 -13 75 -15 0 -1 16 -4 35 -7 51 -7 83 -25 85 -48 1 -11 12 -45 24 -75
50 -131 123 -204 243 -241 59 -18 71 -19 103 -8 52 19 100 62 123 113 29 60
25 196 -7 278 -49 125 -179 221 -315 233 -26 2 -50 6 -52 8 -9 9 -13 50 -7 61
4 6 8 26 9 46 1 19 3 35 3 35 1 0 4 22 7 50 3 27 9 54 14 60 5 6 48 10 103 9
86 -1 98 1 126 23 45 35 63 77 63 145 0 238 -315 374 -408 175 -13 -29 -24
-58 -24 -65 0 -20 -36 -7 -235 89 -97 47 -100 51 -86 100 59 197 184 299 356
293 33 -1 60 -3 60 -4z"/>
<path d="M5178 3724 c-3 -2 -14 -7 -24 -9 -11 -2 -41 -11 -69 -19 -27 -8 -90
-27 -140 -41 -80 -24 -157 -45 -250 -69 -5 -1 -37 -11 -70 -21 -33 -10 -64
-20 -70 -21 -13 -4 -57 -14 -70 -17 -5 -2 -14 -5 -20 -8 -5 -4 -71 -23 -145
-43 -74 -21 -160 -45 -190 -53 -67 -20 -69 -20 -100 -28 -34 -8 -43 -11 -60
-18 -18 -8 -184 -55 -214 -62 -55 -11 -67 -14 -76 -20 -5 -3 -18 -8 -27 -10
-10 -2 -83 -23 -163 -45 -80 -23 -152 -43 -160 -45 -8 -2 -36 -11 -62 -19 -27
-8 -48 -12 -48 -9 0 3 -7 0 -15 -7 -8 -6 -18 -9 -24 -6 -5 3 -11 2 -13 -2 -1
-5 -50 -21 -108 -36 -58 -16 -125 -35 -148 -43 -24 -8 -53 -15 -63 -16 -20 -1
-20 -15 -18 -1495 1 -821 5 -1507 8 -1525 6 -29 10 -32 46 -32 22 -1 54 3 70
7 17 4 48 10 70 13 63 9 88 13 125 20 19 4 44 9 55 11 29 4 58 11 98 22 20 6
38 7 41 4 3 -3 6 -1 6 5 0 5 6 10 13 11 15 1 35 6 62 15 11 3 34 9 50 12 33 7
42 9 65 17 8 3 42 13 75 23 75 20 263 73 290 81 11 3 25 6 30 7 6 2 15 5 20 8
6 4 44 14 85 24 41 10 80 21 85 25 12 9 157 45 168 42 4 -1 7 2 7 7 0 5 17 12
38 17 20 4 39 8 42 9 76 22 97 28 108 28 6 0 12 4 12 9 0 4 8 8 18 8 9 0 36 7
59 15 22 8 52 16 65 19 12 2 35 9 51 15 15 6 27 8 27 5 0 -4 6 -2 13 3 6 6 58
25 113 42 151 46 256 133 349 287 30 49 77 179 85 234 5 29 5 2386 1 2435 -5
56 -47 201 -65 225 -12 16 -30 23 -38 14z m-858 -950 c19 -4 42 -8 50 -10 94
-16 183 -64 259 -141 132 -133 191 -308 185 -553 -1 -69 -5 -141 -8 -160 -2
-19 -7 -55 -11 -80 -37 -277 -235 -575 -505 -759 -73 -50 -170 -104 -170 -94
0 4 -4 2 -8 -4 -7 -12 -182 -77 -228 -86 -10 -2 -26 -6 -34 -9 -35 -13 -108
-36 -145 -47 -95 -26 -151 -43 -170 -52 -11 -5 -31 -11 -45 -13 -40 -8 -64
-14 -82 -21 -12 -5 -18 -2 -19 6 -1 8 -2 427 -3 931 l-1 917 40 11 c22 6 50
13 63 15 36 8 64 16 225 64 37 11 67 18 67 16 0 -2 16 3 36 11 20 8 39 13 41
10 3 -3 13 -1 23 4 9 5 28 11 41 14 28 6 64 14 99 21 14 3 43 8 65 11 22 3 41
6 42 8 5 4 160 -3 193 -10z"/>
<path d="M3967 2443 c-2 -2 -17 -6 -33 -8 -44 -6 -73 -13 -84 -20 -5 -3 -19
-8 -30 -11 -11 -2 -30 -6 -42 -9 -12 -2 -26 -9 -31 -14 -18 -18 -22 -143 -22
-691 0 -529 0 -535 20 -533 25 3 46 8 65 16 8 3 51 18 95 32 279 91 443 251
517 505 24 84 29 123 32 250 6 241 -60 396 -198 461 -54 26 -68 28 -172 27
-62 0 -115 -2 -117 -5z"/>
</g>
</svg>
