<svg xmlns="http://www.w3.org/2000/svg" viewBox="0 0 24 24"><defs><style>.cls-1{fill:#abb0c4;}</style></defs><title>icon - header - select - line</title><path class="cls-1" d="M21.56,15.57l-2.12-2.49L18.33,11.7l1.38-1.11,1.37-1.11a.81.81,0,0,0,.34-.84c-.08-.39-.32-.54-.68-.7l-11-2.7c-.62-.06-1.17.38-1.1.89V17.7a.8.8,0,0,0,.54.81.72.72,0,0,0,.9-.15l1.38-1.11,1.37-1.11,1.67,2.06L16.05,20a1.67,1.67,0,0,0,2.49.27l2.75-2.22A1.66,1.66,0,0,0,21.56,15.57Zm-3.84,3-1.46-1.67L14,14.13l-.67-.7-1,.78-1.79,1.44v-8l7.73,1.71-1.66,1.46-1,.77,2.21,2.76,2.14,2.36ZM5.37,5.24V18.86h.25a.92.92,0,0,1,1,1,.89.89,0,0,1-.87,1H3a.92.92,0,0,1-1-1,1,1,0,0,1,1-1h.38V5.24H3a.92.92,0,0,1-1-1,1,1,0,0,1,1-1H5.62a.92.92,0,0,1,1,1,.89.89,0,0,1-.87,1Z"/></svg>