<?xml version="1.0" encoding="utf-8"?>
<!-- Generator: Adobe Illustrator 24.3.0, SVG Export Plug-In . SVG Version: 6.00 Build 0)  -->
<svg version="1.1" id="Layer_1" xmlns="http://www.w3.org/2000/svg" xmlns:xlink="http://www.w3.org/1999/xlink" x="0px" y="0px"
	 viewBox="0 0 24 24" style="enable-background:new 0 0 24 24;" xml:space="preserve" width="24" height="24">
<style type="text/css">
	.st0{fill-rule:evenodd;clip-rule:evenodd;fill:none;}
	.st1{fill:#868E96;}
</style>
<rect id="Rectangle" class="st0"/>
<path class="st1" d="M9,6v4H5V6H9 M9,4H5C3.9,4,3,4.9,3,6v4c0,1.1,0.9,2,2,2h4c1.1,0,2-0.9,2-2V6C11,4.9,10.1,4,9,4L9,4z M16.6,4.4
	L16.6,4.4l3.1,2.6L17.1,10L14,7.4L16.6,4.4C16.6,4.4,16.6,4.4,16.6,4.4 M16.6,2.4c-0.6,0-1.1,0.2-1.5,0.7l-2.6,3.1
	C11.8,7,11.9,8.3,12.7,9l3.1,2.6c0.4,0.3,0.8,0.5,1.3,0.5c0.6,0,1.1-0.2,1.5-0.7l2.6-3.1c0.7-0.8,0.6-2.1-0.2-2.8l-3.1-2.6
	C17.5,2.5,17,2.4,16.6,2.4L16.6,2.4z M9,15v4H5v-4H9 M9,13H5c-1.1,0-2,0.9-2,2v4c0,1.1,0.9,2,2,2h4c1.1,0,2-0.9,2-2v-4
	C11,13.9,10.1,13,9,13L9,13z M18,15v4h-4v-4H18 M18,13h-4c-1.1,0-2,0.9-2,2v4c0,1.1,0.9,2,2,2h4c1.1,0,2-0.9,2-2v-4
	C20,13.9,19.1,13,18,13L18,13z"/>
</svg>
