<svg id="icon" xmlns="http://www.w3.org/2000/svg" viewBox="0 0 24 24"><defs><style>.cls-1{fill:#abb0c4;}</style></defs><title>icon - header - pan</title><path class="cls-1" d="M22.1,11.72l-3-3a.4.4,0,0,0-.68.29v2h-5V6h2a.4.4,0,0,0,.28-.68l-3-3a.42.42,0,0,0-.57,0l-3,3A.4.4,0,0,0,9.35,6h2v5h-5V9a.41.41,0,0,0-.69-.29l-3,3a.39.39,0,0,0,0,.56l3,3A.41.41,0,0,0,6.39,15V13h5v5h-2a.4.4,0,0,0-.28.68l3,3a.42.42,0,0,0,.57,0l3-3a.4.4,0,0,0-.28-.68h-2V13h5v2a.4.4,0,0,0,.68.29l3-3A.39.39,0,0,0,22.1,11.72Z"/></svg>