<svg xmlns="http://www.w3.org/2000/svg" viewBox="0 0 24 24"><defs><style>.cls-1{fill:#abb0c4;}</style></defs><title>icon - header - select - fill</title><path class="cls-1" d="M21.29,18.05l-2.75,2.22A1.67,1.67,0,0,1,16.05,20l-1.56-1.8-1.67-2.06-1.37,1.11-1.38,1.11a.72.72,0,0,1-.9.15.8.8,0,0,1-.54-.81V6.13c-.07-.51.48-1,1.1-.89l11,2.7c.36.16.6.31.68.7a.81.81,0,0,1-.34.84l-1.37,1.11L18.33,11.7l1.11,1.38,2.12,2.49A1.66,1.66,0,0,1,21.29,18.05ZM5.75,5.24a.9.9,0,0,0,.88-1,.92.92,0,0,0-1-1H3a1,1,0,0,0-1,1,.92.92,0,0,0,1,1h.38V18.86H3a1,1,0,0,0-1,1,.92.92,0,0,0,1,1H5.75a.89.89,0,0,0,.88-1,.92.92,0,0,0-1-1H5.38V5.24Z"/></svg>