<svg id="icon" xmlns="http://www.w3.org/2000/svg" viewBox="0 0 24 24"><defs><style>.cls-1{fill:#abb0c4;}</style></defs><title>icon - tool - redaction - inline</title><path class="cls-1" d="M2.08,16.06H12.23v2H2.08Zm0-3H12.23V11H2.08Zm0-5.07H12.23v-2H2.08Z"/><path class="cls-1" d="M21.8,9.39l-.87-.87a.4.4,0,0,0-.57,0l-2,2-2-2a.4.4,0,0,0-.57,0l-.87.87a.42.42,0,0,0,0,.57l2.05,2-2.05,2a.42.42,0,0,0,0,.57l.87.87a.4.4,0,0,0,.57,0l2-2,2,2a.4.4,0,0,0,.57,0l.87-.87a.4.4,0,0,0,0-.57l-2-2,2-2A.4.4,0,0,0,21.8,9.39Z"/></svg>