<svg xmlns="http://www.w3.org/2000/svg" viewBox="0 0 24 24"><defs><style>.cls-1{fill:#abb0c4;}</style></defs><title>icon - panel - thumbnail - line</title><path class="cls-1" d="M16.5,5.66H3.81A1.81,1.81,0,0,0,2,7.47V20.15A1.82,1.82,0,0,0,3.81,22H16.5a1.82,1.82,0,0,0,1.81-1.82V7.47A1.81,1.81,0,0,0,16.5,5.66ZM3.81,20.15V7.47H16.5V20.15Zm6.34-5.43H5.62V9.28h4.53ZM12,16.53h2.71v1.81H5.62V16.53H12Zm0-7.25h2.71v1.81H12Zm0,3.63h2.71v1.81H12ZM22,3.85V12H20.19V3.85H8.41V2H20.19A1.82,1.82,0,0,1,22,3.85Z"/></svg>