<?xml version="1.0" encoding="utf-8"?>
<!-- Generator: Adobe Illustrator 24.1.3, SVG Export Plug-In . SVG Version: 6.00 Build 0)  -->
<svg version="1.1" id="Layer_1" xmlns="http://www.w3.org/2000/svg" xmlns:xlink="http://www.w3.org/1999/xlink" x="0px" y="0px"
	 viewBox="0 0 24 24" style="enable-background:new 0 0 24 24;" xml:space="preserve">
<style type="text/css">
	.st0{fill:#868E96;}
	.st1{fill:#FFFFFF;}
</style>
<path class="st0" d="M18.5,2.8H5.5C4,2.8,2.8,4,2.8,5.5v13.1c0,1.4,1.2,2.6,2.6,2.6h13.1c1.4,0,2.6-1.2,2.6-2.6V5.5
	C21.2,4,20,2.8,18.5,2.8z M4.7,4.7h5.7l-5.7,5.7V4.7z M4.7,18.2v-5.2l0,0l8.3-8.3l0,0h5.2L4.7,18.2z M6.1,19.3L19.3,6.1l0,5.2l-8,8
	H6.1z M13.9,19.3l5.4-5.4l0,5.4H13.9z"/>
<path fill="fill" class="st1" d="M10.4,4.7l-5.7,5.7V4.7H10.4z M12.9,4.7L12.9,4.7l-8.2,8.3l0,0v5.2L18.2,4.7H12.9z M19.3,6.1L6.1,19.3h5.2l8-8
	L19.3,6.1z M19.3,13.9l-5.4,5.4h5.4L19.3,13.9z"/>
</svg>
