<svg id="icon" xmlns="http://www.w3.org/2000/svg" viewBox="0 0 24 24"><defs><style>.cls-1{fill:#abb0c4;}</style></defs><title>icon - header - page manipulation - page layout - cover - line</title><path class="cls-1" d="M2.13,14.13H1V12.59H2.13Zm0,1.18H1V16.5a1.12,1.12,0,0,0,1.13,1.12H3.31V16.5H2.13Zm0-5.44H1v1.54H2.13Zm0-2.37H3.31V6.38H2.13A1.12,1.12,0,0,0,1,7.5V8.68H2.13Zm4.2.83,1-1-.83-.83a.57.57,0,0,0-.16-.11l-.06,0-.14,0H4.49V7.5h1ZM8.88,16.5H7.69v1.12H8.88A1.12,1.12,0,0,0,10,16.5V15.32H8.88ZM4.49,17.62h2V16.5h-2Zm4.39-3.49H10V10.61L8.88,11.74Zm.55-4.62-1.3-1.3-1,1,1.3,1.3Zm11.57.8V16.5a1.12,1.12,0,0,1-1.13,1.12H13.12A1.12,1.12,0,0,1,12,16.5v-9a1.12,1.12,0,0,1,1.12-1.12h4l.14,0,.06,0a.57.57,0,0,1,.16.11l3.38,3.37a1,1,0,0,1,.11.17s0,0,0,.05a.4.4,0,0,1,0,.15ZM19.88,16.5V10.88H17.06a.57.57,0,0,1-.56-.57V7.5H13.12v9Z"/></svg>