<?xml version="1.0" encoding="UTF-8"?>
<svg width="24px" height="24px" viewBox="0 0 24 24" version="1.1" xmlns="http://www.w3.org/2000/svg" xmlns:xlink="http://www.w3.org/1999/xlink">
    <title>icon / tool / form / radio button / line</title>
    <g id="Form-Builder" stroke="none" stroke-width="1" fill="none" fill-rule="evenodd">
        <g id="Default-" transform="translate(-630.000000, -45.000000)" fill="#868E96">
            <g id="Group-5" transform="translate(450.000000, 38.000000)">
                <g id="Group-4" transform="translate(0.000000, 7.000000)">
                    <g id="icon-/-tool-/-form-/-radio-button-/-line" transform="translate(180.000000, 0.000000)">
                        <path d="M12,3 C7.02943725,3 3,7.02943725 3,12 C3,16.9705627 7.02943725,21 12,21 C16.9705627,21 21,16.9705627 21,12 C21,7.02943725 16.9705627,3 12,3 Z M12,18.71 C8.29416933,18.71 5.29,15.7058307 5.29,12 C5.29,8.29416933 8.29416933,5.29 12,5.29 C15.7058307,5.29 18.71,8.29416933 18.71,12 L18.71,12 C18.6990169,15.7012718 15.7012718,18.6990169 12,18.71 L12,18.71 Z M15.66,12 C15.66,14.0213622 14.0213622,15.66 12,15.66 C9.97863782,15.66 8.34,14.0213622 8.34,12 C8.34,9.97863782 9.97863782,8.34 12,8.34 L12,8.34 C14.0123305,8.36163983 15.6383602,9.98766948 15.66,12 Z" id="Shape"></path>
                    </g>
                </g>
            </g>
        </g>
    </g>
</svg>