<svg width="18" height="18" viewBox="0 0 18 18" fill="none" xmlns="http://www.w3.org/2000/svg">
<path d="M16.2 8.1V2.7C16.2 1.7073 15.3927 0.9 14.4 0.9H11.7C11.7 0.4032 11.2977 0 10.8 0H5.4C4.9023 0 4.5 0.4032 4.5 0.9H1.8C0.8073 0.9 0 1.7073 0 2.7V14.4C0 15.3927 0.8073 16.2 1.8 16.2H8.1C8.1 17.1927 8.9073 18 9.9 18H16.2C17.1927 18 18 17.1927 18 16.2V9.9C18 8.9073 17.1927 8.1 16.2 8.1ZM8.1 9.9V14.4H1.8V2.7H4.5V4.5H11.7V2.7H14.4V8.1H9.9C8.9073 8.1 8.1 8.9073 8.1 9.9ZM9.9 16.2V9.9H16.2L16.2009 16.2H9.9Z" fill="#868E96"/>
</svg>
