<svg
  xmlns="http://www.w3.org/2000/svg" viewBox="0 0 24 24">
  <defs>
    <style>.cls-1{fill:#abb0c4;}</style>
  </defs>
  <title>icon - tool - text manipulation - squiggly</title>
  <path class="cls-1" d="M21,20V22a3,3,0,0,1-2.56-1.41c-.38-.51-.64-.64-1-.64s-.51.13-1,.64A3.34,3.34,0,0,1,13.79,22a3,3,0,0,1-2.56-1.41c-.38-.51-.64-.64-1-.64s-.52.13-1,.64A3.34,3.34,0,0,1,6.62,22a3,3,0,0,1-2.57-1.41c-.38-.51-.64-.64-1-.64V17.9a3,3,0,0,1,2.56,1.41c.38.51.64.64,1,.64s.51-.13,1-.64a3.32,3.32,0,0,1,2.57-1.41,3,3,0,0,1,2.56,1.41c.38.51.64.64,1,.64s.52-.13,1-.64a3.31,3.31,0,0,1,2.56-1.41A3,3,0,0,1,20,19.31C20.33,19.82,20.59,20,21,20Z"/>
  <path fill="default" class="cls-1" d="M8.79,12.77h6.67L17,16.36h2.56L13.92,2.64A1.34,1.34,0,0,0,12.77,2H11.62a1.24,1.24,0,0,0-1.16.77L4.69,16.36H7.26Zm3.34-7.95,2.31,5.51H9.82Z"/>
</svg>
