<svg width="45" height="3" viewBox="0 0 45 3" fill="none" xmlns="http://www.w3.org/2000/svg">
<path d="M0.548781 0C0.245697 0 -0.00561448 0.248254 0.0542735 0.545361C0.335761 1.94184 1.67859 3 3.29268 3C4.43797 3 5.44669 2.46725 6.03659 1.6589C6.62648 2.46725 7.6352 3 8.78049 3C9.92578 3 10.9345 2.46724 11.5244 1.65889C12.1143 2.46724 13.123 3 14.2683 3C15.4136 3 16.4223 2.46724 17.0122 1.65889C17.6021 2.46724 18.6108 3 19.7561 3C20.9014 3 21.9101 2.46724 22.5 1.65889C23.0899 2.46724 24.0986 3 25.2439 3C26.3892 3 27.3979 2.46724 27.9878 1.65889C28.5777 2.46724 29.5864 3 30.7317 3C31.877 3 32.8857 2.46724 33.4756 1.65889C34.0655 2.46724 35.0742 3 36.2195 3C37.3648 3 38.3735 2.46724 38.9634 1.65889C39.5533 2.46724 40.562 3 41.7073 3C43.3214 3 44.6642 1.94184 44.9457 0.545362C45.0056 0.248254 44.7543 0 44.4512 0V0C44.1481 0 43.9103 0.251098 43.8213 0.540791C43.5624 1.38263 42.714 2 41.7073 2C40.7007 2 39.8523 1.38263 39.5934 0.540791C39.5043 0.251098 39.2665 0 38.9634 0V0C38.6603 0 38.4225 0.251098 38.3334 0.540791C38.0745 1.38263 37.2262 2 36.2195 2C35.2129 2 34.3645 1.38263 34.1056 0.540791C34.0165 0.251098 33.7787 0 33.4756 0V0C33.1725 0 32.9347 0.251098 32.8456 0.540791C32.5867 1.38263 31.7384 2 30.7317 2C29.7251 2 28.8767 1.38263 28.6178 0.540791C28.5287 0.251098 28.2909 0 27.9878 0V0C27.6847 0 27.4469 0.251098 27.3578 0.540791C27.0989 1.38263 26.2506 2 25.2439 2C24.2373 2 23.3889 1.38263 23.13 0.540791C23.0409 0.251098 22.8031 0 22.5 0V0C22.1969 0 21.9591 0.251098 21.87 0.540791C21.6111 1.38263 20.7627 2 19.7561 2C18.7494 2 17.9011 1.38263 17.6422 0.540791C17.5531 0.251098 17.3153 0 17.0122 0V0C16.7091 0 16.4713 0.251098 16.3822 0.540791C16.1233 1.38263 15.2749 2 14.2683 2C13.2616 2 12.4133 1.38263 12.1544 0.540791C12.0653 0.251098 11.8275 0 11.5244 0V0C11.2213 0 10.9835 0.251098 10.8944 0.540791C10.6355 1.38263 9.78714 2 8.78049 2C7.77384 2 6.92545 1.38263 6.66655 0.540791C6.57746 0.251098 6.33967 0 6.03659 0V0C5.7335 0 5.49571 0.251098 5.40662 0.540791C5.14772 1.38263 4.29933 2 3.29268 2C2.28603 2 1.43765 1.38263 1.17875 0.540791C1.08966 0.251098 0.851864 0 0.548781 0V0Z"/>
</svg>
