<svg width="24" height="24" viewBox="0 0 24 24" fill="none" xmlns="http://www.w3.org/2000/svg">
<path d="M12.2181 14.4298L12.9145 12.5597C11.5508 11.9666 10.4666 11.2731 9.5878 10.5445C10.9896 8.9062 11.6839 7.2429 12.012 6H13.75C13.8881 6 14 5.8881 14 5.75V4.25C14 4.1119 13.8881 4 13.75 4H9V2.25C9 2.1119 8.8881 2 8.75 2H7.25C7.1119 2 7 2.1119 7 2.25V4H2.25C2.1119 4 2 4.1119 2 4.25V5.75C2 5.8881 2.1119 6 2.25 6H4.315C4.6456 7.2454 5.3248 8.9109 6.7368 10.5535C5.6201 11.4777 4.156 12.3424 2.2352 13.0211C2.1072 13.0663 2.0347 13.2051 2.0783 13.3337L2.5594 14.7543C2.6045 14.8874 2.7563 14.9584 2.8888 14.9116C5.1511 14.1143 6.8698 13.0797 8.1771 11.9658C9.2366 12.8661 10.5507 13.717 12.2181 14.4298ZM9.9241 6C9.6251 6.9048 9.0998 8.0129 8.1639 9.1339C7.2299 8.0155 6.6925 6.9036 6.3928 6H9.9241Z" fill="#868E96"/>
<path d="M21.875 21.663L18.1016 11.4892C17.9926 11.1951 17.7121 11 17.3985 11H15.6163C15.303 11 15.0227 11.1947 14.9134 11.4883L11.1255 21.6627C11.0647 21.8261 11.1856 22 11.3599 22H13.25L14 20H19L19.75 22H21.6406C21.8148 22 21.9356 21.8263 21.875 21.663ZM14.6 18.0748L16.5083 13L18.4 18.0748H14.6Z" fill="#868E96"/>
</svg>
