<svg xmlns="http://www.w3.org/2000/svg" viewBox="0 0 24 24"><defs><style>.cls-1{fill:#abb0c4;}</style></defs><title>icon - tool - link</title><g><rect class="cls-1" x="5.51" y="10.92" width="12.99" height="2.16" transform="translate(-4.97 12) rotate(-45)"/><path class="cls-1" d="M9.7,18.89A3.25,3.25,0,0,1,5.11,14.3l3.06-3.07L6.64,9.7,3.58,12.77a5.41,5.41,0,0,0,7.66,7.65l3.06-3.06-1.53-1.53Z"/><path class="cls-1" d="M20.42,3.58a5.41,5.41,0,0,0-7.65,0L9.7,6.64l1.54,1.53L14.3,5.11A3.25,3.25,0,0,1,18.89,9.7l-3.06,3.07,1.53,1.53,3.06-3.07A5.41,5.41,0,0,0,20.42,3.58Z"/></g></svg>