<svg width="24" height="24" viewBox="0 0 24 24" fill="none" xmlns="http://www.w3.org/2000/svg">
<path fill-rule="evenodd" clip-rule="evenodd" d="M16.4917 13.5493H18.325V9.25016C18.329 9.23204 18.329 9.21328 18.325 9.19516C18.324 9.11363 18.3084 9.03293 18.2792 8.95683V8.87433C18.2352 8.77231 18.1731 8.67913 18.0958 8.59933L12.5958 3.09933C12.518 3.02624 12.4281 2.9673 12.33 2.92516H12.2475L12 2.8335H5.49166C4.47914 2.8335 3.65833 3.65431 3.65833 4.66683V19.3335C3.65833 20.346 4.47914 21.1668 5.49166 21.1668H10.9917V19.3335H5.49166V4.66683H10.9917V9.25016C10.9917 9.75642 11.4021 10.1668 11.9083 10.1668H16.4917V13.5493Z" fill="#868E96"/>
<path fill-rule="evenodd" clip-rule="evenodd" d="M20.25 17.5L17.0417 14.9975C16.9306 14.9085 16.7781 14.8919 16.6505 14.9547C16.5228 15.0175 16.4431 15.1486 16.4458 15.2908V16.895H12.7792V18.7283H16.4458V20.3417C16.4466 20.4823 16.5278 20.61 16.6547 20.6706C16.7816 20.7311 16.9319 20.7137 17.0417 20.6258L20.25 18.105C20.3461 18.0341 20.4028 17.9219 20.4028 17.8025C20.4028 17.6831 20.3461 17.5708 20.25 17.5Z" fill="#868E96"/>
</svg>
