<svg width="60" height="74" viewBox="0 0 60 74" fill="none" xmlns="http://www.w3.org/2000/svg">
<line x1="18" y1="11.3428" x2="52" y2="11.3428" stroke="#868E96" stroke-width="2"/>
<line x1="18" y1="60.7139" x2="52" y2="60.7139" stroke="#868E96" stroke-width="2"/>
<line x1="34" y1="23.6855" x2="52" y2="23.6855" stroke="#868E96" stroke-width="2"/>
<line x1="34" y1="36.0283" x2="52" y2="36.0283" stroke="#868E96" stroke-width="2"/>
<line x1="47" y1="48.3711" x2="52" y2="48.3711" stroke="#868E96" stroke-width="2"/>
<rect x="0.5" y="0.5" width="59" height="73" stroke="#ADB5BD" style="fill: none;"/>
<path d="M11.581 13.5306V14.1426H8.125V13.5306H9.5065V9.13408C9.5065 9.00208 9.511 8.86858 9.52 8.73358L8.3725 9.71908C8.3335 9.75208 8.2945 9.77308 8.2555 9.78208C8.2165 9.78808 8.1805 9.78808 8.1475 9.78208C8.1145 9.77608 8.083 9.76408 8.053 9.74608C8.026 9.72808 8.005 9.70858 7.99 9.68758L7.738 9.34108L9.6595 7.68058H10.312V13.5306H11.581ZM12.7202 13.6476C12.7202 13.5696 12.7337 13.4961 12.7607 13.4271C12.7907 13.3581 12.8297 13.2981 12.8777 13.2471C12.9287 13.1961 12.9887 13.1556 13.0577 13.1256C13.1267 13.0956 13.2002 13.0806 13.2782 13.0806C13.3562 13.0806 13.4297 13.0956 13.4987 13.1256C13.5677 13.1556 13.6277 13.1961 13.6787 13.2471C13.7297 13.2981 13.7702 13.3581 13.8002 13.4271C13.8302 13.4961 13.8452 13.5696 13.8452 13.6476C13.8452 13.7286 13.8302 13.8036 13.8002 13.8726C13.7702 13.9386 13.7297 13.9971 13.6787 14.0481C13.6277 14.0991 13.5677 14.1381 13.4987 14.1651C13.4297 14.1951 13.3562 14.2101 13.2782 14.2101C13.2002 14.2101 13.1267 14.1951 13.0577 14.1651C12.9887 14.1381 12.9287 14.0991 12.8777 14.0481C12.8297 13.9971 12.7907 13.9386 12.7607 13.8726C12.7337 13.8036 12.7202 13.7286 12.7202 13.6476Z" fill="#485056"/>
<path d="M11.4415 62.7541C11.5285 62.7541 11.5975 62.7796 11.6485 62.8306C11.6995 62.8816 11.725 62.9476 11.725 63.0286V63.5146H7.423V63.2401C7.423 63.1831 7.435 63.1246 7.459 63.0646C7.483 63.0046 7.5205 62.9491 7.5715 62.8981L9.637 60.8236C9.808 60.6496 9.964 60.4831 10.105 60.3241C10.246 60.1621 10.366 60.0001 10.465 59.8381C10.564 59.6761 10.6405 59.5126 10.6945 59.3476C10.7485 59.1796 10.7755 59.0011 10.7755 58.8121C10.7755 58.6231 10.7455 58.4581 10.6855 58.3171C10.6255 58.1731 10.543 58.0546 10.438 57.9616C10.336 57.8686 10.2145 57.7996 10.0735 57.7546C9.9325 57.7066 9.781 57.6826 9.619 57.6826C9.454 57.6826 9.3025 57.7066 9.1645 57.7546C9.0265 57.8026 8.9035 57.8701 8.7955 57.9571C8.6905 58.0411 8.602 58.1416 8.53 58.2586C8.458 58.3756 8.407 58.5046 8.377 58.6456C8.341 58.7506 8.2915 58.8211 8.2285 58.8571C8.1685 58.8901 8.083 58.8991 7.972 58.8841L7.5535 58.8121C7.5955 58.5181 7.6765 58.2586 7.7965 58.0336C7.9195 57.8056 8.0725 57.6151 8.2555 57.4621C8.4415 57.3091 8.653 57.1936 8.89 57.1156C9.127 57.0346 9.3835 56.9941 9.6595 56.9941C9.9325 56.9941 10.1875 57.0346 10.4245 57.1156C10.6615 57.1966 10.867 57.3151 11.041 57.4711C11.215 57.6241 11.3515 57.8116 11.4505 58.0336C11.5495 58.2556 11.599 58.5076 11.599 58.7896C11.599 59.0296 11.563 59.2531 11.491 59.4601C11.419 59.6641 11.3215 59.8591 11.1985 60.0451C11.0755 60.2311 10.933 60.4126 10.771 60.5896C10.612 60.7666 10.4425 60.9451 10.2625 61.1251L8.5615 62.8621C8.6815 62.8291 8.803 62.8036 8.926 62.7856C9.049 62.7646 9.1675 62.7541 9.2815 62.7541H11.4415ZM12.7202 63.0196C12.7202 62.9416 12.7337 62.8681 12.7607 62.7991C12.7907 62.7301 12.8297 62.6701 12.8777 62.6191C12.9287 62.5681 12.9887 62.5276 13.0577 62.4976C13.1267 62.4676 13.2002 62.4526 13.2782 62.4526C13.3562 62.4526 13.4297 62.4676 13.4987 62.4976C13.5677 62.5276 13.6277 62.5681 13.6787 62.6191C13.7297 62.6701 13.7702 62.7301 13.8002 62.7991C13.8302 62.8681 13.8452 62.9416 13.8452 63.0196C13.8452 63.1006 13.8302 63.1756 13.8002 63.2446C13.7702 63.3106 13.7297 63.3691 13.6787 63.4201C13.6277 63.4711 13.5677 63.5101 13.4987 63.5371C13.4297 63.5671 13.3562 63.5821 13.2782 63.5821C13.2002 63.5821 13.1267 63.5671 13.0577 63.5371C12.9887 63.5101 12.9287 63.4711 12.8777 63.4201C12.8297 63.3691 12.7907 63.3106 12.7607 63.2446C12.7337 63.1756 12.7202 63.1006 12.7202 63.0196Z" fill="#485056"/>
<path d="M21.581 24.845V25.457H18.125V24.845H19.5065V20.4485C19.5065 20.3165 19.511 20.183 19.52 20.048L18.3725 21.0335C18.3335 21.0665 18.2945 21.0875 18.2555 21.0965C18.2165 21.1025 18.1805 21.1025 18.1475 21.0965C18.1145 21.0905 18.083 21.0785 18.053 21.0605C18.026 21.0425 18.005 21.023 17.99 21.002L17.738 20.6555L19.6595 18.995H20.312V24.845H21.581ZM22.7202 24.962C22.7202 24.884 22.7337 24.8105 22.7607 24.7415C22.7907 24.6725 22.8297 24.6125 22.8777 24.5615C22.9287 24.5105 22.9887 24.47 23.0577 24.44C23.1267 24.41 23.2002 24.395 23.2782 24.395C23.3562 24.395 23.4297 24.41 23.4987 24.44C23.5677 24.47 23.6277 24.5105 23.6787 24.5615C23.7297 24.6125 23.7702 24.6725 23.8002 24.7415C23.8302 24.8105 23.8452 24.884 23.8452 24.962C23.8452 25.043 23.8302 25.118 23.8002 25.187C23.7702 25.253 23.7297 25.3115 23.6787 25.3625C23.6277 25.4135 23.5677 25.4525 23.4987 25.4795C23.4297 25.5095 23.3562 25.5245 23.2782 25.5245C23.2002 25.5245 23.1267 25.5095 23.0577 25.4795C22.9887 25.4525 22.9287 25.4135 22.8777 25.3625C22.8297 25.3115 22.7907 25.253 22.7607 25.187C22.7337 25.118 22.7202 25.043 22.7202 24.962ZM28.9287 24.845V25.457H25.4727V24.845H26.8542V20.4485C26.8542 20.3165 26.8587 20.183 26.8677 20.048L25.7202 21.0335C25.6812 21.0665 25.6422 21.0875 25.6032 21.0965C25.5642 21.1025 25.5282 21.1025 25.4952 21.0965C25.4622 21.0905 25.4307 21.0785 25.4007 21.0605C25.3737 21.0425 25.3527 21.023 25.3377 21.002L25.0857 20.6555L27.0072 18.995H27.6597V24.845H28.9287Z" fill="#485056"/>
<path d="M21.581 38.2161V38.8281H18.125V38.2161H19.5065V33.8196C19.5065 33.6876 19.511 33.5541 19.52 33.4191L18.3725 34.4046C18.3335 34.4376 18.2945 34.4586 18.2555 34.4676C18.2165 34.4736 18.1805 34.4736 18.1475 34.4676C18.1145 34.4616 18.083 34.4496 18.053 34.4316C18.026 34.4136 18.005 34.3941 17.99 34.3731L17.738 34.0266L19.6595 32.3661H20.312V38.2161H21.581ZM22.7202 38.3331C22.7202 38.2551 22.7337 38.1816 22.7607 38.1126C22.7907 38.0436 22.8297 37.9836 22.8777 37.9326C22.9287 37.8816 22.9887 37.8411 23.0577 37.8111C23.1267 37.7811 23.2002 37.7661 23.2782 37.7661C23.3562 37.7661 23.4297 37.7811 23.4987 37.8111C23.5677 37.8411 23.6277 37.8816 23.6787 37.9326C23.7297 37.9836 23.7702 38.0436 23.8002 38.1126C23.8302 38.1816 23.8452 38.2551 23.8452 38.3331C23.8452 38.4141 23.8302 38.4891 23.8002 38.5581C23.7702 38.6241 23.7297 38.6826 23.6787 38.7336C23.6277 38.7846 23.5677 38.8236 23.4987 38.8506C23.4297 38.8806 23.3562 38.8956 23.2782 38.8956C23.2002 38.8956 23.1267 38.8806 23.0577 38.8506C22.9887 38.8236 22.9287 38.7846 22.8777 38.7336C22.8297 38.6826 22.7907 38.6241 22.7607 38.5581C22.7337 38.4891 22.7202 38.4141 22.7202 38.3331ZM28.7892 38.0676C28.8762 38.0676 28.9452 38.0931 28.9962 38.1441C29.0472 38.1951 29.0727 38.2611 29.0727 38.3421V38.8281H24.7707V38.5536C24.7707 38.4966 24.7827 38.4381 24.8067 38.3781C24.8307 38.3181 24.8682 38.2626 24.9192 38.2116L26.9847 36.1371C27.1557 35.9631 27.3117 35.7966 27.4527 35.6376C27.5937 35.4756 27.7137 35.3136 27.8127 35.1516C27.9117 34.9896 27.9882 34.8261 28.0422 34.6611C28.0962 34.4931 28.1232 34.3146 28.1232 34.1256C28.1232 33.9366 28.0932 33.7716 28.0332 33.6306C27.9732 33.4866 27.8907 33.3681 27.7857 33.2751C27.6837 33.1821 27.5622 33.1131 27.4212 33.0681C27.2802 33.0201 27.1287 32.9961 26.9667 32.9961C26.8017 32.9961 26.6502 33.0201 26.5122 33.0681C26.3742 33.1161 26.2512 33.1836 26.1432 33.2706C26.0382 33.3546 25.9497 33.4551 25.8777 33.5721C25.8057 33.6891 25.7547 33.8181 25.7247 33.9591C25.6887 34.0641 25.6392 34.1346 25.5762 34.1706C25.5162 34.2036 25.4307 34.2126 25.3197 34.1976L24.9012 34.1256C24.9432 33.8316 25.0242 33.5721 25.1442 33.3471C25.2672 33.1191 25.4202 32.9286 25.6032 32.7756C25.7892 32.6226 26.0007 32.5071 26.2377 32.4291C26.4747 32.3481 26.7312 32.3076 27.0072 32.3076C27.2802 32.3076 27.5352 32.3481 27.7722 32.4291C28.0092 32.5101 28.2147 32.6286 28.3887 32.7846C28.5627 32.9376 28.6992 33.1251 28.7982 33.3471C28.8972 33.5691 28.9467 33.8211 28.9467 34.1031C28.9467 34.3431 28.9107 34.5666 28.8387 34.7736C28.7667 34.9776 28.6692 35.1726 28.5462 35.3586C28.4232 35.5446 28.2807 35.7261 28.1187 35.9031C27.9597 36.0801 27.7902 36.2586 27.6102 36.4386L25.9092 38.1756C26.0292 38.1426 26.1507 38.1171 26.2737 38.0991C26.3967 38.0781 26.5152 38.0676 26.6292 38.0676H28.7892Z" fill="#485056"/>
<path d="M28.581 50.5599V51.1719H25.125V50.5599H26.5065V46.1634C26.5065 46.0314 26.511 45.8979 26.52 45.7629L25.3725 46.7484C25.3335 46.7814 25.2945 46.8024 25.2555 46.8114C25.2165 46.8174 25.1805 46.8174 25.1475 46.8114C25.1145 46.8054 25.083 46.7934 25.053 46.7754C25.026 46.7574 25.005 46.7379 24.99 46.7169L24.738 46.3704L26.6595 44.7099H27.312V50.5599H28.581ZM29.7202 50.6769C29.7202 50.5989 29.7337 50.5254 29.7607 50.4564C29.7907 50.3874 29.8297 50.3274 29.8777 50.2764C29.9287 50.2254 29.9887 50.1849 30.0577 50.1549C30.1267 50.1249 30.2002 50.1099 30.2782 50.1099C30.3562 50.1099 30.4297 50.1249 30.4987 50.1549C30.5677 50.1849 30.6277 50.2254 30.6787 50.2764C30.7297 50.3274 30.7702 50.3874 30.8002 50.4564C30.8302 50.5254 30.8452 50.5989 30.8452 50.6769C30.8452 50.7579 30.8302 50.8329 30.8002 50.9019C30.7702 50.9679 30.7297 51.0264 30.6787 51.0774C30.6277 51.1284 30.5677 51.1674 30.4987 51.1944C30.4297 51.2244 30.3562 51.2394 30.2782 51.2394C30.2002 51.2394 30.1267 51.2244 30.0577 51.1944C29.9887 51.1674 29.9287 51.1284 29.8777 51.0774C29.8297 51.0264 29.7907 50.9679 29.7607 50.9019C29.7337 50.8329 29.7202 50.7579 29.7202 50.6769ZM35.7892 50.4114C35.8762 50.4114 35.9452 50.4369 35.9962 50.4879C36.0472 50.5389 36.0727 50.6049 36.0727 50.6859V51.1719H31.7707V50.8974C31.7707 50.8404 31.7827 50.7819 31.8067 50.7219C31.8307 50.6619 31.8682 50.6064 31.9192 50.5554L33.9847 48.4809C34.1557 48.3069 34.3117 48.1404 34.4527 47.9814C34.5937 47.8194 34.7137 47.6574 34.8127 47.4954C34.9117 47.3334 34.9882 47.1699 35.0422 47.0049C35.0962 46.8369 35.1232 46.6584 35.1232 46.4694C35.1232 46.2804 35.0932 46.1154 35.0332 45.9744C34.9732 45.8304 34.8907 45.7119 34.7857 45.6189C34.6837 45.5259 34.5622 45.4569 34.4212 45.4119C34.2802 45.3639 34.1287 45.3399 33.9667 45.3399C33.8017 45.3399 33.6502 45.3639 33.5122 45.4119C33.3742 45.4599 33.2512 45.5274 33.1432 45.6144C33.0382 45.6984 32.9497 45.7989 32.8777 45.9159C32.8057 46.0329 32.7547 46.1619 32.7247 46.3029C32.6887 46.4079 32.6392 46.4784 32.5762 46.5144C32.5162 46.5474 32.4307 46.5564 32.3197 46.5414L31.9012 46.4694C31.9432 46.1754 32.0242 45.9159 32.1442 45.6909C32.2672 45.4629 32.4202 45.2724 32.6032 45.1194C32.7892 44.9664 33.0007 44.8509 33.2377 44.7729C33.4747 44.6919 33.7312 44.6514 34.0072 44.6514C34.2802 44.6514 34.5352 44.6919 34.7722 44.7729C35.0092 44.8539 35.2147 44.9724 35.3887 45.1284C35.5627 45.2814 35.6992 45.4689 35.7982 45.6909C35.8972 45.9129 35.9467 46.1649 35.9467 46.4469C35.9467 46.6869 35.9107 46.9104 35.8387 47.1174C35.7667 47.3214 35.6692 47.5164 35.5462 47.7024C35.4232 47.8884 35.2807 48.0699 35.1187 48.2469C34.9597 48.4239 34.7902 48.6024 34.6102 48.7824L32.9092 50.5194C33.0292 50.4864 33.1507 50.4609 33.2737 50.4429C33.3967 50.4219 33.5152 50.4114 33.6292 50.4114H35.7892ZM37.0679 50.6769C37.0679 50.5989 37.0814 50.5254 37.1084 50.4564C37.1384 50.3874 37.1774 50.3274 37.2254 50.2764C37.2764 50.2254 37.3364 50.1849 37.4054 50.1549C37.4744 50.1249 37.5479 50.1099 37.6259 50.1099C37.7039 50.1099 37.7774 50.1249 37.8464 50.1549C37.9154 50.1849 37.9754 50.2254 38.0264 50.2764C38.0774 50.3274 38.1179 50.3874 38.1479 50.4564C38.1779 50.5254 38.1929 50.5989 38.1929 50.6769C38.1929 50.7579 38.1779 50.8329 38.1479 50.9019C38.1179 50.9679 38.0774 51.0264 38.0264 51.0774C37.9754 51.1284 37.9154 51.1674 37.8464 51.1944C37.7774 51.2244 37.7039 51.2394 37.6259 51.2394C37.5479 51.2394 37.4744 51.2244 37.4054 51.1944C37.3364 51.1674 37.2764 51.1284 37.2254 51.0774C37.1774 51.0264 37.1384 50.9679 37.1084 50.9019C37.0814 50.8329 37.0679 50.7579 37.0679 50.6769ZM43.2763 50.5599V51.1719H39.8203V50.5599H41.2018V46.1634C41.2018 46.0314 41.2063 45.8979 41.2153 45.7629L40.0678 46.7484C40.0288 46.7814 39.9898 46.8024 39.9508 46.8114C39.9118 46.8174 39.8758 46.8174 39.8428 46.8114C39.8098 46.8054 39.7783 46.7934 39.7483 46.7754C39.7213 46.7574 39.7003 46.7379 39.6853 46.7169L39.4333 46.3704L41.3548 44.7099H42.0073V50.5599H43.2763Z" fill="#485056"/>
</svg>
