<svg width="30" height="6" viewBox="0 0 30 6" fill="none" xmlns="http://www.w3.org/2000/svg">
<path fill-rule="evenodd" clip-rule="evenodd" d="M26.03 3.30107L25.9689 3L26.03 2.69893C26.1689 2.01468 26.7755 1.5 27.5 1.5C28.3284 1.5 29 2.17157 29 3C29 3.82843 28.3284 4.5 27.5 4.5C26.7755 4.5 26.1689 3.98532 26.03 3.30107ZM25.05 3.5C25.2816 4.64112 26.2905 5.5 27.5 5.5C28.8807 5.5 30 4.38071 30 3C30 1.61929 28.8807 0.5 27.5 0.5C26.2905 0.5 25.2816 1.35888 25.05 2.5H0V3.5H25.05Z" fill="#485056"/>
</svg>
