<svg id="icon" xmlns="http://www.w3.org/2000/svg" viewBox="0 0 24 24"><defs><style>.cls-1{fill:#abb0c4;}</style></defs><title>icon - header - zoom - marquee</title><path class="cls-1" d="M3.05,18.84H6.21v-2.1H4.11V14.63H2v3.16A1,1,0,0,0,3.05,18.84ZM18.84,3.05a1,1,0,0,0-1.05-1H14.63V4.11h2.11v2.1h2.1ZM4.11,4.11h2.1V2H3.05a1,1,0,0,0-1,1V6.21H4.11ZM2,8.32H4.11v4.21H2Zm14.74,0h2.1v3.15h-2.1ZM22,21l-1.81-1.82a3.53,3.53,0,0,0,.59-1.95,3.64,3.64,0,1,0-1.65,3L21,22Zm-6.9-3.77a2.08,2.08,0,1,1,2.08,2.08A2.08,2.08,0,0,1,15.1,17.18ZM8.32,2h4.21V4.11H8.32Zm0,14.74h3.15v2.1H8.32Z"/></svg>