<svg id="icon"
  xmlns="http://www.w3.org/2000/svg" viewBox="0 0 24 24">
  <defs>
    <style>.cls-1{fill:#abb0c4;}</style>
  </defs>
  <title>icon - tool - callout - line</title>
  <path class="cls-1" d="M17.46,12.21H19.2a1.8,1.8,0,0,0,1.8-1.8V5a1.8,1.8,0,0,0-1.8-1.8H4.8A1.8,1.8,0,0,0,3,5V10.4a1.8,1.8,0,0,0,1.8,1.81H17.46ZM5,10.22v-5H19v5Z"/>
  <path class="cls-1" d="M15.48,12.2v4.42h-8V14.86a.4.4,0,0,0-.65-.31L3.35,17.31a.4.4,0,0,0,0,.62l3.44,2.76a.4.4,0,0,0,.65-.31V18.62h9.11a.92.92,0,0,0,.93-.9l0-5.52Z"/>
</svg>
