<svg width="24" height="24" viewBox="0 0 24 24" fill="none" xmlns="http://www.w3.org/2000/svg">
<path d="M19 8C19 7.44772 19.4477 7 20 7C20.5523 7 21 7.44772 21 8C21 8.55228 20.5523 9 20 9C19.4477 9 19 8.55228 19 8Z" fill="black"/>
<path d="M19 12C19 11.4477 19.4477 11 20 11C20.5523 11 21 11.4477 21 12C21 12.5523 20.5523 13 20 13C19.4477 13 19 12.5523 19 12Z" fill="black"/>
<path d="M19 16C19 15.4477 19.4477 15 20 15C20.5523 15 21 15.4477 21 16C21 16.5523 20.5523 17 20 17C19.4477 17 19 16.5523 19 16Z" fill="black"/>
<path d="M15 20C15 19.4477 15.4477 19 16 19C16.5523 19 17 19.4477 17 20C17 20.5523 16.5523 21 16 21C15.4477 21 15 20.5523 15 20Z" fill="black"/>
<path d="M11 20C11 19.4477 11.4477 19 12 19C12.5523 19 13 19.4477 13 20C13 20.5523 12.5523 21 12 21C11.4477 21 11 20.5523 11 20Z" fill="black"/>
<path d="M7 20C7 19.4477 7.44772 19 8 19C8.55228 19 9 19.4477 9 20C9 20.5523 8.55228 21 8 21C7.44772 21 7 20.5523 7 20Z" fill="black"/>
<path d="M21 4.90556C21 5.13138 20.7893 5.29793 20.5679 5.25357C19.7378 5.08725 18.8791 5 18 5C10.8203 5 5 10.8203 5 18C5 18.8791 5.08725 19.7378 5.25357 20.5679C5.29793 20.7893 5.13138 21 4.90556 21H3.70876C3.47096 21 3.26516 20.8327 3.22424 20.5984C3.07685 19.7544 3 18.8862 3 18C3 9.71573 9.71573 3 18 3C18.8862 3 19.7544 3.07685 20.5984 3.22424C20.8327 3.26516 21 3.47096 21 3.70876V4.90556Z" fill="black"/>
<path d="M19 20C19 19.4477 19.4477 19 20 19C20.5523 19 21 19.4477 21 20C21 20.5523 20.5523 21 20 21C19.4477 21 19 20.5523 19 20Z" fill="black"/>
</svg>
