<svg width="20" height="14" viewBox="0 0 20 14" xmlns="http://www.w3.org/2000/svg" style="
height: 13.86px;
width: 18.39px;
">
    <path fill-rule="evenodd" clip-rule="evenodd" d="M3.2337 6.93C3.2337 7.5932 2.69607 8.13083 2.03286 8.13083C1.36966 8.13083 0.832031 7.5932 0.832031 6.93C0.832031 6.2668 1.36966 5.72917 2.03286 5.72917C2.69607 5.72917 3.2337 6.2668 3.2337 6.93ZM2.03286 0C1.36966 0 0.832031 0.537631 0.832031 1.20083C0.832031 1.86404 1.36966 2.40167 2.03286 2.40167C2.69607 2.40167 3.2337 1.86404 3.2337 1.20083C3.2337 0.537631 2.69607 0 2.03286 0ZM2.03286 11.4583C1.36966 11.4583 0.832031 11.996 0.832031 12.6592C0.832031 13.3224 1.36966 13.86 2.03286 13.86C2.69607 13.86 3.2337 13.3224 3.2337 12.6592C3.2337 11.996 2.69607 11.4583 2.03286 11.4583ZM5.47036 8.07583H19.2204V5.78417H5.47036V8.07583ZM5.47036 0.055V2.34667H19.2204V0.055H5.47036ZM5.47036 13.805H19.2204V11.5133H5.47036V13.805Z" />
</svg>