<svg id="icon" xmlns="http://www.w3.org/2000/svg" viewBox="0 0 24 24"><defs><style>.cls-1{fill:#abb0c4;}.cls-2{fill:#fff;}</style></defs><title>icon - tool - measurement - area - fill</title><path class="cls-1" d="M19.14,2H4.86A2.86,2.86,0,0,0,2,4.86V19.14A2.86,2.86,0,0,0,4.86,22H19.14A2.86,2.86,0,0,0,22,19.14V4.86A2.86,2.86,0,0,0,19.14,2ZM10.22,4H13L4,13V10.22ZM4,20V18.71L18.71,4H20V5.54L5.54,20Zm10.06,0H11.23L20,11.23v2.83Z"/><path class="cls-2" d="M10.22,4H13L4,13V10.22ZM4,20V18.71L18.71,4H20V5.54L5.54,20Zm10.06,0H11.23L20,11.23v2.83Z"/></svg>