<svg viewBox="-2 -2 21 20" width="19" height="18" xmlns="http://www.w3.org/2000/svg">
<path d="M18.4261 8.09498L1.42611 0.0949834C1.07611 -0.0680166 0.663114 -0.0170167 0.365114 0.227983C0.0661136 0.472983 -0.0628864 0.867984 0.0301136 1.24198L1.96911 8.99998L0.0301136 16.758C-0.0638864 17.132 0.0661136 17.528 0.365114 17.773C0.548114 17.923 0.772114 18 1.00011 18C1.14511 18 1.29011 17.969 1.42611 17.905L18.4261 9.90498C18.7761 9.73998 19.0001 9.38798 19.0001 8.99998C19.0001 8.61198 18.7761 8.25998 18.4261 8.09498ZM2.48111 15.197L3.32011 11.84L9.00011 8.99998L3.32011 6.15998L2.48111 2.80298L15.6511 8.99998L2.48111 15.197Z"/>
</svg>
