<svg id="icon" xmlns="http://www.w3.org/2000/svg" viewBox="0 0 24 24"><defs><style>.cls-1{fill:#abb0c4;}</style></defs><title>icon - tool - text - free text</title><g id="icons"><path class="cls-1" d="M19.39,4.77V7.64A.43.43,0,0,1,19,8h-.82a.41.41,0,0,1-.4-.41V6.51H13.34V18h1.54a.41.41,0,0,1,.41.41v.81a.41.41,0,0,1-.41.41H9.14a.41.41,0,0,1-.41-.41v-.81A.41.41,0,0,1,9.14,18h1.54V6.51H6.27V7.64A.41.41,0,0,1,5.86,8H5A.43.43,0,0,1,4.6,7.6V4.77A.41.41,0,0,1,5,4.36H19A.39.39,0,0,1,19.39,4.77Z"/></g></svg>