<svg xmlns="http://www.w3.org/2000/svg" viewBox="0 0 24 24">
    <defs>
        <style>.cls-1{fill:#abb0c4;}</style>
    </defs>
    <title>icon - tool - stamp - line</title>
    <path class="cls-1" d="M4,20.5H20V22H4Zm15.27-5H4.74a.76.76,0,0,0-.75.75V19H20V16.26A.76.76,0,0,0,19.26,15.51Z" />
    <path class="cls-1" d="M15.68,10.79a5,5,0,0,0,1.57-3.54,5.26,5.26,0,0,0-10.51,0,5.06,5.06,0,0,0,1.58,3.56,12.78,12.78,0,0,1,.82,1,7,7,0,0,1,.44,1.44H9v1.5h6v-1.5h-.58a6.08,6.08,0,0,1,.45-1.44A12.73,12.73,0,0,1,15.68,10.79Zm-1.4-1.15c-.27.32-.59.7-.9,1.13A6.91,6.91,0,0,0,12.63,13H11.37a6.52,6.52,0,0,0-.76-2.18c-.31-.45-.65-.83-.91-1.15A3.25,3.25,0,0,1,8.56,7.25a3.44,3.44,0,1,1,6.88,0A3.35,3.35,0,0,1,14.28,9.64Z" />
</svg>