<svg width="60" height="74" viewBox="0 0 60 74" fill="none" xmlns="http://www.w3.org/2000/svg">
<line x1="18" y1="11.3428" x2="52" y2="11.3428" stroke="#868E96" stroke-width="2"/>
<line x1="18" y1="60.7139" x2="52" y2="60.7139" stroke="#868E96" stroke-width="2"/>
<line x1="28" y1="23.6855" x2="52" y2="23.6855" stroke="#868E96" stroke-width="2"/>
<line x1="28" y1="36.0283" x2="52" y2="36.0283" stroke="#868E96" stroke-width="2"/>
<line x1="35" y1="48.3711" x2="52" y2="48.3711" stroke="#868E96" stroke-width="2"/>
<rect x="0.5" y="0.5" width="59" height="73" stroke="#ADB5BD" style="fill: none;"/>
<path d="M11.581 13.5306V14.1426H8.125V13.5306H9.5065V9.13408C9.5065 9.00208 9.511 8.86858 9.52 8.73358L8.3725 9.71908C8.3335 9.75208 8.2945 9.77308 8.2555 9.78208C8.2165 9.78808 8.1805 9.78808 8.1475 9.78208C8.1145 9.77608 8.083 9.76408 8.053 9.74608C8.026 9.72808 8.005 9.70858 7.99 9.68758L7.738 9.34108L9.6595 7.68058H10.312V13.5306H11.581ZM13.5212 11.3121C13.5212 10.6701 13.4387 10.0461 13.2737 9.44008C13.1117 8.83408 12.8732 8.25808 12.5582 7.71208C12.5342 7.66708 12.5192 7.62808 12.5132 7.59508C12.5072 7.55908 12.5087 7.52908 12.5177 7.50508C12.5267 7.47808 12.5402 7.45558 12.5582 7.43758C12.5792 7.41658 12.6017 7.39858 12.6257 7.38358L12.9812 7.16308C13.2062 7.51108 13.3967 7.85458 13.5527 8.19358C13.7117 8.53258 13.8392 8.87308 13.9352 9.21508C14.0342 9.55408 14.1062 9.89758 14.1512 10.2456C14.1962 10.5936 14.2187 10.9491 14.2187 11.3121C14.2187 11.6781 14.1962 12.0351 14.1512 12.3831C14.1062 12.7281 14.0342 13.0716 13.9352 13.4136C13.8392 13.7556 13.7117 14.0961 13.5527 14.4351C13.3967 14.7741 13.2062 15.1161 12.9812 15.4611L12.6257 15.2451C12.6017 15.2301 12.5792 15.2121 12.5582 15.1911C12.5402 15.1731 12.5267 15.1506 12.5177 15.1236C12.5087 15.0996 12.5072 15.0696 12.5132 15.0336C12.5192 14.9976 12.5342 14.9571 12.5582 14.9121C12.8732 14.3661 13.1117 13.7901 13.2737 13.1841C13.4387 12.5781 13.5212 11.9541 13.5212 11.3121Z" fill="#485056"/>
<path d="M20.105 23.405C19.736 23.417 19.421 23.447 19.16 23.495C18.902 23.54 18.6905 23.6 18.5255 23.675C18.3635 23.75 18.245 23.8385 18.17 23.9405C18.098 24.0425 18.062 24.1565 18.062 24.2825C18.062 24.4025 18.0815 24.506 18.1205 24.593C18.1595 24.68 18.212 24.752 18.278 24.809C18.347 24.863 18.4265 24.9035 18.5165 24.9305C18.6095 24.9545 18.7085 24.9665 18.8135 24.9665C18.9545 24.9665 19.0835 24.953 19.2005 24.926C19.3175 24.896 19.427 24.854 19.529 24.8C19.634 24.746 19.733 24.6815 19.826 24.6065C19.922 24.5315 20.015 24.446 20.105 24.35V23.405ZM17.5175 21.542C17.7695 21.299 18.041 21.1175 18.332 20.9975C18.623 20.8775 18.9455 20.8175 19.2995 20.8175C19.5545 20.8175 19.781 20.8595 19.979 20.9435C20.177 21.0275 20.3435 21.1445 20.4785 21.2945C20.6135 21.4445 20.7155 21.626 20.7845 21.839C20.8535 22.052 20.888 22.286 20.888 22.541V25.457H20.5325C20.4545 25.457 20.3945 25.445 20.3525 25.421C20.3105 25.394 20.2775 25.343 20.2535 25.268L20.1635 24.836C20.0435 24.947 19.9265 25.046 19.8125 25.133C19.6985 25.217 19.5785 25.289 19.4525 25.349C19.3265 25.406 19.1915 25.4495 19.0475 25.4795C18.9065 25.5125 18.749 25.529 18.575 25.529C18.398 25.529 18.2315 25.505 18.0755 25.457C17.9195 25.406 17.783 25.331 17.666 25.232C17.552 25.133 17.4605 25.0085 17.3915 24.8585C17.3255 24.7055 17.2925 24.5255 17.2925 24.3185C17.2925 24.1385 17.342 23.966 17.441 23.801C17.54 23.633 17.7005 23.4845 17.9225 23.3555C18.1445 23.2265 18.434 23.1215 18.791 23.0405C19.148 22.9565 19.586 22.9085 20.105 22.8965V22.541C20.105 22.187 20.0285 21.92 19.8755 21.74C19.7225 21.557 19.499 21.4655 19.205 21.4655C19.007 21.4655 18.8405 21.491 18.7055 21.542C18.5735 21.59 18.458 21.6455 18.359 21.7085C18.263 21.7685 18.179 21.824 18.107 21.875C18.038 21.923 17.969 21.947 17.9 21.947C17.846 21.947 17.7995 21.9335 17.7605 21.9065C17.7215 21.8765 17.6885 21.8405 17.6615 21.7985L17.5175 21.542ZM22.6159 22.6265C22.6159 21.9845 22.5334 21.3605 22.3684 20.7545C22.2064 20.1485 21.9679 19.5725 21.6529 19.0265C21.6289 18.9815 21.6139 18.9425 21.6079 18.9095C21.6019 18.8735 21.6034 18.8435 21.6124 18.8195C21.6214 18.7925 21.6349 18.77 21.6529 18.752C21.6739 18.731 21.6964 18.713 21.7204 18.698L22.0759 18.4775C22.3009 18.8255 22.4914 19.169 22.6474 19.508C22.8064 19.847 22.9339 20.1875 23.0299 20.5295C23.1289 20.8685 23.2009 21.212 23.2459 21.56C23.2909 21.908 23.3134 22.2635 23.3134 22.6265C23.3134 22.9925 23.2909 23.3495 23.2459 23.6975C23.2009 24.0425 23.1289 24.386 23.0299 24.728C22.9339 25.07 22.8064 25.4105 22.6474 25.7495C22.4914 26.0885 22.3009 26.4305 22.0759 26.7755L21.7204 26.5595C21.6964 26.5445 21.6739 26.5265 21.6529 26.5055C21.6349 26.4875 21.6214 26.465 21.6124 26.438C21.6034 26.414 21.6019 26.384 21.6079 26.348C21.6139 26.312 21.6289 26.2715 21.6529 26.2265C21.9679 25.6805 22.2064 25.1045 22.3684 24.4985C22.5334 23.8925 22.6159 23.2685 22.6159 22.6265Z" fill="#485056"/>
<path d="M18.44 37.7301C18.587 37.9281 18.7475 38.0676 18.9215 38.1486C19.0985 38.2296 19.292 38.2701 19.502 38.2701C19.931 38.2701 20.2595 38.1186 20.4875 37.8156C20.7155 37.5126 20.8295 37.0611 20.8295 36.4611C20.8295 35.9031 20.7275 35.4936 20.5235 35.2326C20.3225 34.9686 20.0345 34.8366 19.6595 34.8366C19.3985 34.8366 19.1705 34.8966 18.9755 35.0166C18.7835 35.1366 18.605 35.3061 18.44 35.5251V37.7301ZM18.44 34.9266C18.632 34.7046 18.848 34.5276 19.088 34.3956C19.331 34.2636 19.61 34.1976 19.925 34.1976C20.192 34.1976 20.432 34.2486 20.645 34.3506C20.861 34.4526 21.044 34.6011 21.194 34.7961C21.344 34.9881 21.458 35.2221 21.536 35.4981C21.617 35.7741 21.6575 36.0846 21.6575 36.4296C21.6575 36.7986 21.6125 37.1346 21.5225 37.4376C21.4325 37.7406 21.302 38.0001 21.131 38.2161C20.963 38.4291 20.7575 38.5956 20.5145 38.7156C20.2715 38.8326 19.9985 38.8911 19.6955 38.8911C19.3955 38.8911 19.142 38.8356 18.935 38.7246C18.731 38.6106 18.5525 38.4501 18.3995 38.2431L18.359 38.6571C18.335 38.7711 18.266 38.8281 18.152 38.8281H17.6345V32.1996H18.44V34.9266ZM23.073 35.9976C23.073 35.3556 22.9905 34.7316 22.8255 34.1256C22.6635 33.5196 22.425 32.9436 22.11 32.3976C22.086 32.3526 22.071 32.3136 22.065 32.2806C22.059 32.2446 22.0605 32.2146 22.0695 32.1906C22.0785 32.1636 22.092 32.1411 22.11 32.1231C22.131 32.1021 22.1535 32.0841 22.1775 32.0691L22.533 31.8486C22.758 32.1966 22.9485 32.5401 23.1045 32.8791C23.2635 33.2181 23.391 33.5586 23.487 33.9006C23.586 34.2396 23.658 34.5831 23.703 34.9311C23.748 35.2791 23.7705 35.6346 23.7705 35.9976C23.7705 36.3636 23.748 36.7206 23.703 37.0686C23.658 37.4136 23.586 37.7571 23.487 38.0991C23.391 38.4411 23.2635 38.7816 23.1045 39.1206C22.9485 39.4596 22.758 39.8016 22.533 40.1466L22.1775 39.9306C22.1535 39.9156 22.131 39.8976 22.11 39.8766C22.092 39.8586 22.0785 39.8361 22.0695 39.8091C22.0605 39.7851 22.059 39.7551 22.065 39.7191C22.071 39.6831 22.086 39.6426 22.11 39.5976C22.425 39.0516 22.6635 38.4756 22.8255 37.8696C22.9905 37.2636 23.073 36.6396 23.073 35.9976Z" fill="#485056"/>
<path d="M29.4805 46.6134V51.1719H28.6795V46.6134H29.4805ZM29.6515 45.1824C29.6515 45.2604 29.635 45.3339 29.602 45.4029C29.572 45.4689 29.53 45.5289 29.476 45.5829C29.425 45.6339 29.3635 45.6744 29.2915 45.7044C29.2225 45.7344 29.149 45.7494 29.071 45.7494C28.993 45.7494 28.9195 45.7344 28.8505 45.7044C28.7845 45.6744 28.726 45.6339 28.675 45.5829C28.624 45.5289 28.5835 45.4689 28.5535 45.4029C28.5235 45.3339 28.5085 45.2604 28.5085 45.1824C28.5085 45.1044 28.5235 45.0309 28.5535 44.9619C28.5835 44.8899 28.624 44.8284 28.675 44.7774C28.726 44.7234 28.7845 44.6814 28.8505 44.6514C28.9195 44.6214 28.993 44.6064 29.071 44.6064C29.149 44.6064 29.2225 44.6214 29.2915 44.6514C29.3635 44.6814 29.425 44.7234 29.476 44.7774C29.53 44.8284 29.572 44.8899 29.602 44.9619C29.635 45.0309 29.6515 45.1044 29.6515 45.1824ZM31.4626 48.3414C31.4626 47.6994 31.3801 47.0754 31.2151 46.4694C31.0531 45.8634 30.8146 45.2874 30.4996 44.7414C30.4756 44.6964 30.4606 44.6574 30.4546 44.6244C30.4486 44.5884 30.4501 44.5584 30.4591 44.5344C30.4681 44.5074 30.4816 44.4849 30.4996 44.4669C30.5206 44.4459 30.5431 44.4279 30.5671 44.4129L30.9226 44.1924C31.1476 44.5404 31.3381 44.8839 31.4941 45.2229C31.6531 45.5619 31.7806 45.9024 31.8766 46.2444C31.9756 46.5834 32.0476 46.9269 32.0926 47.2749C32.1376 47.6229 32.1601 47.9784 32.1601 48.3414C32.1601 48.7074 32.1376 49.0644 32.0926 49.4124C32.0476 49.7574 31.9756 50.1009 31.8766 50.4429C31.7806 50.7849 31.6531 51.1254 31.4941 51.4644C31.3381 51.8034 31.1476 52.1454 30.9226 52.4904L30.5671 52.2744C30.5431 52.2594 30.5206 52.2414 30.4996 52.2204C30.4816 52.2024 30.4681 52.1799 30.4591 52.1529C30.4501 52.1289 30.4486 52.0989 30.4546 52.0629C30.4606 52.0269 30.4756 51.9864 30.4996 51.9414C30.8146 51.3954 31.0531 50.8194 31.2151 50.2134C31.3801 49.6074 31.4626 48.9834 31.4626 48.3414Z" fill="#485056"/>
<path d="M11.4415 62.7541C11.5285 62.7541 11.5975 62.7796 11.6485 62.8306C11.6995 62.8816 11.725 62.9476 11.725 63.0286V63.5146H7.423V63.2401C7.423 63.1831 7.435 63.1246 7.459 63.0646C7.483 63.0046 7.5205 62.9491 7.5715 62.8981L9.637 60.8236C9.808 60.6496 9.964 60.4831 10.105 60.3241C10.246 60.1621 10.366 60.0001 10.465 59.8381C10.564 59.6761 10.6405 59.5126 10.6945 59.3476C10.7485 59.1796 10.7755 59.0011 10.7755 58.8121C10.7755 58.6231 10.7455 58.4581 10.6855 58.3171C10.6255 58.1731 10.543 58.0546 10.438 57.9616C10.336 57.8686 10.2145 57.7996 10.0735 57.7546C9.9325 57.7066 9.781 57.6826 9.619 57.6826C9.454 57.6826 9.3025 57.7066 9.1645 57.7546C9.0265 57.8026 8.9035 57.8701 8.7955 57.9571C8.6905 58.0411 8.602 58.1416 8.53 58.2586C8.458 58.3756 8.407 58.5046 8.377 58.6456C8.341 58.7506 8.2915 58.8211 8.2285 58.8571C8.1685 58.8901 8.083 58.8991 7.972 58.8841L7.5535 58.8121C7.5955 58.5181 7.6765 58.2586 7.7965 58.0336C7.9195 57.8056 8.0725 57.6151 8.2555 57.4621C8.4415 57.3091 8.653 57.1936 8.89 57.1156C9.127 57.0346 9.3835 56.9941 9.6595 56.9941C9.9325 56.9941 10.1875 57.0346 10.4245 57.1156C10.6615 57.1966 10.867 57.3151 11.041 57.4711C11.215 57.6241 11.3515 57.8116 11.4505 58.0336C11.5495 58.2556 11.599 58.5076 11.599 58.7896C11.599 59.0296 11.563 59.2531 11.491 59.4601C11.419 59.6641 11.3215 59.8591 11.1985 60.0451C11.0755 60.2311 10.933 60.4126 10.771 60.5896C10.612 60.7666 10.4425 60.9451 10.2625 61.1251L8.5615 62.8621C8.6815 62.8291 8.803 62.8036 8.926 62.7856C9.049 62.7646 9.1675 62.7541 9.2815 62.7541H11.4415ZM13.5212 60.6841C13.5212 60.0421 13.4387 59.4181 13.2737 58.8121C13.1117 58.2061 12.8732 57.6301 12.5582 57.0841C12.5342 57.0391 12.5192 57.0001 12.5132 56.9671C12.5072 56.9311 12.5087 56.9011 12.5177 56.8771C12.5267 56.8501 12.5402 56.8276 12.5582 56.8096C12.5792 56.7886 12.6017 56.7706 12.6257 56.7556L12.9812 56.5351C13.2062 56.8831 13.3967 57.2266 13.5527 57.5656C13.7117 57.9046 13.8392 58.2451 13.9352 58.5871C14.0342 58.9261 14.1062 59.2696 14.1512 59.6176C14.1962 59.9656 14.2187 60.3211 14.2187 60.6841C14.2187 61.0501 14.1962 61.4071 14.1512 61.7551C14.1062 62.1001 14.0342 62.4436 13.9352 62.7856C13.8392 63.1276 13.7117 63.4681 13.5527 63.8071C13.3967 64.1461 13.2062 64.4881 12.9812 64.8331L12.6257 64.6171C12.6017 64.6021 12.5792 64.5841 12.5582 64.5631C12.5402 64.5451 12.5267 64.5226 12.5177 64.4956C12.5087 64.4716 12.5072 64.4416 12.5132 64.4056C12.5192 64.3696 12.5342 64.3291 12.5582 64.2841C12.8732 63.7381 13.1117 63.1621 13.2737 62.5561C13.4387 61.9501 13.5212 61.3261 13.5212 60.6841Z" fill="#485056"/>
</svg>
