<?xml version="1.0" encoding="utf-8"?>
<!-- Generator: Adobe Illustrator 24.0.0, SVG Export Plug-In . SVG Version: 6.00 Build 0)  -->
<svg version="1.1" id="icons" xmlns="http://www.w3.org/2000/svg" xmlns:xlink="http://www.w3.org/1999/xlink" x="0px" y="0px"
	 viewBox="0 0 24 24" style="enable-background:new 0 0 24 24;" xml:space="preserve">
<style type="text/css">
	.st0{fill:#8C8C8C;}
</style>
<title>icon - line - tool - redo</title>
<path class="st0" d="M8.6,19.9h2.9c0.3,0,0.6-0.3,0.6-0.6l0,0V18c0-0.3-0.3-0.6-0.6-0.6h0h-3c-1.8,0-3.4-1.2-3.8-3
	c-0.4-2,0.9-4,2.9-4.5c0.3-0.1,0.5-0.1,0.8-0.1h7.5v2.9c0,0.2,0.2,0.4,0.4,0.4c0.1,0,0.2,0,0.3-0.1l5.2-4.2c0.2-0.1,0.2-0.4,0.1-0.6
	c0,0,0,0-0.1-0.1l-5.3-4.1c-0.2-0.1-0.4-0.1-0.6,0.1c-0.1,0.1-0.1,0.2-0.1,0.3v2.9H8.4c-3.5,0-6.3,2.8-6.3,6.3c0,0.3,0,0.5,0.1,0.8
	C2.6,17.6,5.4,20,8.6,19.9z"/>
</svg>
