<?xml version="1.0" encoding="UTF-8"?>
<svg width="24" height="24" viewBox="0 0 24 24" fill="none" xmlns="http://www.w3.org/2000/svg">
<title>icon / tool / form / checkmark / line</title>
<g id="ic-checked-box">
<path id="shape" d="M16.7686 9.64062L11.0674 16.4814L7.29297 12.707L8.70703 11.293L10.9316 13.5176L15.2314 8.35938L16.7686 9.64062Z" fill="default"/>
<path id="fill" d="M19 19V21H5V19H19ZM19 5H5V21L4.7959 20.9893C3.85435 20.8938 3.1062 20.1457 3.01074 19.2041L3 19V5C3 3.96435 3.78722 3.113 4.7959 3.01074L5 3H19L19.2041 3.01074C20.2128 3.113 21 3.96435 21 5V19L20.9893 19.2041C20.8938 20.1457 20.1457 20.8938 19.2041 20.9893L19 21V5Z"/>
</g>
</svg>
