<?xml version="1.0" encoding="UTF-8"?>
<svg width="24px" height="24px" viewBox="0 0 24 24" version="1.1" xmlns="http://www.w3.org/2000/svg" xmlns:xlink="http://www.w3.org/1999/xlink">
    <title>icon / tool / form / checkmark / line</title>
    <g id="Form-Builder" stroke="none" stroke-width="1" fill="none" fill-rule="evenodd">
        <g id="Default-" transform="translate(-585.000000, -46.000000)" fill="#868E96">
            <g id="Group-5" transform="translate(450.000000, 38.000000)">
                <g id="Group-4" transform="translate(0.000000, 7.000000)">
                    <g id="icon-/-tool-/-form-/-checkmark-/-line" transform="translate(135.000000, 1.000000)">
                        <path d="M19.19,3 L4.8,3 C3.80588745,3 3,3.80588745 3,4.8 L3,19.2 C3,20.1941125 3.80588745,21 4.8,21 L19.19,21 C20.1818401,20.9945352 20.9845352,20.1918401 20.99,19.2 L20.99,4.8 C20.9845352,3.80815987 20.1818401,3.00546481 19.19,3 Z M4.8,19.2 L4.8,4.8 L19.19,4.8 L19.19,19.2 L4.8,19.2 Z" id="box"></path>
                        <polygon id="checkmark" points="11.01 12.99 9 10.99 7.73 12.26 11.13 15.66 16.26 9.5 14.88 8.35"></polygon>
                    </g>
                </g>
            </g>
        </g>
    </g>
</svg>