<svg width="20" height="20" viewBox="-1 -1 20 20" fill="none" xmlns="http://www.w3.org/2000/svg">
<path fill-rule="evenodd" clip-rule="evenodd" d="M16 2H2L2 16H16V2ZM2 0C0.895431 0 0 0.89543 0 2V16C0 17.1046 0.89543 18 2 18H16C17.1046 18 18 17.1046 18 16V2C18 0.895431 17.1046 0 16 0H2Z"/>
<path d="M12 1H13.5V17H12V1Z"/>
<path d="M4 4H10V5.75H4V4Z"/>
<path d="M4 7.5H10V9.25H4V7.5Z"/>
<path fill-rule="evenodd" clip-rule="evenodd" d="M6.29815 13.6088L7.53553 14.8462L8.5962 13.7855L7.35881 12.5482L8.59619 11.3108L7.53553 10.2501L6.29815 11.4875L5.06066 10.25L4 11.3107L5.23749 12.5482L4 13.7856L5.06066 14.8463L6.29815 13.6088Z"/>
</svg>