<svg width="24" height="24" viewBox="0 0 24 24" fill="none" xmlns="http://www.w3.org/2000/svg">
<path fill-rule="evenodd" clip-rule="evenodd" d="M20.4996 3.8265C20.9452 3.82617 21.1686 4.36495 20.8535 4.68006L13.5337 11.9999L20.8497 19.3161C21.1648 19.6312 20.9414 20.17 20.4958 20.1697L18.9935 20.1685C18.4636 20.1681 17.9555 19.9574 17.5808 19.5827L11.7659 13.7677L9.57829 15.9554C10.2963 17.2819 10.0948 18.9744 8.97367 20.0956C7.60683 21.4624 5.39074 21.4624 4.02391 20.0956C2.65707 18.7287 2.65707 16.5126 4.02391 15.1458C5.01117 14.1585 6.44151 13.8844 7.67484 14.3233L9.9982 11.9999L7.67481 9.67646C6.44147 10.1154 5.01115 9.84122 4.02389 8.85396C2.65705 7.48713 2.65705 5.27105 4.02389 3.90422C5.39073 2.53738 7.6068 2.53738 8.97363 3.90422C10.0948 5.02534 10.2963 6.71782 9.57825 8.04437L11.766 10.2321L17.5846 4.41342C17.9593 4.03872 18.4674 3.82803 18.9973 3.82763L20.4996 3.8265ZM5.43813 16.56C4.85234 17.1458 4.85234 18.0955 5.43813 18.6813C6.02392 19.2671 6.97367 19.2671 7.55945 18.6813C8.14524 18.0955 8.14524 17.1458 7.55945 16.56C6.97367 15.9742 6.02392 15.9742 5.43813 16.56ZM5.4381 7.43975C4.85231 6.85396 4.85231 5.90422 5.4381 5.31843C6.02389 4.73264 6.97363 4.73264 7.55942 5.31843C8.14521 5.90422 8.14521 6.85396 7.55942 7.43975C6.97363 8.02554 6.02389 8.02554 5.4381 7.43975ZM11 12.0059C11 12.4201 11.3358 12.7559 11.75 12.7559C12.1642 12.7559 12.5 12.4201 12.5 12.0059C12.5 11.5917 12.1642 11.2559 11.75 11.2559C11.3358 11.2559 11 11.5917 11 12.0059Z" fill="black"/>
</svg>
