<?xml version="1.0" encoding="UTF-8"?>
<svg width="20px" height="19px" viewBox="0 0 20 19" version="1.1" xmlns="http://www.w3.org/2000/svg" xmlns:xlink="http://www.w3.org/1999/xlink">
    <!-- Generator: Sketch 63.1 (92452) - https://sketch.com -->
    <title>icon / rejected / fill</title>
    <desc>Created with Sketch.</desc>
    <g stroke="none" stroke-width="1" fill="none" fill-rule="evenodd">
        <g transform="translate(-89.000000, -179.000000)" fill="#BA0000">
            <g transform="translate(87.000000, 176.000000)">
                <path d="M20,3 L17,3 L6.693,3 C5.864,3 5.112,3.521 4.82,4.298 L2.063,11.649 C2.021,11.761 2,11.88 2,12 L2,14 C2,15.103 2.897,16 4,16 L9.612,16 L8.49,19.367 C8.287,19.975 8.389,20.649 8.764,21.169 C9.14,21.689 9.746,22 10.388,22 L12,22 C12.297,22 12.578,21.868 12.769,21.64 L17.469,16 L20,16 C21.103,16 22,15.103 22,14 L22,5 C22,3.897 21.103,3 20,3 Z M11.531,20 L10.386,20 L11.948,15.316 C12.051,15.011 11.999,14.676 11.811,14.415 C11.623,14.154 11.321,14 11,14 L4,14 L4,12.181 L6.693,5 L16,5 L16,14.638 L11.531,20 Z M18,14 L18,5 L20,5 L20.001,14 L18,14 Z"></path>
            </g>
        </g>
    </g>
</svg>