<svg id="icon" xmlns="http://www.w3.org/2000/svg" viewBox="0 0 24 24"><defs><style>.cls-1{fill:#abb0c4;}</style></defs><title>icon - header - page manipulation - page layout - cover - fill</title><path class="cls-1" d="M3.13,8.68H2V7.5A1.12,1.12,0,0,1,3.13,6.38H4.31V7.5H3.13Zm0,1.19H2v1.54H3.13Zm0,2.72H2v1.54H3.13Zm0,2.72H2V16.5a1.12,1.12,0,0,0,1.13,1.12H4.31V16.5H3.13Zm4.2-7,1-1-.83-.83a.57.57,0,0,0-.16-.11l-.06,0-.14,0H5.49V7.5h1Zm3.1,1.18-1.3-1.3-1,1,1.3,1.3Zm-.55,4.62H11V10.61L9.88,11.74ZM5.49,17.62h2V16.5h-2ZM9.88,16.5H8.69v1.12H9.88A1.12,1.12,0,0,0,11,16.5V15.32H9.88ZM22,9.75V16.5a1.12,1.12,0,0,1-1.13,1.12H14.12A1.12,1.12,0,0,1,13,16.5v-9a1.12,1.12,0,0,1,1.12-1.12h4.51Zm-1.13.56L18.06,7.5v2.81h2.81Z"/></svg>