<svg width="24" height="24" viewBox="0 0 24 24" fill="none" xmlns="http://www.w3.org/2000/svg">
<g id="ic-numbered-list">
<g id="shape">
<path d="M3.9566 4.19617V7.80391H3.18854V5.186L2.58815 5.79721L2.15002 5.33745L3.2859 4.19617H3.9566Z" fill="black"/>
<path d="M21 5.5H7V7.5H21V5.5Z" fill="black"/>
<path d="M21 11H7V13H21V11Z" fill="black"/>
<path d="M7 16.5H21V18.5H7V16.5Z" fill="black"/>
<path d="M4.79641 13.8309V13.1548H3.32518C4.26093 12.4733 4.76936 11.9378 4.76936 11.3212C4.76936 10.6018 4.15816 10.1691 3.39009 10.1691C2.88706 10.1691 2.35158 10.353 2 10.7586L2.43812 11.2671C2.68152 11.0129 2.99524 10.8506 3.40632 10.8506C3.70381 10.8506 3.99048 11.0074 3.99048 11.3212C3.99048 11.7647 3.55777 12.1379 2.08113 13.2305V13.8309H4.79641Z" fill="black"/>
<path d="M4.84509 18.8032C4.84509 19.4252 4.28797 19.8633 3.42254 19.8633C2.75725 19.8633 2.26504 19.6091 2 19.2846L2.40026 18.7707C2.64907 19.0304 3.04392 19.1818 3.3955 19.1818C3.83362 19.1818 4.07702 18.9925 4.07702 18.7221C4.07702 18.4354 3.85526 18.3056 3.35223 18.3056C3.20078 18.3056 2.95738 18.311 2.90329 18.3164V17.624C2.9682 17.6295 3.21701 17.6295 3.35223 17.6295C3.75249 17.6295 4.01752 17.5105 4.01752 17.2454C4.01752 16.9588 3.72544 16.8181 3.34682 16.8181C3.00065 16.8181 2.68693 16.9479 2.43271 17.1913L2.04868 16.7099C2.34076 16.38 2.79511 16.1366 3.42795 16.1366C4.27174 16.1366 4.791 16.5152 4.791 17.1156C4.791 17.57 4.40156 17.8674 4.0013 17.9378C4.3691 17.9756 4.84509 18.2623 4.84509 18.8032Z" fill="black"/>
</g>
</g>
</svg>