<svg id="icons" xmlns="http://www.w3.org/2000/svg" viewBox="0 0 24 24"><defs><style>.cls-1{fill:#8c8c8c;}</style></defs><title>icon - line - header - page manipulation - page layout - cover page</title><path class="cls-1" d="M3.13,14.13H2V12.59H3.13Zm0,1.18H2V16.5a1.12,1.12,0,0,0,1.13,1.12H4.31V16.5H3.13Zm0-5.44H2v1.54H3.13Zm0-2.37H4.31V6.38H3.13A1.12,1.12,0,0,0,2,7.5V8.68H3.13Zm4.2.83,1-1-.83-.83a.57.57,0,0,0-.16-.11l-.06,0-.14,0H5.49V7.5h1ZM9.88,16.5H8.69v1.12H9.88A1.12,1.12,0,0,0,11,16.5V15.32H9.88ZM5.49,17.62h2V16.5h-2Zm4.39-3.49H11V10.61L9.88,11.74Zm.55-4.62-1.3-1.3-1,1,1.3,1.3Zm11.57.8V16.5a1.12,1.12,0,0,1-1.13,1.12H14.12A1.12,1.12,0,0,1,13,16.5v-9a1.12,1.12,0,0,1,1.12-1.12h4l.14,0,.06,0a.57.57,0,0,1,.16.11l3.38,3.37a1,1,0,0,1,.11.17s0,0,0,.05a.4.4,0,0,1,0,.15ZM20.88,16.5V10.88H18.06a.57.57,0,0,1-.56-.57V7.5H14.12v9Z"/></svg>