<svg xmlns="http://www.w3.org/2000/svg" viewBox="0 0 24 24"><defs><style>.cls-1{fill:#abb0c4;fill-rule:evenodd;}</style></defs><title>icon - tool - pen and shape - phone</title><path class="cls-1" d="M16,13a4.09,4.09,0,1,0,4.08,4.08A4.09,4.09,0,0,0,16,13Zm0,6.37a2.29,2.29,0,1,1,2.28-2.29A2.29,2.29,0,0,1,16,19.35ZM18.57,2.86H13.49A1.69,1.69,0,0,0,11.8,4.54V10.1a1.69,1.69,0,0,0,1.69,1.68h5.08a1.68,1.68,0,0,0,1.68-1.68V4.54A1.68,1.68,0,0,0,18.57,2.86ZM18.45,10H13.6V4.66h4.85ZM8,2.85H5.78a2.19,2.19,0,0,0-1.43.6,2,2,0,0,0-.6,1.43V16.64a.72.72,0,0,0,.12.48s2.21,3.42,2.38,3.58a.9.9,0,0,0,.57.39c.25,0,.39-.05.6-.37l2.52-3.6c.12-.12.12-.24.12-.48V4.88A2.1,2.1,0,0,0,8,2.85Zm.23,12.89H5.56V9.24H8.25Zm0-8.29H5.56V4.69H8.25Z"/></svg>