<svg id="icon" xmlns="http://www.w3.org/2000/svg" viewBox="0 0 24 24"><defs><style>.cls-1{fill:#abb0c4;}</style></defs><title>icon - tool - free highlight - line</title><path class="cls-1" d="M19,17.59a18,18,0,0,1,.76,3.31A6.14,6.14,0,0,0,16.28,19a7.74,7.74,0,0,0-3.54.35,37.3,37.3,0,0,0-4.07,1.72,7,7,0,0,1-4.09.9,1.82,1.82,0,0,1-1.06-.74,2,2,0,0,1-.22-.46,1.14,1.14,0,0,0-.09-.3,2.38,2.38,0,0,1,.11-1.6A2.29,2.29,0,0,1,3.88,18l.38,1.93a.27.27,0,0,0-.22.24c0,.29,1.19.13,2.15-.23a12.88,12.88,0,0,0,2-1,20.85,20.85,0,0,1,4.43-2.15,8.52,8.52,0,0,1,3.88-.36,4.88,4.88,0,0,1,1.72.66C18.41,17.18,19,17.59,19,17.59Z"/><path class="cls-1" d="M20.69,6.29l-.05,0L16.69,2.3a.94.94,0,0,0-1.33,0,.08.08,0,0,0,0,0L7.45,10.11a.8.8,0,0,0-.29.49L6.07,15.39l-1.9,2.39H7.23l1.21-1.21,3.84-.86a.8.8,0,0,0,.5-.3l7.86-7.79A1,1,0,0,0,20.69,6.29ZM11.9,13.52,9.32,10.94,16.1,4.27l2.58,2.58Z"/></svg>