<?xml version="1.0" encoding="UTF-8"?>
<svg width="24px" height="24px" viewBox="0 0 24 24" version="1.1" xmlns="http://www.w3.org/2000/svg" xmlns:xlink="http://www.w3.org/1999/xlink">
    <title>icon / page manipulation / reflow / reader</title>
    <g id="Page-1" stroke="none" stroke-width="1" fill="none" fill-rule="evenodd">
        <g id="D---view" transform="translate(-75.000000, -147.000000)" fill="#868E96">
            <g id="Group-Copy" transform="translate(63.000000, 37.000000)">
                <g id="page-transitions" transform="translate(0.000000, 10.000000)">
                    <g id="page-by-page-copy" transform="translate(0.000000, 96.000000)">
                        <g id="icon-/-page-manipulation-/-reflow-/-reader" transform="translate(12.000000, 4.000000)">
                            <path d="M17.33,3 L5.67,3 C4.74768447,3 4,3.74768447 4,4.67 L4,19.67 C4,20.5923155 4.74768447,21.34 5.67,21.34 L17.33,21.34 C18.2523155,21.34 19,20.5923155 19,19.67 L19,4.67 C19,3.74768447 18.2523155,3 17.33,3 Z M5.67,19.67 L5.67,4.67 L17.33,4.67 L17.33,19.67 L5.67,19.67 Z" id="page"></path>
                            <path d="M13.66,15 L13.66,16.8 L7.33,16.8 L7.33,15 L13.66,15 Z M15.67,10.83 L15.67,12.63 L7.34,12.63 L7.34,10.83 L15.67,10.83 Z M15.67,6.78 L15.67,8.58 L7.34,8.58 L7.34,6.78 L15.67,6.78 Z" id="text-2"></path>
                        </g>
                    </g>
                </g>
            </g>
        </g>
    </g>
</svg>