<svg width="19" height="18" viewBox="0 0 19 18" fill="none" xmlns="http://www.w3.org/2000/svg">
<g clip-path="url(#clip0_214_44)">
<path d="M18.4335 9.08548L3.1335 1.88549C2.8185 1.73879 2.4468 1.78469 2.1786 2.00518C1.9095 2.22568 1.7934 2.58119 1.8771 2.91778L3.6222 9.89998L1.8771 16.8822C1.7925 17.2188 1.9095 17.5752 2.1786 17.7957C2.3433 17.9307 2.5449 18 2.7501 18C2.8806 18 3.0111 17.9721 3.1335 17.9145L18.4335 10.7145C18.7485 10.566 18.9501 10.2492 18.9501 9.89998C18.9501 9.55078 18.7485 9.23398 18.4335 9.08548ZM4.083 15.4773L4.8381 12.456L9.9501 9.89998L4.8381 7.34398L4.083 4.32268L15.936 9.89998L4.083 15.4773Z" fill="#757575"/>
</g>
<defs>
<clipPath id="clip0_214_44">
<rect width="19" height="18" fill="white"/>
</clipPath>
</defs>
</svg>
