<svg width="24" height="24" viewBox="0 0 24 24" fill="none" xmlns="http://www.w3.org/2000/svg">
<path d="M13 7H7V8.75H13V7Z" fill="black"/>
<path d="M7 10.5H13V12.25H7V10.5Z" fill="black"/>
<path d="M10.5355 17.8462L9.29815 16.6088L8.06066 17.8463L7 16.7856L8.23749 15.5482L7 14.3107L8.06066 13.25L9.29815 14.4875L10.5355 13.2501L11.5962 14.3108L10.3588 15.5482L11.5962 16.7855L10.5355 17.8462Z" fill="black"/>
<path fill-rule="evenodd" clip-rule="evenodd" d="M5 3C3.89543 3 3 3.89543 3 5V19C3 20.1046 3.89543 21 5 21H19C20.1046 21 21 20.1046 21 19V5C21 3.89543 20.1046 3 19 3H5ZM19 5H16.5V19H19V5ZM5 5H15V19H5L5 5Z" fill="black"/>
</svg>
