<svg width="60" height="60" viewBox="0 0 60 60" fill="none" xmlns="http://www.w3.org/2000/svg">
<path d="M49.7575 21.465C49.635 21.2 49.4825 20.9475 49.2675 20.7325L34.2675 5.7325C34.0525 5.5175 33.8 5.365 33.535 5.2425C33.46 5.2075 33.38 5.1875 33.3 5.16C33.09 5.09 32.875 5.045 32.6525 5.0325C32.6 5.0275 32.5525 5 32.5 5H15C12.2425 5 10 7.2425 10 10V50C10 52.7575 12.2425 55 15 55H45C47.7575 55 50 52.7575 50 50V22.5C50 22.4475 49.9725 22.4 49.9675 22.345C49.955 22.1225 49.9125 21.9075 49.84 21.6975C49.815 21.6175 49.7925 21.54 49.7575 21.465ZM41.465 20H35V13.535L41.465 20ZM15 50V10H30V22.5C30 23.8825 31.1175 25 32.5 25H45L45.005 50H15Z" fill="#818A92"/>
<path d="M20 30H40V35H20V30ZM20 40H40V45H20V40ZM20 20H25V25H20V20Z" fill="#818A92"/>
</svg>
