<svg data-name="Layer 1" xmlns="http://www.w3.org/2000/svg" viewBox="0 0 64 64"><defs><style>.cls-1{fill:#dfe2ed;}</style></defs><title>Artboard 1</title><path class="cls-1" d="M50,4.5H14A3.5,3.5,0,0,0,10.5,8V56A3.5,3.5,0,0,0,14,59.5H50A3.5,3.5,0,0,0,53.5,56V8A3.5,3.5,0,0,0,50,4.5ZM50.5,56a.5.5,0,0,1-.5.5H14a.5.5,0,0,1-.5-.5V8a.5.5,0,0,1,.5-.5H50a.5.5,0,0,1,.5.5Z"/><circle class="cls-1" cx="20.5" cy="32" r="2.5"/><circle class="cls-1" cx="20.5" cy="44.3" r="2.5"/><circle class="cls-1" cx="20.5" cy="19.7" r="2.5"/><rect class="cls-1" x="25.98" y="30.26" width="20.02" height="3.49"/><rect class="cls-1" x="25.98" y="42.55" width="20.02" height="3.49"/><polygon class="cls-1" points="25.98 17.96 25.98 21.45 46 21.45 46 17.96 44 17.96 25.98 17.96"/></svg>