<?xml version="1.0" encoding="UTF-8"?>
<svg width="24px" height="24px" viewBox="0 0 24 24" version="1.1" xmlns="http://www.w3.org/2000/svg" xmlns:xlink="http://www.w3.org/1999/xlink">
    <title>icon / operation / multi select</title>
    <g stroke="none" stroke-width="1" fill="none" fill-rule="evenodd">
        <g fill="#868E96">
            <g>
                <path d="M18.17,13.39 L16.28,13.39 L16.28,16.22 L13.44,16.22 L13.44,18.11 L16.28,18.11 L16.28,21 L18.17,21 L18.17,18.11 L21,18.11 L21,16.22 L18.17,16.22 L18.17,13.39 Z M4,18.11 L6.83,18.11 L6.83,16.22 L4.94,16.22 L4.94,14.34 L3.05,14.34 L3.05,17.17 C3.05,17.4210458 3.15039276,17.6616665 3.32884571,17.838241 C3.50729865,18.0148155 3.74896838,18.1126707 4,18.11 Z M18.17,3.94 C18.1382202,3.41127612 17.6996773,2.99904577 17.17,2.99999835 L14.39,2.99999835 L14.39,4.89 L16.28,4.89 L16.28,6.78 L18.17,6.78 L18.17,3.94 Z M4.94,4.89 L6.83,4.89 L6.83,3 L3.99999804,3 C3.74047377,2.9834001 3.48566705,3.07505767 3.29618264,3.25317302 C3.10669822,3.43128837 2.99946966,3.67994396 2.99999804,3.94 L2.99999804,6.78 L4.94,6.78 L4.94,4.89 Z M3.05,8.67 L4.94,8.67 L4.94,12.45 L3.05,12.45 L3.05,8.67 Z M16.28,8.67 L18.17,8.67 L18.17,11.5 L16.28,11.5 L16.28,8.67 Z M8.72,3 L12.5,3 L12.5,4.89 L8.72,4.89 L8.72,3 Z M8.72,16.22 L11.55,16.22 L11.55,18.11 L8.72,18.11 L8.72,16.22 Z"></path>
            </g>
        </g>
    </g>
</svg>