<svg width="14" height="14" viewBox="-2 -1 20 20" fill="none" xmlns="http://www.w3.org/2000/svg">
<path d="M10.8042 7.19517C10.5436 6.93451 10.1222 6.93451 9.86157 7.19517L8.79891 8.25784C8.30624 8.11117 7.3869 7.77784 6.80424 7.19517C6.22157 6.61251 5.88824 5.69317 5.74157 5.20051L6.80424 4.13784C7.0649 3.87717 7.0649 3.45584 6.80424 3.19517L4.13757 0.528508C3.8769 0.267841 3.45557 0.267841 3.19491 0.528508L1.3869 2.33651C1.13357 2.58984 0.990905 2.93784 0.996238 3.29317C1.01157 4.24251 1.2629 7.53984 3.86157 10.1385C6.46024 12.7372 9.75757 12.9878 10.7076 13.0038C10.7109 13.0038 10.7229 13.0038 10.7262 13.0038C11.0782 13.0038 11.4109 12.8652 11.6629 12.6132L13.4709 10.8052C13.7316 10.5445 13.7316 10.1232 13.4709 9.86251L10.8042 7.19517ZM10.7196 11.6698C9.88757 11.6558 7.0409 11.4325 4.80424 9.19518C2.56024 6.95117 2.3429 4.09451 2.32957 3.27917L3.66624 1.94251L5.39024 3.66651L4.52824 4.52851C4.36891 4.68717 4.3009 4.91651 4.3469 5.13651C4.3629 5.21317 4.75424 7.03117 5.8609 8.13784C6.96757 9.24451 8.78557 9.63584 8.86224 9.65184C9.08424 9.69917 9.31157 9.63051 9.47024 9.47117L10.3329 8.60917L12.0569 10.3332L10.7196 11.6698Z" fill="#FF0000"/>
</svg>
