<svg width="55" height="56" viewBox="0 0 55 56" fill="none" xmlns="http://www.w3.org/2000/svg">
<path id="shape" fill-rule="evenodd" clip-rule="evenodd" d="M54.0477 20.689C51.4304 10.7109 43.601 3.02211 33.702 0.708961C23.8031 -1.60418 13.4576 1.83753 6.81815 9.65263C0.550317 16.9211 -1.56549 26.9727 1.22739 36.2127C4.02027 45.4527 11.3229 52.5615 20.5238 54.9967C22.8617 55.6615 25.2779 55.9991 27.7055 56H28.0893C30.9278 55.9578 33.5442 54.43 35.0105 51.9585C36.4768 49.487 36.5857 46.4213 35.2984 43.8488L34.7502 42.7061C33.9288 40.9966 34.0218 38.9791 34.9969 37.3551C36.4744 34.9125 39.5338 34.0083 42.069 35.2649L43.1928 35.8223C44.3085 36.3528 45.5247 36.6286 46.7563 36.6305C51.2979 36.6305 54.9797 32.8872 54.9797 28.2696C54.9993 25.712 54.686 23.163 54.0477 20.689ZM45.5776 30.7779L44.4263 30.2484C39.3783 27.8478 33.3621 29.6244 30.3644 34.401C28.3445 37.6224 28.1363 41.6856 29.8162 45.1029L30.337 46.2735C30.7849 47.1605 30.7327 48.2233 30.1999 49.0604C29.7098 49.8793 28.8401 50.3845 27.8974 50.3982H27.5959C15.4848 50.3982 5.66688 40.416 5.66688 28.1024C5.66688 15.7888 15.4848 5.80661 27.5959 5.80661C28.6325 5.79856 29.6681 5.87311 30.6933 6.02957C39.3434 7.32046 46.4281 13.682 48.7573 22.2498C49.2819 24.2589 49.5401 26.3303 49.5248 28.409C49.481 29.347 48.9756 30.1994 48.1802 30.6768C47.3848 31.1541 46.4065 31.1921 45.5776 30.7779ZM19.3725 34.9584C19.3725 37.2672 17.5316 39.1388 15.2608 39.1388C12.99 39.1388 11.1491 37.2672 11.1491 34.9584C11.1491 32.6495 12.99 30.7779 15.2608 30.7779C16.3513 30.7779 17.3971 31.2183 18.1682 32.0023C18.9393 32.7863 19.3725 33.8496 19.3725 34.9584ZM19.3725 23.8105C19.3725 26.1193 17.5316 27.9909 15.2608 27.9909C12.99 27.9909 11.1491 26.1193 11.1491 23.8105C11.1491 21.5017 12.99 19.63 15.2608 19.63C16.3513 19.63 17.3971 20.0704 18.1682 20.8544C18.9393 21.6384 19.3725 22.7017 19.3725 23.8105ZM27.5959 15.4495C27.5959 17.7583 25.755 19.63 23.4842 19.63C21.2134 19.63 19.3725 17.7583 19.3725 15.4495C19.3725 13.1407 21.2134 11.2691 23.4842 11.2691C24.5747 11.2691 25.6205 11.7095 26.3916 12.4935C27.1627 13.2775 27.5959 14.3408 27.5959 15.4495ZM38.5603 15.4495C38.5603 17.7583 36.7195 19.63 34.4487 19.63C32.1778 19.63 30.337 17.7583 30.337 15.4495C30.337 13.1407 32.1778 11.2691 34.4487 11.2691C35.5392 11.2691 36.585 11.7095 37.3561 12.4935C38.1272 13.2775 38.5603 14.3408 38.5603 15.4495Z" fill="#ADB5BD"/>
</svg>
