<svg width="21" height="20" viewBox="0 0 21 20" fill="none" xmlns="http://www.w3.org/2000/svg">
<path d="M1.50002 3.86222C0.756978 3.57034 0.230957 2.8466 0.230957 2C0.230957 0.895431 1.12639 0 2.23096 0C2.97124 0 3.61758 0.402199 3.96339 1H11.75C11.8881 1 12 1.11193 12 1.25V2.25C12 2.38807 11.8881 2.5 11.75 2.5H4.16795C4.01085 3.11036 3.57287 3.60796 3.00002 3.84679V16.1532C3.57287 16.392 4.01085 16.8896 4.16795 17.5H16.563C16.7439 16.7972 17.2972 16.2439 18 16.063V8.75C18 8.61193 18.1119 8.5 18.25 8.5H19.25C19.3881 8.5 19.5 8.61193 19.5 8.75V16.2676C20.0978 16.6134 20.5 17.2597 20.5 18C20.5 19.1046 19.6046 20 18.5 20C17.7597 20 17.1134 19.5978 16.7676 19H3.96339C3.61758 19.5978 2.97124 20 2.23096 20C1.12639 20 0.230957 19.1046 0.230957 18C0.230957 17.1534 0.756978 16.4297 1.50002 16.1378V3.86222Z" fill="#868E96"/>
<path d="M18.8157 3.25543C18.7181 3.1578 18.7181 2.99951 18.8157 2.90188L20.5837 1.13388C20.6814 1.03625 20.6814 0.877961 20.5837 0.78033L19.8766 0.0732233C19.779 -0.0244078 19.6207 -0.0244078 19.5231 0.0732233L17.7551 1.84122C17.6574 1.93885 17.4991 1.93885 17.4015 1.84122L15.6339 0.0735983C15.5363 -0.0240328 15.378 -0.0240327 15.2803 0.0735983L14.5732 0.780705C14.4756 0.878336 14.4756 1.03663 14.5732 1.13426L16.3409 2.90188C16.4385 2.99951 16.4385 3.1578 16.3409 3.25543L14.5733 5.02297C14.4757 5.1206 14.4757 5.27889 14.5733 5.37652L15.2804 6.08363C15.3781 6.18126 15.5363 6.18126 15.634 6.08363L17.4015 4.31609C17.4991 4.21846 17.6574 4.21846 17.7551 4.31609L19.523 6.08401C19.6206 6.18164 19.7789 6.18164 19.8765 6.08401L20.5836 5.3769C20.6813 5.27927 20.6813 5.12098 20.5836 5.02335L18.8157 3.25543Z" fill="#868E96"/>
<path fill-rule="evenodd" clip-rule="evenodd" d="M8.50002 4.5C6.56702 4.5 5.00002 6.067 5.00002 8C5.00002 9.933 6.56702 11.5 8.50002 11.5C8.66978 11.5 8.83671 11.4879 9.00002 11.4646V14.5C9.00002 15.0523 9.44773 15.5 10 15.5H15C15.5523 15.5 16 15.0523 16 14.5V9.5C16 8.94772 15.5523 8.5 15 8.5H11.9646C11.9879 8.3367 12 8.16976 12 8C12 6.067 10.433 4.5 8.50002 4.5ZM10.5 10H14.5V14H10.5V10Z" fill="#868E96"/>
</svg>
